<svg xmlns="http://www.w3.org/2000/svg" width="25.4mm" height="128.4993mm" viewBox="0 0 72 364.25"><title>TTSAWPLUS</title><rect width="72" height="364.25" style="fill:#0c2d32"/><rect x="28.8" y="3.6875" width="14.4" height="9.1667" rx="4.5833" ry="4.5833" style="fill:#ef464c"/><path d="M33.2909,6.88H31.9741V5.6548h4V6.88H34.657v4.0067H33.2909Z" style="fill:#fff"/><path d="M38.7091,9.6616h1.3168v1.2253h-4V9.6616H37.343V5.6548h1.3661Z" style="fill:#fff"/><rect x="5.6693" y="307.0117" width="61.8" height="40.2324" rx="4.387" ry="4.387" style="fill:#061c1e"/><path d="M26.3535,358.0668v-1.0781q.7.063,1.6035.0635a1.2855,1.2855,0,0,0,.5254-.0811.2831.2831,0,0,0,.168-.2764v-.084a.27.27,0,0,0-.1055-.2275.4138.4138,0,0,0-.26-.08h-.3711a1.8134,1.8134,0,0,1-1.2422-.3682,1.5248,1.5248,0,0,1-.4092-1.1865v-.23a1.4194,1.4194,0,0,1,.4551-1.1484,2.0214,2.0214,0,0,1,1.3369-.3848,7.004,7.004,0,0,1,1.624.2031v1.0781q-.7837-.063-1.4561-.0635a1.2084,1.2084,0,0,0-.5039.0811.3062.3062,0,0,0-.168.3037v.07q0,.3574.4551.3574h.4619a1.4491,1.4491,0,0,1,1.0889.3916,1.4049,1.4049,0,0,1,.3809,1.0225v.23a1.866,1.866,0,0,1-.2236.998,1.1263,1.1263,0,0,1-.6338.4824,3.546,3.546,0,0,1-1.0527.13A6.5846,6.5846,0,0,1,26.3535,358.0668Z" style="fill:#b6bfbf"/><path d="M31.7646,353.0268H33.459l1.5391,5.2012H33.5918l-.2109-.8262H31.82l-.2031.8262H30.2246Zm1.3018,3.1572-.4687-2.002-.4629,2.002Z" style="fill:#b6bfbf"/><path d="M34.8242,353.0268H36.23l.6445,3.1641.7764-3.1641h1.2178l.7705,3.1641.6436-3.1641H41.69L40.5,358.228H39.1426l-.8818-3.1787-.89,3.1787H36.0137Z" style="fill:#b6bfbf"/><path d="M45.4219,356.2748H44.3926v1.0293H43.3145v-1.0293H42.2852v-1.0781h1.0293v-1.0293h1.0781v1.0293h1.0293Z" style="fill:#b6bfbf"/><path d="M27.7822,24.185a1.0547,1.0547,0,0,1,.3223-.8608,1.1789,1.1789,0,0,1,.7764-.2661q1.38,0,2.2266.0771v.7207H29.1328a.4929.4929,0,0,0-.3594.126.4737.4737,0,0,0-.13.3574v1.043l2.1494.0488V26.11l-2.1494.0488v2.0649h-.8613Z" style="fill:#b6bfbf"/><path d="M31.8213,23.058h2.1006a1.5054,1.5054,0,0,1,1.043.3467,1.65,1.65,0,0,1,.3848,1.2563,1.645,1.645,0,0,1-.2422,1.001,1.3019,1.3019,0,0,1-.6328.4482l.9941,2.1138h-.875l-.8965-1.9878q-.4277,0-1.0146-.0142v2.002h-.8613Zm1.9531,2.4849a.691.691,0,0,0,.5215-.1924.99.99,0,0,0,.1855-.6895.8836.8836,0,0,0-.1855-.6509.7314.7314,0,0,0-.5215-.1753H32.6826v1.708Z" style="fill:#b6bfbf"/><path d="M36.5146,28.0419a.9483.9483,0,0,1-.3535-.875V24.185a1.0547,1.0547,0,0,1,.3223-.8608,1.1789,1.1789,0,0,1,.7764-.2661c.4395,0,.8164.0068,1.1348.021.3164.0142.6816.0327,1.0918.0562v.7207H37.5332a.5374.5374,0,0,0-.3779.1226.4753.4753,0,0,0-.1328.3677v.917l2.1494.0488v.6792l-2.1494.0488v.8892a.4518.4518,0,0,0,.5039.5181h1.96v.7207q-.8818.0776-2.1279.0913A1.5768,1.5768,0,0,1,36.5146,28.0419Z" style="fill:#b6bfbf"/><path d="M41.0752,28.0663a1.3169,1.3169,0,0,1-.665-.7627,4.6952,4.6952,0,0,1-.2236-1.6484,4.6829,4.6829,0,0,1,.2275-1.6592,1.3631,1.3631,0,0,1,.668-.78,2.8289,2.8289,0,0,1,1.1836-.2065,2.8721,2.8721,0,0,1,1.1934.2065,1.3381,1.3381,0,0,1,.668.7769,4.7345,4.7345,0,0,1,.2246,1.6626,4.6132,4.6132,0,0,1-.2275,1.6484,1.3335,1.3335,0,0,1-.665.7627,3.6566,3.6566,0,0,1-2.3838,0Zm1.9287-.7173a.8232.8232,0,0,0,.3672-.5283,4.5308,4.5308,0,0,0,.1123-1.1655,4.65,4.65,0,0,0-.1152-1.2041A.82.82,0,0,0,43,23.9189a1.6143,1.6143,0,0,0-.7344-.1328,1.5352,1.5352,0,0,0-.7207.1367.84.84,0,0,0-.3711.5317,4.45,4.45,0,0,0-.1191,1.2007,4.6054,4.6054,0,0,0,.1084,1.1689.8136.8136,0,0,0,.36.5249,2.0251,2.0251,0,0,0,1.48,0ZM42.542,29.26a1.0229,1.0229,0,0,1-.417-.7842h.6025a.499.499,0,0,0,.2373.3223.8182.8182,0,0,0,.4141.105,1.93,1.93,0,0,0,.4063-.063v.6436a1.6682,1.6682,0,0,1-.3711.0493A1.4413,1.4413,0,0,1,42.542,29.26Z" style="fill:#b6bfbf"/><path d="M12.875,107.9a1.0547,1.0547,0,0,1,.3223-.8608,1.1789,1.1789,0,0,1,.7764-.2661q1.38,0,2.2266.0771v.7207H14.2256a.4953.4953,0,0,0-.36.126.477.477,0,0,0-.1289.3574v1.043l2.1484.0488v.6792l-2.1484.0488v2.0649H12.875Z" style="fill:#b6bfbf"/><path d="M16.9141,106.7729h.8613v5.166h-.8613Z" style="fill:#b6bfbf"/><path d="M18.7969,106.7729h.6924l2.3525,3.689v-3.689H22.71v5.166h-.6934L19.665,108.25v3.689h-.8682Z" style="fill:#b6bfbf"/><path d="M23.9727,111.7568a.9483.9483,0,0,1-.3535-.875V107.9a1.0547,1.0547,0,0,1,.3223-.8608,1.1815,1.1815,0,0,1,.7773-.2661q.6577,0,1.1338.021t1.0918.0562v.7207H24.9912a.539.539,0,0,0-.3779.1226.4753.4753,0,0,0-.1328.3677v.917l2.1494.0488v.6792l-2.1494.0488v.8892a.4518.4518,0,0,0,.5039.5181h1.96v.7207q-.8818.0776-2.1279.0913A1.5816,1.5816,0,0,1,23.9727,111.7568Z" style="fill:#b6bfbf"/><line x1="52.8337" y1="125.0428" x2="19.5264" y2="125.0428" style="fill:#ef464c;stroke:#ef464c;stroke-miterlimit:10;stroke-width:2px"/><path d="M6.9492,147.9282H9.085a1.4685,1.4685,0,0,1,1.3613.6582,3.7386,3.7386,0,0,1,.4023,1.9248,3.46,3.46,0,0,1-.4414,1.9321,1.49,1.49,0,0,1-1.3223.6509H6.9492Zm2.0518,4.3892a.7907.7907,0,0,0,.749-.4585,3.0165,3.0165,0,0,0,.2373-1.3477,4.46,4.46,0,0,0-.1045-1.0918.9924.9924,0,0,0-.3184-.5532.9141.9141,0,0,0-.5635-.1611h-1.19v3.6123Z" style="fill:#b6bfbf"/><path d="M12.0352,152.912a.9461.9461,0,0,1-.3535-.875v-2.9819a1.0547,1.0547,0,0,1,.3223-.8608,1.1789,1.1789,0,0,1,.7764-.2661q.6577,0,1.1338.021t1.0928.0562v.7207H13.0537a.5357.5357,0,0,0-.3779.1226.4753.4753,0,0,0-.1328.3677v.917l2.1484.0488v.6792l-2.1484.0488v.8892a.4518.4518,0,0,0,.5039.5181h1.96v.7207q-.8818.0776-2.1279.0913A1.5768,1.5768,0,0,1,12.0352,152.912Z" style="fill:#b6bfbf"/><path d="M16.9531,148.705H15.4688v-.7769h3.8291v.7769H17.82v4.3892h-.8672Z" style="fill:#b6bfbf"/><path d="M20.33,152.7617a1.5162,1.5162,0,0,1-.5078-1.3125v-3.521h.8613v3.521a.8058.8058,0,0,0,.28.6963,1.7831,1.7831,0,0,0,1.666,0,.808.808,0,0,0,.2793-.6963v-3.521h.8613v3.521a1.5162,1.5162,0,0,1-.5078,1.3125,2.4757,2.4757,0,0,1-1.4658.3677A2.477,2.477,0,0,1,20.33,152.7617Z" style="fill:#b6bfbf"/><path d="M24.7227,147.9282h.6924l2.3525,3.689v-3.689h.8682v5.166h-.6934l-2.3516-3.689v3.689h-.8682Z" style="fill:#b6bfbf"/><path d="M29.8984,152.912a.9483.9483,0,0,1-.3535-.875v-2.9819a1.0547,1.0547,0,0,1,.3223-.8608,1.1815,1.1815,0,0,1,.7773-.2661q.6577,0,1.1338.021t1.0918.0562v.7207H30.917a.539.539,0,0,0-.3779.1226.4753.4753,0,0,0-.1328.3677v.917l2.1494.0488v.6792l-2.1494.0488v.8892a.4518.4518,0,0,0,.5039.5181h1.96v.7207q-.8818.0776-2.1279.0913A1.5816,1.5816,0,0,1,29.8984,152.912Z" style="fill:#b6bfbf"/><line x1="52.8337" y1="166.1977" x2="19.5264" y2="166.1977" style="fill:#ef464c;stroke:#ef464c;stroke-miterlimit:10;stroke-width:2px"/><path d="M30.9619,317.5541a1.3138,1.3138,0,0,1-.6641-.7627,6.1622,6.1622,0,0,1,.0029-3.3076,1.36,1.36,0,0,1,.6689-.78,2.82,2.82,0,0,1,1.1826-.207,2.8682,2.8682,0,0,1,1.1934.207,1.3432,1.3432,0,0,1,.6689.7764,4.7643,4.7643,0,0,1,.2236,1.6631,4.6168,4.6168,0,0,1-.2275,1.6484,1.3317,1.3317,0,0,1-.665.7627,3.6651,3.6651,0,0,1-2.3838,0Zm1.9287-.7178a.8229.8229,0,0,0,.3682-.5283,4.5352,4.5352,0,0,0,.1113-1.165,4.6448,4.6448,0,0,0-.1152-1.2041.8174.8174,0,0,0-.3672-.5322,1.6124,1.6124,0,0,0-.7354-.1328,1.5291,1.5291,0,0,0-.7207.1367.8385.8385,0,0,0-.3711.5313,4.4916,4.4916,0,0,0-.1191,1.2012,4.6513,4.6513,0,0,0,.1084,1.1689.8112.8112,0,0,0,.36.5244,2.0186,2.0186,0,0,0,1.48,0Z" style="fill:#b6bfbf"/><path d="M35.5088,317.3793a1.5162,1.5162,0,0,1-.5078-1.3125v-3.5215h.8613v3.5215a.807.807,0,0,0,.28.6963,1.7868,1.7868,0,0,0,1.666,0,.8092.8092,0,0,0,.2793-.6963v-3.5215h.8613v3.5215a1.5162,1.5162,0,0,1-.5078,1.3125,3.1113,3.1113,0,0,1-2.9326,0Z" style="fill:#b6bfbf"/><path d="M40.958,313.3227H39.4736v-.7773h3.8291v.7773H41.8262v4.3887H40.958Z" style="fill:#b6bfbf"/><path d="M10.6621,189.86H9.1777v-.7764h3.83v.7764H11.53v4.39h-.8682Z" style="fill:#b6bfbf"/><path d="M13.6016,189.0834h.8613v2.2324h2.1777v-2.2324h.8672v5.166h-.8672v-2.1562H14.4629v2.1563h-.8613Z" style="fill:#b6bfbf"/><path d="M18.8281,194.0668a.9456.9456,0,0,1-.3535-.875V190.21a1.0564,1.0564,0,0,1,.3223-.8613,1.1793,1.1793,0,0,1,.7764-.2656q.6577,0,1.1338.0205t1.0918.0566v.7207H19.8457a.5369.5369,0,0,0-.377.1221.4722.4722,0,0,0-.1328.3682v.917l2.1484.0488v.6787l-2.1484.0488v.89a.4517.4517,0,0,0,.5039.5176h1.959v.7207q-.8818.0776-2.127.0918A1.5726,1.5726,0,0,1,18.8281,194.0668Z" style="fill:#b6bfbf"/><path d="M23.7461,189.86H22.2617v-.7764H26.09v.7764H24.6133v4.39h-.8672Z" style="fill:#b6bfbf"/><path d="M27.6934,189.0834h1.0918l1.68,5.166h-.9023l-.3984-1.2256H27.2949l-.3926,1.2256h-.8887Zm1.26,3.1641-.7275-2.4219-.7275,2.4219Z" style="fill:#b6bfbf"/><line x1="52.8337" y1="207.3527" x2="19.5264" y2="207.3527" style="fill:#ef464c;stroke:#ef464c;stroke-miterlimit:10;stroke-width:2px"/><line x1="9.3118" y1="96.526" x2="63.8268" y2="96.526" style="fill:none;stroke:#061c1e;stroke-miterlimit:10"/><line x1="8.7425" y1="229.8365" x2="63.2575" y2="229.8365" style="fill:none;stroke:#061c1e;stroke-miterlimit:10"/><path d="M17.4961,240.6088h.8613v2.2324h2.1768v-2.2324h.8682v5.166h-.8682v-2.1562H18.3574v2.1563h-.8613Z" style="fill:#b6bfbf"/><path d="M23.7266,240.6088h1.0918l1.68,5.166h-.9023l-.3994-1.2256H23.3271l-.3916,1.2256h-.8887Zm1.26,3.1641-.7285-2.4219-.7275,2.4219Z" style="fill:#b6bfbf"/><path d="M27.1348,240.6088h2.1006a1.5,1.5,0,0,1,1.043.3467,2.2163,2.2163,0,0,1,.1436,2.2568,1.3109,1.3109,0,0,1-.6328.4482l.9932,2.1143h-.875l-.8955-1.9883c-.2852,0-.623-.0049-1.0156-.0137v2.002h-.8613Zm1.9531,2.4844a.6862.6862,0,0,0,.5215-.1924.9882.9882,0,0,0,.1855-.6895.8815.8815,0,0,0-.1855-.65.7262.7262,0,0,0-.5215-.1758H27.9961v1.708Z" style="fill:#b6bfbf"/><path d="M31.4746,240.6088H33.61a1.4665,1.4665,0,0,1,1.3613.6582,3.7287,3.7287,0,0,1,.4023,1.9248,3.4672,3.4672,0,0,1-.44,1.9316,1.4921,1.4921,0,0,1-1.3232.6514H31.4746Zm2.0518,4.3887a.7884.7884,0,0,0,.749-.458,3.0147,3.0147,0,0,0,.2383-1.3477,4.4014,4.4014,0,0,0-.1055-1.0918.9884.9884,0,0,0-.3184-.5537.9121.9121,0,0,0-.5635-.1611h-1.19v3.6123Z" style="fill:#b6bfbf"/><path d="M38.7266,245.7748a5.773,5.773,0,0,1-.7627-.1123v-.6787c.4209.0371.94.0557,1.5615.0557a1.5107,1.5107,0,0,0,.7109-.1328.5039.5039,0,0,0,.24-.4834v-.2451a.5547.5547,0,0,0-.1533-.42.6374.6374,0,0,0-.4551-.1465h-.4834a1.6269,1.6269,0,0,1-1.1016-.3223,1.3174,1.3174,0,0,1-.3682-1.043v-.2656a1.3263,1.3263,0,0,1,.4063-1.0713,1.8257,1.8257,0,0,1,1.2041-.3428,7.18,7.18,0,0,1,.7949.0488c.2861.0322.5322.07.7383.1123v.6787q-.9463-.063-1.4355-.0635a1.23,1.23,0,0,0-.6621.1436.5853.5853,0,0,0-.22.5293v.1748a.5583.5583,0,0,0,.1709.4551.8208.8208,0,0,0,.5215.14h.5391a1.309,1.309,0,0,1,.99.3535,1.2909,1.2909,0,0,1,.34.9346v.3291a1.2467,1.2467,0,0,1-.4473,1.1094,2.2861,2.2861,0,0,1-1.2891.3047C39.3145,245.8168,39.0352,245.8022,38.7266,245.7748Z" style="fill:#b6bfbf"/><path d="M43.4023,244.1577l-1.582-3.5488h.8965l1.1348,2.667,1.1328-2.667h.875l-1.5879,3.5488v1.6172h-.8691Z" style="fill:#b6bfbf"/><path d="M46.5605,240.6088h.6924l2.3525,3.6885v-3.6885h.8672v5.166h-.6934l-2.3516-3.6895v3.6895h-.8672Z" style="fill:#b6bfbf"/><path d="M52.0547,245.61a1.3336,1.3336,0,0,1-.5977-.78,5.1106,5.1106,0,0,1-.207-1.6592,4.8208,4.8208,0,0,1,.21-1.6,1.3966,1.3966,0,0,1,.6162-.791,2.1955,2.1955,0,0,1,1.05-.22,5.337,5.337,0,0,1,.8428.0664,5.3908,5.3908,0,0,1,.7246.1572v.665a5.8987,5.8987,0,0,0-.5977-.0771q-.39-.0352-.7949-.0352a1.4381,1.4381,0,0,0-.7109.1436.8508.8508,0,0,0-.3594.5361,4.5136,4.5136,0,0,0-.1133,1.1689,4.83,4.83,0,0,0,.1055,1.1689.856.856,0,0,0,.35.5391,1.4314,1.4314,0,0,0,.7217.1465,11.0682,11.0682,0,0,0,1.3994-.0771v.665a5.666,5.666,0,0,1-1.5879.1895A2.2645,2.2645,0,0,1,52.0547,245.61Z" style="fill:#b6bfbf"/><path d="M10.82,256.7768a1.2412,1.2412,0,0,1-.6162-.7422,6.6243,6.6243,0,0,1,.0039-3.3242,1.3067,1.3067,0,0,1,.626-.7705,2.5747,2.5747,0,0,1,1.1064-.1992,2.6129,2.6129,0,0,1,1.124.1992,1.2866,1.2866,0,0,1,.6152.7666,5.1544,5.1544,0,0,1,.207,1.6729,4.9532,4.9532,0,0,1-.21,1.6553,1.2412,1.2412,0,0,1-.6162.7422,2.747,2.747,0,0,1-1.12.1855A2.747,2.747,0,0,1,10.82,256.7768Zm2.0332-.3389a1.0108,1.0108,0,0,0,.4727-.6338,4.92,4.92,0,0,0,.1543-1.4248,5.2316,5.2316,0,0,0-.1543-1.4766,1,1,0,0,0-.4727-.6406,2.1045,2.1045,0,0,0-.9131-.1572,2.0292,2.0292,0,0,0-.8857.1572,1.0559,1.0559,0,0,0-.4863.6475,4.8153,4.8153,0,0,0-.168,1.47,5.2561,5.2561,0,0,0,.1436,1.4287.9788.9788,0,0,0,.4619.63,2.1335,2.1335,0,0,0,.9346.1611A2.0692,2.0692,0,0,0,12.8535,256.4379Z" style="fill:#b6bfbf"/><path d="M14.7266,256.5844l1.96-1.8623a3.2738,3.2738,0,0,0,.6582-.8115,1.7951,1.7951,0,0,0,.1885-.84.91.91,0,0,0-.27-.7041,1.418,1.418,0,0,0-.9551-.248H14.93v-.3008q.91-.0776,1.47-.0771a1.6827,1.6827,0,0,1,1.1826.34,1.2534,1.2534,0,0,1,.3574.9551,2.1013,2.1013,0,0,1-.2168.9658,3.4975,3.4975,0,0,1-.7354.917l-1.7012,1.624h2.85v.3779H14.7266Z" style="fill:#b6bfbf"/><path d="M18.6748,254.7153h3.3105v.3574H18.6748Z" style="fill:#b6bfbf"/><path d="M20.7393,256.22l1.2461-1.2246-1.2812-1.2529.2383-.2236,1.49,1.4766-1.4766,1.4561Z" style="fill:#b6bfbf"/><path d="M24.1133,256.7768a1.2347,1.2347,0,0,1-.6162-.7422,4.9532,4.9532,0,0,1-.21-1.6553A5.0231,5.0231,0,0,1,23.5,252.71a1.3079,1.3079,0,0,1,.627-.7705,2.5717,2.5717,0,0,1,1.1064-.1992,2.6081,2.6081,0,0,1,1.123.1992,1.2844,1.2844,0,0,1,.6162.7666,5.1591,5.1591,0,0,1,.2061,1.6729,4.9278,4.9278,0,0,1-.21,1.6553,1.2347,1.2347,0,0,1-.6162.7422,3.4708,3.4708,0,0,1-2.2393,0Zm2.0332-.3389a1.0141,1.0141,0,0,0,.4727-.6338,4.9264,4.9264,0,0,0,.1533-1.4248,5.2389,5.2389,0,0,0-.1533-1.4766,1.0033,1.0033,0,0,0-.4727-.6406,2.1075,2.1075,0,0,0-.9131-.1572,2.0234,2.0234,0,0,0-.8857.1572,1.049,1.049,0,0,0-.4863.6475,4.8153,4.8153,0,0,0-.168,1.47,5.2561,5.2561,0,0,0,.1436,1.4287.9725.9725,0,0,0,.4619.63,2.1305,2.1305,0,0,0,.9346.1611A2.0721,2.0721,0,0,0,26.1465,256.4379Z" style="fill:#b6bfbf"/><path d="M29.0615,252.14l-1.1055.3359v-.26l1.1338-.4893h.3779V256.92h-.4062Z" style="fill:#b6bfbf"/><path d="M41.7109,256.7768a1.244,1.244,0,0,1-.6162-.7422,6.6282,6.6282,0,0,1,.0039-3.3252,1.3075,1.3075,0,0,1,.626-.77,2.5735,2.5735,0,0,1,1.1064-.2,2.6115,2.6115,0,0,1,1.124.2,1.2866,1.2866,0,0,1,.6152.7666,5.1544,5.1544,0,0,1,.207,1.6729,4.9611,4.9611,0,0,1-.21,1.6553,1.244,1.244,0,0,1-.6162.7422,3.4738,3.4738,0,0,1-2.24,0Zm2.0332-.34a1.0108,1.0108,0,0,0,.4727-.6338,4.9076,4.9076,0,0,0,.1543-1.4238,5.2348,5.2348,0,0,0-.1543-1.4775,1.0053,1.0053,0,0,0-.4727-.6406,2.1192,2.1192,0,0,0-.9131-.1572,2.0436,2.0436,0,0,0-.8857.1572,1.0587,1.0587,0,0,0-.4863.6475,4.8224,4.8224,0,0,0-.168,1.4707,5.2431,5.2431,0,0,0,.1436,1.4277.9788.9788,0,0,0,.4619.63,2.1335,2.1335,0,0,0,.9346.1611A2.0692,2.0692,0,0,0,43.7441,256.4369Z" style="fill:#b6bfbf"/><path d="M45.5332,256.892v-.3076H47.248a1.5107,1.5107,0,0,0,.8154-.1895.7487.7487,0,0,0,.2979-.6855v-.3779a.6822.6822,0,0,0-.28-.6094,1.2711,1.2711,0,0,0-.6787-.2031l-1.3369-.0488v-.2871l1.3223-.0488q.9038-.0352.9033-.7422v-.3984a.79.79,0,0,0-.28-.6484,1.2614,1.2614,0,0,0-.8115-.2266h-1.47V251.81a14.5863,14.5863,0,0,1,1.6162-.07,1.4081,1.4081,0,0,1,1.0088.3223,1.1474,1.1474,0,0,1,.3359.8682v.4551a.8447.8447,0,0,1-.249.668,1.0666,1.0666,0,0,1-.5215.27,1.2264,1.2264,0,0,1,.375.1543,1.0392,1.0392,0,0,1,.3428.3467,1.0088,1.0088,0,0,1,.1436.55v.3916a1.0931,1.0931,0,0,1-.3682.8887,1.58,1.58,0,0,1-1.0459.3086Q46.2817,256.9623,45.5332,256.892Z" style="fill:#b6bfbf"/><path d="M49.5088,254.7153H52.82v.3564H49.5088Z" style="fill:#b6bfbf"/><path d="M51.5742,256.22l1.2461-1.2246-1.2812-1.2539.2383-.2236,1.49,1.4775-1.4766,1.4551Z" style="fill:#b6bfbf"/><path d="M54.9482,256.7768a1.2376,1.2376,0,0,1-.6162-.7422,4.9611,4.9611,0,0,1-.21-1.6553,5.0336,5.0336,0,0,1,.2129-1.67,1.3087,1.3087,0,0,1,.627-.77,2.57,2.57,0,0,1,1.1064-.2,2.6067,2.6067,0,0,1,1.123.2,1.2844,1.2844,0,0,1,.6162.7666,5.1591,5.1591,0,0,1,.2061,1.6729,4.9356,4.9356,0,0,1-.21,1.6553,1.2376,1.2376,0,0,1-.6162.7422,3.4708,3.4708,0,0,1-2.2393,0Zm2.0332-.34a1.0141,1.0141,0,0,0,.4727-.6338,4.9143,4.9143,0,0,0,.1533-1.4238,5.2421,5.2421,0,0,0-.1533-1.4775,1.0085,1.0085,0,0,0-.4727-.6406,2.1221,2.1221,0,0,0-.9131-.1572,2.0377,2.0377,0,0,0-.8857.1572,1.0518,1.0518,0,0,0-.4863.6475,4.8224,4.8224,0,0,0-.168,1.4707,5.2431,5.2431,0,0,0,.1436,1.4277.9725.9725,0,0,0,.4619.63,2.1305,2.1305,0,0,0,.9346.1611A2.0721,2.0721,0,0,0,56.9814,256.4369Z" style="fill:#b6bfbf"/><path d="M58.8535,256.5844l1.96-1.8623a3.3094,3.3094,0,0,0,.6582-.8115,1.8023,1.8023,0,0,0,.1895-.8408.91.91,0,0,0-.27-.7031,1.4139,1.4139,0,0,0-.9561-.248H59.0566v-.3018q.91-.0762,1.47-.0771a1.6871,1.6871,0,0,1,1.1836.34,1.2552,1.2552,0,0,1,.3564.9561,2.1042,2.1042,0,0,1-.2168.9658,3.5436,3.5436,0,0,1-.7344.917l-1.7012,1.624h2.8486v.3779H58.8535Z" style="fill:#b6bfbf"/><line x1="36" y1="63.7891" x2="36" y2="59.6692" style="fill:#ef464c;stroke:#ef464c;stroke-miterlimit:10;stroke-width:2px"/></svg>