<svg xmlns="http://www.w3.org/2000/svg" width="60.96mm" height="128.49931mm" viewBox="0 0 172.8 364.25">
  <title>NW</title>
  <path d="M24.5957,21.44037H25.688l1.67969,5.166h-.90283l-.39893-1.2251H24.19678l-.39209,1.2251H22.916ZM25.856,24.60444l-.728-2.42187-.728,2.42188Z" style="fill: #afafaf"/>
  <path d="M146.41943,26.42426a.94721.94721,0,0,1-.35352-.875V22.56733a1.05468,1.05468,0,0,1,.32227-.86084,1.18021,1.18021,0,0,1,.77686-.26611q.65771,0,1.13379.021.47607.02124,1.09229.05615v.7207H147.438a.53736.53736,0,0,0-.37793.12256.4753.4753,0,0,0-.13281.36768v.917l2.14893.04883v.6792l-2.14893.04883v.88916a.45182.45182,0,0,0,.50391.51807h1.96v.7207q-.88184.07764-2.12793.09131A1.57919,1.57919,0,0,1,146.41943,26.42426Z" style="fill: #afafaf"/>
  <path d="M54.08545,21.44037h1.97412q1.42822,0,1.42773,1.34424a1.3246,1.3246,0,0,1-.19922.75244.88447.88447,0,0,1-.52832.38135,1.18278,1.18278,0,0,1,.6333.40234,1.29189,1.29189,0,0,1,.2627.85742,1.3912,1.3912,0,0,1-.37842,1.09912,1.68421,1.68421,0,0,1-1.13379.3291H54.08545Zm1.98828,2.18408a.52442.52442,0,0,0,.42676-.19629.79975.79975,0,0,0,.16113-.5249q0-.68555-.60889-.686h-1.106v1.40723Zm.042,2.20508a.71291.71291,0,0,0,.53174-.18555.85366.85366,0,0,0,.18213-.61279.71882.71882,0,0,0-.19971-.53857.70147.70147,0,0,0-.51416-.19629H54.94678v1.5332Z" style="fill: #afafaf"/>
  <path d="M115.14795,21.44037h2.13525a1.468,1.468,0,0,1,1.36133.6582,3.73363,3.73363,0,0,1,.40234,1.9248,3.46044,3.46044,0,0,1-.44092,1.93213,1.49086,1.49086,0,0,1-1.32275.65088h-2.13525Zm2.05127,4.38916a.78975.78975,0,0,0,.749-.4585,3.01562,3.01562,0,0,0,.23779-1.34766,4.4317,4.4317,0,0,0-.105-1.0918.98687.98687,0,0,0-.31836-.55322.9131.9131,0,0,0-.56348-.16113h-1.18994v3.6123Z" style="fill: #afafaf"/>
  <path d="M85.51074,26.44184a1.34141,1.34141,0,0,1-.59814-.78027,5.14,5.14,0,0,1-.20654-1.65918,4.80405,4.80405,0,0,1,.21-1.59961,1.39867,1.39867,0,0,1,.61572-.791,2.193,2.193,0,0,1,1.05029-.22021,5.4157,5.4157,0,0,1,.84326.06641,5.52022,5.52022,0,0,1,.72461.15723v.665q-.21021-.04175-.59863-.07666-.38818-.03516-.79443-.03516a1.436,1.436,0,0,0-.71045.14355.85048.85048,0,0,0-.36035.53564,4.54914,4.54914,0,0,0-.1123,1.16895,4.82481,4.82481,0,0,0,.10547,1.16895.84765.84765,0,0,0,.34961.53906,1.42756,1.42756,0,0,0,.72119.147,11.18516,11.18516,0,0,0,1.3999-.07715v.665a5.67756,5.67756,0,0,1-1.58887.189A2.26417,2.26417,0,0,1,85.51074,26.44184Z" style="fill: #afafaf"/>
  <rect width="172.8" height="364.25" style="fill: #1b1b1b"/>
  <g>
    <rect x="79.2" y="3.68848" width="14.4" height="9.16667" rx="4.58333" ry="4.58333" style="fill: #ef464c"/>
    <g>
      <path d="M83.6909,6.88108H82.37408V5.65583h3.99968V6.88108H85.057v4.00672H83.6909Z" style="fill: #fff"/>
      <path d="M89.1091,9.66255h1.31682v1.22525H86.42624V9.66255H87.743V5.65583H89.1091Z" style="fill: #fff"/>
    </g>
  </g>
  <rect x="8.15" y="88.25104" width="156.5" height="74.05945" rx="5.66929" ry="5.66929" style="fill: #ef464c"/>
  <rect x="8.15" y="307.76117" width="156.5" height="39.18963" rx="5.66929" ry="5.66929" style="fill: #0a0a0a"/>
  <g>
    <path d="M80.793,317.25922a1.31545,1.31545,0,0,1-.665-.7627,6.17508,6.17508,0,0,1,.00391-3.30762,1.3612,1.3612,0,0,1,.668-.78027,2.82655,2.82655,0,0,1,1.18359-.20605,2.8728,2.8728,0,0,1,1.19336.20605,1.34433,1.34433,0,0,1,.668.77734,4.75449,4.75449,0,0,1,.22461,1.66211,4.60952,4.60952,0,0,1-.22754,1.64844,1.33529,1.33529,0,0,1-.665.7627,3.64816,3.64816,0,0,1-2.38379,0Zm1.92871-.7168a.82447.82447,0,0,0,.36719-.52832,4.53513,4.53513,0,0,0,.1123-1.166,4.6991,4.6991,0,0,0-.11523-1.2041.82082.82082,0,0,0-.36816-.53223,1.62373,1.62373,0,0,0-.73437-.13281,1.543,1.543,0,0,0-.72168.13672.84438.84438,0,0,0-.37109.53223,4.4883,4.4883,0,0,0-.11914,1.2002,4.59619,4.59619,0,0,0,.10938,1.16895.816.816,0,0,0,.36035.52539,2.03169,2.03169,0,0,0,1.48047,0Z" style="fill: #afafaf"/>
    <path d="M85.33887,317.08442a1.51846,1.51846,0,0,1-.50684-1.3125v-3.52051h.86035v3.52051a.80717.80717,0,0,0,.28027.69629,1.77935,1.77935,0,0,0,1.666,0,.80717.80717,0,0,0,.28027-.69629v-3.52051h.86035v3.52051a1.51846,1.51846,0,0,1-.50684,1.3125,3.106,3.106,0,0,1-2.93359,0Z" style="fill: #afafaf"/>
    <path d="M90.78906,313.02778H89.30469v-.77637h3.8291v.77637H91.65625v4.38965h-.86719Z" style="fill: #afafaf"/>
  </g>
  <g>
    <path d="M80.7998,352.767h1.07813l1.82715,2.89844V352.767H85.063v5.20117H83.98486l-1.82666-2.89746v2.89746H80.7998Z" style="fill: #afafaf"/>
    <path d="M85.48291,352.767h1.40674l.644,3.16406.77686-3.16406h1.21826l.77,3.16406.644-3.16406h1.40674l-1.18994,5.20117H89.80176l-.88184-3.17773-.88916,3.17773H86.67285Z" style="fill: #afafaf"/>
  </g>
  <line x1="25.13828" y1="73.01749" x2="25.13828" y2="39.7102" style="fill: #ef464c;stroke: #ef464c;stroke-miterlimit: 10;stroke-width: 2px"/>
  <line x1="147.66172" y1="73.01749" x2="147.66172" y2="39.7102" style="fill: #ef464c;stroke: #ef464c;stroke-miterlimit: 10;stroke-width: 2px"/>
  <line x1="55.76914" y1="73.01749" x2="55.76914" y2="39.7102" style="fill: #ef464c;stroke: #ef464c;stroke-miterlimit: 10;stroke-width: 2px"/>
  <line x1="117.03086" y1="73.01749" x2="117.03086" y2="39.7102" style="fill: #ef464c;stroke: #ef464c;stroke-miterlimit: 10;stroke-width: 2px"/>
  <line x1="86.4" y1="73.01749" x2="86.4" y2="39.7102" style="fill: #ef464c;stroke: #ef464c;stroke-miterlimit: 10;stroke-width: 2px"/>
</svg>
