<svg xmlns="http://www.w3.org/2000/svg" width="30.48mm" height="128.4993mm" viewBox="0 0 86.4 364.25"><title>RX8</title><rect width="86.4" height="364.25" style="fill:#1b1b1b"/><rect x="36" y="3.6885" width="14.4" height="9.1667" rx="4.5833" ry="4.5833" style="fill:#ef464c"/><path d="M40.4909,6.8811H39.1741V5.6558h4V6.8811H41.857v4.0067H40.4909Z" style="fill:#fff"/><path d="M45.9091,9.6626h1.3168v1.2253h-4V9.6626H44.543V5.6558h1.3661Z" style="fill:#fff"/><rect x="4.3354" y="17.1172" width="36.8504" height="46.4934" rx="5.6693" ry="5.6693" style="fill:#ef464c"/><path d="M36.7669,353.0268h2.2192a1.6017,1.6017,0,0,1,1.1548.3955,1.8254,1.8254,0,0,1,.4131,1.3545,1.8581,1.8581,0,0,1-.1855.9209,1.4081,1.4081,0,0,1-.5215.5137l.9033,2.0166H39.3709l-.7275-1.792h-.5181v1.792H36.7669Zm1.9741,2.3311a.4187.4187,0,0,0,.3433-.1367.69.69,0,0,0,.1118-.4375.627.627,0,0,0-.1084-.42.4494.4494,0,0,0-.3467-.1191h-.6157v1.1133Z" style="fill:#afafaf"/><path d="M44.04,355.68l1.5815,2.5479H44.1243l-.91-1.4629-.7979,1.4629h-1.498l1.582-2.6113-1.603-2.59h1.498l.938,1.5186.8257-1.5186h1.498Z" style="fill:#afafaf"/><path d="M46.3817,358.018a1.035,1.035,0,0,1-.3955-.9453v-.6934a1.0915,1.0915,0,0,1,.1226-.5176.5671.5671,0,0,1,.3955-.2939.7758.7758,0,0,1-.2871-.2412.6492.6492,0,0,1-.1084-.28,3.3668,3.3668,0,0,1-.0176-.3887V354.07a.9531.9531,0,0,1,.3569-.8223,1.4987,1.4987,0,0,1,.91-.2627h.9941a1.4962,1.4962,0,0,1,.91.2627.9518.9518,0,0,1,.3569.8223v.5879a1.5679,1.5679,0,0,1-.0908.5146.4014.4014,0,0,1-.3291.2979.5582.5582,0,0,1,.42.3428,1.5206,1.5206,0,0,1,.1055.5664v.6934a1.0769,1.0769,0,0,1-.3608.9482,1.7194,1.7194,0,0,1-.99.249h-.9453A1.9243,1.9243,0,0,1,46.3817,358.018Zm1.6558-.8965q.2095,0,.269-.0732a.3982.3982,0,0,0,.06-.249v-.3281a.3416.3416,0,0,0-.084-.2354.2936.2936,0,0,0-.231-.0937h-.3779a.3177.3177,0,0,0-.2451.0908.3379.3379,0,0,0-.084.2383v.3281a.3425.3425,0,0,0,.0737.2529.3709.3709,0,0,0,.2554.0693Zm0-2.1279c.1118,0,.1831-.0254.2134-.0771a.643.643,0,0,0,.0454-.2939v-.2168c0-.1162-.022-.1914-.0664-.2236a.3171.3171,0,0,0-.1924-.05h-.3643a.3338.3338,0,0,0-.2031.0459c-.0371.03-.0557.1064-.0557.2275v.2168a.56.56,0,0,0,.0522.3047.2526.2526,0,0,0,.2065.0664Z" style="fill:#afafaf"/><rect x="45.2142" y="307.9985" width="36.8504" height="39.2456" rx="5.6693" ry="5.6693" style="fill:#0a0a0a"/><rect x="4.3354" y="69.7163" width="36.8504" height="277.5278" rx="5.6693" ry="5.6693" style="fill:#333333"/><path d="M16.9334,23.8383H15.4491v-.7769h3.8291v.7769H17.8011v4.3892h-.8677Z" style="fill:#f8f9f9"/><path d="M19.8729,23.0615h2.1a1.5021,1.5021,0,0,1,1.043.3467,1.6462,1.6462,0,0,1,.3853,1.2563,1.6521,1.6521,0,0,1-.2417,1.001,1.31,1.31,0,0,1-.6333.4482l.9937,2.1138h-.875l-.896-1.9878q-.427,0-1.0146-.0142v2.002h-.8613Zm1.9531,2.4849a.69.69,0,0,0,.5215-.1924.9923.9923,0,0,0,.1855-.6895.8857.8857,0,0,0-.1855-.6509.73.73,0,0,0-.5215-.1753H20.7342v1.708Z" style="fill:#f8f9f9"/><path d="M24.2132,23.0615h.8613v5.166h-.8613Z" style="fill:#f8f9f9"/><path d="M26.5335,27.9614a1.5912,1.5912,0,0,1-.49-.8716,6.4087,6.4087,0,0,1-.1362-1.4521,5.6042,5.6042,0,0,1,.1572-1.4668,1.5476,1.5476,0,0,1,.56-.8608,1.8867,1.8867,0,0,1,1.1377-.2974,7.2056,7.2056,0,0,1,1.7148.21v.665q-.2593-.0352-.6963-.0669t-.8716-.0312a1.2073,1.2073,0,0,0-.71.1748.9244.9244,0,0,0-.3325.5674,5.215,5.215,0,0,0-.0913,1.1128,5.25,5.25,0,0,0,.0913,1.1235.89.89,0,0,0,.3042.5425,1.0533,1.0533,0,0,0,.62.1538,3.01,3.01,0,0,0,.5742-.0557,3.8151,3.8151,0,0,0,.5107-.1333v-1.19h-1.043v-.6719q.21-.0278.5391-.0488t.644-.021c.28,0,.5112.0068.6929.021v2.8628H29.057l-.1191-.3569a3.4,3.4,0,0,1-.6509.2729,2.5629,2.5629,0,0,1-.7769.1191A1.4585,1.4585,0,0,1,26.5335,27.9614Z" style="fill:#f8f9f9"/><path d="M19.89,75.8339h.8613V81H19.89Z" style="fill:#afafaf"/><path d="M21.7733,75.8339h.6929l2.3521,3.689v-3.689h.8682V81H24.993l-2.3516-3.689V81h-.8682Z" style="fill:#afafaf"/><path d="M62.31,317.71l-.4341-3.6963-1.022,3.6963h-.812l-1.0293-3.6748-.4131,3.6748h-.833l.5952-5.166h.84l1.2529,4.1367,1.2461-4.1367h.84l.6089,5.166Z" style="fill:#afafaf"/><path d="M63.9686,312.5444H64.83v5.166h-.8613Z" style="fill:#afafaf"/><path d="M68.0843,315.1762l1.5889,2.5342h-.959l-1.1689-1.8623L66.4535,317.71h-.9521l1.5889-2.59-1.61-2.5762h.9521l1.1968,1.9033,1.106-1.9033h.959Z" style="fill:#afafaf"/><path d="M51.6654,28.07a1.3146,1.3146,0,0,1-.6646-.7627,4.6705,4.6705,0,0,1-.2241-1.6484,4.6942,4.6942,0,0,1,.2275-1.6592,1.36,1.36,0,0,1,.6685-.78,2.8234,2.8234,0,0,1,1.1831-.2065,2.8705,2.8705,0,0,1,1.1934.2065,1.3438,1.3438,0,0,1,.6685.7769,4.7594,4.7594,0,0,1,.2241,1.6626,4.6132,4.6132,0,0,1-.2275,1.6484,1.3335,1.3335,0,0,1-.665.7627,3.6566,3.6566,0,0,1-2.3838,0Zm1.9287-.7173a.8237.8237,0,0,0,.3677-.5283,4.5352,4.5352,0,0,0,.1118-1.1655,4.6718,4.6718,0,0,0-.1152-1.2041.8191.8191,0,0,0-.3677-.5322,1.618,1.618,0,0,0-.7349-.1328,1.536,1.536,0,0,0-.7212.1367.8414.8414,0,0,0-.3711.5317,4.49,4.49,0,0,0-.1191,1.2007,4.6236,4.6236,0,0,0,.1089,1.1689.8136.8136,0,0,0,.36.5249,2.0251,2.0251,0,0,0,1.48,0Z" style="fill:#afafaf"/><path d="M55.83,23.0615h.6929l2.3521,3.689v-3.689h.8682v5.166H59.05l-2.3516-3.689v3.689H55.83Z" style="fill:#afafaf"/><path d="M63.6,23.8383H62.116v-.7769h3.8291v.7769H64.4681v4.3892H63.6Z" style="fill:#afafaf"/><path d="M66.54,23.0615h2.1a1.5021,1.5021,0,0,1,1.043.3467,1.6462,1.6462,0,0,1,.3853,1.2563,1.6521,1.6521,0,0,1-.2417,1.001,1.31,1.31,0,0,1-.6333.4482l.9937,2.1138h-.875l-.896-1.9878q-.427,0-1.0146-.0142v2.002H66.54Zm1.9531,2.4849a.69.69,0,0,0,.5215-.1924.9923.9923,0,0,0,.1855-.6895.8857.8857,0,0,0-.1855-.6509.73.73,0,0,0-.5215-.1753H67.4017v1.708Z" style="fill:#afafaf"/><path d="M70.88,23.0615h.8613v5.166H70.88Z" style="fill:#afafaf"/><path d="M73.201,27.9614a1.5912,1.5912,0,0,1-.49-.8716,6.4087,6.4087,0,0,1-.1362-1.4521,5.6042,5.6042,0,0,1,.1572-1.4668,1.5476,1.5476,0,0,1,.56-.8608,1.8867,1.8867,0,0,1,1.1377-.2974,7.2056,7.2056,0,0,1,1.7148.21v.665q-.2593-.0352-.6963-.0669t-.8716-.0312a1.2073,1.2073,0,0,0-.71.1748.9244.9244,0,0,0-.3325.5674,5.215,5.215,0,0,0-.0913,1.1128,5.25,5.25,0,0,0,.0913,1.1235.89.89,0,0,0,.3042.5425,1.0533,1.0533,0,0,0,.62.1538,3.01,3.01,0,0,0,.5742-.0557,3.8151,3.8151,0,0,0,.5107-.1333v-1.19h-1.043v-.6719q.21-.0278.5391-.0488t.644-.021c.28,0,.5112.0068.6929.021v2.8628h-.6509l-.1191-.3569a3.4,3.4,0,0,1-.6509.2729,2.5629,2.5629,0,0,1-.7769.1191A1.4585,1.4585,0,0,1,73.201,27.9614Z" style="fill:#afafaf"/><path d="M55.81,56.8227a1.0547,1.0547,0,0,1,.3223-.8608,1.18,1.18,0,0,1,.7769-.2661q1.3792,0,2.2261.0771v.7207H57.161a.4945.4945,0,0,0-.36.126.4754.4754,0,0,0-.1294.3574V58.02l2.1489.0488v.6792l-2.1489.0488v2.0649H55.81Z" style="fill:#afafaf"/><path d="M59.849,55.6957h2.1a1.5021,1.5021,0,0,1,1.043.3467A2.22,2.22,0,0,1,63.1356,58.3a1.31,1.31,0,0,1-.6333.4482l.9937,2.1138h-.875l-.896-1.9878q-.427,0-1.0146-.0142v2.002H59.849Zm1.9531,2.4849a.69.69,0,0,0,.5215-.1924.9923.9923,0,0,0,.1855-.6895.8857.8857,0,0,0-.1855-.6509.73.73,0,0,0-.5215-.1753H60.71v1.708Z" style="fill:#afafaf"/><path d="M64.5423,60.68a.9472.9472,0,0,1-.3535-.875V56.8227a1.0547,1.0547,0,0,1,.3223-.8608,1.18,1.18,0,0,1,.7769-.2661q.6577,0,1.1338.021t1.0923.0562v.7207H65.5609a.5374.5374,0,0,0-.3779.1226.4753.4753,0,0,0-.1328.3677v.917l2.1489.0488v.6792l-2.1489.0488v.8892a.4518.4518,0,0,0,.5039.5181h1.96v.7207q-.8818.0776-2.1279.0913A1.5792,1.5792,0,0,1,64.5423,60.68Z" style="fill:#afafaf"/><path d="M68.63,60.68a.9472.9472,0,0,1-.3535-.875V56.8227a1.0547,1.0547,0,0,1,.3223-.8608,1.18,1.18,0,0,1,.7769-.2661q.6577,0,1.1338.021t1.0923.0562v.7207H69.6488a.5374.5374,0,0,0-.3779.1226.4753.4753,0,0,0-.1328.3677v.917l2.1489.0488v.6792l-2.1489.0488v.8892a.4518.4518,0,0,0,.5039.5181h1.96v.7207q-.8818.0776-2.1279.0913A1.5792,1.5792,0,0,1,68.63,60.68Z" style="fill:#afafaf"/><path d="M54.1195,83.8574a5.7919,5.7919,0,0,1-.7632-.1118v-.6792q.6306.0564,1.561.0562a1.5059,1.5059,0,0,0,.7109-.1333.5024.5024,0,0,0,.2412-.4829v-.2451a.5542.5542,0,0,0-.1538-.42.6375.6375,0,0,0-.4551-.147h-.4829a1.634,1.634,0,0,1-1.1025-.3218,1.3206,1.3206,0,0,1-.3677-1.043v-.2661a1.3254,1.3254,0,0,1,.4063-1.0713,1.8251,1.8251,0,0,1,1.2036-.3428,7.1731,7.1731,0,0,1,.7949.0488q.43.0491.7383.1123v.6787q-.9448-.063-1.4351-.063a1.2267,1.2267,0,0,0-.6616.1436.5835.5835,0,0,0-.22.5288v.1748a.5547.5547,0,0,0,.1714.4551.814.814,0,0,0,.5215.14h.5391a1.31,1.31,0,0,1,.99.353,1.2924,1.2924,0,0,1,.34.9346v.3291a1.2459,1.2459,0,0,1-.4482,1.1094,2.2826,2.2826,0,0,1-1.2881.3047Q54.5814,83.8994,54.1195,83.8574Z" style="fill:#afafaf"/><path d="M57.5282,78.6914h2.1353a1.5117,1.5117,0,0,1,1.0288.3535,1.7957,1.7957,0,0,1,.4063,1.3755q0,1.7783-1.4214,1.7778-.2168,0-.6367-.0347t-.6509-.07v1.7642h-.8613Zm2.0229,2.7231a.596.596,0,0,0,.5-.231,1.2514,1.2514,0,0,0,.1787-.7563q0-.9587-.6509-.959h-1.19v1.9463Z" style="fill:#afafaf"/><path d="M62.1868,83.6752a.9472.9472,0,0,1-.3535-.875V79.8183a1.0547,1.0547,0,0,1,.3223-.8608,1.18,1.18,0,0,1,.7769-.2661q.6577,0,1.1338.021t1.0923.0562v.7207H63.2054a.5374.5374,0,0,0-.3779.1226.4753.4753,0,0,0-.1328.3677v.917l2.1489.0488v.6792l-2.1489.0488v.8892a.4518.4518,0,0,0,.5039.5181h1.96v.7207q-.8818.0776-2.1279.0913A1.5792,1.5792,0,0,1,62.1868,83.6752Z" style="fill:#afafaf"/><path d="M66.2747,83.6752a.9472.9472,0,0,1-.3535-.875V79.8183a1.0547,1.0547,0,0,1,.3223-.8608,1.18,1.18,0,0,1,.7769-.2661q.6577,0,1.1338.021t1.0923.0562v.7207H67.2933a.5374.5374,0,0,0-.3779.1226.4753.4753,0,0,0-.1328.3677v.917l2.1489.0488v.6792l-2.1489.0488v.8892a.4518.4518,0,0,0,.5039.5181h1.96v.7207q-.8818.0776-2.1279.0913A1.5792,1.5792,0,0,1,66.2747,83.6752Z" style="fill:#afafaf"/><path d="M70.0794,78.6914h2.1353a1.468,1.468,0,0,1,1.3613.6582,3.7336,3.7336,0,0,1,.4023,1.9248,3.46,3.46,0,0,1-.4409,1.9321,1.4909,1.4909,0,0,1-1.3228.6509H70.0794Zm2.0513,4.3892a.79.79,0,0,0,.749-.4585,3.0156,3.0156,0,0,0,.2378-1.3477,4.4317,4.4317,0,0,0-.105-1.0918.9869.9869,0,0,0-.3184-.5532.9131.9131,0,0,0-.5635-.1611h-1.19v3.6123Z" style="fill:#afafaf"/><path d="M53.6121,162.31a2.3246,2.3246,0,0,1-.3955-.105v-.686a4.6924,4.6924,0,0,0,.644.0562.6555.6555,0,0,0,.4546-.14.6081.6081,0,0,0,.1543-.4692v-3.8218h.8682v3.9482a1.2955,1.2955,0,0,1-.3081.9551,1.3512,1.3512,0,0,1-.98.3047A2.4214,2.4214,0,0,1,53.6121,162.31Z" style="fill:#afafaf"/><path d="M56.2962,157.1445h.8613v5.166h-.8613Z" style="fill:#afafaf"/><path d="M59.2367,157.9213H57.7523v-.7769h3.8291v.7769H60.1043V162.31h-.8677Z" style="fill:#afafaf"/><path d="M63.3592,157.9213H61.8748v-.7769h3.8291v.7769H64.2269V162.31h-.8677Z" style="fill:#afafaf"/><path d="M66.5828,162.1284a.9472.9472,0,0,1-.3535-.875v-2.9819a1.0547,1.0547,0,0,1,.3223-.8608,1.18,1.18,0,0,1,.7769-.2661q.6577,0,1.1338.021t1.0923.0562v.7207H67.6014a.5374.5374,0,0,0-.3779.1226.4753.4753,0,0,0-.1328.3677v.917l2.1489.0488v.6792l-2.1489.0488v.8892a.4518.4518,0,0,0,.5039.5181h1.96v.7207q-.8818.0776-2.1279.0913A1.5792,1.5792,0,0,1,66.5828,162.1284Z" style="fill:#afafaf"/><path d="M70.387,157.1445h2.1a1.5021,1.5021,0,0,1,1.043.3467,2.22,2.22,0,0,1,.1436,2.2573,1.31,1.31,0,0,1-.6333.4482l.9937,2.1138h-.875l-.896-1.9878q-.427,0-1.0146-.0142v2.002H70.387Zm1.9531,2.4849a.69.69,0,0,0,.5215-.1924.9923.9923,0,0,0,.1855-.6895.8857.8857,0,0,0-.1855-.6509.73.73,0,0,0-.5215-.1753H71.2484v1.708Z" style="fill:#afafaf"/><line x1="63.6381" y1="120.6184" x2="63.6381" y2="112.6184" style="fill:#ef464c;stroke:#ef464c;stroke-miterlimit:10;stroke-width:2px"/><line x1="63.6381" y1="199.6184" x2="63.6381" y2="191.6184" style="fill:#ef464c;stroke:#ef464c;stroke-miterlimit:10;stroke-width:2px"/><path d="M50.5111,238.9682h2.1353a1.5117,1.5117,0,0,1,1.0288.3535,1.7944,1.7944,0,0,1,.4063,1.375q0,1.7783-1.4214,1.7783-.2168,0-.6367-.0352t-.6509-.07v1.7646h-.8613Zm2.0229,2.7227a.597.597,0,0,0,.5-.23,1.2521,1.2521,0,0,0,.1787-.7568q0-.958-.6509-.959h-1.19v1.9463Z" style="fill:#afafaf"/><path d="M54.8162,238.9682h.8613v5.166h-.8613Z" style="fill:#afafaf"/><path d="M56.6991,238.9682h.6929l2.3521,3.6885v-3.6885h.8682v5.166h-.6934l-2.3516-3.6895v3.6895h-.8682Z" style="fill:#afafaf"/><path d="M61.578,238.9682h.6929l2.3521,3.6885v-3.6885h.8682v5.166h-.6934l-2.3516-3.6895v3.6895H61.578Z" style="fill:#afafaf"/><path d="M66.4007,238.9682h.8613v5.166h-.8613Z" style="fill:#afafaf"/><path d="M68.284,238.9682h.6929l2.3521,3.6885v-3.6885h.8682v5.166h-.6934l-2.3516-3.6895v3.6895H68.284Z" style="fill:#afafaf"/><path d="M73.6,243.8676a1.59,1.59,0,0,1-.49-.8711,6.4087,6.4087,0,0,1-.1362-1.4521,5.6017,5.6017,0,0,1,.1572-1.4668,1.5472,1.5472,0,0,1,.56-.8613,1.8868,1.8868,0,0,1,1.1377-.2969,7.1807,7.1807,0,0,1,1.7148.21v.665q-.2593-.0352-.6963-.0674t-.8716-.0312a1.2073,1.2073,0,0,0-.71.1748.9258.9258,0,0,0-.3325.5674,6.892,6.892,0,0,0,0,2.2363.8919.8919,0,0,0,.3042.543,1.0534,1.0534,0,0,0,.62.1533,3.01,3.01,0,0,0,.5742-.0557,3.7458,3.7458,0,0,0,.5107-.1328v-1.19h-1.043V241.32q.21-.0278.5391-.0488t.644-.0205c.28,0,.5112.0068.6929.0205v2.8633h-.6509l-.1191-.3574a3.3989,3.3989,0,0,1-.6509.2734,2.5781,2.5781,0,0,1-.7769.1191A1.456,1.456,0,0,1,73.6,243.8676Z" style="fill:#afafaf"/></svg>