<svg xmlns="http://www.w3.org/2000/svg" width="30.48mm" height="128.4993mm" viewBox="0 0 86.4 364.25"><title>SNOSC</title><rect width="86.4" height="364.25" style="fill:#1b1b1b"/><rect x="36" y="3.6885" width="14.4" height="9.1667" rx="4.5833" ry="4.5833" style="fill:#ef464c"/><path d="M40.4909,6.8811H39.1741V5.6558h4V6.8811H41.857v4.0067H40.4909Z" style="fill:#fff"/><path d="M45.9091,9.6626h1.3168v1.2253h-4V9.6626H44.543V5.6558h1.3661Z" style="fill:#fff"/><path d="M31.0687,358.0678v-1.0771q.7.063,1.6035.0625a1.2852,1.2852,0,0,0,.5254-.08.2845.2845,0,0,0,.168-.2773v-.084a.27.27,0,0,0-.1055-.2275.4189.4189,0,0,0-.2588-.08H32.63a1.81,1.81,0,0,1-1.2422-.3672,1.5215,1.5215,0,0,1-.41-1.1865v-.2314a1.42,1.42,0,0,1,.4551-1.1475,2.0214,2.0214,0,0,1,1.3369-.3857,7.0572,7.0572,0,0,1,1.624.2031v1.0781q-.7837-.063-1.4561-.0625a1.217,1.217,0,0,0-.5039.08.3068.3068,0,0,0-.168.3047v.07q0,.356.4551.3564h.4619a1.45,1.45,0,0,1,1.0889.3926,1.4026,1.4026,0,0,1,.3809,1.0215v.2314a1.8622,1.8622,0,0,1-.2236.9971,1.1321,1.1321,0,0,1-.6338.4834,3.5776,3.5776,0,0,1-1.0527.1289A6.59,6.59,0,0,1,31.0687,358.0678Z" style="fill:#afafaf"/><path d="M35.2894,353.0278h1.0781l1.8271,2.8984v-2.8984h1.3584v5.2012H38.4749l-1.8271-2.8975v2.8975H35.2894Z" style="fill:#afafaf"/><path d="M40.0785,355.6606h2.1973v1.0771H40.0785Z" style="fill:#afafaf"/><path d="M43.63,358.061a1.4122,1.4122,0,0,1-.7168-.7842,5.6885,5.6885,0,0,1,0-3.3037,1.4154,1.4154,0,0,1,.7168-.7842,3.9078,3.9078,0,0,1,2.5273,0,1.4169,1.4169,0,0,1,.7178.7842,5.6885,5.6885,0,0,1,0,3.3037,1.4137,1.4137,0,0,1-.7178.7842,3.9078,3.9078,0,0,1-2.5273,0Zm1.8066-1.123a.6529.6529,0,0,0,.252-.417,4.0676,4.0676,0,0,0,.0732-.8955,4.3253,4.3253,0,0,0-.07-.9141.5973.5973,0,0,0-.252-.4053,1.417,1.417,0,0,0-1.0918,0,.6041.6041,0,0,0-.252.4053,4.3253,4.3253,0,0,0-.07.9141,3.996,3.996,0,0,0,.0742.8955.6529.6529,0,0,0,.252.417,1.3345,1.3345,0,0,0,1.085,0Z" style="fill:#afafaf"/><path d="M47.7142,358.0678v-1.0771q.7.063,1.6035.0625a1.2852,1.2852,0,0,0,.5254-.08.2845.2845,0,0,0,.168-.2773v-.084a.27.27,0,0,0-.1055-.2275.4189.4189,0,0,0-.2588-.08h-.3711a1.81,1.81,0,0,1-1.2422-.3672,1.5215,1.5215,0,0,1-.41-1.1865v-.2314a1.42,1.42,0,0,1,.4551-1.1475,2.0214,2.0214,0,0,1,1.3369-.3857,7.0572,7.0572,0,0,1,1.624.2031v1.0781q-.7837-.063-1.4561-.0625a1.217,1.217,0,0,0-.5039.08.3068.3068,0,0,0-.168.3047v.07q0,.356.4551.3564h.4619a1.45,1.45,0,0,1,1.0889.3926,1.4026,1.4026,0,0,1,.3809,1.0215v.2314a1.8622,1.8622,0,0,1-.2236.9971,1.1321,1.1321,0,0,1-.6338.4834,3.5776,3.5776,0,0,1-1.0527.1289A6.59,6.59,0,0,1,47.7142,358.0678Z" style="fill:#afafaf"/><path d="M52.66,358.061a1.3975,1.3975,0,0,1-.6338-.791,4.8,4.8,0,0,1-.2236-1.6592,4.4484,4.4484,0,0,1,.2344-1.62,1.4759,1.4759,0,0,1,.6475-.7949,2.1975,2.1975,0,0,1,1.0293-.2168,5.3594,5.3594,0,0,1,1.0107.084,3.7248,3.7248,0,0,1,.6973.1963v1.0566a5.6673,5.6673,0,0,0-.6025-.084q-.3706-.0352-.8047-.0352a1.0605,1.0605,0,0,0-.5186.1016.6275.6275,0,0,0-.2549.4033,3.8611,3.8611,0,0,0-.0811.9238,4.395,4.395,0,0,0,.0664.8887.6526.6526,0,0,0,.249.417,1.0057,1.0057,0,0,0,.5527.1221,11.4889,11.4889,0,0,0,1.3936-.0625v1.0566a4.8854,4.8854,0,0,1-1.708.2236A2.296,2.296,0,0,1,52.66,358.061Z" style="fill:#afafaf"/><rect x="4.4542" y="17.0079" width="77.4915" height="46.3917" rx="5.6693" ry="5.6693" style="fill:#ef464c"/><rect x="4.4542" y="307.9985" width="77.4915" height="39.2441" rx="5.6693" ry="5.6693" style="fill:#0a0a0a"/><path d="M12.46,108.0873a1.0547,1.0547,0,0,1,.3223-.8608,1.1815,1.1815,0,0,1,.7773-.2661q1.3784,0,2.2256.0771v.7207H13.8118a.4938.4938,0,0,0-.36.126.4737.4737,0,0,0-.13.3574v1.043l2.1494.0488v.6792l-2.1494.0488v2.0649H12.46Z" style="fill:#afafaf"/><path d="M16.4993,106.96H18.6a1.5021,1.5021,0,0,1,1.043.3467,2.2233,2.2233,0,0,1,.1436,2.2573,1.3091,1.3091,0,0,1-.6338.4482l.9941,2.1138h-.875l-.8965-1.9878c-.2842,0-.623-.0049-1.0146-.0142v2.002h-.8613Zm1.9531,2.4849a.6881.6881,0,0,0,.5215-.1924.99.99,0,0,0,.1855-.6895.8836.8836,0,0,0-.1855-.6509.7282.7282,0,0,0-.5215-.1753H17.3607v1.708Z" style="fill:#afafaf"/><path d="M21.1927,111.9443a.9483.9483,0,0,1-.3535-.875v-2.9819a1.0547,1.0547,0,0,1,.3223-.8608,1.1815,1.1815,0,0,1,.7773-.2661q.6577,0,1.1338.021t1.0918.0562v.7207H22.2113a.539.539,0,0,0-.3779.1226.4753.4753,0,0,0-.1328.3677v.917l2.1494.0488v.6792l-2.1494.0488v.8892a.4518.4518,0,0,0,.5039.5181h1.96v.7207q-.8818.0776-2.1279.0913A1.5816,1.5816,0,0,1,21.1927,111.9443Z" style="fill:#afafaf"/><path d="M25.7533,111.9687a1.3124,1.3124,0,0,1-.6641-.7627,6.1622,6.1622,0,0,1,.0029-3.3076,1.361,1.361,0,0,1,.6689-.78,2.8209,2.8209,0,0,1,1.1826-.2065,2.869,2.869,0,0,1,1.1934.2065,1.3428,1.3428,0,0,1,.6689.7769,4.7613,4.7613,0,0,1,.2236,1.6626,4.6132,4.6132,0,0,1-.2275,1.6484,1.33,1.33,0,0,1-.665.7627,3.6566,3.6566,0,0,1-2.3838,0Zm1.9287-.7173a.8242.8242,0,0,0,.3682-.5283,4.54,4.54,0,0,0,.1113-1.1655,4.65,4.65,0,0,0-.1152-1.2041.8187.8187,0,0,0-.3672-.5322,1.6189,1.6189,0,0,0-.7354-.1328,1.5352,1.5352,0,0,0-.7207.1367.84.84,0,0,0-.3711.5317,4.49,4.49,0,0,0-.1191,1.2007,4.6513,4.6513,0,0,0,.1084,1.1689.8136.8136,0,0,0,.36.5249,2.0251,2.0251,0,0,0,1.48,0Zm-.4619,1.9111a1.0191,1.0191,0,0,1-.416-.7842h.6016a.5.5,0,0,0,.2383.3223.812.812,0,0,0,.4131.105,1.93,1.93,0,0,0,.4063-.063v.6436a1.6682,1.6682,0,0,1-.3711.0493A1.4434,1.4434,0,0,1,27.22,113.1625Z" style="fill:#afafaf"/><line x1="58.9693" y1="110.029" x2="54.5379" y2="110.0309" style="fill:#ef464c;stroke:#ef464c;stroke-miterlimit:10;stroke-width:2px"/><path d="M14.9593,138.0756a1.0564,1.0564,0,0,1,.3223-.8613,1.1824,1.1824,0,0,1,.7769-.2656q1.3792,0,2.2261.0771v.7207H16.31a.4945.4945,0,0,0-.36.126.4754.4754,0,0,0-.1294.3574v1.043l2.1489.0488V140l-2.1489.0488v2.0654h-.8613Z" style="fill:#afafaf"/><path d="M18.9984,136.9487H19.86v5.166h-.8613Z" style="fill:#afafaf"/><path d="M20.8812,136.9487h.6929l2.3521,3.6885v-3.6885h.8682v5.166h-.6934l-2.3516-3.6895v3.6895h-.8682Z" style="fill:#afafaf"/><path d="M26.0575,141.9321a.9467.9467,0,0,1-.3535-.875v-2.9814a1.0564,1.0564,0,0,1,.3223-.8613,1.1824,1.1824,0,0,1,.7769-.2656q.6577,0,1.1338.0205t1.0923.0566v.7207H27.076a.54.54,0,0,0-.3779.1221.4757.4757,0,0,0-.1328.3682v.917l2.1489.0488v.6787l-2.1489.0488v.89a.4517.4517,0,0,0,.5039.5176h1.96v.7207q-.8818.0776-2.1279.0918A1.575,1.575,0,0,1,26.0575,141.9321Z" style="fill:#afafaf"/><line x1="58.9696" y1="140.017" x2="54.5382" y2="140.019" style="fill:#ef464c;stroke:#ef464c;stroke-miterlimit:10;stroke-width:2px"/><path d="M26.6082,169.5683l1.5889,2.5342h-.959l-1.1689-1.8618-1.0918,1.8618h-.9521l1.5889-2.59-1.61-2.5762h.9521l1.1968,1.9038,1.106-1.9038h.959Z" style="fill:#afafaf"/><line x1="58.9695" y1="170.0051" x2="54.5381" y2="170.0071" style="fill:#ef464c;stroke:#ef464c;stroke-miterlimit:10;stroke-width:2px"/><path d="M25.7611,200.4731l-1.582-3.5488h.8965l1.1338,2.667,1.1338-2.667h.875l-1.5889,3.5488V202.09h-.8682Z" style="fill:#afafaf"/><line x1="58.9697" y1="199.9932" x2="54.5383" y2="199.9952" style="fill:#ef464c;stroke:#ef464c;stroke-miterlimit:10;stroke-width:2px"/><path d="M9.7025,232.0786a5.8019,5.8019,0,0,1-.7632-.1113v-.68q.6306.0571,1.561.0566a1.5052,1.5052,0,0,0,.7109-.1338.5011.5011,0,0,0,.2412-.4824v-.2451a.5535.5535,0,0,0-.1538-.42.6376.6376,0,0,0-.4551-.1475h-.4829a1.6366,1.6366,0,0,1-1.1025-.3213,1.3206,1.3206,0,0,1-.3677-1.043v-.2666a1.326,1.326,0,0,1,.4063-1.0713,1.8251,1.8251,0,0,1,1.2036-.3428,7.1731,7.1731,0,0,1,.7949.0488q.43.05.7383.1123v.6787q-.9448-.063-1.4351-.0625a1.2267,1.2267,0,0,0-.6616.1436.5825.5825,0,0,0-.22.5283v.1748a.5541.5541,0,0,0,.1714.4551.8109.8109,0,0,0,.5215.1406h.5391a1.31,1.31,0,0,1,.99.3525,1.294,1.294,0,0,1,.34.9346v.3291a1.2448,1.2448,0,0,1-.4482,1.1094,2.2826,2.2826,0,0,1-1.2881.3047Q10.1644,232.1205,9.7025,232.0786Z" style="fill:#afafaf"/><path d="M13.783,231.9145a1.343,1.343,0,0,1-.5981-.78,5.14,5.14,0,0,1-.2065-1.6592,4.8,4.8,0,0,1,.21-1.6,1.3954,1.3954,0,0,1,.6157-.791,2.187,2.187,0,0,1,1.05-.2207,5.476,5.476,0,0,1,.8433.0664,5.6008,5.6008,0,0,1,.7246.1572v.665q-.21-.041-.5986-.0762t-.7944-.0352a1.436,1.436,0,0,0-.71.1436.8493.8493,0,0,0-.36.5352,4.5543,4.5543,0,0,0-.1123,1.1689,4.8193,4.8193,0,0,0,.1055,1.1689.845.845,0,0,0,.35.5391,1.427,1.427,0,0,0,.7212.1475,11.2792,11.2792,0,0,0,1.4-.0771v.665a5.6793,5.6793,0,0,1-1.5889.1885A2.2646,2.2646,0,0,1,13.783,231.9145Z" style="fill:#afafaf"/><path d="M18.5575,226.9125H19.65l1.68,5.166h-.9028l-.3989-1.2246H18.1585l-.3921,1.2246h-.8887Zm1.26,3.1641-.728-2.4219-.728,2.4219Z" style="fill:#afafaf"/><path d="M22.2567,231.809a1.16,1.16,0,0,1-.2905-.8848v-4.0117h.8613v3.8711a.495.495,0,0,0,.1362.3994.5756.5756,0,0,0,.3745.1113h1.7148v.7842H23.1214A1.231,1.231,0,0,1,22.2567,231.809Z" style="fill:#afafaf"/><path d="M26.0579,231.8969a.9478.9478,0,0,1-.3535-.875v-2.9824a1.0529,1.0529,0,0,1,.3223-.86,1.178,1.178,0,0,1,.7769-.2666q.6577,0,1.1338.0215t1.0923.0557v.7207H27.0765a.5352.5352,0,0,0-.3779.123.4749.4749,0,0,0-.1328.3672v.917l2.1489.0488v.68l-2.1489.0488v.8887a.452.452,0,0,0,.5039.5186h1.96v.7207q-.8818.0776-2.1279.0908A1.5834,1.5834,0,0,1,26.0579,231.8969Z" style="fill:#afafaf"/><line x1="58.9694" y1="229.9813" x2="54.538" y2="229.9832" style="fill:#ef464c;stroke:#ef464c;stroke-miterlimit:10;stroke-width:2px"/><path d="M6.9373,256.9008H9.0726a1.467,1.467,0,0,1,1.3613.6582,3.7336,3.7336,0,0,1,.4023,1.9248,3.4586,3.4586,0,0,1-.4409,1.9316,1.49,1.49,0,0,1-1.3228.6514H6.9373Zm2.0513,4.3887a.7893.7893,0,0,0,.749-.458,3.0156,3.0156,0,0,0,.2378-1.3477,4.429,4.429,0,0,0-.105-1.0918.9884.9884,0,0,0-.3184-.5537.9131.9131,0,0,0-.5635-.1611h-1.19v3.6123Z" style="fill:#afafaf"/><path d="M12.0228,261.8842a.9467.9467,0,0,1-.3535-.875v-2.9814a1.0564,1.0564,0,0,1,.3223-.8613,1.1824,1.1824,0,0,1,.7769-.2656q.6577,0,1.1338.0205t1.0923.0566v.7207H13.0413a.54.54,0,0,0-.3779.1221.4757.4757,0,0,0-.1328.3682v.917l2.1489.0488v.6787l-2.1489.0488v.89a.4517.4517,0,0,0,.5039.5176h1.96v.7207q-.8818.0776-2.1279.0918A1.575,1.575,0,0,1,12.0228,261.8842Z" style="fill:#afafaf"/><path d="M16.9408,257.6772H15.4564v-.7764h3.8291v.7764H17.8084v4.39h-.8677Z" style="fill:#afafaf"/><path d="M20.888,256.9008H21.98l1.68,5.166h-.9028l-.3989-1.2256H20.4891l-.3921,1.2256h-.8887Zm1.26,3.1641-.728-2.4219-.728,2.4219Z" style="fill:#afafaf"/><path d="M24.2972,256.9008h.8613v5.166h-.8613Z" style="fill:#afafaf"/><path d="M26.4149,261.7973a1.161,1.161,0,0,1-.2905-.8857v-4.0107h.8613v3.8711a.4913.4913,0,0,0,.1362.3984.57.57,0,0,0,.3745.1123h1.7148v.7842H27.28A1.231,1.231,0,0,1,26.4149,261.7973Z" style="fill:#afafaf"/><line x1="58.9694" y1="259.9694" x2="54.538" y2="259.9713" style="fill:#ef464c;stroke:#ef464c;stroke-miterlimit:10;stroke-width:2px"/><path d="M13.1185,292.0551a5.9505,5.9505,0,0,1-.7632-.1123v-.6787q.6306.0557,1.561.0557a1.4933,1.4933,0,0,0,.7109-.1338.5011.5011,0,0,0,.2412-.4824v-.2451a.5549.5549,0,0,0-.1538-.42.6376.6376,0,0,0-.4551-.1475h-.4829a1.6366,1.6366,0,0,1-1.1025-.3213,1.3206,1.3206,0,0,1-.3677-1.043V288.26a1.3239,1.3239,0,0,1,.4063-1.07,1.8251,1.8251,0,0,1,1.2036-.3437,7.4184,7.4184,0,0,1,.7949.0488c.2866.0332.5327.07.7383.1133v.6777q-.9448-.0615-1.4351-.0625a1.2267,1.2267,0,0,0-.6616.1436.5836.5836,0,0,0-.22.5283v.1758a.5567.5567,0,0,0,.1714.4551.817.817,0,0,0,.5215.14h.5391a1.3138,1.3138,0,0,1,.99.3525,1.2948,1.2948,0,0,1,.34.9355v.3281a1.2448,1.2448,0,0,1-.4482,1.1094,2.2826,2.2826,0,0,1-1.2881.3047Q13.58,292.0961,13.1185,292.0551Z" style="fill:#afafaf"/><path d="M17.7943,290.4379l-1.582-3.5488h.896l1.1343,2.666,1.1338-2.666h.875l-1.5889,3.5488v1.6172h-.8682Z" style="fill:#afafaf"/><path d="M20.9515,286.8891h.6929l2.3521,3.6885v-3.6885h.8682v5.166h-.6934L21.82,288.3657v3.6895h-.8682Z" style="fill:#afafaf"/><path d="M26.4461,291.89a1.34,1.34,0,0,1-.5981-.78,5.14,5.14,0,0,1-.2065-1.6592,4.8,4.8,0,0,1,.21-1.6,1.402,1.402,0,0,1,.6157-.791,2.1875,2.1875,0,0,1,1.05-.22,5.3568,5.3568,0,0,1,.8433.0664,5.4547,5.4547,0,0,1,.7246.1563v.666a5.9253,5.9253,0,0,0-.5986-.0771q-.3882-.0352-.7944-.0352a1.436,1.436,0,0,0-.71.1436.8493.8493,0,0,0-.36.5352,4.5577,4.5577,0,0,0-.1123,1.17,4.8157,4.8157,0,0,0,.1055,1.168.845.845,0,0,0,.35.5391,1.427,1.427,0,0,0,.7212.1475,11.2792,11.2792,0,0,0,1.4-.0771v.665a5.6793,5.6793,0,0,1-1.5889.1885A2.2646,2.2646,0,0,1,26.4461,291.89Z" style="fill:#afafaf"/><path d="M56.0911,317.5512a1.3161,1.3161,0,0,1-.6646-.7627,6.1686,6.1686,0,0,1,.0034-3.3076,1.3588,1.3588,0,0,1,.6685-.78,2.8227,2.8227,0,0,1,1.1831-.207,2.87,2.87,0,0,1,1.1934.207,1.3442,1.3442,0,0,1,.6685.7764,4.7625,4.7625,0,0,1,.2241,1.6631,4.6168,4.6168,0,0,1-.2275,1.6484,1.335,1.335,0,0,1-.665.7627,3.6651,3.6651,0,0,1-2.3838,0Zm1.9287-.7178a.8224.8224,0,0,0,.3677-.5283,4.5309,4.5309,0,0,0,.1118-1.165,4.6666,4.6666,0,0,0-.1152-1.2041.8178.8178,0,0,0-.3677-.5322,1.6115,1.6115,0,0,0-.7349-.1328,1.53,1.53,0,0,0-.7212.1367.84.84,0,0,0-.3711.5313A4.4916,4.4916,0,0,0,56.07,315.14a4.6236,4.6236,0,0,0,.1089,1.1689.8112.8112,0,0,0,.36.5244,2.0186,2.0186,0,0,0,1.48,0Z" style="fill:#afafaf"/><path d="M60.6375,317.3764a1.5173,1.5173,0,0,1-.5073-1.3125v-3.5215h.8608v3.5215a.8083.8083,0,0,0,.28.6963,1.7868,1.7868,0,0,0,1.666,0,.8094.8094,0,0,0,.28-.6963v-3.5215h.8608v3.5215a1.5173,1.5173,0,0,1-.5073,1.3125,3.1123,3.1123,0,0,1-2.9331,0Z" style="fill:#afafaf"/><path d="M66.0872,313.32H64.6029v-.7773H68.432v.7773H66.9549v4.3887h-.8677Z" style="fill:#afafaf"/><path d="M18.9823,317.5268a.9467.9467,0,0,1-.3535-.875V313.67a1.0564,1.0564,0,0,1,.3223-.8613,1.1824,1.1824,0,0,1,.7769-.2656q.6577,0,1.1338.0205t1.0923.0566v.7207H20.0008a.54.54,0,0,0-.3779.1221.4757.4757,0,0,0-.1328.3682v.917l2.1489.0488v.6787l-2.1489.0488v.89a.4517.4517,0,0,0,.5039.5176h1.96v.7207q-.8818.0776-2.1279.0918A1.575,1.575,0,0,1,18.9823,317.5268Z" style="fill:#afafaf"/><path d="M23.5423,317.5512a1.3132,1.3132,0,0,1-.6646-.7627,6.1686,6.1686,0,0,1,.0034-3.3076,1.3619,1.3619,0,0,1,.6685-.78,2.8241,2.8241,0,0,1,1.1831-.2061,2.8712,2.8712,0,0,1,1.1934.2061,1.3433,1.3433,0,0,1,.6685.7773,4.7563,4.7563,0,0,1,.2241,1.6621,4.61,4.61,0,0,1-.2275,1.6484,1.3319,1.3319,0,0,1-.665.7627,3.6482,3.6482,0,0,1-2.3838,0Zm1.9287-.7168a.825.825,0,0,0,.3677-.5283,4.54,4.54,0,0,0,.1118-1.166,4.6769,4.6769,0,0,0-.1152-1.2041.82.82,0,0,0-.3677-.5322,1.6246,1.6246,0,0,0-.7349-.1328,1.5422,1.5422,0,0,0-.7212.1367.8426.8426,0,0,0-.3711.5322,4.4883,4.4883,0,0,0-.1191,1.2,4.6236,4.6236,0,0,0,.1089,1.1689.816.816,0,0,0,.36.5254,2.0317,2.0317,0,0,0,1.48,0Z" style="fill:#afafaf"/><path d="M28.3236,317.5444a1.34,1.34,0,0,1-.5981-.78,5.14,5.14,0,0,1-.2065-1.6592,4.808,4.808,0,0,1,.21-1.6,1.402,1.402,0,0,1,.6157-.791,2.1989,2.1989,0,0,1,1.05-.22,5.3568,5.3568,0,0,1,.8433.0664,5.4419,5.4419,0,0,1,.7246.1572v.665a5.9253,5.9253,0,0,0-.5986-.0771q-.3882-.0352-.7944-.0352a1.436,1.436,0,0,0-.71.1436.8517.8517,0,0,0-.36.5361,4.544,4.544,0,0,0-.1123,1.1689,4.83,4.83,0,0,0,.1055,1.1689.85.85,0,0,0,.35.5391,1.4281,1.4281,0,0,0,.7212.1465,11.0927,11.0927,0,0,0,1.4-.0771v.665a5.6758,5.6758,0,0,1-1.5889.1895A2.2637,2.2637,0,0,1,28.3236,317.5444Z" style="fill:#afafaf"/><line x1="43.1992" y1="121.3946" x2="43.201" y2="128.6801" style="fill:#ef464c;stroke:#ef464c;stroke-miterlimit:10;stroke-width:2px"/><path d="M8.4915,82.1386l-.4341-3.6958-1.022,3.6958h-.812L5.1942,78.4638l-.4131,3.6748h-.833l.5952-5.166h.84L6.6361,81.11l1.2461-4.1372h.84l.6089,5.166Z" style="fill:#afafaf"/><path d="M10.15,76.9726h.8613v5.166H10.15Z" style="fill:#afafaf"/><path d="M11.9769,76.9726h2.1a1.5021,1.5021,0,0,1,1.043.3467,2.22,2.22,0,0,1,.1436,2.2573,1.31,1.31,0,0,1-.6333.4482l.9937,2.1138h-.875l-.896-1.9878q-.427,0-1.0146-.0142v2.002h-.8613ZM13.93,79.4575a.69.69,0,0,0,.5215-.1924.9923.9923,0,0,0,.1855-.6895.8857.8857,0,0,0-.1855-.6509.73.73,0,0,0-.5215-.1753H12.8382v1.708Z" style="fill:#afafaf"/><path d="M16.3172,76.9726h2.1a1.5021,1.5021,0,0,1,1.043.3467,2.22,2.22,0,0,1,.1436,2.2573,1.31,1.31,0,0,1-.6333.4482l.9937,2.1138h-.875l-.896-1.9878q-.427,0-1.0146-.0142v2.002h-.8613ZM18.27,79.4575a.69.69,0,0,0,.5215-.1924.9923.9923,0,0,0,.1855-.6895.8857.8857,0,0,0-.1855-.6509.73.73,0,0,0-.5215-.1753H17.1785v1.708Z" style="fill:#afafaf"/><path d="M21.4129,81.9809a1.3146,1.3146,0,0,1-.6646-.7627,6.1686,6.1686,0,0,1,.0034-3.3076,1.36,1.36,0,0,1,.6685-.78,2.8234,2.8234,0,0,1,1.1831-.2065,2.8705,2.8705,0,0,1,1.1934.2065,1.3438,1.3438,0,0,1,.6685.7769,4.7594,4.7594,0,0,1,.2241,1.6626,4.6132,4.6132,0,0,1-.2275,1.6484,1.3335,1.3335,0,0,1-.665.7627,2.9245,2.9245,0,0,1-1.1934.2A2.9314,2.9314,0,0,1,21.4129,81.9809Zm1.9287-.7173a.8237.8237,0,0,0,.3677-.5283,4.5352,4.5352,0,0,0,.1118-1.1655,4.6718,4.6718,0,0,0-.1152-1.2041.8191.8191,0,0,0-.3677-.5322,1.618,1.618,0,0,0-.7349-.1328,1.536,1.536,0,0,0-.7212.1367.8414.8414,0,0,0-.3711.5317,4.49,4.49,0,0,0-.1191,1.2007,4.6236,4.6236,0,0,0,.1089,1.1689.8136.8136,0,0,0,.36.5249,2.0251,2.0251,0,0,0,1.48,0Z" style="fill:#afafaf"/><path d="M25.5218,76.9726h2.1a1.5021,1.5021,0,0,1,1.043.3467,2.22,2.22,0,0,1,.1436,2.2573,1.31,1.31,0,0,1-.6333.4482l.9937,2.1138h-.875l-.896-1.9878q-.427,0-1.0146-.0142v2.002h-.8613Zm1.9531,2.4849a.69.69,0,0,0,.5215-.1924.9923.9923,0,0,0,.1855-.6895.8857.8857,0,0,0-.1855-.6509.73.73,0,0,0-.5215-.1753H26.3831v1.708Z" style="fill:#afafaf"/><line x1="61.3333" y1="80.0419" x2="49.1667" y2="80.0419" style="fill:#ef464c;stroke:#ef464c;stroke-miterlimit:10;stroke-width:2px"/></svg>