<svg xmlns="http://www.w3.org/2000/svg" width="25.4mm" height="128.4993mm" viewBox="0 0 72 364.25"><title>TTSINPLUS</title><rect width="72" height="364.25" style="fill:#1b1b1b"/><rect x="28.8" y="3.6875" width="14.4" height="9.1667" rx="4.5833" ry="4.5833" style="fill:#ef464c"/><path d="M33.2909,6.88H31.9741V5.6548h4V6.88H34.657v4.0067H33.2909Z" style="fill:#fff"/><path d="M38.7091,9.6616h1.3168v1.2253h-4V9.6616H37.343V5.6548h1.3661Z" style="fill:#fff"/><rect x="5.6693" y="307.0117" width="61.8" height="40.2324" rx="4.387" ry="4.387" style="fill:#0a0a0a"/><path d="M28.542,358.0664v-1.0771q.7.063,1.6025.0625a1.2852,1.2852,0,0,0,.5254-.08.2831.2831,0,0,0,.168-.2773v-.084a.2719.2719,0,0,0-.1045-.2275.4218.4218,0,0,0-.26-.08h-.3711a1.8134,1.8134,0,0,1-1.2422-.3672,1.5248,1.5248,0,0,1-.4092-1.1865v-.2314a1.4173,1.4173,0,0,1,.4551-1.1475,2.02,2.02,0,0,1,1.3369-.3857,7.0637,7.0637,0,0,1,1.624.2031v1.0781q-.7837-.063-1.4561-.0625a1.2108,1.2108,0,0,0-.5039.08.3053.3053,0,0,0-.168.3047v.07q0,.356.4551.3564h.4619a1.4472,1.4472,0,0,1,1.0879.3926,1.3992,1.3992,0,0,1,.3818,1.0215v.2314a1.8622,1.8622,0,0,1-.2236.9971,1.1354,1.1354,0,0,1-.6338.4834,3.5847,3.5847,0,0,1-1.0537.1289A6.5769,6.5769,0,0,1,28.542,358.0664Z" style="fill:#afafaf"/><path d="M32.7627,353.0264h1.3584v5.2012H32.7627Z" style="fill:#afafaf"/><path d="M34.8906,353.0264h1.0781l1.8271,2.8984v-2.8984h1.3574v5.2012H38.0752L36.249,355.33v2.8975H34.8906Z" style="fill:#afafaf"/><path d="M43.2344,356.2744H42.2061v1.0293H41.1279v-1.0293H40.0986v-1.0771h1.0293V354.168h1.0781v1.0293h1.0283Z" style="fill:#afafaf"/><path d="M27.7822,24.1875a1.0547,1.0547,0,0,1,.3223-.8608,1.1789,1.1789,0,0,1,.7764-.2661q1.38,0,2.2266.0771v.7207H29.1328a.4953.4953,0,0,0-.36.126.477.477,0,0,0-.1289.3574v1.043l2.1484.0488v.6792l-2.1484.0488v2.0649h-.8613Z" style="fill:#afafaf"/><path d="M31.8213,23.0605h2.1a1.5021,1.5021,0,0,1,1.043.3467,1.6462,1.6462,0,0,1,.3857,1.2563,1.6518,1.6518,0,0,1-.2422,1.001,1.3109,1.3109,0,0,1-.6328.4482l.9932,2.1138h-.875l-.8955-1.9878q-.4277,0-1.0146-.0142v2.002h-.8613Zm1.9531,2.4849a.691.691,0,0,0,.5215-.1924.9948.9948,0,0,0,.1855-.6895.8879.8879,0,0,0-.1855-.6509.7314.7314,0,0,0-.5215-.1753H32.6826v1.708Z" style="fill:#afafaf"/><path d="M36.5146,28.0444a.9461.9461,0,0,1-.3535-.875V24.1875a1.0547,1.0547,0,0,1,.3223-.8608,1.1789,1.1789,0,0,1,.7764-.2661q.6577,0,1.1338.021t1.0928.0562v.7207H37.5332a.5357.5357,0,0,0-.3779.1226.4753.4753,0,0,0-.1328.3677v.917l2.1484.0488v.6792l-2.1484.0488v.8892a.4518.4518,0,0,0,.5039.5181h1.96V28.17q-.8818.0776-2.1279.0913A1.5768,1.5768,0,0,1,36.5146,28.0444Z" style="fill:#afafaf"/><path d="M41.0752,28.0688a1.3169,1.3169,0,0,1-.665-.7627,4.6723,4.6723,0,0,1-.2236-1.6484,4.6829,4.6829,0,0,1,.2275-1.6592,1.36,1.36,0,0,1,.668-.78,2.8258,2.8258,0,0,1,1.1836-.2065,2.8721,2.8721,0,0,1,1.1934.2065,1.3448,1.3448,0,0,1,.668.7769,4.7576,4.7576,0,0,1,.2246,1.6626,4.6132,4.6132,0,0,1-.2275,1.6484,1.3368,1.3368,0,0,1-.665.7627,3.6566,3.6566,0,0,1-2.3838,0Zm1.9287-.7173a.8232.8232,0,0,0,.3672-.5283,4.5308,4.5308,0,0,0,.1123-1.1655,4.6939,4.6939,0,0,0-.1152-1.2041A.82.82,0,0,0,43,23.9214a1.6171,1.6171,0,0,0-.7344-.1328,1.5369,1.5369,0,0,0-.7217.1367.8432.8432,0,0,0-.3711.5317,4.49,4.49,0,0,0-.1191,1.2007,4.5962,4.5962,0,0,0,.1094,1.1689.8136.8136,0,0,0,.36.5249,2.0251,2.0251,0,0,0,1.48,0Zm-.4619,1.9111a1.0229,1.0229,0,0,1-.417-.7842h.6025a.499.499,0,0,0,.2373.3223.8171.8171,0,0,0,.4131.105,1.9211,1.9211,0,0,0,.4063-.063v.6436a1.6541,1.6541,0,0,1-.3711.0493A1.44,1.44,0,0,1,42.542,29.2627Z" style="fill:#afafaf"/><path d="M12.875,107.9a1.0547,1.0547,0,0,1,.3223-.8608,1.1789,1.1789,0,0,1,.7764-.2661q1.38,0,2.2266.0771v.7207H14.2256a.4953.4953,0,0,0-.36.126.477.477,0,0,0-.1289.3574v1.043l2.1484.0488v.6792l-2.1484.0488v2.0649H12.875Z" style="fill:#afafaf"/><path d="M16.9141,106.7729h.8613v5.166h-.8613Z" style="fill:#afafaf"/><path d="M18.7969,106.7729h.6924l2.3525,3.689v-3.689H22.71v5.166h-.6934L19.665,108.25v3.689h-.8682Z" style="fill:#afafaf"/><path d="M23.9727,111.7568a.9483.9483,0,0,1-.3535-.875V107.9a1.0547,1.0547,0,0,1,.3223-.8608,1.1815,1.1815,0,0,1,.7773-.2661q.6577,0,1.1338.021t1.0918.0562v.7207H24.9912a.539.539,0,0,0-.3779.1226.4753.4753,0,0,0-.1328.3677v.917l2.1494.0488v.6792l-2.1494.0488v.8892a.4518.4518,0,0,0,.5039.5181h1.96v.7207q-.8818.0776-2.1279.0913A1.5816,1.5816,0,0,1,23.9727,111.7568Z" style="fill:#afafaf"/><line x1="52.8337" y1="125.0428" x2="19.5264" y2="125.0428" style="fill:#ef464c;stroke:#ef464c;stroke-miterlimit:10;stroke-width:2px"/><path d="M6.9492,147.9277H9.085a1.4685,1.4685,0,0,1,1.3613.6582,3.7386,3.7386,0,0,1,.4023,1.9248,3.46,3.46,0,0,1-.4414,1.9321,1.49,1.49,0,0,1-1.3223.6509H6.9492Zm2.0518,4.3892a.7907.7907,0,0,0,.749-.4585,3.0165,3.0165,0,0,0,.2373-1.3477,4.46,4.46,0,0,0-.1045-1.0918.9924.9924,0,0,0-.3184-.5532.9141.9141,0,0,0-.5635-.1611h-1.19v3.6123Z" style="fill:#afafaf"/><path d="M12.0352,152.9116a.9461.9461,0,0,1-.3535-.875v-2.9819a1.0547,1.0547,0,0,1,.3223-.8608,1.1789,1.1789,0,0,1,.7764-.2661q.6577,0,1.1338.021t1.0928.0562v.7207H13.0537a.5357.5357,0,0,0-.3779.1226.4753.4753,0,0,0-.1328.3677v.917l2.1484.0488v.6792l-2.1484.0488v.8892a.4518.4518,0,0,0,.5039.5181h1.96v.7207q-.8818.0776-2.1279.0913A1.5768,1.5768,0,0,1,12.0352,152.9116Z" style="fill:#afafaf"/><path d="M16.9531,148.7046H15.4688v-.7769h3.8291v.7769H17.82v4.3892h-.8672Z" style="fill:#afafaf"/><path d="M20.33,152.7612a1.5162,1.5162,0,0,1-.5078-1.3125v-3.521h.8613v3.521a.8058.8058,0,0,0,.28.6963,1.7831,1.7831,0,0,0,1.666,0,.808.808,0,0,0,.2793-.6963v-3.521h.8613v3.521a1.5162,1.5162,0,0,1-.5078,1.3125,2.4757,2.4757,0,0,1-1.4658.3677A2.477,2.477,0,0,1,20.33,152.7612Z" style="fill:#afafaf"/><path d="M24.7227,147.9277h.6924l2.3525,3.689v-3.689h.8682v5.166h-.6934l-2.3516-3.689v3.689h-.8682Z" style="fill:#afafaf"/><path d="M29.8984,152.9116a.9483.9483,0,0,1-.3535-.875v-2.9819a1.0547,1.0547,0,0,1,.3223-.8608,1.1815,1.1815,0,0,1,.7773-.2661q.6577,0,1.1338.021t1.0918.0562v.7207H30.917a.539.539,0,0,0-.3779.1226.4753.4753,0,0,0-.1328.3677v.917l2.1494.0488v.6792l-2.1494.0488v.8892a.4518.4518,0,0,0,.5039.5181h1.96v.7207q-.8818.0776-2.1279.0913A1.5816,1.5816,0,0,1,29.8984,152.9116Z" style="fill:#afafaf"/><line x1="52.8337" y1="166.1977" x2="19.5264" y2="166.1977" style="fill:#ef464c;stroke:#ef464c;stroke-miterlimit:10;stroke-width:2px"/><path d="M30.9619,317.5537a1.3109,1.3109,0,0,1-.6641-.7627,6.1622,6.1622,0,0,1,.0029-3.3076,1.3625,1.3625,0,0,1,.6689-.78,2.8216,2.8216,0,0,1,1.1826-.2061,2.87,2.87,0,0,1,1.1934.2061,1.3423,1.3423,0,0,1,.6689.7773,4.7582,4.7582,0,0,1,.2236,1.6621,4.61,4.61,0,0,1-.2275,1.6484,1.3286,1.3286,0,0,1-.665.7627,3.6482,3.6482,0,0,1-2.3838,0Zm1.9287-.7168a.8255.8255,0,0,0,.3682-.5283,4.5438,4.5438,0,0,0,.1113-1.166,4.655,4.655,0,0,0-.1152-1.2041.82.82,0,0,0-.3672-.5322,1.6255,1.6255,0,0,0-.7354-.1328,1.5413,1.5413,0,0,0-.7207.1367.8409.8409,0,0,0-.3711.5322,4.4883,4.4883,0,0,0-.1191,1.2,4.6513,4.6513,0,0,0,.1084,1.1689.816.816,0,0,0,.36.5254,2.0317,2.0317,0,0,0,1.48,0Z" style="fill:#afafaf"/><path d="M35.5088,317.3789a1.5162,1.5162,0,0,1-.5078-1.3125v-3.5205h.8613v3.5205a.8046.8046,0,0,0,.28.6963,1.7794,1.7794,0,0,0,1.666,0,.8068.8068,0,0,0,.2793-.6963v-3.5205h.8613v3.5205a1.5162,1.5162,0,0,1-.5078,1.3125,3.1041,3.1041,0,0,1-2.9326,0Z" style="fill:#afafaf"/><path d="M40.958,313.3223H39.4736v-.7764h3.8291v.7764H41.8262v4.39H40.958Z" style="fill:#afafaf"/><line x1="9.3118" y1="96.526" x2="63.8268" y2="96.526" style="fill:none;stroke:#0a0a0a;stroke-miterlimit:10"/><line x1="8.7425" y1="229.8365" x2="63.2575" y2="229.8365" style="fill:none;stroke:#0a0a0a;stroke-miterlimit:10"/><path d="M17.4961,240.6084h.8613v2.2334h2.1768v-2.2334h.8682v5.166h-.8682v-2.1553H18.3574v2.1553h-.8613Z" style="fill:#afafaf"/><path d="M23.7256,240.6084h1.0928l1.68,5.166h-.9033l-.3984-1.2246H23.3271l-.3926,1.2246h-.8887Zm1.2607,3.1641-.7285-2.4219-.7275,2.4219Z" style="fill:#afafaf"/><path d="M27.1348,240.6084h2.1006a1.5044,1.5044,0,0,1,1.043.3467,2.2242,2.2242,0,0,1,.1436,2.2578,1.3091,1.3091,0,0,1-.6338.4482l.9941,2.1133h-.875l-.8965-1.9873c-.2842,0-.623-.0049-1.0146-.0146v2.002h-.8613Zm1.9531,2.4854a.69.69,0,0,0,.5215-.1924.9915.9915,0,0,0,.1855-.6895.8857.8857,0,0,0-.1855-.6514.73.73,0,0,0-.5215-.1748H27.9961v1.708Z" style="fill:#afafaf"/><path d="M31.4746,240.6084H33.61a1.47,1.47,0,0,1,1.3613.6582,3.7386,3.7386,0,0,1,.4023,1.9248,3.4619,3.4619,0,0,1-.4414,1.9326,1.4907,1.4907,0,0,1-1.3223.65H31.4746Zm2.0518,4.39a.7911.7911,0,0,0,.749-.459,3.0165,3.0165,0,0,0,.2373-1.3477,4.4624,4.4624,0,0,0-.1045-1.0918.9909.9909,0,0,0-.3184-.5527.9141.9141,0,0,0-.5635-.1611h-1.19v3.6123Z" style="fill:#afafaf"/><path d="M38.7266,245.7744a5.7929,5.7929,0,0,1-.7627-.1113v-.68q.63.0571,1.5605.0566a1.5039,1.5039,0,0,0,.7109-.1338.5.5,0,0,0,.2412-.4824v-.2451a.5532.5532,0,0,0-.1533-.42.6392.6392,0,0,0-.4551-.1475h-.4834a1.6366,1.6366,0,0,1-1.1025-.3213,1.3205,1.3205,0,0,1-.3672-1.043V241.98a1.3245,1.3245,0,0,1,.4063-1.0713,1.8245,1.8245,0,0,1,1.2031-.3428,7.1661,7.1661,0,0,1,.7949.0488q.4307.05.7383.1123v.6787q-.9448-.063-1.4346-.0625a1.23,1.23,0,0,0-.6621.1436.5835.5835,0,0,0-.22.5283v.1748a.5539.5539,0,0,0,.1709.4551.8109.8109,0,0,0,.5215.1406h.5391a1.3086,1.3086,0,0,1,.99.3525,1.294,1.294,0,0,1,.34.9346v.3291a1.2448,1.2448,0,0,1-.4482,1.1094,2.28,2.28,0,0,1-1.2881.3047C39.3145,245.8164,39.0352,245.8027,38.7266,245.7744Z" style="fill:#afafaf"/><path d="M43.4023,244.1572l-1.582-3.5488h.8965l1.1338,2.667,1.1338-2.667h.875l-1.5889,3.5488v1.6172h-.8682Z" style="fill:#afafaf"/><path d="M46.56,240.6084h.6934l2.3516,3.6895v-3.6895h.8682v5.166h-.6934l-2.3516-3.6885v3.6885H46.56Z" style="fill:#afafaf"/><path d="M52.0547,245.61a1.3416,1.3416,0,0,1-.5986-.78,5.1423,5.1423,0,0,1-.2061-1.6592,4.7874,4.7874,0,0,1,.21-1.6,1.3928,1.3928,0,0,1,.6152-.791,2.19,2.19,0,0,1,1.0508-.2207,5.4745,5.4745,0,0,1,.8428.0664,5.5827,5.5827,0,0,1,.7246.1572v.665q-.2095-.041-.5986-.0762t-.7939-.0352a1.4381,1.4381,0,0,0-.7109.1436.853.853,0,0,0-.36.5352,4.5766,4.5766,0,0,0-.1123,1.1689,4.8193,4.8193,0,0,0,.1055,1.1689.8469.8469,0,0,0,.35.5391,1.43,1.43,0,0,0,.7217.1475,11.2764,11.2764,0,0,0,1.3994-.0771v.665a5.6769,5.6769,0,0,1-1.5889.1885A2.2638,2.2638,0,0,1,52.0547,245.61Z" style="fill:#afafaf"/><path d="M10.82,256.7773a1.244,1.244,0,0,1-.6162-.7422,6.6282,6.6282,0,0,1,.0039-3.3252,1.3075,1.3075,0,0,1,.626-.77,2.5735,2.5735,0,0,1,1.1064-.2,2.6115,2.6115,0,0,1,1.124.2,1.2866,1.2866,0,0,1,.6152.7666,5.1544,5.1544,0,0,1,.207,1.6729,4.9611,4.9611,0,0,1-.21,1.6553,1.244,1.244,0,0,1-.6162.7422,2.7636,2.7636,0,0,1-1.12.1855A2.7636,2.7636,0,0,1,10.82,256.7773Zm2.0332-.34a1.0108,1.0108,0,0,0,.4727-.6338A4.9076,4.9076,0,0,0,13.48,254.38a5.2348,5.2348,0,0,0-.1543-1.4775,1.0053,1.0053,0,0,0-.4727-.6406,2.1192,2.1192,0,0,0-.9131-.1572,2.0436,2.0436,0,0,0-.8857.1572,1.0587,1.0587,0,0,0-.4863.6475A4.8224,4.8224,0,0,0,10.4,254.38a5.2431,5.2431,0,0,0,.1436,1.4277.9788.9788,0,0,0,.4619.63,2.1335,2.1335,0,0,0,.9346.1611A2.0692,2.0692,0,0,0,12.8535,256.4375Z" style="fill:#999999"/><path d="M14.7266,256.585l1.96-1.8623a3.3094,3.3094,0,0,0,.6582-.8115,1.802,1.802,0,0,0,.1885-.8408.91.91,0,0,0-.27-.7031,1.4126,1.4126,0,0,0-.9551-.248H14.93v-.3018q.91-.0762,1.47-.0771a1.6827,1.6827,0,0,1,1.1826.34,1.2557,1.2557,0,0,1,.3574.9561,2.1042,2.1042,0,0,1-.2168.9658,3.5292,3.5292,0,0,1-.7354.917l-1.7012,1.624h2.85v.3779H14.7266Z" style="fill:#999999"/><path d="M18.6748,254.7158h3.3105v.3564H18.6748Z" style="fill:#999999"/><path d="M20.7393,256.2207l1.2461-1.2246-1.2812-1.2539.2383-.2236,1.49,1.4775-1.4766,1.4551Z" style="fill:#999999"/><path d="M24.1133,256.7773a1.2376,1.2376,0,0,1-.6162-.7422,4.9611,4.9611,0,0,1-.21-1.6553,5.0336,5.0336,0,0,1,.2129-1.67,1.3087,1.3087,0,0,1,.627-.77,2.57,2.57,0,0,1,1.1064-.2,2.6067,2.6067,0,0,1,1.123.2,1.2844,1.2844,0,0,1,.6162.7666,5.1591,5.1591,0,0,1,.2061,1.6729,4.9356,4.9356,0,0,1-.21,1.6553,1.2376,1.2376,0,0,1-.6162.7422,3.4708,3.4708,0,0,1-2.2393,0Zm2.0332-.34a1.0141,1.0141,0,0,0,.4727-.6338,4.9143,4.9143,0,0,0,.1533-1.4238,5.2421,5.2421,0,0,0-.1533-1.4775,1.0085,1.0085,0,0,0-.4727-.6406,2.1221,2.1221,0,0,0-.9131-.1572,2.0377,2.0377,0,0,0-.8857.1572,1.0518,1.0518,0,0,0-.4863.6475,4.8224,4.8224,0,0,0-.168,1.4707,5.2431,5.2431,0,0,0,.1436,1.4277.9725.9725,0,0,0,.4619.63,2.1305,2.1305,0,0,0,.9346.1611A2.0721,2.0721,0,0,0,26.1465,256.4375Z" style="fill:#999999"/><path d="M29.0615,252.14l-1.1055.3359v-.2588l1.1338-.49h.3779v5.1943h-.4062Z" style="fill:#999999"/><path d="M41.7109,256.7764a1.2412,1.2412,0,0,1-.6162-.7422,6.6243,6.6243,0,0,1,.0039-3.3242,1.3067,1.3067,0,0,1,.626-.7705,2.5747,2.5747,0,0,1,1.1064-.1992,2.6129,2.6129,0,0,1,1.124.1992,1.2866,1.2866,0,0,1,.6152.7666,5.1544,5.1544,0,0,1,.207,1.6729,4.9532,4.9532,0,0,1-.21,1.6553,1.2412,1.2412,0,0,1-.6162.7422,3.4738,3.4738,0,0,1-2.24,0Zm2.0332-.3389a1.0108,1.0108,0,0,0,.4727-.6338,4.92,4.92,0,0,0,.1543-1.4248,5.2316,5.2316,0,0,0-.1543-1.4766,1,1,0,0,0-.4727-.6406,2.1045,2.1045,0,0,0-.9131-.1572,2.0292,2.0292,0,0,0-.8857.1572,1.0559,1.0559,0,0,0-.4863.6475,4.8153,4.8153,0,0,0-.168,1.47,5.2561,5.2561,0,0,0,.1436,1.4287.9788.9788,0,0,0,.4619.63,2.1335,2.1335,0,0,0,.9346.1611A2.0692,2.0692,0,0,0,43.7441,256.4375Z" style="fill:#999999"/><path d="M45.5332,256.8926v-.3086H47.248a1.5111,1.5111,0,0,0,.8154-.1885.7494.7494,0,0,0,.2979-.6865v-.3779a.6833.6833,0,0,0-.28-.6094,1.2622,1.2622,0,0,0-.6787-.2021l-1.3369-.05v-.2861l1.3223-.05c.6025-.0225.9033-.2705.9033-.7412v-.3994a.7863.7863,0,0,0-.28-.6475,1.2614,1.2614,0,0,0-.8115-.2275h-1.47v-.3076a14.1253,14.1253,0,0,1,1.6162-.07,1.4081,1.4081,0,0,1,1.0088.3223,1.1467,1.1467,0,0,1,.3359.8672v.4551a.8483.8483,0,0,1-.249.6689,1.0748,1.0748,0,0,1-.5215.27,1.2024,1.2024,0,0,1,.375.1543,1.0359,1.0359,0,0,1,.3428.3457,1.0111,1.0111,0,0,1,.1436.55v.3926a1.0945,1.0945,0,0,1-.3682.8887,1.585,1.585,0,0,1-1.0459.3076Q46.2817,256.9619,45.5332,256.8926Z" style="fill:#999999"/><path d="M49.5088,254.7148H52.82v.3574H49.5088Z" style="fill:#999999"/><path d="M51.5742,256.22l1.2461-1.2246-1.2812-1.2529.2383-.2236,1.49,1.4766-1.4766,1.4561Z" style="fill:#999999"/><path d="M54.9482,256.7764a1.2347,1.2347,0,0,1-.6162-.7422,4.9532,4.9532,0,0,1-.21-1.6553,5.0231,5.0231,0,0,1,.2129-1.6689,1.3079,1.3079,0,0,1,.627-.7705,2.5717,2.5717,0,0,1,1.1064-.1992,2.6081,2.6081,0,0,1,1.123.1992,1.2844,1.2844,0,0,1,.6162.7666,5.1591,5.1591,0,0,1,.2061,1.6729,4.9278,4.9278,0,0,1-.21,1.6553,1.2347,1.2347,0,0,1-.6162.7422,3.4708,3.4708,0,0,1-2.2393,0Zm2.0332-.3389a1.0141,1.0141,0,0,0,.4727-.6338,4.9264,4.9264,0,0,0,.1533-1.4248,5.2389,5.2389,0,0,0-.1533-1.4766,1.0033,1.0033,0,0,0-.4727-.6406,2.1075,2.1075,0,0,0-.9131-.1572,2.0234,2.0234,0,0,0-.8857.1572,1.049,1.049,0,0,0-.4863.6475,4.8153,4.8153,0,0,0-.168,1.47,5.2561,5.2561,0,0,0,.1436,1.4287.9725.9725,0,0,0,.4619.63,2.1305,2.1305,0,0,0,.9346.1611A2.0721,2.0721,0,0,0,56.9814,256.4375Z" style="fill:#999999"/><path d="M58.8535,256.584l1.96-1.8623a3.2738,3.2738,0,0,0,.6582-.8115,1.7954,1.7954,0,0,0,.1895-.84.91.91,0,0,0-.27-.7041,1.4193,1.4193,0,0,0-.9561-.248H59.0566v-.3008q.91-.0776,1.47-.0771a1.6871,1.6871,0,0,1,1.1836.34,1.2529,1.2529,0,0,1,.3564.9551,2.1013,2.1013,0,0,1-.2168.9658,3.5116,3.5116,0,0,1-.7344.917l-1.7012,1.624h2.8486v.3779H58.8535Z" style="fill:#999999"/><line x1="36" y1="63.7916" x2="36" y2="59.6717" style="fill:#ef464c;stroke:#ef464c;stroke-miterlimit:10;stroke-width:2px"/></svg>