<svg xmlns="http://www.w3.org/2000/svg" width="15.24mm" height="128.4993mm" viewBox="0 0 43.2 364.25"><title>Blank</title><rect width="43.2" height="364.25" style="fill:#364156"/><rect x="14.4" y="3.6885" width="14.4" height="9.1667" rx="4.5833" ry="4.5833" style="fill:#ef464c"/><path d="M18.8909,6.8811H17.5741V5.6558h4V6.8811H20.257v4.0067H18.8909Z" style="fill:#fff"/><path d="M24.3091,9.6626h1.3168v1.2253h-4V9.6626H22.943V5.6558h1.3661Z" style="fill:#fff"/><path d="M10.5646,353.0258h2.1563q1.5747,0,1.5752,1.3867a1.3684,1.3684,0,0,1-.1787.7383.8538.8538,0,0,1-.5356.374,1.1018,1.1018,0,0,1,.6338.4238,1.3949,1.3949,0,0,1,.2412.8506,1.3464,1.3464,0,0,1-.4023,1.0918,1.8845,1.8845,0,0,1-1.2285.3359H10.5646Zm2.1421,2.0439a.2519.2519,0,0,0,.2241-.1152.5257.5257,0,0,0,.0771-.2969.4691.4691,0,0,0-.0874-.3154.2761.2761,0,0,0-.2139-.0977H11.923v.8252Zm.0771,1.9395a.35.35,0,0,0,.2837-.1221.5975.5975,0,0,0,0-.665.3481.3481,0,0,0-.2837-.123H11.923v.91Z" style="fill:#b6bac1"/><path d="M15.3879,357.9057a1.4089,1.4089,0,0,1-.3223-1.0293v-3.8506H16.424v3.6191a.3216.3216,0,0,0,.3638.3643H18.3v1.2178H16.4167A1.4118,1.4118,0,0,1,15.3879,357.9057Z" style="fill:#b6bac1"/><path d="M20.0148,353.0258h1.6938l1.54,5.2012H21.8415l-.21-.8262H20.07l-.2026.8262H18.4748Zm1.3018,3.1572-.4687-2.002-.4624,2.002Z" style="fill:#b6bac1"/><path d="M23.6681,353.0258h1.0781l1.8271,2.8984v-2.8984h1.3579v5.2012H26.8532L25.0265,355.33v2.8975H23.6681Z" style="fill:#b6bac1"/><path d="M28.7013,353.0258H30.06v2.0234h.5391l.833-2.0234h1.4419l-1.1973,2.6182,1.26,2.583H31.4948l-.896-1.96H30.06v1.96H28.7013Z" style="fill:#b6bac1"/><rect x="3.1748" y="307.9985" width="36.8504" height="39.2456" rx="5.6693" ry="5.6693" style="fill:#2c3644"/><path d="M15.9928,317.5522a1.3132,1.3132,0,0,1-.6646-.7627,6.1686,6.1686,0,0,1,.0034-3.3076,1.3619,1.3619,0,0,1,.6685-.78,2.8241,2.8241,0,0,1,1.1831-.2061,2.8712,2.8712,0,0,1,1.1934.2061,1.3433,1.3433,0,0,1,.6685.7773,4.7563,4.7563,0,0,1,.2241,1.6621,4.61,4.61,0,0,1-.2275,1.6484,1.3319,1.3319,0,0,1-.665.7627,2.9154,2.9154,0,0,1-1.1934.2A2.9223,2.9223,0,0,1,15.9928,317.5522Zm1.9287-.7168a.825.825,0,0,0,.3677-.5283,4.54,4.54,0,0,0,.1118-1.166,4.6769,4.6769,0,0,0-.1152-1.2041.82.82,0,0,0-.3677-.5322,1.6246,1.6246,0,0,0-.7349-.1328,1.5422,1.5422,0,0,0-.7212.1367.8426.8426,0,0,0-.3711.5322,4.4883,4.4883,0,0,0-.1191,1.2,4.6236,4.6236,0,0,0,.1089,1.1689.816.816,0,0,0,.36.5254,1.571,1.571,0,0,0,.7422.14A1.5735,1.5735,0,0,0,17.9215,316.8354Z" style="fill:#b6bac1"/><path d="M20.5392,317.3774a1.5173,1.5173,0,0,1-.5073-1.3125v-3.5205h.8608v3.5205a.8059.8059,0,0,0,.28.6963,1.7794,1.7794,0,0,0,1.666,0,.807.807,0,0,0,.28-.6963v-3.5205H23.98v3.5205a1.5173,1.5173,0,0,1-.5073,1.3125,2.4772,2.4772,0,0,1-1.4663.3682A2.4779,2.4779,0,0,1,20.5392,317.3774Z" style="fill:#b6bac1"/><path d="M25.9889,313.3207H24.5046v-.7764h3.8291v.7764H26.8566v4.39h-.8677Z" style="fill:#b6bac1"/></svg>