<svg xmlns="http://www.w3.org/2000/svg" width="15.24mm" height="128.4993mm" viewBox="0 0 43.2 364.25"><title>LFO1</title><rect width="43.2" height="364.25" style="fill:#364156"/><rect x="14.4" y="3.6885" width="14.4" height="9.1667" rx="4.5833" ry="4.5833" style="fill:#ef464c"/><path d="M18.8909,6.8811H17.5741V5.6558h4V6.8811H20.257v4.0067H18.8909Z" style="fill:#fff"/><path d="M24.3091,9.6626h1.3168v1.2253h-4V9.6626H22.943V5.6558h1.3661Z" style="fill:#fff"/><rect x="3.8667" y="17.0079" width="35.4667" height="46.4934" rx="5.6693" ry="5.6693" style="fill:#ef464c"/><path d="M15.7735,23.8379H14.2891V23.061h3.8291v.7769H16.6407v4.3892h-.8672Z" style="fill:#f8f9f9"/><path d="M18.7129,23.061h2.1a1.5021,1.5021,0,0,1,1.043.3467,1.6462,1.6462,0,0,1,.3857,1.2563,1.6518,1.6518,0,0,1-.2422,1.001,1.3109,1.3109,0,0,1-.6328.4482l.9932,2.1138h-.875l-.8955-1.9878q-.4277,0-1.0146-.0142v2.002h-.8613Zm1.9531,2.4849a.691.691,0,0,0,.5215-.1924.9948.9948,0,0,0,.1855-.6895.8879.8879,0,0,0-.1855-.6509.7314.7314,0,0,0-.5215-.1753H19.5743v1.708Z" style="fill:#f8f9f9"/><path d="M23.0528,23.061h.8613v5.166h-.8613Z" style="fill:#f8f9f9"/><path d="M25.3731,27.9609a1.5971,1.5971,0,0,1-.49-.8716,6.4121,6.4121,0,0,1-.1357-1.4521,5.5834,5.5834,0,0,1,.1572-1.4668,1.547,1.547,0,0,1,.56-.8608,1.8867,1.8867,0,0,1,1.1377-.2974,7.2026,7.2026,0,0,1,1.7148.21v.665c-.1729-.0234-.4043-.0459-.6963-.0669s-.582-.0312-.8711-.0312a1.2079,1.2079,0,0,0-.7109.1748.924.924,0,0,0-.332.5674,5.2093,5.2093,0,0,0-.0918,1.1128,5.2437,5.2437,0,0,0,.0918,1.1235.8925.8925,0,0,0,.3037.5425,1.055,1.055,0,0,0,.62.1538,3.01,3.01,0,0,0,.5742-.0557,3.8151,3.8151,0,0,0,.5107-.1333v-1.19h-1.043v-.6719q.2095-.0278.5391-.0488t.6436-.021q.42,0,.6934.021v2.8628h-.6514l-.1191-.3569a3.3941,3.3941,0,0,1-.65.2729,2.5637,2.5637,0,0,1-.7773.1191A1.4593,1.4593,0,0,1,25.3731,27.9609Z" style="fill:#f8f9f9"/><rect x="3.8667" y="307.7625" width="35.4667" height="39.2457" rx="5.6693" ry="5.6693" style="fill:#2c3644"/><path d="M15.9922,317.5547a1.3138,1.3138,0,0,1-.6641-.7627,6.1622,6.1622,0,0,1,.0029-3.3076,1.36,1.36,0,0,1,.6689-.78,2.82,2.82,0,0,1,1.1826-.207,2.8682,2.8682,0,0,1,1.1934.207,1.3432,1.3432,0,0,1,.6689.7764,4.7643,4.7643,0,0,1,.2236,1.6631,4.6168,4.6168,0,0,1-.2275,1.6484,1.3317,1.3317,0,0,1-.665.7627,2.9336,2.9336,0,0,1-1.1934.1992A2.9438,2.9438,0,0,1,15.9922,317.5547Zm1.9287-.7178a.8229.8229,0,0,0,.3682-.5283,4.5352,4.5352,0,0,0,.1113-1.165,4.6448,4.6448,0,0,0-.1152-1.2041.8174.8174,0,0,0-.3672-.5322,1.6124,1.6124,0,0,0-.7354-.1328,1.5291,1.5291,0,0,0-.7207.1367.8385.8385,0,0,0-.3711.5313,4.4916,4.4916,0,0,0-.1191,1.2012,4.6513,4.6513,0,0,0,.1084,1.1689.8112.8112,0,0,0,.36.5244,1.559,1.559,0,0,0,.7422.1406A1.5574,1.5574,0,0,0,17.9209,316.8369Z" style="fill:#b6bac1"/><path d="M20.5391,317.38a1.5162,1.5162,0,0,1-.5078-1.3125v-3.5215h.8613v3.5215a.807.807,0,0,0,.28.6963,1.7868,1.7868,0,0,0,1.666,0,.8092.8092,0,0,0,.2793-.6963v-3.5215H23.98v3.5215a1.5162,1.5162,0,0,1-.5078,1.3125,2.4758,2.4758,0,0,1-1.4658.3672A2.4771,2.4771,0,0,1,20.5391,317.38Z" style="fill:#b6bac1"/><path d="M25.9883,313.3232H24.504v-.7773h3.8291v.7773H26.8565v4.3887h-.8682Z" style="fill:#b6bac1"/><path d="M14.9473,76.0615h.8955l1.33,4.2349,1.33-4.2349h.8955l-1.68,5.166H16.627Z" style="fill:#b6bac1"/><path d="M21.1485,76.0615h1.0928l1.68,5.166h-.9033l-.3984-1.2251H20.75l-.3926,1.2251h-.8887Zm1.2607,3.1641-.7285-2.4219-.7275,2.4219Z" style="fill:#b6bac1"/><path d="M24.5577,76.0615h2.1006a1.5021,1.5021,0,0,1,1.043.3467,2.2233,2.2233,0,0,1,.1436,2.2573,1.3091,1.3091,0,0,1-.6338.4482l.9941,2.1138H27.33L26.4336,79.24c-.2842,0-.623-.0049-1.0146-.0142v2.002h-.8613Zm1.9531,2.4849a.6881.6881,0,0,0,.5215-.1924.99.99,0,0,0,.1855-.6895.8836.8836,0,0,0-.1855-.6509.7282.7282,0,0,0-.5215-.1753H25.419v1.708Z" style="fill:#b6bac1"/><path d="M14.5723,132.0615h1.9736q1.4282,0,1.4277,1.3442a1.3246,1.3246,0,0,1-.1992.7524.8831.8831,0,0,1-.5283.3813,1.184,1.184,0,0,1,.6338.4023,1.2919,1.2919,0,0,1,.2627.8574,1.3913,1.3913,0,0,1-.3789,1.0991,1.6842,1.6842,0,0,1-1.1338.3291H14.5723Zm1.9883,2.1841a.5251.5251,0,0,0,.4268-.1963.8.8,0,0,0,.1611-.5249q0-.6855-.6094-.686H15.4336v1.4072Zm.042,2.2051a.7125.7125,0,0,0,.5313-.1855.8514.8514,0,0,0,.1826-.6128.7172.7172,0,0,0-.2-.5386.7.7,0,0,0-.5137-.1963H15.4336v1.5332Z" style="fill:#b6bac1"/><path d="M18.9053,132.0615h.8613v5.166h-.8613Z" style="fill:#b6bac1"/><path d="M22.09,132.0615h1.0918l1.68,5.166H23.959l-.3994-1.2251H21.69l-.3916,1.2251H20.41Zm1.26,3.1641-.7275-2.4219-.7285,2.4219Z" style="fill:#b6bac1"/><path d="M26.1846,137.2275a5.783,5.783,0,0,1-.7627-.1118v-.6792q.63.0564,1.5605.0562a1.5046,1.5046,0,0,0,.7109-.1333.5015.5015,0,0,0,.2412-.4829v-.2451a.554.554,0,0,0-.1533-.42.6391.6391,0,0,0-.4551-.147h-.4834a1.634,1.634,0,0,1-1.1025-.3218,1.3205,1.3205,0,0,1-.3672-1.043v-.2661a1.3238,1.3238,0,0,1,.4063-1.0713,1.8245,1.8245,0,0,1,1.2031-.3428,7.1661,7.1661,0,0,1,.7949.0488q.4307.0491.7383.1123v.6787q-.9448-.063-1.4346-.063a1.23,1.23,0,0,0-.6621.1436.5844.5844,0,0,0-.22.5288v.1748a.5546.5546,0,0,0,.1709.4551.814.814,0,0,0,.5215.14h.5391a1.3088,1.3088,0,0,1,.99.353,1.2924,1.2924,0,0,1,.34.9346v.3291a1.2459,1.2459,0,0,1-.4482,1.1094,2.28,2.28,0,0,1-1.2881.3047C26.7725,137.27,26.4932,137.2554,26.1846,137.2275Z" style="fill:#b6bac1"/><path d="M15.8741,195.9355a5.7909,5.7909,0,0,1-.7637-.1123v-.6787c.4209.0371.94.0557,1.5615.0557a1.508,1.508,0,0,0,.7109-.1328.5045.5045,0,0,0,.2412-.4834v-.2451a.5552.5552,0,0,0-.1543-.42.6358.6358,0,0,0-.4551-.1465h-.4824A1.6314,1.6314,0,0,1,15.43,193.45a1.3208,1.3208,0,0,1-.3682-1.043v-.2656a1.3263,1.3263,0,0,1,.4063-1.0713,1.8257,1.8257,0,0,1,1.2041-.3428,7.18,7.18,0,0,1,.7949.0488c.2861.0322.5322.07.7383.1123v.6787q-.9448-.063-1.4355-.0635a1.2236,1.2236,0,0,0-.6611.1436.5835.5835,0,0,0-.2207.5293v.1748a.5556.5556,0,0,0,.1719.4551.817.817,0,0,0,.5215.14H17.12a1.3119,1.3119,0,0,1,.99.3535,1.2909,1.2909,0,0,1,.34.9346v.3291a1.2471,1.2471,0,0,1-.4482,1.1094,2.2847,2.2847,0,0,1-1.2881.3047C16.462,195.9775,16.1817,195.9629,15.8741,195.9355Z" style="fill:#b6bac1"/><path d="M19.7168,195.7988a1.2306,1.2306,0,0,1-.4834-.4834,1.4406,1.4406,0,0,1-.1748-.7168,1.6573,1.6573,0,0,1,.6436-1.3164l.4346-.3711-.1055-.1611a1.93,1.93,0,0,1-.27-.5176,1.6037,1.6037,0,0,1-.0664-.4551.8478.8478,0,0,1,.3506-.7559,1.61,1.61,0,0,1,.9238-.2383,5.7184,5.7184,0,0,1,1.3018.1328v.63H21.1309c-.3779,0-.5674.1406-.5674.42a.7162.7162,0,0,0,.0771.3047,2.5092,2.5092,0,0,0,.2588.41l1.12,1.5322,1.0146-.9307.3223.3848-.4824.6934-.4277.4131.875,1.1621H22.419l-.5254-.6719-.2451.2236a1.9273,1.9273,0,0,1-.5879.374,1.79,1.79,0,0,1-.6436.1094A1.4143,1.4143,0,0,1,19.7168,195.7988Zm1.1895-.6895a1.2823,1.2823,0,0,0,.3438-.2383l.1885-.1885-.8818-1.1768-.3008.2666a1.1063,1.1063,0,0,0-.2871.35.8563.8563,0,0,0-.084.3779.6681.6681,0,0,0,.1855.49.6592.6592,0,0,0,.4932.1895A.8477.8477,0,0,0,20.9063,195.1094Z" style="fill:#b6bac1"/><path d="M24.1055,190.77h.8613v2.2324h2.1768V190.77h.8682v5.166h-.8682v-2.1562H24.9668v2.1563h-.8613Z" style="fill:#b6bac1"/><path d="M16.78,244.7207a1.5162,1.5162,0,0,1-.5078-1.3125v-3.5215h.8613v3.5215a.807.807,0,0,0,.28.6963,1.3951,1.3951,0,0,0,.833.2061,1.3991,1.3991,0,0,0,.833-.2061.8092.8092,0,0,0,.2793-.6963v-3.5215h.8613v3.5215a1.5162,1.5162,0,0,1-.5078,1.3125,2.4758,2.4758,0,0,1-1.4658.3672A2.4771,2.4771,0,0,1,16.78,244.7207Z" style="fill:#b6bac1"/><path d="M21.1729,239.8867h.6924l2.3525,3.6895v-3.6895h.8682v5.166h-.6934l-2.3516-3.6885v3.6885h-.8682Z" style="fill:#b6bac1"/><path d="M25.9952,239.8867h.8613v5.166h-.8613Z" style="fill:#b6bac1"/><path d="M19.003,274.8867h1.9746q1.4282,0,1.4277,1.3447a1.324,1.324,0,0,1-.1992.752.8887.8887,0,0,1-.5283.3818,1.1787,1.1787,0,0,1,.6328.4023,1.291,1.291,0,0,1,.2627.8574,1.3892,1.3892,0,0,1-.3779,1.0986,1.6842,1.6842,0,0,1-1.1338.3291H19.003Zm1.9883,2.1846a.5238.5238,0,0,0,.4268-.1963.8021.8021,0,0,0,.1611-.5254q0-.6855-.6084-.6855H19.8643v1.4072Zm.042,2.2051a.7153.7153,0,0,0,.5322-.1855.8573.8573,0,0,0,.1816-.6133.7185.7185,0,0,0-.1992-.5381.7026.7026,0,0,0-.5146-.1963H19.8643v1.5332Z" style="fill:#b6bac1"/><path d="M23.336,274.8867h.8613v5.166H23.336Z" style="fill:#b6bac1"/><path d="M19.63,358.2275,19.294,355.42l-.6865,2.8076H17.334l-.68-2.7441-.3213,2.7441h-1.31l.6162-5.2012h1.2734l1.0713,3.6543,1.0713-3.6543h1.26l.623,5.2012Z" style="fill:#b6bac1"/><path d="M21.6319,357.5654a4.5051,4.5051,0,0,1-.3359-1.9277,5.4638,5.4638,0,0,1,.1611-1.4531,1.59,1.59,0,0,1,.6016-.8887,2.1317,2.1317,0,0,1,1.26-.3184,5.9221,5.9221,0,0,1,.9277.06,8.3545,8.3545,0,0,1,.8789.1992v1.0566a10.2816,10.2816,0,0,0-1.5469-.0977,1.1638,1.1638,0,0,0-.6055.1221.6177.6177,0,0,0-.2559.417,4.6988,4.6988,0,0,0-.0635.9033,4.4389,4.4389,0,0,0,.0635.8672.6722.6722,0,0,0,.2031.4033.6247.6247,0,0,0,.3916.1084,3.728,3.728,0,0,0,.7705-.07v-.6719H23.36v-1.0781q.2168-.0278.5742-.0488t.6514-.0215c.2422,0,.5088.0049.7979.0146v3.0869H24.3614l-.1816-.3428a2.4143,2.4143,0,0,1-.5674.2588,2.3749,2.3749,0,0,1-.7559.1191A1.2363,1.2363,0,0,1,21.6319,357.5654Z" style="fill:#b6bac1"/><path d="M26.7481,354.2725h-.8262v-.8682l.98-.42h1.2041v5.2432H26.7481Z" style="fill:#b6bac1"/></svg>