<svg xmlns="http://www.w3.org/2000/svg" width="30.48mm" height="128.4993mm" viewBox="0 0 86.4 364.25"><title>LFO8</title><rect width="86.4" height="364.25" style="fill:#364156"/><rect x="36" y="3.6885" width="14.4" height="9.1667" rx="4.5833" ry="4.5833" style="fill:#ef464c"/><path d="M40.4909,6.8811H39.1741V5.6558h4V6.8811H41.857v4.0067H40.4909Z" style="fill:#fff"/><path d="M45.9091,9.6626h1.3168v1.2253h-4V9.6626H44.543V5.6558h1.3661Z" style="fill:#fff"/><rect x="3.8687" y="17.0079" width="35.4667" height="46.4934" rx="5.6693" ry="5.6693" style="fill:#ef464c"/><path d="M15.7747,23.8379H14.29V23.061h3.8291v.7769H16.6424v4.3892h-.8677Z" style="fill:#f8f9f9"/><path d="M18.7142,23.061h2.1a1.5021,1.5021,0,0,1,1.043.3467,1.6462,1.6462,0,0,1,.3853,1.2563,1.6521,1.6521,0,0,1-.2417,1.001,1.31,1.31,0,0,1-.6333.4482l.9937,2.1138h-.875l-.896-1.9878q-.427,0-1.0146-.0142v2.002h-.8613Zm1.9531,2.4849a.69.69,0,0,0,.5215-.1924.9923.9923,0,0,0,.1855-.6895.8857.8857,0,0,0-.1855-.6509.73.73,0,0,0-.5215-.1753H19.5755v1.708Z" style="fill:#f8f9f9"/><path d="M23.0545,23.061h.8613v5.166h-.8613Z" style="fill:#f8f9f9"/><path d="M25.3748,27.9609a1.5912,1.5912,0,0,1-.49-.8716,6.4087,6.4087,0,0,1-.1362-1.4521,5.6042,5.6042,0,0,1,.1572-1.4668,1.5476,1.5476,0,0,1,.56-.8608,1.8867,1.8867,0,0,1,1.1377-.2974,7.2056,7.2056,0,0,1,1.7148.21v.665q-.2593-.0352-.6963-.0669t-.8716-.0312a1.2073,1.2073,0,0,0-.71.1748.9244.9244,0,0,0-.3325.5674,5.215,5.215,0,0,0-.0913,1.1128,5.25,5.25,0,0,0,.0913,1.1235.89.89,0,0,0,.3042.5425,1.0533,1.0533,0,0,0,.62.1538,3.01,3.01,0,0,0,.5742-.0557,3.8151,3.8151,0,0,0,.5107-.1333v-1.19h-1.043v-.6719q.21-.0278.5391-.0488t.644-.021c.28,0,.5112.0068.6929.021v2.8628h-.6509l-.1191-.3569a3.4,3.4,0,0,1-.6509.2729,2.5629,2.5629,0,0,1-.7769.1191A1.4585,1.4585,0,0,1,25.3748,27.9609Z" style="fill:#f8f9f9"/><rect x="46.2" y="17.0079" width="35.4667" height="330.2362" rx="5.6693" ry="5.6693" style="fill:#2c3644"/><path d="M58.326,28.07a1.3124,1.3124,0,0,1-.6641-.7627,4.6687,4.6687,0,0,1-.2246-1.6484A4.7055,4.7055,0,0,1,57.6648,24a1.361,1.361,0,0,1,.6689-.78,2.8209,2.8209,0,0,1,1.1826-.2065A2.869,2.869,0,0,1,60.71,23.22a1.3428,1.3428,0,0,1,.6689.7769,4.7613,4.7613,0,0,1,.2236,1.6626,4.6132,4.6132,0,0,1-.2275,1.6484,1.33,1.33,0,0,1-.665.7627,3.6566,3.6566,0,0,1-2.3838,0Zm1.9287-.7173a.8242.8242,0,0,0,.3682-.5283,4.54,4.54,0,0,0,.1113-1.1655,4.65,4.65,0,0,0-.1152-1.2041.8187.8187,0,0,0-.3672-.5322,1.6189,1.6189,0,0,0-.7354-.1328,1.5352,1.5352,0,0,0-.7207.1367.84.84,0,0,0-.3711.5317,4.49,4.49,0,0,0-.1191,1.2007,4.6513,4.6513,0,0,0,.1084,1.1689.8136.8136,0,0,0,.36.5249,2.0251,2.0251,0,0,0,1.48,0Z" style="fill:#b6bac1"/><path d="M62.8729,27.8955a1.5162,1.5162,0,0,1-.5078-1.3125V23.062h.8613v3.521a.8058.8058,0,0,0,.28.6963,1.7831,1.7831,0,0,0,1.666,0,.808.808,0,0,0,.2793-.6963V23.062h.8613v3.521a1.5162,1.5162,0,0,1-.5078,1.3125,3.1077,3.1077,0,0,1-2.9326,0Z" style="fill:#b6bac1"/><path d="M68.3221,23.8389H66.8377V23.062h3.8291v.7769H69.19V28.228h-.8682Z" style="fill:#b6bac1"/><path d="M14.9485,76.0615h.896l1.33,4.2349,1.33-4.2349H19.4l-1.68,5.166H16.6282Z" style="fill:#b6bac1"/><path d="M21.15,76.0615h1.0923l1.68,5.166h-.9028L22.62,80.0024H20.7513l-.3921,1.2251h-.8887Zm1.26,3.1641-.728-2.4219-.728,2.4219Z" style="fill:#b6bac1"/><path d="M24.5594,76.0615h2.1a1.5021,1.5021,0,0,1,1.043.3467,2.22,2.22,0,0,1,.1436,2.2573,1.31,1.31,0,0,1-.6333.4482l.9937,2.1138h-.875l-.896-1.9878q-.427,0-1.0146-.0142v2.002h-.8613Zm1.9531,2.4849a.69.69,0,0,0,.5215-.1924.9923.9923,0,0,0,.1855-.6895.8857.8857,0,0,0-.1855-.6509.73.73,0,0,0-.5215-.1753H25.4207v1.708Z" style="fill:#b6bac1"/><path d="M14.5735,132.0615h1.9741q1.4282,0,1.4277,1.3442a1.3246,1.3246,0,0,1-.1992.7524.8845.8845,0,0,1-.5283.3813,1.1828,1.1828,0,0,1,.6333.4023,1.2919,1.2919,0,0,1,.2627.8574,1.3912,1.3912,0,0,1-.3784,1.0991,1.6842,1.6842,0,0,1-1.1338.3291H14.5735Zm1.9883,2.1841a.5244.5244,0,0,0,.4268-.1963.8.8,0,0,0,.1611-.5249q0-.6855-.6089-.686h-1.106v1.4072Zm.042,2.2051a.7129.7129,0,0,0,.5317-.1855.8537.8537,0,0,0,.1821-.6128.7188.7188,0,0,0-.2-.5386.7015.7015,0,0,0-.5142-.1963H15.4349v1.5332Z" style="fill:#b6bac1"/><path d="M18.9065,132.0615h.8613v5.166h-.8613Z" style="fill:#b6bac1"/><path d="M22.0911,132.0615h1.0923l1.68,5.166H23.96l-.3989-1.2251H21.6922L21.3,137.2275h-.8887Zm1.26,3.1641-.728-2.4219-.728,2.4219Z" style="fill:#b6bac1"/><path d="M26.1863,137.2275a5.7919,5.7919,0,0,1-.7632-.1118v-.6792q.6306.0564,1.561.0562a1.5059,1.5059,0,0,0,.7109-.1333.5024.5024,0,0,0,.2412-.4829v-.2451a.5542.5542,0,0,0-.1538-.42.6375.6375,0,0,0-.4551-.147h-.4829a1.634,1.634,0,0,1-1.1025-.3218,1.3206,1.3206,0,0,1-.3677-1.043v-.2661a1.3254,1.3254,0,0,1,.4063-1.0713,1.8251,1.8251,0,0,1,1.2036-.3428,7.1731,7.1731,0,0,1,.7949.0488q.43.0491.7383.1123v.6787q-.9448-.063-1.4351-.063a1.2267,1.2267,0,0,0-.6616.1436.5835.5835,0,0,0-.22.5288v.1748a.5547.5547,0,0,0,.1714.4551.814.814,0,0,0,.5215.14h.5391a1.31,1.31,0,0,1,.99.353,1.2924,1.2924,0,0,1,.34.9346v.3291a1.2459,1.2459,0,0,1-.4482,1.1094,2.2826,2.2826,0,0,1-1.2881.3047Q26.6482,137.27,26.1863,137.2275Z" style="fill:#b6bac1"/><path d="M15.8758,195.9355a5.782,5.782,0,0,1-.7632-.1123v-.6787q.6306.0557,1.561.0557a1.5066,1.5066,0,0,0,.7109-.1328.5036.5036,0,0,0,.2412-.4834v-.2451a.5549.5549,0,0,0-.1538-.42.6374.6374,0,0,0-.4551-.1465H16.534a1.6314,1.6314,0,0,1-1.1025-.3223,1.3206,1.3206,0,0,1-.3677-1.043v-.2656A1.3247,1.3247,0,0,1,15.47,191.07a1.8251,1.8251,0,0,1,1.2036-.3428,7.1731,7.1731,0,0,1,.7949.0488c.2866.0322.5327.07.7383.1123v.6787q-.9448-.063-1.4351-.0635a1.2267,1.2267,0,0,0-.6616.1436.5844.5844,0,0,0-.22.5293v.1748a.5554.5554,0,0,0,.1714.4551.817.817,0,0,0,.5215.14h.5391a1.31,1.31,0,0,1,.99.3535,1.2909,1.2909,0,0,1,.34.9346v.3291a1.2471,1.2471,0,0,1-.4482,1.1094,2.2826,2.2826,0,0,1-1.2881.3047C16.4637,195.9775,16.1839,195.9629,15.8758,195.9355Z" style="fill:#b6bac1"/><path d="M19.7186,195.7988a1.2294,1.2294,0,0,1-.4829-.4834,1.4357,1.4357,0,0,1-.1753-.7168,1.6564,1.6564,0,0,1,.644-1.3164l.4341-.3711-.105-.1611a1.9023,1.9023,0,0,1-.27-.5176,1.5865,1.5865,0,0,1-.0664-.4551.8475.8475,0,0,1,.35-.7559,1.61,1.61,0,0,1,.9238-.2383,5.7229,5.7229,0,0,1,1.3022.1328v.63H21.1326c-.3779,0-.5669.1406-.5669.42a.7223.7223,0,0,0,.0767.3047,2.5176,2.5176,0,0,0,.2593.41l1.12,1.5322,1.0146-.9307.3223.3848-.4829.6934-.4272.4131.875,1.1621h-.9028l-.5249-.6719-.2451.2236a1.9389,1.9389,0,0,1-.5879.374,1.7911,1.7911,0,0,1-.644.1094A1.4143,1.4143,0,0,1,19.7186,195.7988Zm1.19-.6895a1.2732,1.2732,0,0,0,.3433-.2383l.189-.1885-.8823-1.1768-.3008.2666a1.12,1.12,0,0,0-.2871.35.8631.8631,0,0,0-.084.3779.67.67,0,0,0,.1855.49.66.66,0,0,0,.4937.1895A.8477.8477,0,0,0,20.9085,195.1094Z" style="fill:#b6bac1"/><path d="M24.1077,190.77h.8613v2.2324h2.1768V190.77h.8682v5.166h-.8682v-2.1562H24.969v2.1563h-.8613Z" style="fill:#b6bac1"/><path d="M16.7825,244.7217a1.5173,1.5173,0,0,1-.5073-1.3125v-3.5215h.8608v3.5215a.8083.8083,0,0,0,.28.6963,1.3951,1.3951,0,0,0,.833.2061,1.3981,1.3981,0,0,0,.833-.2061.8094.8094,0,0,0,.28-.6963v-3.5215h.8608v3.5215a1.5173,1.5173,0,0,1-.5073,1.3125,2.4775,2.4775,0,0,1-1.4663.3672A2.4782,2.4782,0,0,1,16.7825,244.7217Z" style="fill:#b6bac1"/><path d="M21.1751,239.8877h.6929l2.3521,3.6895v-3.6895h.8682v5.166h-.6934l-2.3516-3.6885v3.6885h-.8682Z" style="fill:#b6bac1"/><path d="M25.9979,239.8877h.8613v5.166h-.8613Z" style="fill:#b6bac1"/><path d="M19.0047,274.8877h1.9741q1.4282,0,1.4277,1.3447a1.324,1.324,0,0,1-.1992.752.8872.8872,0,0,1-.5283.3818,1.18,1.18,0,0,1,.6333.4023,1.291,1.291,0,0,1,.2627.8574,1.3893,1.3893,0,0,1-.3784,1.0986,1.6842,1.6842,0,0,1-1.1338.3291H19.0047Zm1.9883,2.1846a.5244.5244,0,0,0,.4268-.1963.8021.8021,0,0,0,.1611-.5254q0-.6855-.6089-.6855H19.866v1.4072Zm.042,2.2051a.7149.7149,0,0,0,.5317-.1855.855.855,0,0,0,.1821-.6133.7169.7169,0,0,0-.2-.5381.7015.7015,0,0,0-.5142-.1963H19.866v1.5332Z" style="fill:#b6bac1"/><path d="M23.3377,274.8877h.8613v5.166h-.8613Z" style="fill:#b6bac1"/><path d="M40.3934,358.2275l-.3359-2.8076-.6865,2.8076H38.097l-.6792-2.7441-.3218,2.7441H35.7869l.6157-5.2012h1.2739l1.0713,3.6543,1.0708-3.6543h1.26l.623,5.2012Z" style="fill:#b6bac1"/><path d="M42.3953,357.5654a4.5051,4.5051,0,0,1-.3359-1.9277,5.4638,5.4638,0,0,1,.1611-1.4531,1.59,1.59,0,0,1,.6016-.8887,2.1317,2.1317,0,0,1,1.26-.3184,5.9221,5.9221,0,0,1,.9277.06,8.3545,8.3545,0,0,1,.8789.1992v1.0566a10.2816,10.2816,0,0,0-1.5469-.0977,1.1638,1.1638,0,0,0-.6055.1221.6177.6177,0,0,0-.2559.417,4.6988,4.6988,0,0,0-.0635.9033,4.4389,4.4389,0,0,0,.0635.8672.6722.6722,0,0,0,.2031.4033.6247.6247,0,0,0,.3916.1084,3.728,3.728,0,0,0,.7705-.07v-.6719h-.7217v-1.0781q.2168-.0278.5742-.0488t.6514-.0215c.2422,0,.5088.0049.7979.0146v3.0869H45.1248l-.1816-.3428a2.4143,2.4143,0,0,1-.5674.2588,2.3749,2.3749,0,0,1-.7559.1191A1.2363,1.2363,0,0,1,42.3953,357.5654Z" style="fill:#b6bac1"/><path d="M47.2215,358.0176a1.035,1.035,0,0,1-.3955-.9453v-.6934a1.097,1.097,0,0,1,.1221-.5176.5691.5691,0,0,1,.3955-.2939.7758.7758,0,0,1-.2871-.2412.6492.6492,0,0,1-.1084-.28,3.3668,3.3668,0,0,1-.0176-.3887v-.5879a.9521.9521,0,0,1,.3574-.8223,1.4977,1.4977,0,0,1,.91-.2627h.9941a1.4947,1.4947,0,0,1,.9092.2627.9521.9521,0,0,1,.3574.8223v.5879a1.5679,1.5679,0,0,1-.0908.5146.402.402,0,0,1-.3291.2979.559.559,0,0,1,.42.3428,1.5206,1.5206,0,0,1,.1055.5664v.6934a1.077,1.077,0,0,1-.3613.9482,1.7194,1.7194,0,0,1-.99.249h-.9453A1.9236,1.9236,0,0,1,47.2215,358.0176Zm1.6553-.8965a.3524.3524,0,0,0,.27-.0732.3982.3982,0,0,0,.06-.249v-.3281a.344.344,0,0,0-.084-.2354.2939.2939,0,0,0-.2314-.0937h-.3779a.3184.3184,0,0,0-.2451.0908.3379.3379,0,0,0-.084.2383v.3281a.34.34,0,0,0,.0742.2529.37.37,0,0,0,.2549.0693Zm0-2.1279c.1123,0,.1836-.0254.2139-.0771a.6446.6446,0,0,0,.0449-.2939v-.2168c0-.1162-.0215-.1914-.0664-.2236a.3161.3161,0,0,0-.1924-.05h-.3643a.3358.3358,0,0,0-.2031.0459c-.0371.03-.0557.1064-.0557.2275v.2168a.5587.5587,0,0,0,.0527.3047.2514.2514,0,0,0,.2061.0664Z" style="fill:#b6bac1"/></svg>