<svg xmlns="http://www.w3.org/2000/svg" width="40.64mm" height="128.4993mm" viewBox="0 0 115.2 364.25"><title>RM8</title><rect width="115.2" height="364.25" style="fill:#364156"/><rect x="50.4" y="3.6885" width="14.4" height="9.1667" rx="4.5833" ry="4.5833" style="fill:#ef464c"/><path d="M54.8909,6.8811H53.5741V5.6558h4V6.8811H56.257v4.0067H54.8909Z" style="fill:#fff"/><path d="M60.3091,9.6626h1.3168v1.2253h-4V9.6626H58.943V5.6558h1.3661Z" style="fill:#fff"/><path d="M77.5081,17.0079h27.3895a5.6693,5.6693,0,0,1,5.6693,5.6693V341.5748a5.6693,5.6693,0,0,1-5.6693,5.6693H77.5081a0,0,0,0,1,0,0V17.0079A0,0,0,0,1,77.5081,17.0079Z" style="fill:#2c3644"/><path d="M50.3793,353.0264h2.2192a1.6017,1.6017,0,0,1,1.1548.3955,1.8269,1.8269,0,0,1,.4131,1.3545,1.8556,1.8556,0,0,1-.1855.9209,1.4106,1.4106,0,0,1-.5215.5146l.9033,2.0156H52.9833l-.7275-1.792h-.5181v1.792H50.3793Zm1.9741,2.3311a.4183.4183,0,0,0,.3433-.1357.6933.6933,0,0,0,.1118-.4375.6252.6252,0,0,0-.1084-.42.4458.4458,0,0,0-.3467-.1191h-.6157v1.1123Z" style="fill:#b6bac1"/><path d="M59.3256,358.2275l-.3359-2.8066-.686,2.8066H57.03l-.6792-2.7441-.3218,2.7441H54.72l.6157-5.2012h1.2739l1.0713,3.6543,1.0708-3.6543h1.26l.623,5.2012Z" style="fill:#b6bac1"/><path d="M61.5688,358.0176a1.0332,1.0332,0,0,1-.3955-.9443V356.38a1.0926,1.0926,0,0,1,.1226-.5186.57.57,0,0,1,.3955-.2939.7668.7668,0,0,1-.2871-.2412.6446.6446,0,0,1-.1084-.28,3.3363,3.3363,0,0,1-.0176-.3877v-.5889a.9531.9531,0,0,1,.3569-.8223,1.4987,1.4987,0,0,1,.91-.2627h.9941a1.4962,1.4962,0,0,1,.91.2627.9518.9518,0,0,1,.3569.8223v.5889a1.5623,1.5623,0,0,1-.0908.5137.4.4,0,0,1-.3291.2979.5621.5621,0,0,1,.42.3428,1.5257,1.5257,0,0,1,.1055.5674v.6934a1.0792,1.0792,0,0,1-.3608.9482,1.7272,1.7272,0,0,1-.99.248h-.9453A1.9243,1.9243,0,0,1,61.5688,358.0176Zm1.6558-.8955c.14,0,.2295-.0244.269-.0742a.3968.3968,0,0,0,.06-.248v-.3291a.3392.3392,0,0,0-.084-.2344.291.291,0,0,0-.231-.0947H62.86a.3177.3177,0,0,0-.2451.0908.3413.3413,0,0,0-.084.2383V356.8a.3414.3414,0,0,0,.0737.252.3656.3656,0,0,0,.2554.07Zm0-2.1279c.1118,0,.1831-.0264.2134-.0771a.6458.6458,0,0,0,.0454-.2939v-.2168c0-.1172-.022-.1914-.0664-.2246a.3242.3242,0,0,0-.1924-.0488H62.86a.3338.3338,0,0,0-.2031.0459c-.0371.03-.0557.1055-.0557.2275v.2168a.5647.5647,0,0,0,.0522.3047.2559.2559,0,0,0,.2065.0664Z" style="fill:#b6bac1"/><path d="M88.43,27.4941a1.3146,1.3146,0,0,1-.6646-.7627,4.6705,4.6705,0,0,1-.2241-1.6484,4.6942,4.6942,0,0,1,.2275-1.6592,1.36,1.36,0,0,1,.6685-.78,2.8234,2.8234,0,0,1,1.1831-.2065,2.8705,2.8705,0,0,1,1.1934.2065,1.3438,1.3438,0,0,1,.6685.7769,4.7594,4.7594,0,0,1,.2241,1.6626,4.6132,4.6132,0,0,1-.2275,1.6484,1.3335,1.3335,0,0,1-.665.7627,3.6566,3.6566,0,0,1-2.3838,0Zm1.9287-.7173a.8237.8237,0,0,0,.3677-.5283,4.5352,4.5352,0,0,0,.1118-1.1655,4.6718,4.6718,0,0,0-.1152-1.2041.8191.8191,0,0,0-.3677-.5322,1.618,1.618,0,0,0-.7349-.1328,1.536,1.536,0,0,0-.7212.1367.8414.8414,0,0,0-.3711.5317,4.49,4.49,0,0,0-.1191,1.2007,4.6236,4.6236,0,0,0,.1089,1.1689.8136.8136,0,0,0,.36.5249,2.0251,2.0251,0,0,0,1.48,0Z" style="fill:#b6bac1"/><path d="M92.9765,27.3193a1.5173,1.5173,0,0,1-.5073-1.3125v-3.521H93.33v3.521a.8071.8071,0,0,0,.28.6963,1.7831,1.7831,0,0,0,1.666,0,.8082.8082,0,0,0,.28-.6963v-3.521h.8608v3.521a1.5173,1.5173,0,0,1-.5073,1.3125,3.1087,3.1087,0,0,1-2.9331,0Z" style="fill:#b6bac1"/><path d="M98.4262,23.2627H96.9418v-.7769h3.8291v.7769H99.2938v4.3892h-.8677Z" style="fill:#b6bac1"/><path d="M50.0193,17.0089H77.4088a0,0,0,0,1,0,0V347.2441a0,0,0,0,1,0,0H50.0193a5.6693,5.6693,0,0,1-5.6693-5.6693V22.6782A5.6693,5.6693,0,0,1,50.0193,17.0089Z" style="fill:#45546b"/><path d="M58.0092,22.4858h.8613v5.166h-.8613Z" style="fill:#b6bac1"/><path d="M59.892,22.4858h.6929l2.3521,3.689v-3.689h.8682v5.166h-.6934L60.76,23.9629v3.689H59.892Z" style="fill:#b6bac1"/><rect x="4.4959" y="17.0079" width="35.4667" height="46.4934" rx="5.6693" ry="5.6693" style="fill:#ef464c"/><path d="M16.5673,23.8379H15.0829V23.061H18.912v.7769H17.435v4.3892h-.8677Z" style="fill:#f8f9f9"/><path d="M19.5067,23.061h2.1a1.5021,1.5021,0,0,1,1.043.3467,1.6462,1.6462,0,0,1,.3853,1.2563,1.6521,1.6521,0,0,1-.2417,1.001,1.31,1.31,0,0,1-.6333.4482l.9937,2.1138h-.875l-.896-1.9878q-.427,0-1.0146-.0142v2.002h-.8613ZM21.46,25.5459a.69.69,0,0,0,.5215-.1924.9923.9923,0,0,0,.1855-.6895.8857.8857,0,0,0-.1855-.6509.73.73,0,0,0-.5215-.1753H20.3681v1.708Z" style="fill:#f8f9f9"/><path d="M23.8471,23.061h.8613v5.166h-.8613Z" style="fill:#f8f9f9"/><path d="M26.1674,27.9609a1.5912,1.5912,0,0,1-.49-.8716,6.4087,6.4087,0,0,1-.1362-1.4521,5.6042,5.6042,0,0,1,.1572-1.4668,1.5476,1.5476,0,0,1,.56-.8608,1.8867,1.8867,0,0,1,1.1377-.2974,7.2056,7.2056,0,0,1,1.7148.21v.665q-.2593-.0352-.6963-.0669t-.8716-.0312a1.2073,1.2073,0,0,0-.71.1748.9244.9244,0,0,0-.3325.5674,5.215,5.215,0,0,0-.0913,1.1128A5.25,5.25,0,0,0,26.5,26.7676a.89.89,0,0,0,.3042.5425,1.0533,1.0533,0,0,0,.62.1538,3.01,3.01,0,0,0,.5742-.0557,3.8151,3.8151,0,0,0,.5107-.1333v-1.19h-1.043v-.6719q.21-.0278.5391-.0488t.644-.021c.28,0,.5112.0068.6929.021v2.8628h-.6509l-.1191-.3569a3.4,3.4,0,0,1-.6509.2729,2.5629,2.5629,0,0,1-.7769.1191A1.4585,1.4585,0,0,1,26.1674,27.9609Z" style="fill:#f8f9f9"/><path d="M17.8969,80.4043l-.4336-3.6958-1.0225,3.6958h-.8115L14.6,76.7295l-.4131,3.6748h-.833l.5947-5.166h.84l1.2529,4.1372,1.2461-4.1372h.8408l.6084,5.166Z" style="fill:#b6bac1"/><path d="M19.7836,80.0718a1.5162,1.5162,0,0,1-.5078-1.3125v-3.521h.8613v3.521a.8058.8058,0,0,0,.28.6963,1.7831,1.7831,0,0,0,1.666,0,.808.808,0,0,0,.2793-.6963v-3.521h.8613v3.521a1.5162,1.5162,0,0,1-.5078,1.3125,2.4757,2.4757,0,0,1-1.4658.3677A2.477,2.477,0,0,1,19.7836,80.0718Z" style="fill:#b6bac1"/><path d="M25.2328,76.0151H23.7484v-.7769h3.8291v.7769H26.101v4.3892h-.8682Z" style="fill:#b6bac1"/><path d="M28.4564,80.2222a.9461.9461,0,0,1-.3535-.875V76.3652a1.0547,1.0547,0,0,1,.3223-.8608,1.1789,1.1789,0,0,1,.7764-.2661q.6577,0,1.1338.021t1.0928.0562v.7207H29.475a.5357.5357,0,0,0-.3779.1226.4753.4753,0,0,0-.1328.3677v.917l2.1484.0488v.6792l-2.1484.0488v.8892a.4518.4518,0,0,0,.5039.5181h1.96v.7207q-.8818.0776-2.1279.0913A1.5768,1.5768,0,0,1,28.4564,80.2222Z" style="fill:#b6bac1"/><path d="M22.9374,86.9551h-2.082l-.1084-.2583,1.6685-3.03h.4858l-1.6021,2.88h1.6382V85.3711l.1021-.4141h.3716v1.59h.606v.33l-.606.0781v1.1221h-.4736Z" style="fill:#b6bac1"/><path d="M10.7655,91.416V91.05h1.4463a1.28,1.28,0,0,0,.666-.1436.57.57,0,0,0,.2339-.5283V90.084a.53.53,0,0,0-.2251-.4741,1.03,1.03,0,0,0-.543-.1616l-1.1338-.042v-.3481l1.1157-.0483q.7258-.0293.7261-.5757V88.14a.6146.6146,0,0,0-.2187-.5073,1.0338,1.0338,0,0,0-.6572-.1768h-1.26V87.09a11.1746,11.1746,0,0,1,1.4336-.084,1.26,1.26,0,0,1,.873.2822.9809.9809,0,0,1,.2974.7559v.3779a.7632.7632,0,0,1-.1982.564.8463.8463,0,0,1-.438.2461.9727.9727,0,0,1,.3179.144.9.9,0,0,1,.39.7681V90.45a.9553.9553,0,0,1-.3208.7739,1.3661,1.3661,0,0,1-.9033.27A14.1009,14.1009,0,0,1,10.7655,91.416Z" style="fill:#b6bac1"/><path d="M30.22,91.4219v-.3657h1.53a1.0115,1.0115,0,0,0,.6479-.1953.64.64,0,0,0,.2461-.5308v-.48a.6348.6348,0,0,0-.1895-.4922.7834.7834,0,0,0-.5488-.1738H31.432a.5687.5687,0,0,0-.6416.5039h-.45l.126-2.646H32.974v.4321H30.88l-.0781,1.62a.6067.6067,0,0,1,.2671-.2251,1.0163,1.0163,0,0,1,.4531-.0933H32.05a1.0762,1.0762,0,0,1,.7861.2764.9541.9541,0,0,1,.2817.7139V90.42a.9239.9239,0,0,1-.3721.7949,1.6565,1.6565,0,0,1-1.002.2729Q30.8805,91.4878,30.22,91.4219Z" style="fill:#b6bac1"/><path d="M6.1586,98.9429,7.79,97.377a2.6319,2.6319,0,0,0,.5249-.645,1.389,1.389,0,0,0,.1528-.6567.71.71,0,0,0-.21-.5522,1.1072,1.1072,0,0,0-.7437-.1919h-1.2v-.3662q.2878-.03.6392-.0566t.6631-.0273a1.4332,1.4332,0,0,1,1.02.2974,1.1111,1.1111,0,0,1,.3062.8369,1.798,1.798,0,0,1-.18.8188,2.9436,2.9436,0,0,1-.6064.7651l-1.35,1.2959H9.1044v.438H6.1586Z" style="fill:#b6bac1"/><path d="M35.5277,99.1592a1.2468,1.2468,0,0,1-.4082-.6812,5.01,5.01,0,0,1-.144-1.353q0-2.2441,1.5664-2.2441a9.7735,9.7735,0,0,1,1.0977.0659v.3662H36.5478a.9319.9319,0,0,0-.8071.4019,2.0509,2.0509,0,0,0-.2852,1.188,9.7755,9.7755,0,0,1,1.2183-.06,1.6056,1.6056,0,0,1,.9238.2163.8056.8056,0,0,1,.3062.708v.6177a.896.896,0,0,1-.2822.7354,1.1379,1.1379,0,0,1-.7437.231h-.6841A1.1029,1.1029,0,0,1,35.5277,99.1592Zm1.26-.24a.7538.7538,0,0,0,.4712-.1318.5659.5659,0,0,0,.1709-.4741v-.4678a.5.5,0,0,0-.207-.4741,1.3613,1.3613,0,0,0-.6567-.12h-1.11a4.3154,4.3154,0,0,0,.0933,1.0142.9372.9372,0,0,0,.27.51.6932.6932,0,0,0,.4531.144Z" style="fill:#b6bac1"/><path d="M7.6049,103.2178l-.9058.2461v-.3057l.9536-.4082h.4321v4.458h-.48Z" style="fill:#b6bac1"/><path d="M37.8007,104.272h-2.22v-.48h2.67l.1558.2461-1.6138,4.17h-.5342Z" style="fill:#b6bac1"/><path d="M9.8856,114.3711a.9959.9959,0,0,1-.2969-.7891v-2.34a1.0326,1.0326,0,0,1,.3-.7949,1.1261,1.1261,0,0,1,.7983-.2793h.8579a1.03,1.03,0,0,1,.7979.2881,1.12,1.12,0,0,1,.2642.7861v2.34a1.0242,1.0242,0,0,1-.2822.7891,1.1046,1.1046,0,0,1-.78.2612h-.8579A1.1717,1.1717,0,0,1,9.8856,114.3711Zm1.5513-.165a.6073.6073,0,0,0,.69-.6841v-2.2437a.5969.5969,0,0,0-.6724-.6782h-.69a.7087.7087,0,0,0-.51.1772.6576.6576,0,0,0-.186.501v2.2437a.6655.6655,0,0,0,.186.51.7357.7357,0,0,0,.522.1738Z" style="fill:#b6bac1"/><path d="M31.7846,114.4219a.7711.7711,0,0,1-.2847-.6655V113.12a.713.713,0,0,1,.1709-.4888.7517.7517,0,0,1,.3931-.249.7693.7693,0,0,1-.48-.78v-.5039a.8654.8654,0,0,1,.2666-.6992,1.0585,1.0585,0,0,1,.7051-.2246h.8281a.8115.8115,0,0,1,.9121.9238v.5039a.9.9,0,0,1-.12.4438.5438.5438,0,0,1-.33.2764.5829.5829,0,0,1,.3989.2729.91.91,0,0,1,.1353.4888v.6724q0,.876-.9961.876h-.81A1.3059,1.3059,0,0,1,31.7846,114.4219Zm1.5029-.1978a.6858.6858,0,0,0,.4683-.1348.51.51,0,0,0,.15-.3994v-.5576a.545.545,0,0,0-.147-.4292.7509.7509,0,0,0-.4951-.1289H32.64a.8189.8189,0,0,0-.4526.1377.4672.4672,0,0,0-.2134.42v.5576a.4644.4644,0,0,0,.18.4053.82.82,0,0,0,.4858.1289Zm-.0239-2.0581a.5235.5235,0,0,0,.4263-.165.5845.5845,0,0,0,.1377-.3867V111.2a.6915.6915,0,0,0-.1318-.4771.5265.5265,0,0,0-.4019-.1411H32.64a.6.6,0,0,0-.45.144.67.67,0,0,0-.1382.4741v.4141a.5488.5488,0,0,0,.147.4019.5915.5915,0,0,0,.4409.15Z" style="fill:#b6bac1"/><line x1="22.3944" y1="134.4203" x2="22.3944" y2="101.113" style="fill:#ef464c;stroke:#ef464c;stroke-miterlimit:10;stroke-width:2px"/></svg>