<svg xmlns="http://www.w3.org/2000/svg" width="25.4mm" height="128.4993mm" viewBox="0 0 72 364.25"><title>SH16</title><rect width="72" height="364.25" style="fill:#364156"/><rect x="28.8" y="3.6875" width="14.4" height="9.1667" rx="4.5833" ry="4.5833" style="fill:#ef464c"/><path d="M33.2909,6.88H31.9741V5.6548h4V6.88H34.657v4.0067H33.2909Z" style="fill:#fff"/><path d="M38.7091,9.6616h1.3168v1.2253h-4V9.6616H37.343V5.6548h1.3661Z" style="fill:#fff"/><rect x="5.1" y="17.0089" width="61.8" height="46.4934" rx="5.6693" ry="5.6693" style="fill:#ef464c"/><path d="M30.1734,23.8394H28.6891v-.7769h3.8291v.7769H31.0406v4.3892h-.8672Z" style="fill:#f8f9f9"/><path d="M33.1129,23.0625h2.1a1.5021,1.5021,0,0,1,1.043.3467,1.6462,1.6462,0,0,1,.3857,1.2563,1.6518,1.6518,0,0,1-.2422,1.001,1.3109,1.3109,0,0,1-.6328.4482l.9932,2.1138h-.875l-.8955-1.9878q-.4277,0-1.0146-.0142v2.002h-.8613Zm1.9531,2.4849a.691.691,0,0,0,.5215-.1924.9948.9948,0,0,0,.1855-.6895.8879.8879,0,0,0-.1855-.6509.7314.7314,0,0,0-.5215-.1753H33.9742v1.708Z" style="fill:#f8f9f9"/><path d="M37.4527,23.0625h.8613v5.166h-.8613Z" style="fill:#f8f9f9"/><path d="M39.773,27.9624a1.5971,1.5971,0,0,1-.49-.8716,6.4122,6.4122,0,0,1-.1357-1.4521,5.5834,5.5834,0,0,1,.1572-1.4668,1.547,1.547,0,0,1,.56-.8608,1.8867,1.8867,0,0,1,1.1377-.2974,7.2026,7.2026,0,0,1,1.7148.21v.665c-.1729-.0234-.4043-.0459-.6963-.0669s-.582-.0312-.8711-.0312a1.2079,1.2079,0,0,0-.7109.1748.924.924,0,0,0-.332.5674,5.2093,5.2093,0,0,0-.0918,1.1128,5.2437,5.2437,0,0,0,.0918,1.1235.8925.8925,0,0,0,.3037.5425,1.055,1.055,0,0,0,.62.1538,3.01,3.01,0,0,0,.5742-.0557,3.8151,3.8151,0,0,0,.5107-.1333v-1.19h-1.043v-.6719q.2095-.0278.5391-.0488t.6436-.021q.42,0,.6934.021v2.8628h-.6514l-.1191-.3569a3.3941,3.3941,0,0,1-.65.2729,2.5637,2.5637,0,0,1-.7773.1191A1.4593,1.4593,0,0,1,39.773,27.9624Z" style="fill:#f8f9f9"/><rect x="5.1" y="68.251" width="61.8" height="278.9941" rx="5.6693" ry="5.6693" style="fill:#2c3644"/><path d="M30.3932,80.07a1.3169,1.3169,0,0,1-.665-.7627A6.1751,6.1751,0,0,1,29.732,76a1.36,1.36,0,0,1,.668-.78,2.8258,2.8258,0,0,1,1.1836-.2065,2.8721,2.8721,0,0,1,1.1934.2065,1.3448,1.3448,0,0,1,.668.7769,4.7576,4.7576,0,0,1,.2246,1.6626,4.6132,4.6132,0,0,1-.2275,1.6484,1.3368,1.3368,0,0,1-.665.7627,3.6566,3.6566,0,0,1-2.3838,0Zm1.9287-.7173a.8232.8232,0,0,0,.3672-.5283,4.5308,4.5308,0,0,0,.1123-1.1655,4.6939,4.6939,0,0,0-.1152-1.2041.82.82,0,0,0-.3682-.5322,1.6171,1.6171,0,0,0-.7344-.1328,1.5369,1.5369,0,0,0-.7217.1367.8432.8432,0,0,0-.3711.5317,4.49,4.49,0,0,0-.1191,1.2007,4.5962,4.5962,0,0,0,.1094,1.1689.8136.8136,0,0,0,.36.5249,2.0251,2.0251,0,0,0,1.48,0Z" style="fill:#b6bac1"/><path d="M34.9391,79.8955a1.5185,1.5185,0,0,1-.5068-1.3125V75.062h.86v3.521a.8084.8084,0,0,0,.28.6963,1.7831,1.7831,0,0,0,1.666,0,.8084.8084,0,0,0,.28-.6963V75.062h.86v3.521a1.5185,1.5185,0,0,1-.5068,1.3125,3.11,3.11,0,0,1-2.9336,0Z" style="fill:#b6bac1"/><path d="M40.3893,75.8389H38.9049V75.062H42.734v.7769H41.2564V80.228h-.8672Z" style="fill:#b6bac1"/><path d="M28.5045,358.0674V356.99q.7.063,1.6025.0625a1.2852,1.2852,0,0,0,.5254-.08.2831.2831,0,0,0,.168-.2773v-.084a.2719.2719,0,0,0-.1045-.2275.4218.4218,0,0,0-.26-.08H30.065a1.8134,1.8134,0,0,1-1.2422-.3672,1.5248,1.5248,0,0,1-.4092-1.1865v-.2314a1.4173,1.4173,0,0,1,.4551-1.1475,2.02,2.02,0,0,1,1.3369-.3857,7.0636,7.0636,0,0,1,1.624.2031v1.0781q-.7837-.063-1.4561-.0625a1.2108,1.2108,0,0,0-.5039.08.3053.3053,0,0,0-.168.3047v.07q0,.356.4551.3564h.4619a1.4472,1.4472,0,0,1,1.0879.3926,1.3992,1.3992,0,0,1,.3818,1.0215v.2314a1.8622,1.8622,0,0,1-.2236.9971,1.1354,1.1354,0,0,1-.6338.4834,3.5847,3.5847,0,0,1-1.0537.1289A6.5769,6.5769,0,0,1,28.5045,358.0674Z" style="fill:#b6bac1"/><path d="M32.7252,353.0273h1.3584v2.002h1.54v-2.002h1.3574v5.2012H35.6236v-1.98h-1.54v1.98H32.7252Z" style="fill:#b6bac1"/><path d="M38.3463,354.2734H37.52v-.8682l.9795-.42h1.2041v5.2432H38.3463Z" style="fill:#b6bac1"/><path d="M40.9889,358.05a1.3539,1.3539,0,0,1-.5322-.77,5.1818,5.1818,0,0,1-.1787-1.5361,4.6659,4.6659,0,0,1,.2383-1.6562,1.6024,1.6024,0,0,1,.6826-.8535,2.277,2.277,0,0,1,1.124-.249,5.4254,5.4254,0,0,1,1.3438.1406v1.0781H42.483a.8157.8157,0,0,0-.6543.2275,1.0357,1.0357,0,0,0-.1924.6816,1.3112,1.3112,0,0,1,.3955-.1182,4.8778,4.8778,0,0,1,.6055-.0283,1.35,1.35,0,0,1,1.0469.332,1.366,1.366,0,0,1,.29.9277v.7559a1.2451,1.2451,0,0,1-.35.9736,1.4252,1.4252,0,0,1-.9873.3145h-.7207A1.7281,1.7281,0,0,1,40.9889,358.05Zm1.3262-.9971a.2756.2756,0,0,0,.2344-.0879.4376.4376,0,0,0,.0674-.27V356.5a.4508.4508,0,0,0-.0771-.3047.4206.4206,0,0,0-.3008-.08h-.6025a2.3987,2.3987,0,0,0,.0527.5732.4686.4686,0,0,0,.1709.2842.5975.5975,0,0,0,.3359.08Z" style="fill:#b6bac1"/></svg>