<svg xmlns="http://www.w3.org/2000/svg" width="15.24mm" height="128.4993mm" viewBox="0 0 43.2 364.25"><title>SN1</title><rect width="43.2" height="364.25" style="fill:#364156"/><rect x="14.4" y="3.6885" width="14.4" height="9.1667" rx="4.5833" ry="4.5833" style="fill:#ef464c"/><path d="M18.8909,6.8811H17.5741V5.6558h4V6.8811H20.257v4.0067H18.8909Z" style="fill:#fff"/><path d="M24.3091,9.6626h1.3168v1.2253h-4V9.6626H22.943V5.6558h1.3661Z" style="fill:#fff"/><rect x="3.8667" y="307.9985" width="35.4667" height="39.2456" rx="5.2087" ry="5.2087" style="fill:#2c3644"/><path d="M15.9927,317.5522a1.3132,1.3132,0,0,1-.6646-.7627,6.1686,6.1686,0,0,1,.0034-3.3076,1.3619,1.3619,0,0,1,.6685-.78,2.8241,2.8241,0,0,1,1.1831-.2061,2.8712,2.8712,0,0,1,1.1934.2061,1.3433,1.3433,0,0,1,.6685.7773,4.7563,4.7563,0,0,1,.2241,1.6621,4.61,4.61,0,0,1-.2275,1.6484,1.3319,1.3319,0,0,1-.665.7627,2.9154,2.9154,0,0,1-1.1934.2A2.9223,2.9223,0,0,1,15.9927,317.5522Zm1.9287-.7168a.825.825,0,0,0,.3677-.5283,4.54,4.54,0,0,0,.1118-1.166,4.6769,4.6769,0,0,0-.1152-1.2041.82.82,0,0,0-.3677-.5322,1.6246,1.6246,0,0,0-.7349-.1328,1.5422,1.5422,0,0,0-.7212.1367.8426.8426,0,0,0-.3711.5322,4.4883,4.4883,0,0,0-.1191,1.2,4.6236,4.6236,0,0,0,.1089,1.1689.816.816,0,0,0,.36.5254,1.571,1.571,0,0,0,.7422.14A1.5735,1.5735,0,0,0,17.9214,316.8354Z" style="fill:#b6bac1"/><path d="M20.5391,317.3774a1.5173,1.5173,0,0,1-.5073-1.3125v-3.5205h.8608v3.5205a.8059.8059,0,0,0,.28.6963,1.7794,1.7794,0,0,0,1.666,0,.807.807,0,0,0,.28-.6963v-3.5205h.8608v3.5205a1.5173,1.5173,0,0,1-.5073,1.3125,2.4772,2.4772,0,0,1-1.4663.3682A2.4779,2.4779,0,0,1,20.5391,317.3774Z" style="fill:#b6bac1"/><path d="M25.9888,313.3207H24.5044v-.7764h3.8291v.7764H26.8564v4.39h-.8677Z" style="fill:#b6bac1"/><path d="M16.0107,358.0659v-1.0771q.7.063,1.6025.0625a1.2852,1.2852,0,0,0,.5254-.08.2831.2831,0,0,0,.168-.2773v-.084a.2719.2719,0,0,0-.1045-.2275.4218.4218,0,0,0-.26-.08h-.3711a1.8134,1.8134,0,0,1-1.2422-.3672,1.5248,1.5248,0,0,1-.4092-1.1865v-.2314a1.4173,1.4173,0,0,1,.4551-1.1475,2.02,2.02,0,0,1,1.3369-.3857,7.0636,7.0636,0,0,1,1.624.2031v1.0781q-.7837-.063-1.4561-.0625a1.2108,1.2108,0,0,0-.5039.08.3053.3053,0,0,0-.168.3047v.07q0,.356.4551.3564h.4619a1.4472,1.4472,0,0,1,1.0879.3926,1.3992,1.3992,0,0,1,.3818,1.0215v.2314a1.8622,1.8622,0,0,1-.2236.9971,1.1354,1.1354,0,0,1-.6338.4834,3.5847,3.5847,0,0,1-1.0537.1289A6.5769,6.5769,0,0,1,16.0107,358.0659Z" style="fill:#b6bac1"/><path d="M20.2314,353.0258H21.31l1.8271,2.8984v-2.8984h1.3574v5.2012H23.416L21.59,355.33v2.8975H20.2314Z" style="fill:#b6bac1"/><path d="M25.8594,354.2719h-.8262v-.8682l.98-.42h1.2041v5.2432H25.8594Z" style="fill:#b6bac1"/><path d="M12.08,28.225a5.7919,5.7919,0,0,1-.7632-.1118V27.434q.6306.0564,1.561.0562a1.5059,1.5059,0,0,0,.7109-.1333.5024.5024,0,0,0,.2412-.4829v-.2451a.5542.5542,0,0,0-.1538-.42.6375.6375,0,0,0-.4551-.147h-.4829a1.634,1.634,0,0,1-1.1025-.3218,1.3206,1.3206,0,0,1-.3677-1.043v-.2661a1.3254,1.3254,0,0,1,.4063-1.0713,1.8251,1.8251,0,0,1,1.2036-.3428,7.1731,7.1731,0,0,1,.7949.0488q.43.0491.7383.1123v.6787q-.9448-.063-1.4351-.063a1.2267,1.2267,0,0,0-.6616.1436.5835.5835,0,0,0-.22.5288v.1748a.5547.5547,0,0,0,.1714.4551.814.814,0,0,0,.5215.14h.5391a1.31,1.31,0,0,1,.99.353,1.2924,1.2924,0,0,1,.34.9346v.3291a1.2459,1.2459,0,0,1-.4482,1.1094,2.2826,2.2826,0,0,1-1.2881.3047Q12.542,28.267,12.08,28.225Z" style="fill:#b6bac1"/><path d="M15.4888,23.059H17.624a1.5117,1.5117,0,0,1,1.0288.3535,1.7957,1.7957,0,0,1,.4063,1.3755q0,1.7783-1.4214,1.7778-.2168,0-.6367-.0347t-.6509-.07V28.225h-.8613Zm2.0229,2.7231a.596.596,0,0,0,.5-.231,1.2514,1.2514,0,0,0,.1787-.7563q0-.9587-.6509-.959H16.35v1.9463Z" style="fill:#b6bac1"/><path d="M20.1475,28.0429a.9472.9472,0,0,1-.3535-.875V24.186a1.0547,1.0547,0,0,1,.3223-.8608,1.18,1.18,0,0,1,.7769-.2661q.6577,0,1.1338.021t1.0923.0562v.7207H21.166a.5374.5374,0,0,0-.3779.1226.4753.4753,0,0,0-.1328.3677v.917l2.1489.0488v.6792l-2.1489.0488V26.93a.4518.4518,0,0,0,.5039.5181h1.96v.7207q-.8818.0776-2.1279.0913A1.5792,1.5792,0,0,1,20.1475,28.0429Z" style="fill:#b6bac1"/><path d="M24.2354,28.0429a.9472.9472,0,0,1-.3535-.875V24.186a1.0547,1.0547,0,0,1,.3223-.8608,1.18,1.18,0,0,1,.7769-.2661q.6577,0,1.1338.021t1.0923.0562v.7207H25.2539a.5374.5374,0,0,0-.3779.1226.4753.4753,0,0,0-.1328.3677v.917l2.1489.0488v.6792l-2.1489.0488V26.93a.4518.4518,0,0,0,.5039.5181h1.96v.7207q-.8818.0776-2.1279.0913A1.5792,1.5792,0,0,1,24.2354,28.0429Z" style="fill:#b6bac1"/><path d="M28.04,23.059h2.1353a1.468,1.468,0,0,1,1.3613.6582,3.7336,3.7336,0,0,1,.4023,1.9248,3.46,3.46,0,0,1-.4409,1.9321,1.4909,1.4909,0,0,1-1.3228.6509H28.04Zm2.0513,4.3892a.79.79,0,0,0,.749-.4585,3.0156,3.0156,0,0,0,.2378-1.3477,4.4317,4.4317,0,0,0-.105-1.0918.9869.9869,0,0,0-.3184-.5532.9131.9131,0,0,0-.5635-.1611h-1.19v3.6123Z" style="fill:#b6bac1"/><path d="M11.5728,106.6782a2.3246,2.3246,0,0,1-.3955-.105v-.686a4.6924,4.6924,0,0,0,.644.0562.6555.6555,0,0,0,.4546-.14.6081.6081,0,0,0,.1543-.4692v-3.8218h.8682V105.46a1.2955,1.2955,0,0,1-.3081.9551,1.3512,1.3512,0,0,1-.98.3047A2.4214,2.4214,0,0,1,11.5728,106.6782Z" style="fill:#b6bac1"/><path d="M14.2568,101.5122h.8613v5.166h-.8613Z" style="fill:#b6bac1"/><path d="M17.1973,102.289H15.7129v-.7769H19.542v.7769H18.0649v4.3892h-.8677Z" style="fill:#b6bac1"/><path d="M21.32,102.289H19.8354v-.7769h3.8291v.7769H22.1875v4.3892H21.32Z" style="fill:#b6bac1"/><path d="M24.5435,106.496a.9472.9472,0,0,1-.3535-.875v-2.9819a1.0547,1.0547,0,0,1,.3223-.8608,1.18,1.18,0,0,1,.7769-.2661q.6577,0,1.1338.021t1.0923.0562v.7207H25.562a.5374.5374,0,0,0-.3779.1226.4753.4753,0,0,0-.1328.3677v.917l2.1489.0488v.6792l-2.1489.0488v.8892a.4518.4518,0,0,0,.5039.5181h1.96v.7207q-.8818.0776-2.1279.0913A1.5792,1.5792,0,0,1,24.5435,106.496Z" style="fill:#b6bac1"/><path d="M28.3477,101.5122h2.1a1.5021,1.5021,0,0,1,1.043.3467,2.22,2.22,0,0,1,.1436,2.2573,1.31,1.31,0,0,1-.6333.4482l.9937,2.1138H31.12l-.896-1.9878q-.427,0-1.0146-.0142v2.002h-.8613Zm1.9531,2.4849a.69.69,0,0,0,.5215-.1924.9923.9923,0,0,0,.1855-.6895.8857.8857,0,0,0-.1855-.6509.73.73,0,0,0-.5215-.1753H29.209v1.708Z" style="fill:#b6bac1"/><line x1="21.6" y1="64.9861" x2="21.6" y2="56.9861" style="fill:#ef464c;stroke:#ef464c;stroke-miterlimit:10;stroke-width:2px"/><line x1="21.6" y1="143.9861" x2="21.6" y2="135.9861" style="fill:#ef464c;stroke:#ef464c;stroke-miterlimit:10;stroke-width:2px"/><path d="M8.4712,183.3354h2.1353a1.5117,1.5117,0,0,1,1.0288.3535,1.797,1.797,0,0,1,.4063,1.376q0,1.7783-1.4214,1.7773c-.1445,0-.3569-.0107-.6367-.0342s-.4971-.0469-.6509-.07v1.7637H8.4712Zm2.0229,2.7236a.5951.5951,0,0,0,.5-.2314,1.2507,1.2507,0,0,0,.1787-.7559q0-.9595-.6509-.959h-1.19v1.9463Z" style="fill:#b6bac1"/><path d="M12.7764,183.3354h.8613v5.166h-.8613Z" style="fill:#b6bac1"/><path d="M14.6592,183.3354h.6929l2.3521,3.6895v-3.6895h.8682v5.166h-.6934l-2.3516-3.6885v3.6885h-.8682Z" style="fill:#b6bac1"/><path d="M19.5381,183.3354h.6929l2.3521,3.6895v-3.6895h.8682v5.166h-.6934l-2.3516-3.6885v3.6885h-.8682Z" style="fill:#b6bac1"/><path d="M24.3608,183.3354h.8613v5.166h-.8613Z" style="fill:#b6bac1"/><path d="M26.2441,183.3354h.6929l2.3521,3.6895v-3.6895h.8682v5.166h-.6934l-2.3516-3.6885v3.6885h-.8682Z" style="fill:#b6bac1"/><path d="M31.5605,188.2358a1.5926,1.5926,0,0,1-.49-.8721,6.4087,6.4087,0,0,1-.1362-1.4521,5.6068,5.6068,0,0,1,.1572-1.4668,1.548,1.548,0,0,1,.56-.86,1.8866,1.8866,0,0,1,1.1377-.2979,7.2307,7.2307,0,0,1,1.7148.21v.665q-.2593-.0352-.6963-.0664c-.292-.0215-.5825-.0312-.8716-.0312a1.2073,1.2073,0,0,0-.71.1748.923.923,0,0,0-.3325.5674,6.892,6.892,0,0,0,0,2.2363.8891.8891,0,0,0,.3042.542,1.0531,1.0531,0,0,0,.62.1543,3.01,3.01,0,0,0,.5742-.0557,3.8869,3.8869,0,0,0,.5107-.1338V186.36h-1.043v-.6719q.21-.0278.5391-.0488t.644-.0215c.28,0,.5112.0068.6929.0215v2.8623H34.084l-.1191-.3564a3.4,3.4,0,0,1-.6509.2725,2.5479,2.5479,0,0,1-.7769.1191A1.4609,1.4609,0,0,1,31.5605,188.2358Z" style="fill:#b6bac1"/></svg>