<svg xmlns="http://www.w3.org/2000/svg" width="25.4mm" height="128.4993mm" viewBox="0 0 72 364.25"><title>TTA</title><rect width="72" height="364.25" style="fill:#364156"/><rect x="28.8" y="3.6875" width="14.4" height="9.1667" rx="4.5833" ry="4.5833" style="fill:#ef464c"/><path d="M33.2909,6.88H31.9741V5.6548h4V6.88H34.657v4.0067H33.2909Z" style="fill:#fff"/><path d="M38.7091,9.6616h1.3168v1.2253h-4V9.6616H37.343V5.6548h1.3661Z" style="fill:#fff"/><rect x="5.1" y="17.0079" width="61.8" height="46.4934" rx="5.6693" ry="5.6693" style="fill:#ef464c"/><path d="M20.0156,23.0615h1.0928l1.68,5.166h-.9033l-.3984-1.2251H19.6172l-.3926,1.2251h-.8887Zm1.2607,3.1641-.7285-2.4219L19.82,26.2256Z" style="fill:#f8f9f9"/><rect x="5.1" y="68.25" width="61.8" height="278.9941" rx="5.6693" ry="5.6693" style="fill:#2c3644"/><path d="M30.8477,354.2451H29.5391v-1.2187h3.9756v1.2188h-1.31v3.9824H30.8477Z" style="fill:#b6bac1"/><path d="M35.1172,354.2451H33.8086v-1.2187h3.9766v1.2188h-1.31v3.9824H35.1172Z" style="fill:#b6bac1"/><path d="M37.792,355.6592H39.99v1.0771H37.792Z" style="fill:#b6bac1"/><path d="M41.6348,353.0264h1.6934l1.541,5.2012H43.4609l-.209-.8262H41.69l-.2021.8262H40.0947Zm1.3018,3.1572-.4687-2.002-.4619,2.002Z" style="fill:#b6bac1"/><path d="M49.74,23.0615h1.9736q1.4282,0,1.4277,1.3442a1.3246,1.3246,0,0,1-.1992.7524.8831.8831,0,0,1-.5283.3813,1.184,1.184,0,0,1,.6338.4023,1.2919,1.2919,0,0,1,.2627.8574,1.3913,1.3913,0,0,1-.3789,1.0991,1.6842,1.6842,0,0,1-1.1338.3291H49.74Zm1.9883,2.1841a.5251.5251,0,0,0,.4268-.1963.8.8,0,0,0,.1611-.5249q0-.6855-.6094-.686H50.6016v1.4072Zm.042,2.2051a.7125.7125,0,0,0,.5313-.1855.8514.8514,0,0,0,.1826-.6128.7172.7172,0,0,0-.2-.5386.7.7,0,0,0-.5137-.1963H50.6016v1.5332Z" style="fill:#f8f9f9"/><path d="M15.7188,75.061h1.0918l1.68,5.166h-.9023l-.3994-1.2251H15.3193l-.3916,1.2251h-.8887Zm1.26,3.1641L16.25,75.8032l-.7275,2.4219Z" style="fill:#b6bac1"/><path d="M22.34,78.085H21.123v1.2183h-.7012V78.085H19.2051v-.7h1.2168V76.167h.7012v1.2183H22.34Z" style="fill:#b6bac1"/><path d="M23.3906,75.061h1.9736q1.4282,0,1.4277,1.3442a1.3246,1.3246,0,0,1-.1992.7524.8859.8859,0,0,1-.5283.3813,1.178,1.178,0,0,1,.6328.4023,1.2869,1.2869,0,0,1,.2637.8574,1.3913,1.3913,0,0,1-.3789,1.0991,1.6842,1.6842,0,0,1-1.1338.3291H23.3906Zm1.9883,2.1841a.5232.5232,0,0,0,.4258-.1963.8.8,0,0,0,.1621-.5249q0-.6855-.6094-.686H24.252v1.4072ZM25.42,79.45a.7134.7134,0,0,0,.5322-.1855.8514.8514,0,0,0,.1826-.6128.7172.7172,0,0,0-.2-.5386.7011.7011,0,0,0-.5146-.1963H24.252V79.45Z" style="fill:#b6bac1"/><path d="M46.3408,75.061h1.0928l1.68,5.166H48.21l-.3984-1.2251H45.9424L45.55,80.2271h-.8887Zm1.2607,3.1641-.7285-2.4219-.7275,2.4219Z" style="fill:#b6bac1"/><path d="M49.1836,75.061h.8955l1.33,4.2349,1.33-4.2349h.8955l-1.68,5.166H50.8633Z" style="fill:#b6bac1"/><path d="M54.6963,79.9609a1.5853,1.5853,0,0,1-.49-.8716,6.4053,6.4053,0,0,1-.1367-1.4521,5.6253,5.6253,0,0,1,.1572-1.4668,1.5483,1.5483,0,0,1,.5605-.8608,1.8867,1.8867,0,0,1,1.1377-.2974,7.2087,7.2087,0,0,1,1.7148.21v.665q-.2593-.0352-.6963-.0669t-.8721-.0312a1.2066,1.2066,0,0,0-.71.1748.9248.9248,0,0,0-.333.5674,6.9286,6.9286,0,0,0,0,2.2363.8885.8885,0,0,0,.3047.5425,1.0516,1.0516,0,0,0,.6191.1538,3.01,3.01,0,0,0,.5742-.0557,3.8151,3.8151,0,0,0,.5107-.1333v-1.19h-1.043v-.6719q.2109-.0278.5391-.0488t.6445-.021c.2793,0,.5107.0068.6924.021v2.8628h-.65l-.1191-.3569a3.4049,3.4049,0,0,1-.6514.2729,2.5621,2.5621,0,0,1-.7764.1191A1.4576,1.4576,0,0,1,54.6963,79.9609Z" style="fill:#b6bac1"/><path d="M16.67,121.41h1.0928l1.68,5.166h-.9033l-.3984-1.2251H16.2715l-.3926,1.2251H14.99Zm1.2607,3.1641-.7275-2.4219-.7285,2.4219Z" style="fill:#b6bac1"/><path d="M19.6875,124.1958h2.1143v.7H19.6875Z" style="fill:#b6bac1"/><path d="M22.4385,121.41h1.9736q1.43,0,1.4277,1.3442a1.3246,1.3246,0,0,1-.1992.7524.8839.8839,0,0,1-.5273.3813,1.1851,1.1851,0,0,1,.6328.4023,1.2919,1.2919,0,0,1,.2627.8574,1.3911,1.3911,0,0,1-.3779,1.0991,1.6871,1.6871,0,0,1-1.1348.3291H22.4385Zm1.9883,2.1841a.5251.5251,0,0,0,.4268-.1963.8.8,0,0,0,.1611-.5249q0-.6855-.6084-.686H23.3v1.4072Zm.042,2.2051A.7125.7125,0,0,0,25,125.6133.8514.8514,0,0,0,25.1826,125a.7172.7172,0,0,0-.2-.5386.7.7,0,0,0-.5137-.1963H23.3v1.5332Z" style="fill:#b6bac1"/><path d="M46.1768,121.41h1.9746q1.4282,0,1.4277,1.3442a1.3246,1.3246,0,0,1-.1992.7524.8859.8859,0,0,1-.5283.3813,1.1816,1.1816,0,0,1,.6328.4023,1.2919,1.2919,0,0,1,.2627.8574,1.3911,1.3911,0,0,1-.3779,1.0991,1.6842,1.6842,0,0,1-1.1338.3291H46.1768Zm1.9883,2.1841a.5238.5238,0,0,0,.4268-.1963.8.8,0,0,0,.1611-.5249q0-.6855-.6084-.686H47.0381v1.4072Zm.042,2.2051a.7134.7134,0,0,0,.5322-.1855A.8559.8559,0,0,0,48.9209,125a.72.72,0,0,0-.1992-.5386.7026.7026,0,0,0-.5146-.1963H47.0381v1.5332Z" style="fill:#b6bac1"/><path d="M50.1885,124.1958h2.1133v.7H50.1885Z" style="fill:#b6bac1"/><path d="M54.2266,121.41h1.0928l1.68,5.166h-.9033l-.3984-1.2251H53.8281l-.3926,1.2251h-.8887Zm1.2607,3.1641-.7285-2.4219-.7275,2.4219Z" style="fill:#b6bac1"/><path d="M16.3066,167.7583h1.0918l1.68,5.166h-.9023l-.3994-1.2251H15.9072l-.3916,1.2251H14.627Zm1.26,3.1641L16.8379,168.5l-.7275,2.4219Z" style="fill:#b6bac1"/><path d="M21.3252,167.5342h.8682l-1.9668,5.894h-.8682Z" style="fill:#b6bac1"/><path d="M22.8027,167.7583h1.9736q1.4282,0,1.4277,1.3442a1.3246,1.3246,0,0,1-.1992.7524.8859.8859,0,0,1-.5283.3813,1.178,1.178,0,0,1,.6328.4023,1.2869,1.2869,0,0,1,.2637.8574,1.3913,1.3913,0,0,1-.3789,1.0991,1.6842,1.6842,0,0,1-1.1338.3291H22.8027Zm1.9883,2.1841a.5232.5232,0,0,0,.4258-.1963.8.8,0,0,0,.1621-.5249q0-.6855-.6094-.686H23.6641v1.4072Zm.041,2.2051a.7134.7134,0,0,0,.5322-.1855.8514.8514,0,0,0,.1826-.6128.7172.7172,0,0,0-.2-.5386.7011.7011,0,0,0-.5146-.1963h-1.168v1.5332Z" style="fill:#b6bac1"/><path d="M45.8125,167.7588h1.9746q1.4282,0,1.4277,1.3442a1.3246,1.3246,0,0,1-.1992.7524.8859.8859,0,0,1-.5283.3813,1.1816,1.1816,0,0,1,.6328.4023,1.2919,1.2919,0,0,1,.2627.8574,1.3911,1.3911,0,0,1-.3779,1.0991,1.6842,1.6842,0,0,1-1.1338.3291H45.8125Zm1.9883,2.1841a.5238.5238,0,0,0,.4268-.1963.8.8,0,0,0,.1611-.5249q0-.6855-.6084-.686H46.6738v1.4072Zm.042,2.2051a.7134.7134,0,0,0,.5322-.1855.8559.8559,0,0,0,.1816-.6128.72.72,0,0,0-.1992-.5386.7026.7026,0,0,0-.5146-.1963H46.6738v1.5332Z" style="fill:#b6bac1"/><path d="M51.7559,167.5347h.8682l-1.9668,5.894h-.8682Z" style="fill:#b6bac1"/><path d="M54.5908,167.7588h1.0918l1.68,5.166H56.46L56.0605,171.7H54.1914L53.8,172.9248h-.8887Zm1.26,3.1641-.7275-2.4219-.7285,2.4219Z" style="fill:#b6bac1"/><path d="M16.9395,214.1064h1.0928l1.68,5.166h-.9033l-.3984-1.2246H16.541l-.3926,1.2246H15.26ZM18.2,217.2705l-.7275-2.4219-.7285,2.4219Z" style="fill:#b6bac1"/><path d="M20.4365,217.0957a.118.118,0,0,1-.0381-.0908v-.5186c0-.0928.0439-.14.1328-.14h.4971c.0889,0,.1328.0469.1328.14v.5186c0,.084-.0439.126-.1328.126h-.4971A.1372.1372,0,0,1,20.4365,217.0957Z" style="fill:#b6bac1"/><path d="M22.1689,214.1064h1.9736q1.43,0,1.4277,1.3447a1.324,1.324,0,0,1-.1992.752.8866.8866,0,0,1-.5273.3818,1.1823,1.1823,0,0,1,.6328.4023,1.291,1.291,0,0,1,.2627.8574,1.3892,1.3892,0,0,1-.3779,1.0986,1.6871,1.6871,0,0,1-1.1348.3291H22.1689Zm1.9883,2.1846a.5251.5251,0,0,0,.4268-.1963.8021.8021,0,0,0,.1611-.5254q0-.6855-.6084-.6855H23.03v1.4072Zm.042,2.2051a.7144.7144,0,0,0,.5313-.1855.8527.8527,0,0,0,.1826-.6133.7153.7153,0,0,0-.2-.5381.7.7,0,0,0-.5137-.1963H23.03v1.5332Z" style="fill:#b6bac1"/><path d="M16.5586,261.2393l-.9727.1748v-.5527l1.0635-.4551h.7764v5.2148h-.8672Z" style="fill:#b6bac1"/><path d="M20.0156,260.2314h.8691L18.918,266.125h-.8691Z" style="fill:#b6bac1"/><path d="M22.8516,260.4551h1.0918l1.68,5.166h-.9023l-.3994-1.2246H22.4521l-.3916,1.2246h-.8887Zm1.26,3.1641-.7285-2.4219-.7275,2.4219Z" style="fill:#b6bac1"/><path d="M47.64,261.24l-.9727.1748v-.5527l1.0635-.4551h.7773v5.2148H47.64Z" style="fill:#b6bac1"/><path d="M51.0977,260.2314h.8682L49.999,266.126h-.8682Z" style="fill:#b6bac1"/><path d="M52.5742,260.4561h1.9746q1.4282,0,1.4277,1.3438a1.3252,1.3252,0,0,1-.1992.7529.8831.8831,0,0,1-.5283.3809,1.1844,1.1844,0,0,1,.6328.4023,1.2928,1.2928,0,0,1,.2627.8574,1.393,1.393,0,0,1-.3779,1.1,1.6842,1.6842,0,0,1-1.1338.3291H52.5742Zm1.9883,2.1836a.5238.5238,0,0,0,.4268-.1963.7974.7974,0,0,0,.1611-.5244q0-.6855-.6084-.6865H53.4355V262.64Zm.042,2.2051a.7114.7114,0,0,0,.5322-.1855.8546.8546,0,0,0,.1816-.6123.7223.7223,0,0,0-.1992-.5391.7026.7026,0,0,0-.5146-.1963H53.4355v1.5332Z" style="fill:#b6bac1"/><path d="M16.1572,309.59h2.1143v.7H16.1572Z" style="fill:#b6bac1"/><path d="M20.1953,306.8037h1.0928l1.68,5.166h-.9033l-.3984-1.2246H19.7969l-.3926,1.2246h-.8887Zm1.2607,3.1641-.7275-2.4219L20,309.9678Z" style="fill:#b6bac1"/><path d="M47.2041,309.5908h2.1133v.6992H47.2041Z" style="fill:#b6bac1"/><path d="M49.9541,306.8047h1.9746q1.4282,0,1.4277,1.3438a1.3252,1.3252,0,0,1-.1992.7529.8831.8831,0,0,1-.5283.3809,1.1844,1.1844,0,0,1,.6328.4023,1.2928,1.2928,0,0,1,.2627.8574,1.393,1.393,0,0,1-.3779,1.1,1.6842,1.6842,0,0,1-1.1338.3291H49.9541Zm1.9883,2.1836a.5238.5238,0,0,0,.4268-.1963.7974.7974,0,0,0,.1611-.5244q0-.6855-.6084-.6865H50.8154v1.4072Zm.042,2.2051a.7114.7114,0,0,0,.5322-.1855.8546.8546,0,0,0,.1816-.6123.7223.7223,0,0,0-.1992-.5391.7026.7026,0,0,0-.5146-.1963H50.8154v1.5332Z" style="fill:#b6bac1"/><path d="M49.3936,214.1064h1.0928l1.68,5.166h-.9033l-.3984-1.2246H48.9951l-.3926,1.2246h-.8887Zm1.2607,3.1641-.7285-2.4219-.7275,2.4219Z" style="fill:#b6bac1"/><path d="M52.5439,211.832h1.41q1.02,0,1.0205.96a.949.949,0,0,1-.1426.5381.6334.6334,0,0,1-.3779.2725.84.84,0,0,1,.4521.2871.9225.9225,0,0,1,.1875.6133.9929.9929,0,0,1-.27.7842,1.2012,1.2012,0,0,1-.81.2354H52.5439Zm1.42,1.5605a.3779.3779,0,0,0,.3057-.14.5768.5768,0,0,0,.1143-.375q0-.4907-.4346-.49h-.79v1.0049Zm.03,1.5752a.5106.5106,0,0,0,.38-.1328.6087.6087,0,0,0,.13-.4375.5114.5114,0,0,0-.1426-.3848.4992.4992,0,0,0-.3672-.1406h-.835v1.0957Z" style="fill:#b6bac1"/></svg>