<svg xmlns="http://www.w3.org/2000/svg" width="40.64mm" height="128.5mm" viewBox="0 0 115.2 364.252"><title>LFO16</title><rect width="115.2" height="364.25" style="fill:#1b1b1b"/><rect x="50.4" y="3.6885" width="14.4" height="9.1667" rx="4.5833" ry="4.5833" style="fill:#ef464c"/><path d="M54.8909,6.8811H53.5741V5.6558h4V6.8811H56.257v4.0067H54.8909Z" style="fill:#fff"/><path d="M60.3091,9.6626h1.3168v1.2253h-4V9.6626H58.943V5.6558h1.3661Z" style="fill:#fff"/><rect x="3.2843" y="17.0079" width="35.4667" height="46.4934" rx="5.6693" ry="5.6693" style="fill:#ef464c"/><path d="M15.19,23.8379H13.7058V23.061h3.8291v.7769H16.0578v4.3892H15.19Z" style="fill:#f8f9f9"/><path d="M18.13,23.061h2.1a1.5021,1.5021,0,0,1,1.043.3467,1.6462,1.6462,0,0,1,.3853,1.2563,1.6521,1.6521,0,0,1-.2417,1.001,1.31,1.31,0,0,1-.6333.4482l.9937,2.1138h-.875l-.896-1.9878q-.427,0-1.0146-.0142v2.002H18.13Zm1.9531,2.4849a.69.69,0,0,0,.5215-.1924.9923.9923,0,0,0,.1855-.6895.8857.8857,0,0,0-.1855-.6509.73.73,0,0,0-.5215-.1753H18.991v1.708Z" style="fill:#f8f9f9"/><path d="M22.47,23.061h.8613v5.166H22.47Z" style="fill:#f8f9f9"/><path d="M24.79,27.9609a1.5912,1.5912,0,0,1-.49-.8716,6.4087,6.4087,0,0,1-.1362-1.4521A5.6042,5.6042,0,0,1,24.321,24.17a1.5476,1.5476,0,0,1,.56-.8608,1.8867,1.8867,0,0,1,1.1377-.2974,7.2056,7.2056,0,0,1,1.7148.21v.665q-.2593-.0352-.6963-.0669t-.8716-.0312a1.2073,1.2073,0,0,0-.71.1748.9244.9244,0,0,0-.3325.5674,5.215,5.215,0,0,0-.0913,1.1128,5.25,5.25,0,0,0,.0913,1.1235.89.89,0,0,0,.3042.5425,1.0533,1.0533,0,0,0,.62.1538,3.01,3.01,0,0,0,.5742-.0557,3.8151,3.8151,0,0,0,.5107-.1333v-1.19h-1.043v-.6719q.21-.0278.5391-.0488t.644-.021c.28,0,.5112.0068.6929.021v2.8628h-.6509l-.1191-.3569a3.4,3.4,0,0,1-.6509.2729,2.5629,2.5629,0,0,1-.7769.1191A1.4585,1.4585,0,0,1,24.79,27.9609Z" style="fill:#f8f9f9"/><rect x="46.443" y="17.0079" width="64.7333" height="330.2362" rx="5.6693" ry="5.6693" style="fill:#111111"/><path d="M73.2024,28.07a1.3146,1.3146,0,0,1-.6646-.7627,4.6705,4.6705,0,0,1-.2241-1.6484A4.6942,4.6942,0,0,1,72.5412,24a1.36,1.36,0,0,1,.6685-.78,2.8234,2.8234,0,0,1,1.1831-.2065,2.8705,2.8705,0,0,1,1.1934.2065,1.3438,1.3438,0,0,1,.6685.7769,4.7594,4.7594,0,0,1,.2241,1.6626,4.6132,4.6132,0,0,1-.2275,1.6484,1.3335,1.3335,0,0,1-.665.7627,3.6566,3.6566,0,0,1-2.3838,0Zm1.9287-.7173a.8237.8237,0,0,0,.3677-.5283,4.5352,4.5352,0,0,0,.1118-1.1655,4.6718,4.6718,0,0,0-.1152-1.2041.8191.8191,0,0,0-.3677-.5322,1.618,1.618,0,0,0-.7349-.1328,1.536,1.536,0,0,0-.7212.1367.8414.8414,0,0,0-.3711.5317,4.49,4.49,0,0,0-.1191,1.2007,4.6236,4.6236,0,0,0,.1089,1.1689.8136.8136,0,0,0,.36.5249,2.0251,2.0251,0,0,0,1.48,0Z" style="fill:#b3b3b3"/><path d="M77.7488,27.8955a1.5173,1.5173,0,0,1-.5073-1.3125V23.062h.8608v3.521a.8071.8071,0,0,0,.28.6963,1.7831,1.7831,0,0,0,1.666,0,.8082.8082,0,0,0,.28-.6963V23.062h.8608v3.521a1.5173,1.5173,0,0,1-.5073,1.3125,3.1087,3.1087,0,0,1-2.9331,0Z" style="fill:#b3b3b3"/><path d="M83.1985,23.8389H81.7141V23.062h3.8291v.7769H84.0661V28.228h-.8677Z" style="fill:#b3b3b3"/><path d="M14.3645,76.0615h.896l1.33,4.2349,1.33-4.2349h.896l-1.68,5.166H16.0442Z" style="fill:#b3b3b3"/><path d="M20.5661,76.0615h1.0923l1.68,5.166h-.9028l-.3989-1.2251H20.1672l-.3921,1.2251h-.8887Zm1.26,3.1641-.728-2.4219-.728,2.4219Z" style="fill:#b3b3b3"/><path d="M23.9753,76.0615h2.1a1.5021,1.5021,0,0,1,1.043.3467,2.22,2.22,0,0,1,.1436,2.2573,1.31,1.31,0,0,1-.6333.4482l.9937,2.1138h-.875l-.896-1.9878q-.427,0-1.0146-.0142v2.002h-.8613Zm1.9531,2.4849a.69.69,0,0,0,.5215-.1924.9923.9923,0,0,0,.1855-.6895.8857.8857,0,0,0-.1855-.6509.73.73,0,0,0-.5215-.1753H24.8367v1.708Z" style="fill:#b3b3b3"/><path d="M13.9895,132.0615h1.9741q1.4282,0,1.4277,1.3442a1.3246,1.3246,0,0,1-.1992.7524.8845.8845,0,0,1-.5283.3813,1.1828,1.1828,0,0,1,.6333.4023,1.2919,1.2919,0,0,1,.2627.8574,1.3912,1.3912,0,0,1-.3784,1.0991,1.6842,1.6842,0,0,1-1.1338.3291H13.9895Zm1.9883,2.1841a.5244.5244,0,0,0,.4268-.1963.8.8,0,0,0,.1611-.5249q0-.6855-.6089-.686h-1.106v1.4072Zm.042,2.2051a.7129.7129,0,0,0,.5317-.1855.8537.8537,0,0,0,.1821-.6128.7188.7188,0,0,0-.2-.5386.7015.7015,0,0,0-.5142-.1963H14.8508v1.5332Z" style="fill:#b3b3b3"/><path d="M18.3225,132.0615h.8613v5.166h-.8613Z" style="fill:#b3b3b3"/><path d="M21.5071,132.0615h1.0923l1.68,5.166h-.9028l-.3989-1.2251H21.1081l-.3921,1.2251h-.8887Zm1.26,3.1641-.728-2.4219-.728,2.4219Z" style="fill:#b3b3b3"/><path d="M25.6023,137.2275a5.7919,5.7919,0,0,1-.7632-.1118v-.6792q.6306.0564,1.561.0562a1.5059,1.5059,0,0,0,.7109-.1333.5024.5024,0,0,0,.2412-.4829v-.2451a.5542.5542,0,0,0-.1538-.42.6375.6375,0,0,0-.4551-.147H26.26a1.634,1.634,0,0,1-1.1025-.3218A1.3206,1.3206,0,0,1,24.79,133.7v-.2661a1.3254,1.3254,0,0,1,.4063-1.0713A1.8251,1.8251,0,0,1,26.4,132.02a7.1731,7.1731,0,0,1,.7949.0488q.43.0491.7383.1123v.6787q-.9448-.063-1.4351-.063a1.2267,1.2267,0,0,0-.6616.1436.5835.5835,0,0,0-.22.5288v.1748a.5547.5547,0,0,0,.1714.4551.814.814,0,0,0,.5215.14h.5391a1.31,1.31,0,0,1,.99.353,1.2924,1.2924,0,0,1,.34.9346v.3291a1.2459,1.2459,0,0,1-.4482,1.1094,2.2826,2.2826,0,0,1-1.2881.3047Q26.0642,137.27,25.6023,137.2275Z" style="fill:#b3b3b3"/><path d="M15.2917,195.9355a5.782,5.782,0,0,1-.7632-.1123v-.6787q.6306.0557,1.561.0557a1.5066,1.5066,0,0,0,.7109-.1328.5036.5036,0,0,0,.2412-.4834v-.2451a.5549.5549,0,0,0-.1538-.42.6374.6374,0,0,0-.4551-.1465H15.95a1.6314,1.6314,0,0,1-1.1025-.3223,1.3206,1.3206,0,0,1-.3677-1.043v-.2656a1.3247,1.3247,0,0,1,.4063-1.0713,1.8251,1.8251,0,0,1,1.2036-.3428,7.1731,7.1731,0,0,1,.7949.0488c.2866.0322.5327.07.7383.1123v.6787q-.9448-.063-1.4351-.0635a1.2267,1.2267,0,0,0-.6616.1436.5844.5844,0,0,0-.22.5293v.1748a.5554.5554,0,0,0,.1714.4551.817.817,0,0,0,.5215.14h.5391a1.31,1.31,0,0,1,.99.3535,1.2909,1.2909,0,0,1,.34.9346v.3291a1.2471,1.2471,0,0,1-.4482,1.1094,2.2826,2.2826,0,0,1-1.2881.3047C15.88,195.9775,15.6,195.9629,15.2917,195.9355Z" style="fill:#b3b3b3"/><path d="M19.1345,195.7988a1.2294,1.2294,0,0,1-.4829-.4834,1.4357,1.4357,0,0,1-.1753-.7168,1.6564,1.6564,0,0,1,.644-1.3164l.4341-.3711-.105-.1611a1.9023,1.9023,0,0,1-.27-.5176,1.5865,1.5865,0,0,1-.0664-.4551.8475.8475,0,0,1,.35-.7559,1.61,1.61,0,0,1,.9238-.2383,5.7229,5.7229,0,0,1,1.3022.1328v.63H20.5486c-.3779,0-.5669.1406-.5669.42a.7223.7223,0,0,0,.0767.3047,2.5176,2.5176,0,0,0,.2593.41l1.12,1.5322,1.0146-.9307.3223.3848-.4829.6934-.4272.4131.875,1.1621h-.9028l-.5249-.6719-.2451.2236a1.9389,1.9389,0,0,1-.5879.374,1.7911,1.7911,0,0,1-.644.1094A1.4143,1.4143,0,0,1,19.1345,195.7988Zm1.19-.6895a1.2732,1.2732,0,0,0,.3433-.2383l.189-.1885-.8823-1.1768-.3008.2666a1.12,1.12,0,0,0-.2871.35.8631.8631,0,0,0-.084.3779.67.67,0,0,0,.1855.49.66.66,0,0,0,.4937.1895A.8477.8477,0,0,0,20.3244,195.1094Z" style="fill:#b3b3b3"/><path d="M23.5237,190.77h.8613v2.2324h2.1768V190.77H27.43v5.166h-.8682v-2.1562H24.385v2.1563h-.8613Z" style="fill:#b3b3b3"/><path d="M16.198,244.7217a1.5173,1.5173,0,0,1-.5073-1.3125v-3.5215h.8608v3.5215a.8083.8083,0,0,0,.28.6963,1.3951,1.3951,0,0,0,.833.2061,1.3981,1.3981,0,0,0,.833-.2061.8094.8094,0,0,0,.28-.6963v-3.5215h.8608v3.5215a1.5173,1.5173,0,0,1-.5073,1.3125,2.4775,2.4775,0,0,1-1.4663.3672A2.4782,2.4782,0,0,1,16.198,244.7217Z" style="fill:#b3b3b3"/><path d="M20.5906,239.8877h.6929l2.3521,3.6895v-3.6895h.8682v5.166H23.81l-2.3516-3.6885v3.6885h-.8682Z" style="fill:#b3b3b3"/><path d="M25.4133,239.8877h.8613v5.166h-.8613Z" style="fill:#b3b3b3"/><path d="M18.4206,274.8877h1.9741q1.4282,0,1.4277,1.3447a1.324,1.324,0,0,1-.1992.752.8872.8872,0,0,1-.5283.3818,1.18,1.18,0,0,1,.6333.4023,1.291,1.291,0,0,1,.2627.8574,1.3893,1.3893,0,0,1-.3784,1.0986,1.6842,1.6842,0,0,1-1.1338.3291H18.4206Zm1.9883,2.1846a.5244.5244,0,0,0,.4268-.1963.8021.8021,0,0,0,.1611-.5254q0-.6855-.6089-.6855H19.282v1.4072Zm.042,2.2051a.7149.7149,0,0,0,.5317-.1855.855.855,0,0,0,.1821-.6133.7169.7169,0,0,0-.2-.5381.7015.7015,0,0,0-.5142-.1963H19.282v1.5332Z" style="fill:#b3b3b3"/><path d="M22.7536,274.8877h.8613v5.166h-.8613Z" style="fill:#b3b3b3"/><path d="M52.3352,358.2275l-.3359-2.8066-.686,2.8066H50.0393l-.6792-2.7441-.3218,2.7441H47.7292l.6157-5.2012h1.2739l1.0713,3.6543,1.0708-3.6543h1.26l.623,5.2012Z" style="fill:#b3b3b3"/><path d="M54.3371,357.5664a4.52,4.52,0,0,1-.3359-1.9287,5.4559,5.4559,0,0,1,.1611-1.4521,1.5929,1.5929,0,0,1,.6021-.89,2.1317,2.1317,0,0,1,1.26-.3184,6.0483,6.0483,0,0,1,.9277.06,8.9053,8.9053,0,0,1,.8784.1992v1.0576a10.2669,10.2669,0,0,0-1.5469-.0986,1.1529,1.1529,0,0,0-.6055.123.62.62,0,0,0-.2559.416,4.7075,4.7075,0,0,0-.063.9033,4.458,4.458,0,0,0,.063.8682.6718.6718,0,0,0,.2031.4023.6272.6272,0,0,0,.3921.1084,3.7971,3.7971,0,0,0,.77-.0693v-.6729h-.7212v-1.0771c.1445-.02.3359-.0352.5742-.05s.4551-.0205.6509-.0205q.364,0,.7979.0137v3.0869h-1.022l-.1816-.3428a2.3844,2.3844,0,0,1-.5674.2588,2.3522,2.3522,0,0,1-.7559.1191A1.2382,1.2382,0,0,1,54.3371,357.5664Z" style="fill:#b3b3b3"/><path d="M59.4538,354.2725h-.8262v-.8682l.98-.42h1.2041v5.2432H59.4538Z" style="fill:#b3b3b3"/><path d="M62.0969,358.0488a1.3516,1.3516,0,0,1-.5322-.77,5.1818,5.1818,0,0,1-.1787-1.5361,4.6548,4.6548,0,0,1,.2383-1.6562,1.5979,1.5979,0,0,1,.6826-.8535,2.2751,2.2751,0,0,1,1.1235-.249,5.4254,5.4254,0,0,1,1.3438.1406v1.0781H63.591a.8144.8144,0,0,0-.6543.2275,1.033,1.033,0,0,0-.1924.6816,1.3112,1.3112,0,0,1,.3955-.1182,4.8668,4.8668,0,0,1,.6055-.0283,1.3483,1.3483,0,0,1,1.0464.332,1.3662,1.3662,0,0,1,.2905.9277v.7559a1.2453,1.2453,0,0,1-.35.9736,1.4247,1.4247,0,0,1-.9868.3145h-.7212A1.7263,1.7263,0,0,1,62.0969,358.0488Zm1.3262-.9971a.2756.2756,0,0,0,.2344-.0879.4411.4411,0,0,0,.0669-.27v-.1953a.4482.4482,0,0,0-.0771-.3047.419.419,0,0,0-.3008-.08h-.6021a2.4031,2.4031,0,0,0,.0522.5732.4689.4689,0,0,0,.1714.2842.5964.5964,0,0,0,.3359.08Z" style="fill:#b3b3b3"/></svg>