<svg xmlns="http://www.w3.org/2000/svg" width="30.48mm" height="128.4993mm" viewBox="0 0 86.4 364.25"><title>SN8</title><rect width="86.4" height="364.25" style="fill:#1b1b1b"/><rect x="36" y="3.6885" width="14.4" height="9.1667" rx="4.5833" ry="4.5833" style="fill:#ef464c"/><path d="M40.4909,6.8811H39.1741V5.6558h4V6.8811H41.857v4.0067H40.4909Z" style="fill:#fff"/><path d="M45.9091,9.6626h1.3168v1.2253h-4V9.6626H44.543V5.6558h1.3661Z" style="fill:#fff"/><path d="M36.7739,358.0664v-1.0781q.7.063,1.603.0635a1.2823,1.2823,0,0,0,.5254-.0811.2824.2824,0,0,0,.168-.2764v-.084a.271.271,0,0,0-.105-.2275.4143.4143,0,0,0-.2593-.08H38.335a1.8117,1.8117,0,0,1-1.2422-.3682,1.5231,1.5231,0,0,1-.41-1.1865v-.23a1.421,1.421,0,0,1,.4551-1.1484,2.0205,2.0205,0,0,1,1.3369-.3848,7.0072,7.0072,0,0,1,1.624.2031v1.0781q-.7837-.063-1.4561-.0635a1.2115,1.2115,0,0,0-.5039.0811.3055.3055,0,0,0-.168.3037v.07q0,.3574.4551.3574h.4619a1.4479,1.4479,0,0,1,1.0884.3916,1.4032,1.4032,0,0,1,.3813,1.0225v.23a1.866,1.866,0,0,1-.2236.998,1.128,1.128,0,0,1-.6338.4824,3.5451,3.5451,0,0,1-1.0532.13A6.5835,6.5835,0,0,1,36.7739,358.0664Z" style="fill:#b3b3b3"/><path d="M40.9946,353.0264h1.0781L43.9,355.9238v-2.8975h1.3579v5.2012H44.18l-1.8267-2.8984v2.8984H40.9946Z" style="fill:#b3b3b3"/><path d="M46.3325,358.0176a1.035,1.035,0,0,1-.3955-.9453v-.6934a1.0915,1.0915,0,0,1,.1226-.5176.5671.5671,0,0,1,.3955-.2939.7758.7758,0,0,1-.2871-.2412.6492.6492,0,0,1-.1084-.28,3.3668,3.3668,0,0,1-.0176-.3887v-.5879a.9531.9531,0,0,1,.3569-.8223,1.4987,1.4987,0,0,1,.91-.2627h.9941a1.4962,1.4962,0,0,1,.91.2627.9518.9518,0,0,1,.3569.8223v.5879a1.5679,1.5679,0,0,1-.0908.5146.4014.4014,0,0,1-.3291.2979.5582.5582,0,0,1,.42.3428,1.5206,1.5206,0,0,1,.1055.5664v.6934a1.0769,1.0769,0,0,1-.3608.9482,1.7194,1.7194,0,0,1-.99.249h-.9453A1.9243,1.9243,0,0,1,46.3325,358.0176Zm1.6558-.8965q.2095,0,.269-.0732a.3982.3982,0,0,0,.06-.249v-.3281a.3416.3416,0,0,0-.084-.2354.2936.2936,0,0,0-.231-.0937H47.624a.3177.3177,0,0,0-.2451.0908.3379.3379,0,0,0-.084.2383v.3281a.3425.3425,0,0,0,.0737.2529.3709.3709,0,0,0,.2554.0693Zm0-2.1279c.1118,0,.1831-.0254.2134-.0771a.643.643,0,0,0,.0454-.2939v-.2168c0-.1162-.022-.1914-.0664-.2236a.3171.3171,0,0,0-.1924-.05H47.624a.3338.3338,0,0,0-.2031.0459c-.0371.03-.0557.1064-.0557.2275v.2168a.56.56,0,0,0,.0522.3047.2526.2526,0,0,0,.2065.0664Z" style="fill:#b3b3b3"/><path d="M12.08,28.2266a5.7919,5.7919,0,0,1-.7632-.1118v-.6792q.6306.0564,1.561.0562a1.5059,1.5059,0,0,0,.7109-.1333.5024.5024,0,0,0,.2412-.4829V26.63a.5542.5542,0,0,0-.1538-.42.6375.6375,0,0,0-.4551-.147h-.4829a1.634,1.634,0,0,1-1.1025-.3218,1.3206,1.3206,0,0,1-.3677-1.043v-.2661a1.3254,1.3254,0,0,1,.4063-1.0713,1.8251,1.8251,0,0,1,1.2036-.3428,7.1731,7.1731,0,0,1,.7949.0488q.43.0491.7383.1123v.6787q-.9448-.063-1.4351-.063a1.2267,1.2267,0,0,0-.6616.1436.5835.5835,0,0,0-.22.5288v.1748a.5547.5547,0,0,0,.1714.4551.814.814,0,0,0,.5215.14h.5391a1.31,1.31,0,0,1,.99.353,1.2924,1.2924,0,0,1,.34.9346v.3291a1.2459,1.2459,0,0,1-.4482,1.1094,2.2826,2.2826,0,0,1-1.2881.3047Q12.542,28.2686,12.08,28.2266Z" style="fill:#b3b3b3"/><path d="M15.4888,23.0605H17.624a1.5117,1.5117,0,0,1,1.0288.3535,1.7957,1.7957,0,0,1,.4063,1.3755q0,1.7783-1.4214,1.7778-.2168,0-.6367-.0347t-.6509-.07v1.7642h-.8613Zm2.0229,2.7231a.596.596,0,0,0,.5-.231,1.2514,1.2514,0,0,0,.1787-.7563q0-.9587-.6509-.959H16.35v1.9463Z" style="fill:#b3b3b3"/><path d="M20.1475,28.0444a.9472.9472,0,0,1-.3535-.875V24.1875a1.0547,1.0547,0,0,1,.3223-.8608,1.18,1.18,0,0,1,.7769-.2661q.6577,0,1.1338.021t1.0923.0562v.7207H21.166a.5374.5374,0,0,0-.3779.1226.4753.4753,0,0,0-.1328.3677v.917l2.1489.0488v.6792l-2.1489.0488v.8892a.4518.4518,0,0,0,.5039.5181h1.96V28.17q-.8818.0776-2.1279.0913A1.5792,1.5792,0,0,1,20.1475,28.0444Z" style="fill:#b3b3b3"/><path d="M24.2354,28.0444a.9472.9472,0,0,1-.3535-.875V24.1875a1.0547,1.0547,0,0,1,.3223-.8608,1.18,1.18,0,0,1,.7769-.2661q.6577,0,1.1338.021t1.0923.0562v.7207H25.2539a.5374.5374,0,0,0-.3779.1226.4753.4753,0,0,0-.1328.3677v.917l2.1489.0488v.6792l-2.1489.0488v.8892a.4518.4518,0,0,0,.5039.5181h1.96V28.17q-.8818.0776-2.1279.0913A1.5792,1.5792,0,0,1,24.2354,28.0444Z" style="fill:#b3b3b3"/><path d="M28.04,23.0605h2.1353a1.468,1.468,0,0,1,1.3613.6582,3.7336,3.7336,0,0,1,.4023,1.9248,3.46,3.46,0,0,1-.4409,1.9321,1.4909,1.4909,0,0,1-1.3228.6509H28.04ZM30.0913,27.45a.79.79,0,0,0,.749-.4585,3.0156,3.0156,0,0,0,.2378-1.3477,4.4317,4.4317,0,0,0-.105-1.0918.9869.9869,0,0,0-.3184-.5532.9131.9131,0,0,0-.5635-.1611h-1.19V27.45Z" style="fill:#b3b3b3"/><path d="M11.5728,106.68a2.3246,2.3246,0,0,1-.3955-.105v-.686a4.6924,4.6924,0,0,0,.644.0562.6555.6555,0,0,0,.4546-.14.6081.6081,0,0,0,.1543-.4692v-3.8218h.8682v3.9482a1.2955,1.2955,0,0,1-.3081.9551,1.3512,1.3512,0,0,1-.98.3047A2.4214,2.4214,0,0,1,11.5728,106.68Z" style="fill:#b3b3b3"/><path d="M14.2568,101.5137h.8613v5.166h-.8613Z" style="fill:#b3b3b3"/><path d="M17.1973,102.2905H15.7129v-.7769H19.542v.7769H18.0649V106.68h-.8677Z" style="fill:#b3b3b3"/><path d="M21.32,102.2905H19.8354v-.7769h3.8291v.7769H22.1875V106.68H21.32Z" style="fill:#b3b3b3"/><path d="M24.5435,106.4976a.9472.9472,0,0,1-.3535-.875v-2.9819a1.0547,1.0547,0,0,1,.3223-.8608,1.18,1.18,0,0,1,.7769-.2661q.6577,0,1.1338.021t1.0923.0562v.7207H25.562a.5374.5374,0,0,0-.3779.1226.4753.4753,0,0,0-.1328.3677v.917l2.1489.0488v.6792l-2.1489.0488v.8892a.4518.4518,0,0,0,.5039.5181h1.96v.7207q-.8818.0776-2.1279.0913A1.5792,1.5792,0,0,1,24.5435,106.4976Z" style="fill:#b3b3b3"/><path d="M28.3477,101.5137h2.1a1.5021,1.5021,0,0,1,1.043.3467,2.22,2.22,0,0,1,.1436,2.2573,1.31,1.31,0,0,1-.6333.4482l.9937,2.1138H31.12l-.896-1.9878q-.427,0-1.0146-.0142v2.002h-.8613Zm1.9531,2.4849a.69.69,0,0,0,.5215-.1924.9923.9923,0,0,0,.1855-.6895.8857.8857,0,0,0-.1855-.6509.73.73,0,0,0-.5215-.1753H29.209v1.708Z" style="fill:#b3b3b3"/><line x1="21.6" y1="64.9875" x2="21.6" y2="56.9875" style="fill:#ef464c;stroke:#ef464c;stroke-miterlimit:10;stroke-width:2px"/><line x1="21.6" y1="143.9875" x2="21.6" y2="135.9875" style="fill:#ef464c;stroke:#ef464c;stroke-miterlimit:10;stroke-width:2px"/><path d="M8.4712,183.3369h2.1353a1.5117,1.5117,0,0,1,1.0288.3535,1.797,1.797,0,0,1,.4063,1.376q0,1.7783-1.4214,1.7773c-.1445,0-.3569-.0107-.6367-.0342s-.4971-.0469-.6509-.07v1.7637H8.4712Zm2.0229,2.7236a.5951.5951,0,0,0,.5-.2314,1.2507,1.2507,0,0,0,.1787-.7559q0-.9595-.6509-.959h-1.19v1.9463Z" style="fill:#b3b3b3"/><path d="M12.7764,183.3369h.8613v5.166h-.8613Z" style="fill:#b3b3b3"/><path d="M14.6592,183.3369h.6929l2.3521,3.6895v-3.6895h.8682v5.166h-.6934l-2.3516-3.6885v3.6885h-.8682Z" style="fill:#b3b3b3"/><path d="M19.5381,183.3369h.6929l2.3521,3.6895v-3.6895h.8682v5.166h-.6934l-2.3516-3.6885v3.6885h-.8682Z" style="fill:#b3b3b3"/><path d="M24.3608,183.3369h.8613v5.166h-.8613Z" style="fill:#b3b3b3"/><path d="M26.2441,183.3369h.6929l2.3521,3.6895v-3.6895h.8682v5.166h-.6934l-2.3516-3.6885v3.6885h-.8682Z" style="fill:#b3b3b3"/><path d="M31.5605,188.2373a1.5926,1.5926,0,0,1-.49-.8721,6.4087,6.4087,0,0,1-.1362-1.4521,5.6068,5.6068,0,0,1,.1572-1.4668,1.548,1.548,0,0,1,.56-.86,1.8866,1.8866,0,0,1,1.1377-.2979,7.2307,7.2307,0,0,1,1.7148.21v.665q-.2593-.0352-.6963-.0664c-.292-.0215-.5825-.0312-.8716-.0312a1.2073,1.2073,0,0,0-.71.1748.923.923,0,0,0-.3325.5674,6.892,6.892,0,0,0,0,2.2363.8891.8891,0,0,0,.3042.542,1.0531,1.0531,0,0,0,.62.1543,3.01,3.01,0,0,0,.5742-.0557,3.8869,3.8869,0,0,0,.5107-.1338v-1.1895h-1.043v-.6719q.21-.0278.5391-.0488t.644-.0215c.28,0,.5112.0068.6929.0215v2.8623H34.084l-.1191-.3564a3.4,3.4,0,0,1-.6509.2725,2.5479,2.5479,0,0,1-.7769.1191A1.4609,1.4609,0,0,1,31.5605,188.2373Z" style="fill:#b3b3b3"/><rect x="44.5334" y="17.0069" width="35.4667" height="330.2362" rx="5.6693" ry="5.6693" style="fill:#111111"/><path d="M56.6592,28.0688a1.3146,1.3146,0,0,1-.6646-.7627,4.6705,4.6705,0,0,1-.2241-1.6484,4.6942,4.6942,0,0,1,.2275-1.6592,1.36,1.36,0,0,1,.6685-.78,2.8234,2.8234,0,0,1,1.1831-.2065,2.8705,2.8705,0,0,1,1.1934.2065,1.3438,1.3438,0,0,1,.6685.7769,4.7594,4.7594,0,0,1,.2241,1.6626,4.6132,4.6132,0,0,1-.2275,1.6484,1.3335,1.3335,0,0,1-.665.7627,3.6566,3.6566,0,0,1-2.3838,0Zm1.9287-.7173a.8237.8237,0,0,0,.3677-.5283,4.5352,4.5352,0,0,0,.1118-1.1655,4.6718,4.6718,0,0,0-.1152-1.2041.8191.8191,0,0,0-.3677-.5322,1.618,1.618,0,0,0-.7349-.1328,1.536,1.536,0,0,0-.7212.1367.8414.8414,0,0,0-.3711.5317,4.49,4.49,0,0,0-.1191,1.2007,4.6236,4.6236,0,0,0,.1089,1.1689.8136.8136,0,0,0,.36.5249,2.0251,2.0251,0,0,0,1.48,0Z" style="fill:#b3b3b3"/><path d="M61.2056,27.894a1.5173,1.5173,0,0,1-.5073-1.3125v-3.521h.8608v3.521a.8071.8071,0,0,0,.28.6963,1.7831,1.7831,0,0,0,1.666,0,.8082.8082,0,0,0,.28-.6963v-3.521h.8608v3.521a1.5173,1.5173,0,0,1-.5073,1.3125,3.1087,3.1087,0,0,1-2.9331,0Z" style="fill:#b3b3b3"/><path d="M66.6553,23.8374H65.1709v-.7769H69v.7769H67.5229v4.3892h-.8677Z" style="fill:#b3b3b3"/></svg>