<svg xmlns="http://www.w3.org/2000/svg" width="15.24mm" height="128.4993mm" viewBox="0 0 43.2 364.25"><title>TTSAW</title><rect width="43.2" height="364.25" style="fill:#1b1b1b"/><rect x="14.4" y="3.6885" width="14.4" height="9.1667" rx="4.5833" ry="4.5833" style="fill:#ef464c"/><path d="M18.8909,6.8811H17.5741V5.6558h4V6.8811H20.257v4.0067H18.8909Z" style="fill:#fff"/><path d="M24.3091,9.6626h1.3168v1.2253h-4V9.6626H22.943V5.6558h1.3661Z" style="fill:#fff"/><rect x="3.8667" y="270.0357" width="35.4667" height="76.9506" rx="5.6693" ry="5.6693" style="fill:#111111"/><path d="M15.9926,317.5547a1.3138,1.3138,0,0,1-.6641-.7627,6.1622,6.1622,0,0,1,.0029-3.3076,1.36,1.36,0,0,1,.6689-.78,2.82,2.82,0,0,1,1.1826-.207,2.8682,2.8682,0,0,1,1.1934.207,1.3432,1.3432,0,0,1,.6689.7764,4.7643,4.7643,0,0,1,.2236,1.6631,4.6168,4.6168,0,0,1-.2275,1.6484,1.3317,1.3317,0,0,1-.665.7627,2.9336,2.9336,0,0,1-1.1934.1992A2.9438,2.9438,0,0,1,15.9926,317.5547Zm1.9287-.7178a.8229.8229,0,0,0,.3682-.5283,4.5352,4.5352,0,0,0,.1113-1.165,4.6448,4.6448,0,0,0-.1152-1.2041.8174.8174,0,0,0-.3672-.5322,1.6124,1.6124,0,0,0-.7354-.1328,1.5291,1.5291,0,0,0-.7207.1367.8385.8385,0,0,0-.3711.5313,4.4916,4.4916,0,0,0-.1191,1.2012,4.6513,4.6513,0,0,0,.1084,1.1689.8112.8112,0,0,0,.36.5244,1.559,1.559,0,0,0,.7422.1406A1.5574,1.5574,0,0,0,17.9213,316.8369Z" style="fill:#b3b3b3"/><path d="M20.5395,317.38a1.5162,1.5162,0,0,1-.5078-1.3125v-3.5215h.8613v3.5215a.807.807,0,0,0,.28.6963,1.7868,1.7868,0,0,0,1.666,0,.8092.8092,0,0,0,.2793-.6963v-3.5215H23.98v3.5215a1.5162,1.5162,0,0,1-.5078,1.3125,2.4758,2.4758,0,0,1-1.4658.3672A2.4771,2.4771,0,0,1,20.5395,317.38Z" style="fill:#b3b3b3"/><path d="M25.9887,313.3232H24.5043v-.7773h3.8291v.7773H26.8568v4.3887h-.8682Z" style="fill:#b3b3b3"/><path d="M13.3822,24.1875a1.0547,1.0547,0,0,1,.3223-.8608,1.1815,1.1815,0,0,1,.7773-.2661q1.3784,0,2.2256.0771v.7207H14.7338a.4938.4938,0,0,0-.36.126.4737.4737,0,0,0-.13.3574v1.043l2.1494.0488v.6792l-2.1494.0488v2.0649h-.8613Z" style="fill:#b3b3b3"/><path d="M17.4213,23.0605h2.1006a1.5021,1.5021,0,0,1,1.043.3467,1.6463,1.6463,0,0,1,.3848,1.2563,1.6524,1.6524,0,0,1-.2412,1.001,1.3091,1.3091,0,0,1-.6338.4482l.9941,2.1138h-.875l-.8965-1.9878c-.2842,0-.623-.0049-1.0146-.0142v2.002h-.8613Zm1.9531,2.4849a.6881.6881,0,0,0,.5215-.1924.99.99,0,0,0,.1855-.6895.8836.8836,0,0,0-.1855-.6509.7282.7282,0,0,0-.5215-.1753H18.2826v1.708Z" style="fill:#b3b3b3"/><path d="M22.1146,28.0444a.9483.9483,0,0,1-.3535-.875V24.1875a1.0547,1.0547,0,0,1,.3223-.8608,1.1815,1.1815,0,0,1,.7773-.2661q.6577,0,1.1338.021t1.0918.0562v.7207H23.1332a.539.539,0,0,0-.3779.1226.4753.4753,0,0,0-.1328.3677v.917l2.1494.0488v.6792l-2.1494.0488v.8892a.4518.4518,0,0,0,.5039.5181h1.96V28.17q-.8818.0776-2.1279.0913A1.5816,1.5816,0,0,1,22.1146,28.0444Z" style="fill:#b3b3b3"/><path d="M26.6752,28.0688a1.3124,1.3124,0,0,1-.6641-.7627,4.6687,4.6687,0,0,1-.2246-1.6484,4.7055,4.7055,0,0,1,.2275-1.6592,1.361,1.361,0,0,1,.6689-.78,2.8209,2.8209,0,0,1,1.1826-.2065,2.869,2.869,0,0,1,1.1934.2065,1.3428,1.3428,0,0,1,.6689.7769,4.7613,4.7613,0,0,1,.2236,1.6626,4.6132,4.6132,0,0,1-.2275,1.6484,1.33,1.33,0,0,1-.665.7627,3.6566,3.6566,0,0,1-2.3838,0Zm1.9287-.7173a.8242.8242,0,0,0,.3682-.5283,4.54,4.54,0,0,0,.1113-1.1655,4.65,4.65,0,0,0-.1152-1.2041.8187.8187,0,0,0-.3672-.5322,1.6189,1.6189,0,0,0-.7354-.1328,1.5352,1.5352,0,0,0-.7207.1367.84.84,0,0,0-.3711.5317,4.49,4.49,0,0,0-.1191,1.2007,4.6513,4.6513,0,0,0,.1084,1.1689.8136.8136,0,0,0,.36.5249,2.0251,2.0251,0,0,0,1.48,0Zm-.4619,1.9111a1.0191,1.0191,0,0,1-.416-.7842h.6016a.5.5,0,0,0,.2383.3223.812.812,0,0,0,.4131.105,1.93,1.93,0,0,0,.4063-.063v.6436a1.6682,1.6682,0,0,1-.3711.0493A1.4434,1.4434,0,0,1,28.142,29.2627Z" style="fill:#b3b3b3"/><path d="M14.0854,357.8086V356.73q.7.063,1.6035.0635a1.2823,1.2823,0,0,0,.5254-.0811.2831.2831,0,0,0,.168-.2764v-.084a.27.27,0,0,0-.1055-.2275.4128.4128,0,0,0-.2588-.08h-.3711a1.81,1.81,0,0,1-1.2422-.3682,1.5215,1.5215,0,0,1-.41-1.1865v-.23a1.4225,1.4225,0,0,1,.4551-1.1484,2.0214,2.0214,0,0,1,1.3369-.3848,7.004,7.004,0,0,1,1.624.2031v1.0781q-.7837-.063-1.4561-.0635a1.2146,1.2146,0,0,0-.5039.0811.3062.3062,0,0,0-.168.3037v.07q0,.3574.4551.3574H16.2a1.4491,1.4491,0,0,1,1.0889.3916,1.4049,1.4049,0,0,1,.3809,1.0225v.23a1.866,1.866,0,0,1-.2236.998,1.1263,1.1263,0,0,1-.6338.4824,3.5416,3.5416,0,0,1-1.0527.13A6.59,6.59,0,0,1,14.0854,357.8086Z" style="fill:#b3b3b3"/><path d="M19.4965,352.7686h1.6943l1.54,5.2012H21.3236l-.21-.8262H19.5521l-.2021.8262H17.9564Zm1.3018,3.1572-.4687-2.002-.4619,2.002Z" style="fill:#b3b3b3"/><path d="M22.5561,352.7686h1.4063l.6445,3.1641.7764-3.1641H26.602l.77,3.1641.6445-3.1641h1.4063L28.2328,357.97H26.8744l-.8818-3.1787-.8887,3.1787H23.7455Z" style="fill:#b3b3b3"/><path d="M14.6312,94.3257a1.0547,1.0547,0,0,1,.3223-.8608,1.1815,1.1815,0,0,1,.7773-.2661q1.3784,0,2.2256.0771v.7207H15.9828a.4962.4962,0,0,0-.3613.126.477.477,0,0,0-.1289.3574v1.043l2.1484.0488v.6792L15.4926,96.3v2.0649h-.8613Z" style="fill:#b3b3b3"/><path d="M18.67,93.1987h.8613v5.166H18.67Z" style="fill:#b3b3b3"/><path d="M20.5531,93.1987h.6934l2.3516,3.689v-3.689h.8682v5.166h-.6934l-2.3516-3.689v3.689h-.8682Z" style="fill:#b3b3b3"/><path d="M25.7289,98.1826a.9483.9483,0,0,1-.3535-.875V94.3257a1.0547,1.0547,0,0,1,.3223-.8608,1.1834,1.1834,0,0,1,.7773-.2661q.6577,0,1.1338.021t1.0928.0562v.7207H26.7484a.54.54,0,0,0-.3789.1226.4789.4789,0,0,0-.1328.3677v.917l2.1494.0488v.6792l-2.1494.0488V97.07a.4518.4518,0,0,0,.5039.5181h1.9609v.7207q-.8818.0776-2.1289.0913A1.5816,1.5816,0,0,1,25.7289,98.1826Z" style="fill:#b3b3b3"/><path d="M12.42,166.54H10.9359v-.7769H14.765v.7769H13.2875v4.3892H12.42Z" style="fill:#b3b3b3"/><path d="M15.36,165.7632h.8613v2.2329h2.1768v-2.2329h.8682v5.166h-.8682v-2.1558H16.2211v2.1558H15.36Z" style="fill:#b3b3b3"/><path d="M20.5854,170.7471a.9461.9461,0,0,1-.3535-.875V166.89a1.0547,1.0547,0,0,1,.3223-.8608,1.1789,1.1789,0,0,1,.7764-.2661q.6577,0,1.1338.021t1.0928.0562v.7207H21.6039a.5357.5357,0,0,0-.3779.1226.4753.4753,0,0,0-.1328.3677v.917l2.1484.0488v.6792l-2.1484.0488v.8892a.4518.4518,0,0,0,.5039.5181h1.96v.7207q-.8818.0776-2.1279.0913A1.5768,1.5768,0,0,1,20.5854,170.7471Z" style="fill:#b3b3b3"/><path d="M25.5033,166.54H24.0189v-.7769H27.848v.7769H26.3705v4.3892h-.8672Z" style="fill:#b3b3b3"/><path d="M29.4506,165.7632h1.0928l1.68,5.166H31.32l-.3984-1.2251H29.0521l-.3926,1.2251h-.8887Zm1.2607,3.1641-.7285-2.4219-.7275,2.4219Z" style="fill:#b3b3b3"/><line x1="21.6" y1="144.776" x2="21.6" y2="111.4687" style="fill:#ef464c;stroke:#ef464c;stroke-miterlimit:10;stroke-width:2px"/><path d="M15.8812,279.8691a.9478.9478,0,0,1-.3535-.875v-2.9814a1.0564,1.0564,0,0,1,.3223-.8613,1.1838,1.1838,0,0,1,.7773-.2656q.6577,0,1.1338.0205t1.0918.0566v.7207H16.9a.5412.5412,0,0,0-.3779.1221.4757.4757,0,0,0-.1328.3682v.917l2.1494.0488v.6787l-2.1494.0488v.89a.4517.4517,0,0,0,.5039.5176h1.96v.7207q-.8818.0776-2.1279.0918A1.5774,1.5774,0,0,1,15.8812,279.8691Z" style="fill:#b3b3b3"/><path d="M20.4418,279.8936a1.3155,1.3155,0,0,1-.665-.7627,6.1751,6.1751,0,0,1,.0039-3.3076,1.3612,1.3612,0,0,1,.668-.78,2.8265,2.8265,0,0,1,1.1836-.2061,2.8728,2.8728,0,0,1,1.1934.2061,1.3443,1.3443,0,0,1,.668.7773,4.7545,4.7545,0,0,1,.2246,1.6621,4.61,4.61,0,0,1-.2275,1.6484,1.3353,1.3353,0,0,1-.665.7627,2.9154,2.9154,0,0,1-1.1934.2A2.9191,2.9191,0,0,1,20.4418,279.8936Zm1.9287-.7168a.8245.8245,0,0,0,.3672-.5283,4.5351,4.5351,0,0,0,.1123-1.166,4.6991,4.6991,0,0,0-.1152-1.2041.8208.8208,0,0,0-.3682-.5322,1.6237,1.6237,0,0,0-.7344-.1328,1.543,1.543,0,0,0-.7217.1367.8444.8444,0,0,0-.3711.5322,4.4883,4.4883,0,0,0-.1191,1.2,4.5962,4.5962,0,0,0,.1094,1.1689.816.816,0,0,0,.36.5254,2.0317,2.0317,0,0,0,1.48,0Z" style="fill:#b3b3b3"/><path d="M25.223,279.8867a1.3385,1.3385,0,0,1-.5986-.78,5.1423,5.1423,0,0,1-.2061-1.6592,4.7952,4.7952,0,0,1,.21-1.6,1.3994,1.3994,0,0,1,.6152-.791,2.2024,2.2024,0,0,1,1.0508-.22,5.3552,5.3552,0,0,1,.8428.0664,5.4248,5.4248,0,0,1,.7246.1572v.665a5.8866,5.8866,0,0,0-.5986-.0771q-.3882-.0352-.7939-.0352a1.4381,1.4381,0,0,0-.7109.1436.8554.8554,0,0,0-.36.5361,4.5662,4.5662,0,0,0-.1123,1.1689,4.83,4.83,0,0,0,.1055,1.1689.8522.8522,0,0,0,.35.5391,1.4314,1.4314,0,0,0,.7217.1465,11.09,11.09,0,0,0,1.3994-.0771v.665a5.6734,5.6734,0,0,1-1.5889.1895A2.2629,2.2629,0,0,1,25.223,279.8867Z" style="fill:#b3b3b3"/><path d="M14.0541,236.834a5.7909,5.7909,0,0,1-.7637-.1123v-.6787c.4209.0371.94.0557,1.5615.0557a1.508,1.508,0,0,0,.7109-.1328.5045.5045,0,0,0,.2412-.4834v-.2451a.5552.5552,0,0,0-.1543-.42.6358.6358,0,0,0-.4551-.1465h-.4824a1.6314,1.6314,0,0,1-1.1025-.3223,1.3208,1.3208,0,0,1-.3682-1.043V233.04a1.3263,1.3263,0,0,1,.4063-1.0713,1.8257,1.8257,0,0,1,1.2041-.3428,7.18,7.18,0,0,1,.7949.0488c.2861.0322.5322.07.7383.1123v.6787q-.9448-.063-1.4355-.0635a1.2236,1.2236,0,0,0-.6611.1436.5835.5835,0,0,0-.2207.5293v.1748a.5556.5556,0,0,0,.1719.4551.817.817,0,0,0,.5215.14H15.3a1.3119,1.3119,0,0,1,.99.3535,1.2909,1.2909,0,0,1,.34.9346v.3291a1.2471,1.2471,0,0,1-.4482,1.1094,2.2847,2.2847,0,0,1-1.2881.3047C14.642,236.876,14.3617,236.8613,14.0541,236.834Z" style="fill:#b3b3b3"/><path d="M18.73,235.2168l-1.582-3.5488h.8955l1.1348,2.667,1.1338-2.667h.875l-1.5889,3.5488v1.6172H18.73Z" style="fill:#b3b3b3"/><path d="M21.8871,231.668h.6924l2.3525,3.6885V231.668H25.8v5.166h-.6934l-2.3516-3.6895v3.6895h-.8682Z" style="fill:#b3b3b3"/><path d="M27.3812,236.6689a1.3412,1.3412,0,0,1-.5977-.78,5.1378,5.1378,0,0,1-.207-1.6592,4.8208,4.8208,0,0,1,.21-1.6,1.4046,1.4046,0,0,1,.6162-.791,2.1955,2.1955,0,0,1,1.05-.22,5.3583,5.3583,0,0,1,.8438.0664,5.4591,5.4591,0,0,1,.7246.1572v.665a5.9644,5.9644,0,0,0-.5986-.0771c-.2588-.0234-.5244-.0352-.7949-.0352a1.4339,1.4339,0,0,0-.71.1436.848.848,0,0,0-.36.5361,4.522,4.522,0,0,0-.1123,1.1689,4.83,4.83,0,0,0,.1055,1.1689.8484.8484,0,0,0,.35.5391,1.4248,1.4248,0,0,0,.7207.1465,11.0955,11.0955,0,0,0,1.4-.0771v.665a5.6782,5.6782,0,0,1-1.5889.1895A2.2645,2.2645,0,0,1,27.3812,236.6689Z" style="fill:#b3b3b3"/><line x1="21.6" y1="221.8254" x2="21.6" y2="188.5181" style="fill:#ef464c;stroke:#ef464c;stroke-miterlimit:10;stroke-width:2px"/><line x1="21.6" y1="63.7916" x2="21.6" y2="59.6717" style="fill:#ef464c;stroke:#ef464c;stroke-miterlimit:10;stroke-width:2px"/></svg>