<svg xmlns="http://www.w3.org/2000/svg" width="15.24mm" height="128.4993mm" viewBox="0 0 43.2 364.25"><title>TTSIN</title><rect width="43.2" height="364.25" style="fill:#1b1b1b"/><rect x="14.4" y="3.6885" width="14.4" height="9.1667" rx="4.5833" ry="4.5833" style="fill:#ef464c"/><path d="M18.8909,6.8811H17.5741V5.6558h4V6.8811H20.257v4.0067H18.8909Z" style="fill:#fff"/><path d="M24.3091,9.6626h1.3168v1.2253h-4V9.6626H22.943V5.6558h1.3661Z" style="fill:#fff"/><rect x="3.8667" y="270.0332" width="35.4667" height="76.953" rx="5.6693" ry="5.6693" style="fill:#111111"/><path d="M15.9925,317.5541a1.3109,1.3109,0,0,1-.6641-.7627,6.1622,6.1622,0,0,1,.0029-3.3076,1.3625,1.3625,0,0,1,.6689-.78,2.8216,2.8216,0,0,1,1.1826-.2061,2.87,2.87,0,0,1,1.1934.2061,1.3423,1.3423,0,0,1,.6689.7773,4.7582,4.7582,0,0,1,.2236,1.6621,4.61,4.61,0,0,1-.2275,1.6484,1.3286,1.3286,0,0,1-.665.7627,2.9154,2.9154,0,0,1-1.1934.2A2.9255,2.9255,0,0,1,15.9925,317.5541Zm1.9287-.7168a.8255.8255,0,0,0,.3682-.5283,4.5438,4.5438,0,0,0,.1113-1.166,4.655,4.655,0,0,0-.1152-1.2041.82.82,0,0,0-.3672-.5322,1.6255,1.6255,0,0,0-.7354-.1328,1.5413,1.5413,0,0,0-.7207.1367.8409.8409,0,0,0-.3711.5322,4.4883,4.4883,0,0,0-.1191,1.2,4.6513,4.6513,0,0,0,.1084,1.1689.816.816,0,0,0,.36.5254,1.5723,1.5723,0,0,0,.7422.14A1.5708,1.5708,0,0,0,17.9212,316.8373Z" style="fill:#b3b3b3"/><path d="M20.5394,317.3793a1.5162,1.5162,0,0,1-.5078-1.3125v-3.5205h.8613v3.5205a.8046.8046,0,0,0,.28.6963,1.7794,1.7794,0,0,0,1.666,0,.8068.8068,0,0,0,.2793-.6963v-3.5205H23.98v3.5205a1.5162,1.5162,0,0,1-.5078,1.3125,2.4756,2.4756,0,0,1-1.4658.3682A2.4768,2.4768,0,0,1,20.5394,317.3793Z" style="fill:#b3b3b3"/><path d="M25.9886,313.3227H24.5042v-.7764h3.8291v.7764H26.8568v4.39h-.8682Z" style="fill:#b3b3b3"/><path d="M13.3822,24.185a1.0547,1.0547,0,0,1,.3223-.8608,1.1789,1.1789,0,0,1,.7764-.2661q1.38,0,2.2266.0771v.7207H14.7327a.4953.4953,0,0,0-.36.126.477.477,0,0,0-.1289.3574v1.043l2.1484.0488V26.11l-2.1484.0488v2.0649h-.8613Z" style="fill:#b3b3b3"/><path d="M17.4212,23.058h2.1a1.5021,1.5021,0,0,1,1.043.3467,1.6462,1.6462,0,0,1,.3857,1.2563,1.6518,1.6518,0,0,1-.2422,1.001,1.3109,1.3109,0,0,1-.6328.4482l.9932,2.1138h-.875l-.8955-1.9878q-.4277,0-1.0146-.0142v2.002h-.8613Zm1.9531,2.4849a.691.691,0,0,0,.5215-.1924.9948.9948,0,0,0,.1855-.6895.8879.8879,0,0,0-.1855-.6509.7314.7314,0,0,0-.5215-.1753H18.2826v1.708Z" style="fill:#b3b3b3"/><path d="M22.1146,28.0419a.9461.9461,0,0,1-.3535-.875V24.185a1.0547,1.0547,0,0,1,.3223-.8608,1.1789,1.1789,0,0,1,.7764-.2661q.6577,0,1.1338.021t1.0928.0562v.7207H23.1331a.5357.5357,0,0,0-.3779.1226.4753.4753,0,0,0-.1328.3677v.917l2.1484.0488v.6792l-2.1484.0488v.8892a.4518.4518,0,0,0,.5039.5181h1.96v.7207q-.8818.0776-2.1279.0913A1.5768,1.5768,0,0,1,22.1146,28.0419Z" style="fill:#b3b3b3"/><path d="M26.6751,28.0663a1.3169,1.3169,0,0,1-.665-.7627,4.6723,4.6723,0,0,1-.2236-1.6484,4.6829,4.6829,0,0,1,.2275-1.6592,1.36,1.36,0,0,1,.668-.78,2.8258,2.8258,0,0,1,1.1836-.2065,2.8721,2.8721,0,0,1,1.1934.2065,1.3448,1.3448,0,0,1,.668.7769,4.7576,4.7576,0,0,1,.2246,1.6626,4.6132,4.6132,0,0,1-.2275,1.6484,1.3368,1.3368,0,0,1-.665.7627,3.6566,3.6566,0,0,1-2.3838,0Zm1.9287-.7173a.8232.8232,0,0,0,.3672-.5283,4.5308,4.5308,0,0,0,.1123-1.1655,4.6939,4.6939,0,0,0-.1152-1.2041.82.82,0,0,0-.3682-.5322,1.6171,1.6171,0,0,0-.7344-.1328,1.5369,1.5369,0,0,0-.7217.1367.8432.8432,0,0,0-.3711.5317,4.49,4.49,0,0,0-.1191,1.2007,4.5962,4.5962,0,0,0,.1094,1.1689.8136.8136,0,0,0,.36.5249,2.0251,2.0251,0,0,0,1.48,0ZM28.1419,29.26a1.0229,1.0229,0,0,1-.417-.7842h.6025a.499.499,0,0,0,.2373.3223.8171.8171,0,0,0,.4131.105,1.9211,1.9211,0,0,0,.4063-.063v.6436a1.6541,1.6541,0,0,1-.3711.0493A1.44,1.44,0,0,1,28.1419,29.26Z" style="fill:#b3b3b3"/><path d="M16.2728,357.808v-1.0771q.7.063,1.6035.0625a1.2852,1.2852,0,0,0,.5254-.08.2845.2845,0,0,0,.168-.2773v-.084a.27.27,0,0,0-.1055-.2275.4189.4189,0,0,0-.2588-.08h-.3711a1.81,1.81,0,0,1-1.2422-.3672,1.5215,1.5215,0,0,1-.41-1.1865v-.2314a1.42,1.42,0,0,1,.4551-1.1475,2.0214,2.0214,0,0,1,1.3369-.3857,7.0571,7.0571,0,0,1,1.624.2031v1.0781q-.7837-.063-1.4561-.0625a1.217,1.217,0,0,0-.5039.08.3068.3068,0,0,0-.168.3047v.07q0,.356.4551.3564h.4619a1.45,1.45,0,0,1,1.0889.3926,1.4026,1.4026,0,0,1,.3809,1.0215v.2314a1.8622,1.8622,0,0,1-.2236.9971,1.1321,1.1321,0,0,1-.6338.4834,3.5776,3.5776,0,0,1-1.0527.1289A6.59,6.59,0,0,1,16.2728,357.808Z" style="fill:#b3b3b3"/><path d="M20.4935,352.768h1.3584v5.2012H20.4935Z" style="fill:#b3b3b3"/><path d="M22.6214,352.768H23.7l1.8271,2.8984V352.768h1.3584v5.2012H25.807L23.98,355.0717v2.8975H22.6214Z" style="fill:#b3b3b3"/><path d="M14.6312,94.3261a1.0547,1.0547,0,0,1,.3223-.8608,1.1815,1.1815,0,0,1,.7773-.2661q1.3784,0,2.2256.0771v.7207H15.9827a.4938.4938,0,0,0-.36.126.4737.4737,0,0,0-.13.3574v1.043l2.1494.0488v.6792L15.4925,96.3v2.0649h-.8613Z" style="fill:#b3b3b3"/><path d="M18.67,93.1992h.8613v5.166H18.67Z" style="fill:#b3b3b3"/><path d="M20.5531,93.1992h.6934l2.3516,3.689v-3.689h.8682v5.166h-.6934l-2.3516-3.689v3.689h-.8682Z" style="fill:#b3b3b3"/><path d="M25.73,98.183a.9461.9461,0,0,1-.3535-.875V94.3261a1.0547,1.0547,0,0,1,.3223-.8608,1.1789,1.1789,0,0,1,.7764-.2661q.6577,0,1.1338.021t1.0928.0562v.7207H26.7484a.5357.5357,0,0,0-.3779.1226.4753.4753,0,0,0-.1328.3677v.917l2.1484.0488v.6792l-2.1484.0488V97.07a.4518.4518,0,0,0,.5039.5181h1.96v.7207q-.8818.0776-2.1279.0913A1.5768,1.5768,0,0,1,25.73,98.183Z" style="fill:#b3b3b3"/><line x1="21.6" y1="144.776" x2="21.6" y2="111.4687" style="fill:#ef464c;stroke:#ef464c;stroke-miterlimit:10;stroke-width:2px"/><path d="M15.8812,279.87a.9467.9467,0,0,1-.3535-.875v-2.9824a1.0529,1.0529,0,0,1,.3223-.86,1.1767,1.1767,0,0,1,.7764-.2666q.6577,0,1.1338.0215t1.0928.0557v.7207H16.9a.5336.5336,0,0,0-.3779.123.4749.4749,0,0,0-.1328.3672v.917l2.1484.0488v.68l-2.1484.0488v.8887a.452.452,0,0,0,.5039.5186h1.96v.7207q-.8818.0776-2.1279.0908A1.581,1.581,0,0,1,15.8812,279.87Z" style="fill:#b3b3b3"/><path d="M20.4408,279.894a1.3138,1.3138,0,0,1-.6641-.7627,6.1622,6.1622,0,0,1,.0029-3.3076,1.36,1.36,0,0,1,.6689-.78,2.82,2.82,0,0,1,1.1826-.207,2.8682,2.8682,0,0,1,1.1934.207,1.3432,1.3432,0,0,1,.6689.7764,4.7643,4.7643,0,0,1,.2236,1.6631,4.6168,4.6168,0,0,1-.2275,1.6484,1.3317,1.3317,0,0,1-.665.7627,2.9336,2.9336,0,0,1-1.1934.1992A2.9438,2.9438,0,0,1,20.4408,279.894Zm1.9287-.7178a.8229.8229,0,0,0,.3682-.5283,4.5352,4.5352,0,0,0,.1113-1.165,4.6448,4.6448,0,0,0-.1152-1.2041.8174.8174,0,0,0-.3672-.5322,1.6124,1.6124,0,0,0-.7354-.1328,1.5291,1.5291,0,0,0-.7207.1367.8385.8385,0,0,0-.3711.5313,4.4916,4.4916,0,0,0-.1191,1.2012,4.6513,4.6513,0,0,0,.1084,1.1689.8112.8112,0,0,0,.36.5244,2.0186,2.0186,0,0,0,1.48,0Z" style="fill:#b3b3b3"/><path d="M25.222,279.8871a1.3443,1.3443,0,0,1-.5977-.78,5.1378,5.1378,0,0,1-.207-1.6592,4.8129,4.8129,0,0,1,.21-1.6,1.398,1.398,0,0,1,.6162-.791,2.1836,2.1836,0,0,1,1.05-.2207,5.4774,5.4774,0,0,1,.8438.0664,5.6191,5.6191,0,0,1,.7246.1572v.665q-.2109-.041-.5986-.0762c-.2588-.0234-.5244-.0352-.7949-.0352a1.4339,1.4339,0,0,0-.71.1436.8456.8456,0,0,0-.36.5352,4.5323,4.5323,0,0,0-.1123,1.1689,4.8193,4.8193,0,0,0,.1055,1.1689.8432.8432,0,0,0,.35.5391,1.4238,1.4238,0,0,0,.7207.1475,11.2819,11.2819,0,0,0,1.4-.0771v.665a5.6817,5.6817,0,0,1-1.5889.1885A2.2654,2.2654,0,0,1,25.222,279.8871Z" style="fill:#b3b3b3"/><path d="M14.054,236.8344a5.7909,5.7909,0,0,1-.7637-.1123v-.6787c.4209.0371.94.0557,1.5615.0557a1.508,1.508,0,0,0,.7109-.1328.5045.5045,0,0,0,.2412-.4834v-.2451a.5552.5552,0,0,0-.1543-.42.6358.6358,0,0,0-.4551-.1465h-.4824a1.6314,1.6314,0,0,1-1.1025-.3223,1.3208,1.3208,0,0,1-.3682-1.043V233.04a1.3263,1.3263,0,0,1,.4063-1.0713,1.8257,1.8257,0,0,1,1.2041-.3428,7.18,7.18,0,0,1,.7949.0488c.2861.0322.5322.07.7383.1123v.6787q-.9448-.063-1.4355-.0635a1.2236,1.2236,0,0,0-.6611.1436.5835.5835,0,0,0-.2207.5293v.1748a.5556.5556,0,0,0,.1719.4551.817.817,0,0,0,.5215.14H15.3a1.3119,1.3119,0,0,1,.99.3535,1.2909,1.2909,0,0,1,.34.9346v.3291a1.2471,1.2471,0,0,1-.4482,1.1094,2.2847,2.2847,0,0,1-1.2881.3047C14.6419,236.8764,14.3617,236.8618,14.054,236.8344Z" style="fill:#b3b3b3"/><path d="M18.73,235.2172l-1.582-3.5488h.8955l1.1348,2.667,1.1338-2.667h.875l-1.5889,3.5488v1.6172H18.73Z" style="fill:#b3b3b3"/><path d="M21.887,231.6684h.6924l2.3525,3.6885v-3.6885H25.8v5.166h-.6934l-2.3516-3.6895v3.6895H21.887Z" style="fill:#b3b3b3"/><path d="M27.3812,236.6694a1.3412,1.3412,0,0,1-.5977-.78,5.1378,5.1378,0,0,1-.207-1.6592,4.8208,4.8208,0,0,1,.21-1.6,1.4046,1.4046,0,0,1,.6162-.791,2.1955,2.1955,0,0,1,1.05-.22,5.3583,5.3583,0,0,1,.8438.0664,5.4591,5.4591,0,0,1,.7246.1572v.665a5.9644,5.9644,0,0,0-.5986-.0771c-.2588-.0234-.5244-.0352-.7949-.0352a1.4339,1.4339,0,0,0-.71.1436.848.848,0,0,0-.36.5361,4.522,4.522,0,0,0-.1123,1.1689,4.83,4.83,0,0,0,.1055,1.1689.8484.8484,0,0,0,.35.5391,1.4248,1.4248,0,0,0,.7207.1465,11.0955,11.0955,0,0,0,1.4-.0771v.665a5.6782,5.6782,0,0,1-1.5889.1895A2.2645,2.2645,0,0,1,27.3812,236.6694Z" style="fill:#b3b3b3"/><line x1="21.6" y1="63.7891" x2="21.6" y2="59.6692" style="fill:#ef464c;stroke:#ef464c;stroke-miterlimit:10;stroke-width:2px"/></svg>