<svg xmlns="http://www.w3.org/2000/svg" width="15.24mm" height="128.4993mm" viewBox="0 0 43.2 364.25"><title>TTTRI</title><rect width="43.2" height="364.25" style="fill:#1b1b1b"/><rect x="14.4" y="3.6885" width="14.4" height="9.1667" rx="4.5833" ry="4.5833" style="fill:#ef464c"/><path d="M18.8909,6.8811H17.5741V5.6558h4V6.8811H20.257v4.0067H18.8909Z" style="fill:#fff"/><path d="M24.3091,9.6626h1.3168v1.2253h-4V9.6626H22.943V5.6558h1.3661Z" style="fill:#fff"/><rect x="3.8667" y="270.0332" width="35.4667" height="76.953" rx="5.6693" ry="5.6693" style="fill:#111111"/><path d="M15.9932,317.5541a1.3155,1.3155,0,0,1-.665-.7627,6.1751,6.1751,0,0,1,.0039-3.3076,1.3612,1.3612,0,0,1,.668-.78,2.8265,2.8265,0,0,1,1.1836-.2061,2.8728,2.8728,0,0,1,1.1934.2061,1.3443,1.3443,0,0,1,.668.7773,4.7545,4.7545,0,0,1,.2246,1.6621,4.61,4.61,0,0,1-.2275,1.6484,1.3353,1.3353,0,0,1-.665.7627,2.9154,2.9154,0,0,1-1.1934.2A2.9191,2.9191,0,0,1,15.9932,317.5541Zm1.9287-.7168a.8245.8245,0,0,0,.3672-.5283,4.5351,4.5351,0,0,0,.1123-1.166,4.6991,4.6991,0,0,0-.1152-1.2041.8208.8208,0,0,0-.3682-.5322,1.6237,1.6237,0,0,0-.7344-.1328,1.543,1.543,0,0,0-.7217.1367.8444.8444,0,0,0-.3711.5322,4.4883,4.4883,0,0,0-.1191,1.2,4.5962,4.5962,0,0,0,.1094,1.1689.816.816,0,0,0,.36.5254,1.57,1.57,0,0,0,.7422.14A1.5762,1.5762,0,0,0,17.9219,316.8373Z" style="fill:#b3b3b3"/><path d="M20.5391,317.3793a1.5185,1.5185,0,0,1-.5068-1.3125v-3.5205h.86v3.5205a.8072.8072,0,0,0,.28.6963,1.7794,1.7794,0,0,0,1.666,0,.8072.8072,0,0,0,.28-.6963v-3.5205h.86v3.5205a1.5185,1.5185,0,0,1-.5068,1.3125,2.4789,2.4789,0,0,1-1.4668.3682A2.4789,2.4789,0,0,1,20.5391,317.3793Z" style="fill:#b3b3b3"/><path d="M25.9893,313.3227H24.5049v-.7764H28.334v.7764H26.8564v4.39h-.8672Z" style="fill:#b3b3b3"/><path d="M15.8809,279.87a.9467.9467,0,0,1-.3535-.875v-2.9824a1.0529,1.0529,0,0,1,.3223-.86,1.1793,1.1793,0,0,1,.7773-.2666c.4375,0,.8164.0068,1.1328.0215.3184.0137.6816.0322,1.0928.0557v.7207H16.8994a.5352.5352,0,0,0-.3779.123.4749.4749,0,0,0-.1328.3672v.917l2.1484.0488v.68l-2.1484.0488v.8887a.452.452,0,0,0,.5039.5186h1.96v.7207q-.8818.0776-2.1279.0908A1.5858,1.5858,0,0,1,15.8809,279.87Z" style="fill:#b3b3b3"/><path d="M20.4414,279.894a1.3152,1.3152,0,0,1-.665-.7627,6.1879,6.1879,0,0,1,.0029-3.3076,1.3629,1.3629,0,0,1,.6689-.78,2.8233,2.8233,0,0,1,1.1826-.207,2.8651,2.8651,0,0,1,1.1934.207,1.3432,1.3432,0,0,1,.6689.7764,4.7643,4.7643,0,0,1,.2236,1.6631,4.6427,4.6427,0,0,1-.2266,1.6484,1.3364,1.3364,0,0,1-.666.7627,2.93,2.93,0,0,1-1.1934.1992A2.9355,2.9355,0,0,1,20.4414,279.894Zm1.9277-.7178a.8229.8229,0,0,0,.3682-.5283,4.5265,4.5265,0,0,0,.1123-1.165,4.6887,4.6887,0,0,0-.1152-1.2041.8216.8216,0,0,0-.3682-.5322,1.6124,1.6124,0,0,0-.7354-.1328,1.5291,1.5291,0,0,0-.7207.1367.842.842,0,0,0-.3711.5313,4.4916,4.4916,0,0,0-.1191,1.2012,4.5962,4.5962,0,0,0,.1094,1.1689.81.81,0,0,0,.3594.5244,2.0186,2.0186,0,0,0,1.48,0Z" style="fill:#b3b3b3"/><path d="M25.2227,279.8871a1.3416,1.3416,0,0,1-.5986-.78,5.1423,5.1423,0,0,1-.2061-1.6592,4.8167,4.8167,0,0,1,.209-1.6,1.398,1.398,0,0,1,.6162-.791,2.1836,2.1836,0,0,1,1.05-.2207,5.4774,5.4774,0,0,1,.8438.0664,5.6191,5.6191,0,0,1,.7246.1572v.665q-.2109-.041-.5986-.0762c-.2588-.0234-.5244-.0352-.7939-.0352a1.4381,1.4381,0,0,0-.7109.1436.8493.8493,0,0,0-.36.5352,4.5323,4.5323,0,0,0-.1123,1.1689,4.8193,4.8193,0,0,0,.1055,1.1689.8469.8469,0,0,0,.35.5391,1.4287,1.4287,0,0,0,.7207.1475,11.2819,11.2819,0,0,0,1.4-.0771v.665a5.6817,5.6817,0,0,1-1.5889.1885A2.2638,2.2638,0,0,1,25.2227,279.8871Z" style="fill:#b3b3b3"/><path d="M14.0547,236.8344a5.7909,5.7909,0,0,1-.7637-.1123v-.6787q.63.0557,1.5605.0557a1.5026,1.5026,0,0,0,.7109-.1328.5034.5034,0,0,0,.2422-.4834v-.2451a.5552.5552,0,0,0-.1543-.42.6374.6374,0,0,0-.4551-.1465h-.4824a1.636,1.636,0,0,1-1.1035-.3223,1.3239,1.3239,0,0,1-.3672-1.043V233.04a1.3231,1.3231,0,0,1,.4063-1.0713,1.8245,1.8245,0,0,1,1.2031-.3428,7.1661,7.1661,0,0,1,.7949.0488c.2871.0322.5332.07.7383.1123v.6787q-.9434-.063-1.4346-.0635a1.2236,1.2236,0,0,0-.6611.1436.5835.5835,0,0,0-.2207.5293v.1748a.5526.5526,0,0,0,.1719.4551.8133.8133,0,0,0,.5215.14h.5391a1.3119,1.3119,0,0,1,.99.3535,1.2909,1.2909,0,0,1,.34.9346v.3291a1.2474,1.2474,0,0,1-.4492,1.1094,2.279,2.279,0,0,1-1.2871.3047C14.6426,236.8764,14.3623,236.8618,14.0547,236.8344Z" style="fill:#b3b3b3"/><path d="M18.73,235.2172l-1.582-3.5488h.8955l1.1338,2.667,1.1348-2.667h.875l-1.59,3.5488v1.6172H18.73Z" style="fill:#b3b3b3"/><path d="M21.8867,231.6684H22.58l2.3516,3.6885v-3.6885h.8691v5.166h-.6934l-2.3516-3.6895v3.6895h-.8691Z" style="fill:#b3b3b3"/><path d="M27.3818,236.6694a1.3462,1.3462,0,0,1-.5986-.78,5.17,5.17,0,0,1-.2061-1.6592,4.7952,4.7952,0,0,1,.21-1.6,1.4074,1.4074,0,0,1,.6152-.791,2.2024,2.2024,0,0,1,1.0508-.22,5.3766,5.3766,0,0,1,.8438.0664,5.4939,5.4939,0,0,1,.7246.1572v.665a5.9519,5.9519,0,0,0-.6-.0771c-.2578-.0234-.5234-.0352-.7939-.0352a1.4339,1.4339,0,0,0-.71.1436.8526.8526,0,0,0-.3613.5361,4.5749,4.5749,0,0,0-.1113,1.1689,4.83,4.83,0,0,0,.1055,1.1689.8447.8447,0,0,0,.35.5391,1.4248,1.4248,0,0,0,.7207.1465,11.1173,11.1173,0,0,0,1.4-.0771v.665a5.6856,5.6856,0,0,1-1.59.1895A2.2629,2.2629,0,0,1,27.3818,236.6694Z" style="fill:#b3b3b3"/><path d="M13.3818,24.185a1.0547,1.0547,0,0,1,.3223-.8608,1.1789,1.1789,0,0,1,.7764-.2661q1.38,0,2.2266.0771v.7207H14.7324a.4929.4929,0,0,0-.3594.126.4737.4737,0,0,0-.13.3574v1.043l2.1494.0488V26.11l-2.1494.0488v2.0649h-.8613Z" style="fill:#b3b3b3"/><path d="M17.4209,23.058h2.1006a1.5054,1.5054,0,0,1,1.043.3467,1.65,1.65,0,0,1,.3848,1.2563,1.645,1.645,0,0,1-.2422,1.001,1.3019,1.3019,0,0,1-.6328.4482l.9941,2.1138h-.875l-.8965-1.9878q-.4277,0-1.0146-.0142v2.002h-.8613Zm1.9531,2.4849a.691.691,0,0,0,.5215-.1924.99.99,0,0,0,.1855-.6895.8836.8836,0,0,0-.1855-.6509.7314.7314,0,0,0-.5215-.1753H18.2822v1.708Z" style="fill:#b3b3b3"/><path d="M22.1143,28.0419a.9483.9483,0,0,1-.3535-.875V24.185a1.0547,1.0547,0,0,1,.3223-.8608,1.1789,1.1789,0,0,1,.7764-.2661c.4395,0,.8164.0068,1.1348.021.3164.0142.6816.0327,1.0918.0562v.7207H23.1328a.5374.5374,0,0,0-.3779.1226.4753.4753,0,0,0-.1328.3677v.917l2.1494.0488v.6792l-2.1494.0488v.8892a.4518.4518,0,0,0,.5039.5181h1.96v.7207q-.8818.0776-2.1279.0913A1.5768,1.5768,0,0,1,22.1143,28.0419Z" style="fill:#b3b3b3"/><path d="M26.6748,28.0663a1.3169,1.3169,0,0,1-.665-.7627,4.6952,4.6952,0,0,1-.2236-1.6484,4.6829,4.6829,0,0,1,.2275-1.6592,1.3631,1.3631,0,0,1,.668-.78,2.8289,2.8289,0,0,1,1.1836-.2065,2.8721,2.8721,0,0,1,1.1934.2065,1.3381,1.3381,0,0,1,.668.7769,4.7345,4.7345,0,0,1,.2246,1.6626,4.6132,4.6132,0,0,1-.2275,1.6484,1.3335,1.3335,0,0,1-.665.7627,3.6566,3.6566,0,0,1-2.3838,0Zm1.9287-.7173a.8232.8232,0,0,0,.3672-.5283,4.5308,4.5308,0,0,0,.1123-1.1655,4.65,4.65,0,0,0-.1152-1.2041.82.82,0,0,0-.3682-.5322,1.6143,1.6143,0,0,0-.7344-.1328,1.5352,1.5352,0,0,0-.7207.1367.84.84,0,0,0-.3711.5317,4.45,4.45,0,0,0-.1191,1.2007,4.6054,4.6054,0,0,0,.1084,1.1689.8136.8136,0,0,0,.36.5249,2.0251,2.0251,0,0,0,1.48,0ZM28.1416,29.26a1.0229,1.0229,0,0,1-.417-.7842h.6025a.499.499,0,0,0,.2373.3223.8182.8182,0,0,0,.4141.105,1.93,1.93,0,0,0,.4063-.063v.6436a1.6682,1.6682,0,0,1-.3711.0493A1.4413,1.4413,0,0,1,28.1416,29.26Z" style="fill:#b3b3b3"/><path d="M17.6172,353.9868H16.3086V352.768h3.9756v1.2188h-1.31v3.9824H17.6172Z" style="fill:#b3b3b3"/><path d="M20.7813,352.768H23a1.6013,1.6013,0,0,1,1.1543.3955,1.8269,1.8269,0,0,1,.4141,1.3545,1.861,1.861,0,0,1-.1855.9209,1.4179,1.4179,0,0,1-.5215.5146l.9023,2.0156H23.3848l-.7275-1.792h-.5186v1.792H20.7813Zm1.9736,2.3311a.4166.4166,0,0,0,.3428-.1357.6931.6931,0,0,0,.1123-.4375.6252.6252,0,0,0-.1084-.42.4451.4451,0,0,0-.3467-.1191h-.6162v1.1123Z" style="fill:#b3b3b3"/><path d="M25.2617,352.768h1.3574v5.2012H25.2617Z" style="fill:#b3b3b3"/><path d="M14.6309,94.3261a1.0547,1.0547,0,0,1,.3223-.8608,1.1815,1.1815,0,0,1,.7773-.2661q1.3784,0,2.2256.0771v.7207H15.9824a.4938.4938,0,0,0-.36.126.4737.4737,0,0,0-.13.3574v1.043l2.1494.0488v.6792L15.4922,96.3v2.0649h-.8613Z" style="fill:#b3b3b3"/><path d="M18.67,93.1992h.8613v5.166H18.67Z" style="fill:#b3b3b3"/><path d="M20.5527,93.1992h.6934l2.3516,3.689v-3.689h.8682v5.166h-.6934l-2.3516-3.689v3.689h-.8682Z" style="fill:#b3b3b3"/><path d="M25.7295,98.183a.9461.9461,0,0,1-.3535-.875V94.3261a1.0547,1.0547,0,0,1,.3223-.8608,1.1789,1.1789,0,0,1,.7764-.2661q.6577,0,1.1338.021t1.0928.0562v.7207H26.748a.5357.5357,0,0,0-.3779.1226.4753.4753,0,0,0-.1328.3677v.917l2.1484.0488v.6792l-2.1484.0488V97.07a.4518.4518,0,0,0,.5039.5181h1.96v.7207q-.8818.0776-2.1279.0913A1.5768,1.5768,0,0,1,25.7295,98.183Z" style="fill:#b3b3b3"/><line x1="21.6" y1="144.776" x2="21.6" y2="111.4687" style="fill:#ef464c;stroke:#ef464c;stroke-miterlimit:10;stroke-width:2px"/><path d="M12.42,166.54H10.9355v-.7769h3.8291v.7769H13.2881v4.3892H12.42Z" style="fill:#b3b3b3"/><path d="M15.3594,165.7631h.8613v2.2329h2.1768v-2.2329h.8682v5.166h-.8682v-2.1558H16.2207v2.1558h-.8613Z" style="fill:#b3b3b3"/><path d="M20.585,170.747a.9483.9483,0,0,1-.3535-.875V166.89a1.0547,1.0547,0,0,1,.3223-.8608,1.1815,1.1815,0,0,1,.7773-.2661q.6577,0,1.1338.021t1.0918.0562v.7207H21.6035a.539.539,0,0,0-.3779.1226.4753.4753,0,0,0-.1328.3677v.917l2.1494.0488v.6792l-2.1494.0488v.8892a.4518.4518,0,0,0,.5039.5181h1.96v.7207q-.8818.0776-2.1279.0913A1.5816,1.5816,0,0,1,20.585,170.747Z" style="fill:#b3b3b3"/><path d="M25.5029,166.54H24.0186v-.7769h3.8291v.7769H26.3711v4.3892h-.8682Z" style="fill:#b3b3b3"/><path d="M29.4512,165.7631H30.543l1.68,5.166H31.32l-.3994-1.2251H29.0518l-.3916,1.2251h-.8887Zm1.26,3.1641-.7275-2.4219-.7285,2.4219Z" style="fill:#b3b3b3"/><line x1="21.1293" y1="221.8254" x2="21.1293" y2="188.5181" style="fill:#ef464c;stroke:#ef464c;stroke-miterlimit:10;stroke-width:2px"/><line x1="21.6" y1="63.7891" x2="21.6" y2="59.6692" style="fill:#ef464c;stroke:#ef464c;stroke-miterlimit:10;stroke-width:2px"/></svg>