<svg xmlns="http://www.w3.org/2000/svg" width="100.2126" height="315.97812" viewBox="0 0 100.2126 315.97812">
  <title>Asset 2</title>
  <g>
    <polyline points="0.5 0.807 49.839 11.809 49.839 0.626 99.713 11.965" style="fill: none;stroke: #eddfe1;stroke-miterlimit: 10"/>
    <path d="M.5,18.42351c.39766-.51049,11.02491,1.66514,11.17527,1.67811.39064.03369,14.4121,4.27336,14.86288,4.31114.37549.03148,15.9311,2.67807,16.41115,2.72446.184.01778,4.44359,1.07225,4.57032,1.11536.02891.00983.06137-1.00892.0997-1.0089.33187.00017.49585-9.36116.73116-9.35059.21022.00945,2.94088.9957,3.18332,1.02352.37383.0429,7.71636.79528,8.15783.82042.51065.02908,7.54889,2.74016,7.93572,2.74755.316.006,6.0085.5005,6.35731.51482.22573.00927,3.08815.96089,3.29213.9572.20659-.00374,2.78226.23761,2.94018.23734.22825-.00039,4.45116,1.62861,4.68678,1.63582.30421.00931,7.69075.51641,8.24225.48721.31192-.01652,6.26826,1.60162,6.56661,1.99718" style="fill: none;stroke: #eddfe1;stroke-miterlimit: 10"/>
    <path d="M.5,36.04021c.79531-1.021,10.36348.72422,10.66419.75016.78128.06739,12.86274,4.98732,13.7643,5.06289.751.063,14.89713,1.57295,15.85721,1.66573.36794.03556,4.1607,1.09049,4.41415,1.17673.05781.01967.12274-.865.1994-.865.66374.00034.99169-8.69211,1.46232-8.671.42045.0189,2.78561,1.28749,3.27049,1.34314.74766.08581,7.71045-.16508,8.59339-.1148,1.0213.05816,7.22465,3.69039,7.99832,3.70515.632.01206,5.89848-.39,6.59611-.36138.45145.01853,3.04212,1.20923,3.45007,1.20184.41317-.00748,2.74192-.16649,3.05776-.167.45651-.00078,4.24135,2.19756,4.71258,2.212.60843.01861,7.24789-.81634,8.35089-.87474.62384-.033,6.22473,1.76827,6.82143,2.55939" style="fill: none;stroke: #eddfe1;stroke-miterlimit: 10"/>
    <path d="M.5,53.65692c1.193-1.53148,9.702-.21669,10.15311-.17778,1.17192.10108,11.31337,5.70128,12.66572,5.81464,1.12648.09443,13.86315.46782,15.30328.607.55191.05333,3.87781,1.10874,4.258,1.23809.08672.0295.18411-.72115.29909-.72109.99561.00051,1.48754-8.02306,2.19348-7.99133.63067.02835,2.63034,1.57929,3.35766,1.66276,1.1215.12871,7.70453-1.12545,9.02895-1.05,1.53195.08724,6.90041,4.64061,8.06091,4.66276.948.01809,5.78846-1.28056,6.8349-1.23759.67718.0278,2.99608,1.45757,3.608,1.44649.61976-.01122,2.70157-.57058,3.17534-.5714.68476-.00118,4.03154,2.7665,4.73838,2.78812.91264.02792,6.805-2.14908,8.45953-2.2367.93575-.04955,6.1812,1.93492,7.07625,3.1216" style="fill: none;stroke: #eddfe1;stroke-miterlimit: 10"/>
    <path d="M.5,71.27362c1.59062-2.042,9.0406-1.1576,9.642-1.10572,1.56255.13477,9.764,6.41524,11.56714,6.56639,1.502.1259,12.82917-.63731,14.74934-.45175A37.21679,37.21679,0,0,1,40.56034,77.582c.11562.03934.24548-.57726.39879-.57719,1.32748.00068,1.98339-7.354,2.92463-7.3117.8409.03779,2.47508,1.87108,3.44483,1.98238,1.49533.17161,7.69862-2.08581,9.46451-1.98525,2.0426.11632,6.57617,5.59084,8.12351,5.62037,1.264.02412,5.67845-2.17108,7.0737-2.1138.90291.03707,2.95005,1.70591,3.766,1.69113.82634-.015,2.66123-.97468,3.29292-.97577.913-.00157,3.82172,3.33545,4.76418,3.36428,1.21686.03723,6.36217-3.48183,8.56817-3.59865,1.24767-.06607,6.13767,2.10156,7.33107,3.6838" style="fill: none;stroke: #eddfe1;stroke-miterlimit: 10"/>
    <path d="M.5,88.89032c1.98828-2.55247,8.37916-2.09851,9.13094-2.03367,1.95319.16847,8.21465,7.1292,10.46856,7.31814,1.87747.15738,11.7952-1.74244,14.19541-1.51049a27.24312,27.24312,0,0,1,3.94567,1.36082c.14453.04917.30685-.43338.49849-.43328,1.65935.00085,2.47924-6.685,3.65579-6.63207,1.05112.04724,2.31981,2.16288,3.532,2.302,1.86916.21452,7.69271-3.04618,9.90006-2.92048,2.55325.1454,6.25193,6.54106,8.1861,6.578,1.58.03015,5.56843-3.06161,7.31249-2.99,1.12864.04634,2.904,1.95425,3.9239,1.93578,1.03293-.01871,2.62088-1.37878,3.41049-1.38014,1.14127-.002,3.61191,3.90439,4.79,3.94043,1.52107.04653,5.91931-4.81458,8.6768-4.9606,1.55959-.08259,6.09414,2.26821,7.58589,4.246" style="fill: none;stroke: #eddfe1;stroke-miterlimit: 10"/>
    <path d="M.5,106.507c2.38593-3.063,7.71772-3.03942,8.61986-2.96161,2.34383.20216,6.66529,7.84317,9.37,8.06989,2.253.18886,10.76122-2.84756,13.64147-2.56923a20.76045,20.76045,0,0,1,3.78951,1.42218c.17343.059.36822-.28949.59819-.28938,1.99122.001,2.97508-6.0159,4.387-5.95244,1.26135.05669,2.16454,2.45467,3.61917,2.62162,2.243.25742,7.68679-4.00654,10.33562-3.8557,3.0639.17448,5.92769,7.49129,8.2487,7.53558,1.896.03618,5.45841-3.95214,7.55129-3.86622,1.35436.0556,2.858,2.20259,4.08185,2.18042,1.23951-.02245,2.58054-1.78288,3.52807-1.78451,1.36952-.00235,3.4021,4.47334,4.81578,4.51658,1.82529.05584,5.47645-6.14733,8.78544-6.32255,1.87151-.0991,6.0506,2.43486,7.84071,4.80822" style="fill: none;stroke: #eddfe1;stroke-miterlimit: 10"/>
    <path d="M.5,124.12372a10.37169,10.37169,0,0,1,8.10878-3.88955c2.73447.23585,5.11593,8.55713,8.2714,8.82164,2.62845.22033,9.72724-3.95269,13.08754-3.628,1.2878.12445,2.74626,1.18172,3.63335,1.48355.20234.06884.42959-.14561.69788-.14547,2.32308.00119,3.47093-5.34685,5.11811-5.27281,1.47157.06614,2.00928,2.74647,3.70634,2.94125,2.61682.30032,7.68088-4.96691,10.77118-4.79093,3.57455.20356,5.60345,8.44151,8.3113,8.49319,2.212.04221,5.34839-4.84267,7.79008-4.74243,1.58009.06487,2.812,2.45093,4.23979,2.42507,1.4461-.02619,2.54019-2.187,3.64565-2.18888,1.59778-.00275,3.19228,5.04228,4.84158,5.09274,2.1295.06514,5.03359-7.48008,8.89408-7.6845,2.18342-.11562,6.00707,2.60151,8.09553,5.37043" style="fill: none;stroke: #eddfe1;stroke-miterlimit: 10"/>
    <path d="M.5,141.74042c3.18124-4.084,6.39484-4.92125,7.5977-4.8175,3.12511.26955,3.56657,9.27109,7.17282,9.57339,3.00395.25181,8.69326-5.05782,12.5336-4.6867,1.47177.14223,2.46337,1.2,3.47719,1.54491a2.70676,2.70676,0,0,0,.79758-.00157c2.655.00136,3.96678-4.6778,5.84927-4.59319,1.6818.07559,1.854,3.03826,3.79351,3.26087,2.99065.34323,7.675-5.92727,11.20674-5.72615,4.08519.23264,5.27921,9.39174,8.37389,9.45079,2.528.04824,5.23837-5.7332,8.02888-5.61864,1.80582.07414,2.76592,2.69926,4.39774,2.66971,1.65269-.02993,2.49985-2.59108,3.76323-2.59325,1.826-.00314,2.98247,5.61123,4.86738,5.66889,2.43372.07445,4.59072-8.81282,9.00272-9.04646,2.49534-.13214,5.96354,2.76816,8.35035,5.93264" style="fill: none;stroke: #eddfe1;stroke-miterlimit: 10"/>
    <polyline points="0.5 315.927 0.5 305.6 51.95 305.6 51.95 315.478 99.713 315.478 99.713 304.588" style="fill: none;stroke: #eddfe1;stroke-miterlimit: 10"/>
    <path d="M.5,298.53016c.39766-.51049.637-9.831.7874-9.818.39064.03369,15.23267,1.10945,15.68345,1.14724.37549.03148,16.80012-.68477,17.28016-.63838.22593.02183,5.74086.19419,5.94723.19429.33187.00017,9.79283-.44542,10.02814-.43484.21022.00945.18875,4.83991.43119,4.86773.15612.01792.33045,4.19833.51271,4.04207.25418-.21792,7.33467-.48593,7.59178-.47129.51065.02908,11.9651,1.14911,12.35193,1.15649.316.006,9.38691-.736,9.73573-.72165.22573.00927,4.82815.32751,5.03213.32382.20659-.00374,4.41245-.3328,4.57037-.33307.22825-.00039,7.05626.68669,7.29188.69389.30421.00931.46087-6.57766,1.01237-6.60686.31192-.01652.65778-3.90347.95613-3.50791" style="fill: none;stroke: #eddfe1;stroke-miterlimit: 10"/>
    <path d="M.5,281.13353c.79531-1.021,1.27409-9.33489,1.5748-9.30895.78128.06739,13.58074,2.2189,14.4823,2.29448.751.063,15.65752-1.36954,16.6176-1.27676.45187.04367,5.31838.38837,5.73111.38858.66374.00034,9.12656-.89083,9.59718-.86968.42045.0189.3775,4.65118.86237,4.70683.31223.03583.66089,3.54687,1.02541,3.23434.50835-.43585,7.00708-.97187,7.5213-.94259,1.0213.05816,11.08883,2.29821,11.8625,2.313.632.01206,8.85459-1.47194,9.55222-1.4433.45145.01853,4.56462.655,4.97257.64764.41317-.00748,4.16833-.6656,4.48417-.66614.45651-.00078,6.52081,1.37337,6.992,1.38779.60843.01861.92175-7.02365,2.02475-7.08205.62384-.033,1.31556-3.04869,1.91226-2.25757" style="fill: none;stroke: #eddfe1;stroke-miterlimit: 10"/>
    <path d="M.5,263.7369c1.193-1.53148,1.91114-8.83878,2.3622-8.79987,1.17192.10108,11.9288,3.32835,13.28115,3.44171,1.12648.09443,14.51491-2.05432,15.955-1.91515.6778.0655,4.8959.58256,5.515.58287.99561.00051,8.46028-1.33625,9.16622-1.30452.63067.02835.56625,4.46244,1.29356,4.54592.46835.05375.99134,2.89541,1.53812,2.42662.76253-.65377,6.67949-1.4578,7.45082-1.41388,1.53195.08724,10.21257,3.44732,11.37307,3.46947.948.01809,8.32227-2.20791,9.36871-2.16495.67718.0278,4.30109.98253,4.913.97145.61976-.01122,3.92421-.99839,4.398-.99921.68476-.00118,5.98536,2.06006,6.6922,2.08168.91264.02792,1.38262-7.46963,3.03712-7.55725.93575-.04955,1.97334-2.1939,2.86839-1.00722" style="fill: none;stroke: #eddfe1;stroke-miterlimit: 10"/>
    <path d="M.5,246.34027c1.59062-2.042,2.54818-8.34268,3.14961-8.2908,1.56255.13477,10.27687,4.4378,12.08,4.589,1.502.1259,13.37231-2.73909,15.29248-2.55353.90373.08733,4.47342.77674,5.29888.77716,1.32748.00068,7.794-1.78166,8.73525-1.73936.8409.03779.755,4.27371,1.72475,4.385.62446.07167,1.32179,2.24395,2.05082,1.61889,1.01671-.8717,6.3519-1.94374,7.38034-1.88517,2.0426.11632,9.3363,4.59643,10.88364,4.626,1.264.02412,7.79-2.94388,9.18521-2.8866.90291.03707,4.03755,1.31,4.85346,1.29527.82634-.015,3.68009-1.33119,4.31178-1.33228.913-.00157,5.44991,2.74674,6.39237,2.77557,1.21686.03723,1.8435-7.91562,4.04949-8.03244,1.24767-.06607,2.63112-1.33912,3.82452.24312" style="fill: none;stroke: #eddfe1;stroke-miterlimit: 10"/>
    <path d="M.5,228.94364c1.98828-2.55247,3.18523-7.84657,3.937-7.78173,1.95319.16847,8.62494,5.54725,10.87885,5.73619,1.87747.15738,12.2297-3.42386,14.62992-3.19191,1.12967.10917,4.05094.97093,5.08277.97145,1.65935.00085,7.12773-2.22708,8.30429-2.1742,1.05112.04724.94374,4.085,2.15593,4.22411.78058.08958,1.65223,1.59249,2.56353.81117,1.27089-1.08962,6.02431-2.42967,7.30986-2.35647,2.55325.1454,8.46,5.74554,10.39421,5.78245,1.58.03015,7.25763-3.67985,9.0017-3.60825,1.12864.04634,3.774,1.63756,4.79391,1.61909,1.03293-.01871,3.436-1.664,4.22559-1.66534,1.14127-.002,4.91446,3.43343,6.09253,3.46947,1.52107.04653,2.30437-8.36161,5.06187-8.50763,1.55959-.08259,3.2889-.48433,4.78065,1.49347" style="fill: none;stroke: #eddfe1;stroke-miterlimit: 10"/>
    <path d="M.5,211.547c2.38593-3.063,3.82227-7.35047,4.72441-7.27266,2.34383.20216,6.973,6.6567,9.67769,6.88343,2.253.18886,11.0871-4.10863,13.96735-3.83029,1.3556.131,3.62845,1.16511,4.86665,1.16574,1.99122.001,6.46145-2.67249,7.87332-2.609,1.26135.05669,1.13249,3.89625,2.58712,4.0632.93669.1075,1.98268.941,3.07623.00344,1.52506-1.30755,5.69672-2.91561,7.23938-2.82776,3.0639.17448,7.58377,6.89464,9.90478,6.93893,1.896.03618,6.72531-4.41582,8.81819-4.3299,1.35436.0556,3.51049,1.96507,4.73435,1.94291,1.23951-.02245,3.19186-1.99679,4.13939-1.99841,1.36952-.00235,4.379,4.12012,5.79269,4.16336,1.82529.05584,2.76524-8.8076,6.07424-8.98283A6.3039,6.3039,0,0,1,99.7126,207.601" style="fill: none;stroke: #eddfe1;stroke-miterlimit: 10"/>
    <path d="M.5,194.15038c2.78359-3.57346,4.45932-6.85437,5.51181-6.76358,2.73447.23585,5.32107,7.76615,8.47654,8.03066,2.62845.22033,9.9445-4.7934,13.30479-4.46867,1.58153.15283,3.206,1.3593,4.65054,1.36,2.32308.00119,5.79518-3.11791,7.44236-3.04388,1.47157.06614,1.32124,3.70752,3.01831,3.9023a4.10851,4.10851,0,0,0,3.58894-.80428c1.77924-1.52547,5.36914-3.40154,7.1689-3.29905,3.57455.20356,6.7075,8.04375,9.41535,8.09542,2.212.04221,6.193-5.15179,8.63469-5.05155,1.58009.06487,3.247,2.29258,4.67479,2.26672,1.4461-.02619,2.94774-2.32959,4.0532-2.33148,1.59778-.00275,3.84356,4.8068,5.49285,4.85726,2.1295.06514,3.22612-9.25359,7.08661-9.458,2.18342-.11562,4.60445,1.22524,6.69291,3.99416" style="fill: none;stroke: #eddfe1;stroke-miterlimit: 10"/>
    <path d="M.5,176.75375c3.18124-4.084,5.09636-6.35826,6.29921-6.25451,3.12511.26955,3.66914,8.8756,7.27539,9.1779,3.00395.25181,8.80189-5.47817,12.64223-5.10706,1.80746.17467,2.78349,1.55348,4.43442,1.55432,2.655.00136,5.1289-3.56333,7.01139-3.47872,1.6818.07559,1.51,3.51879,3.4495,3.74139a5.46391,5.46391,0,0,0,4.10164-1.612c2.03342-1.7434,5.04155-3.88748,7.09842-3.77035,4.08519.23264,5.83124,9.19286,8.92592,9.25191,2.528.04824,5.66067-5.88776,8.45118-5.77319,1.80582.07414,2.98342,2.62009,4.61524,2.59054,1.65269-.02993,2.70362-2.66238,3.967-2.66455,1.826-.00314,3.30811,5.49349,5.193,5.55115,2.43372.07445,3.687-9.69958,8.099-9.93322,2.49534-.13214,5.26223,2.08,7.649,5.2445" style="fill: none;stroke: #eddfe1;stroke-miterlimit: 10"/>
    <path d="M.5,159.35713c3.5789-4.59445,5.73341-5.86216,7.08661-5.74544,3.51575.30324,2.01721,9.98505,6.07424,10.32514,3.37944.28328,7.65929-6.16295,11.97967-5.74544,2.0334.1965,2.361,1.74767,4.21831,1.74861,2.98682.00152,4.46262-4.00874,6.58043-3.91356,1.892.085,1.69874,3.33006,3.88068,3.58049,3.36449.38613,7.66905-6.88764,11.64229-6.66138,4.59584.26172,4.955,10.342,8.43649,10.4084,2.844.05427,5.12835-6.62373,8.26768-6.49484,2.03154.08341,2.71989,2.9476,4.55568,2.91436,1.85927-.03367,2.4595-2.99518,3.88081-2.99762,2.05428-.00353,2.77266,6.18018,4.89318,6.245,2.73793.08376,4.14786-10.14557,9.11136-10.40841,2.80726-.14866,5.92,2.9348,8.60517,6.49484" style="fill: none;stroke: #eddfe1;stroke-miterlimit: 10"/>
  </g>
</svg>
