<svg xmlns="http://www.w3.org/2000/svg" width="84.05566" height="56" viewBox="0 0 84.05566 56">
  <title>Asset 4</title>
  <g>
    <path d="M.728,1.05566h.52l3.07178,4.792v-4.792h.63232V6.94385h-.52l-3.07227-4.792v4.792H.728Z" transform="translate(-0.16016 -0.83984)" style="fill: #fff"/>
    <path d="M6.71191,6.80762a1.1804,1.1804,0,0,1-.59619-.65967,3.6709,3.6709,0,0,1-.1958-1.34814,3.62661,3.62661,0,0,1,.19971-1.356A1.16768,1.16768,0,0,1,6.71191,2.792a2.62184,2.62184,0,0,1,1.05615-.17627,2.59966,2.59966,0,0,1,1.05566.18018,1.18033,1.18033,0,0,1,.6001.65576A3.599,3.599,0,0,1,9.624,4.7998a3.59724,3.59724,0,0,1-.2002,1.34814,1.19753,1.19753,0,0,1-.59619.65967,2.5388,2.5388,0,0,1-1.05957.18408A2.54637,2.54637,0,0,1,6.71191,6.80762ZM8.46,6.356a.79569.79569,0,0,0,.3877-.47607A3.23261,3.23261,0,0,0,8.98389,4.7998a3.29627,3.29627,0,0,0-.13184-1.07617A.78038.78038,0,0,0,8.46387,3.252a1.72018,1.72018,0,0,0-.6958-.11621,1.71451,1.71451,0,0,0-.7002.11621.78155.78155,0,0,0-.38379.47168A3.28044,3.28044,0,0,0,6.55176,4.7998a3.31717,3.31717,0,0,0,.13232,1.08008.78294.78294,0,0,0,.38379.47607,1.71545,1.71545,0,0,0,.7002.11572A1.69108,1.69108,0,0,0,8.46,6.356Z" transform="translate(-0.16016 -0.83984)" style="fill: #fff"/>
    <path d="M12.39209,2.67188H13.04l1.04834,3.68018,1.08008-3.68018h.55176l1.08008,3.68018,1.01611-3.68018h.64795l-1.28809,4.272h-.6958L15.43213,3.52,14.37646,6.94385h-.688Z" transform="translate(-0.16016 -0.83984)" style="fill: #fff"/>
    <path d="M19.11621,6.70361a1.03442,1.03442,0,0,1-.30029-.78369v-.3042a1.048,1.048,0,0,1,.34033-.82373,1.44912,1.44912,0,0,1,.99561-.3042H21.6001V3.96a.80988.80988,0,0,0-.23584-.64014,1.34485,1.34485,0,0,0-.86816-.208H19.168v-.376A9.27484,9.27484,0,0,1,20.728,2.60791a1.71406,1.71406,0,0,1,1.14014.31592,1.26251,1.26251,0,0,1,.36377,1.00391V6.94385h-.48779L21.624,6.45605a2.1402,2.1402,0,0,1-.34814.18359,4.51249,4.51249,0,0,1-.668.24414,2.56932,2.56932,0,0,1-.71191.10791A1.07721,1.07721,0,0,1,19.11621,6.70361Zm1.58789-.26367q.312-.07983.564-.168.252-.08789.332-.12012V4.80762l-1.3042.05615a.944.944,0,0,0-.644.21631.7273.7273,0,0,0-.20361.54395v.19189a.64282.64282,0,0,0,.21191.53613.805.805,0,0,0,.51611.168A2.19765,2.19765,0,0,0,20.7041,6.43994Z" transform="translate(-0.16016 -0.83984)" style="fill: #fff"/>
    <path d="M22.96826,2.67188h.64795l1.32813,3.68018L26.3125,2.67188h.64014l-1.65625,4.272h-.72021Z" transform="translate(-0.16016 -0.83984)" style="fill: #fff"/>
    <path d="M28.11621,6.792a1.15687,1.15687,0,0,1-.54785-.67236,4.09276,4.09276,0,0,1-.168-1.31982,4.03237,4.03237,0,0,1,.17188-1.32812,1.1393,1.1393,0,0,1,.55615-.66406,2.41662,2.41662,0,0,1,1.064-.19189,2.816,2.816,0,0,1,.936.12793.93411.93411,0,0,1,.52.436,1.799,1.799,0,0,1,.168.85205.934.934,0,0,1-.31592.78809,1.44764,1.44764,0,0,1-.90039.24414H28.03223a2.84819,2.84819,0,0,0,.1123.85205.74587.74587,0,0,0,.38379.43994,1.8563,1.8563,0,0,0,.80811.13965h1.376v.38428q-.43213.05566-.76807.084-.33618.02783-.75977.02783A2.33022,2.33022,0,0,1,28.11621,6.792Zm1.42822-2.144a.85085.85085,0,0,0,.53613-.13623.57629.57629,0,0,0,.168-.47168.947.947,0,0,0-.23633-.74023,1.26755,1.26755,0,0,0-.81982-.2041,1.50238,1.50238,0,0,0-.71191.13623.7609.7609,0,0,0-.35205.46387,3.32867,3.32867,0,0,0-.104.95215Z" transform="translate(-0.16016 -0.83984)" style="fill: #fff"/>
    <path d="M32.36816,6.61963a1.49483,1.49483,0,0,1-.28027-1.05957l.02393-2.36816h-.67969v-.4082l.688-.11182.104-1.19189h.48779V2.67188h1.23193v.52H32.71191V5.56006a.93173.93173,0,0,0,.18408.668.72958.72958,0,0,0,.46387.20361l.52.04834v.46387h-.584A1.19752,1.19752,0,0,1,32.36816,6.61963Z" transform="translate(-0.16016 -0.83984)" style="fill: #fff"/>
    <path d="M34.86816,6.70361a1.03442,1.03442,0,0,1-.30029-.78369v-.3042A1.048,1.048,0,0,1,34.9082,4.792a1.44912,1.44912,0,0,1,.99561-.3042h1.44824V3.96a.80988.80988,0,0,0-.23584-.64014,1.34485,1.34485,0,0,0-.86816-.208H34.91992v-.376A9.27484,9.27484,0,0,1,36.48,2.60791a1.71406,1.71406,0,0,1,1.14014.31592,1.26251,1.26251,0,0,1,.36377,1.00391V6.94385h-.48779L37.376,6.45605a2.1402,2.1402,0,0,1-.34814.18359,4.51249,4.51249,0,0,1-.668.24414,2.56932,2.56932,0,0,1-.71191.10791A1.07721,1.07721,0,0,1,34.86816,6.70361Zm1.58789-.26367q.312-.07983.564-.168.252-.08789.332-.12012V4.80762l-1.3042.05615a.944.944,0,0,0-.644.21631.7273.7273,0,0,0-.20361.54395v.19189a.64282.64282,0,0,0,.21191.53613.805.805,0,0,0,.51611.168A2.19765,2.19765,0,0,0,36.45605,6.43994Z" transform="translate(-0.16016 -0.83984)" style="fill: #fff"/>
    <path d="M39.80811,6.51172l-.12012.43213h-.51221V.83984h.63232V3.064a4.03345,4.03345,0,0,1,.71582-.32031,2.17719,2.17719,0,0,1,.68408-.12793,1.33311,1.33311,0,0,1,1.15576.51221,2.99211,2.99211,0,0,1,.37207,1.71191q0,2.15186-1.50391,2.15186A2.45393,2.45393,0,0,1,39.80811,6.51172Zm2.02393-.46a2.26568,2.26568,0,0,0,.272-1.23584,3.15939,3.15939,0,0,0-.13232-1.03613.90686.90686,0,0,0-.36377-.5,1.12682,1.12682,0,0,0-.57617-.13574,2.04817,2.04817,0,0,0-.61572.08789,3.23664,3.23664,0,0,0-.60791.272V6.11963a3.33752,3.33752,0,0,0,.58789.25244,2.11452,2.11452,0,0,0,.63574.0918A.89786.89786,0,0,0,41.832,6.05176Z" transform="translate(-0.16016 -0.83984)" style="fill: #fff"/>
    <path d="M44.07568,6.63965a1.60941,1.60941,0,0,1-.27588-1.064V.83984h.63232V5.49561a1.27881,1.27881,0,0,0,.14355.72021.64089.64089,0,0,0,.45605.23193l.43213.04785v.45605h-.54395A1.06942,1.06942,0,0,1,44.07568,6.63965Z" transform="translate(-0.16016 -0.83984)" style="fill: #fff"/>
    <path d="M46.71582,6.792a1.15687,1.15687,0,0,1-.54785-.67236A4.09276,4.09276,0,0,1,46,4.7998a4.03237,4.03237,0,0,1,.17188-1.32812,1.1393,1.1393,0,0,1,.55615-.66406,2.41662,2.41662,0,0,1,1.064-.19189,2.816,2.816,0,0,1,.936.12793.93411.93411,0,0,1,.52.436,1.799,1.799,0,0,1,.168.85205.934.934,0,0,1-.31592.78809,1.44764,1.44764,0,0,1-.90039.24414H46.63184a2.84818,2.84818,0,0,0,.1123.85205.74587.74587,0,0,0,.38379.43994,1.8563,1.8563,0,0,0,.80811.13965h1.376v.38428q-.43213.05566-.76807.084-.33618.02783-.75977.02783A2.33022,2.33022,0,0,1,46.71582,6.792Zm1.42822-2.144a.85085.85085,0,0,0,.53613-.13623.57629.57629,0,0,0,.168-.47168.947.947,0,0,0-.23633-.74023,1.26755,1.26755,0,0,0-.81982-.2041,1.50238,1.50238,0,0,0-.71191.13623.7609.7609,0,0,0-.35205.46387,3.32867,3.32867,0,0,0-.104.95215Z" transform="translate(-0.16016 -0.83984)" style="fill: #fff"/>
    <path d="M52.93164,6.51563a2.50075,2.50075,0,0,1-.44385-1.69971A3.50493,3.50493,0,0,1,52.69189,3.48a1.24916,1.24916,0,0,1,.58008-.668,2.07869,2.07869,0,0,1,.93555-.188,8.324,8.324,0,0,1,1.416.11182v.376H54.376a1.49262,1.49262,0,0,0-.708.144.91874.91874,0,0,0-.4082.51611A3.13617,3.13617,0,0,0,53.11963,4.832a2.79834,2.79834,0,0,0,.14795,1.02.92733.92733,0,0,0,.41992.50391,1.52036,1.52036,0,0,0,.69629.13965H55.6875v.36816a8.88494,8.88494,0,0,1-1.49561.12793A1.63884,1.63884,0,0,1,52.93164,6.51563Z" transform="translate(-0.16016 -0.83984)" style="fill: #fff"/>
    <path d="M56.61182,6.70361a1.03442,1.03442,0,0,1-.30029-.78369v-.3042a1.048,1.048,0,0,1,.34033-.82373,1.44912,1.44912,0,0,1,.99561-.3042H59.0957V3.96a.80988.80988,0,0,0-.23584-.64014,1.34485,1.34485,0,0,0-.86816-.208H56.66357v-.376a9.27484,9.27484,0,0,1,1.56006-.12793,1.71406,1.71406,0,0,1,1.14014.31592,1.26251,1.26251,0,0,1,.36377,1.00391V6.94385h-.48779l-.12012-.48779a2.1402,2.1402,0,0,1-.34814.18359,4.51249,4.51249,0,0,1-.668.24414,2.56932,2.56932,0,0,1-.71191.10791A1.07721,1.07721,0,0,1,56.61182,6.70361Zm1.58789-.26367q.312-.07983.564-.168.252-.08789.332-.12012V4.80762l-1.3042.05615a.944.944,0,0,0-.644.21631.7273.7273,0,0,0-.20361.54395v.19189a.64282.64282,0,0,0,.21191.53613.805.805,0,0,0,.51611.168A2.19765,2.19765,0,0,0,58.19971,6.43994Z" transform="translate(-0.16016 -0.83984)" style="fill: #fff"/>
    <path d="M60.91943,2.67188h.51221l.12012.43994a3.02708,3.02708,0,0,1,.64795-.33984,2.0304,2.0304,0,0,1,.752-.15625,1.2549,1.2549,0,0,1,1.15576.61621,2.99219,2.99219,0,0,1,.37207,1.56787,2.96514,2.96514,0,0,1-.37207,1.64795A1.29564,1.29564,0,0,1,62.95166,7a2.40029,2.40029,0,0,1-.708-.1123,3.53181,3.53181,0,0,1-.69189-.2959v2.248h-.63232ZM63.84766,4.7998a2.08841,2.08841,0,0,0-.3042-1.248.92188.92188,0,0,0-.76807-.40771,1.969,1.969,0,0,0-.63184.09961,3.83292,3.83292,0,0,0-.5918.26025V6.11963a2.45972,2.45972,0,0,0,1.22363.34424Q63.84766,6.46387,63.84766,4.7998Z" transform="translate(-0.16016 -0.83984)" style="fill: #fff"/>
    <path d="M66.03174,6.61963a1.49483,1.49483,0,0,1-.28027-1.05957l.02393-2.36816H65.0957v-.4082l.688-.11182L65.8877,1.48h.48779V2.67188h1.23193v.52H66.37549V5.56006a.93173.93173,0,0,0,.18408.668.72958.72958,0,0,0,.46387.20361l.52.04834v.46387h-.584A1.19752,1.19752,0,0,1,66.03174,6.61963Z" transform="translate(-0.16016 -0.83984)" style="fill: #fff"/>
    <path d="M68.47168,5.67969V2.67188h.63184V5.52a.91527.91527,0,0,0,.228.71191,1.03969,1.03969,0,0,0,.7002.19971,2.1981,2.1981,0,0,0,.67188-.09961,3.12509,3.12509,0,0,0,.65576-.30811V2.67188h.63232v4.272h-.49609l-.13623-.47217a2.98135,2.98135,0,0,1-1.60791.52A1.14558,1.14558,0,0,1,68.47168,5.67969Z" transform="translate(-0.16016 -0.83984)" style="fill: #fff"/>
    <path d="M73.18359,2.67188h.48l.15234.74414a2.50989,2.50989,0,0,1,.67188-.584,1.55394,1.55394,0,0,1,.792-.208,1.86862,1.86862,0,0,1,.3999.04V3.312c-.24023-.02686-.39453-.04-.46387-.04a1.64,1.64,0,0,0-.73193.15186,2.899,2.899,0,0,0-.668.48779V6.94385h-.63232Z" transform="translate(-0.16016 -0.83984)" style="fill: #fff"/>
    <path d="M77.04346,6.792a1.15687,1.15687,0,0,1-.54785-.67236,4.09276,4.09276,0,0,1-.168-1.31982,4.03237,4.03237,0,0,1,.17188-1.32812,1.1393,1.1393,0,0,1,.55615-.66406,2.41662,2.41662,0,0,1,1.064-.19189,2.816,2.816,0,0,1,.936.12793.93411.93411,0,0,1,.52.436,1.799,1.799,0,0,1,.168.85205.934.934,0,0,1-.31592.78809,1.44764,1.44764,0,0,1-.90039.24414H76.95947a2.84819,2.84819,0,0,0,.1123.85205.74587.74587,0,0,0,.38379.43994,1.8563,1.8563,0,0,0,.80811.13965h1.376v.38428q-.43213.05566-.76807.084-.33618.02783-.75977.02783A2.33022,2.33022,0,0,1,77.04346,6.792Zm1.42822-2.144a.85085.85085,0,0,0,.53613-.13623.57629.57629,0,0,0,.168-.47168.947.947,0,0,0-.23633-.74023,1.26755,1.26755,0,0,0-.81982-.2041,1.50238,1.50238,0,0,0-.71191.13623.7609.7609,0,0,0-.35205.46387,3.32867,3.32867,0,0,0-.104.95215Z" transform="translate(-0.16016 -0.83984)" style="fill: #fff"/>
    <path d="M81.02783,6.47168a2.83623,2.83623,0,0,1-.37207-1.63184,4.236,4.236,0,0,1,.16016-1.28809,1.27345,1.27345,0,0,1,.51172-.71191,1.74087,1.74087,0,0,1,.94385-.22412,3.85011,3.85011,0,0,1,1.312.25635V.83984h.63232v6.104h-.51221l-.12012-.43213a2.005,2.005,0,0,1-.61572.32422,2.266,2.266,0,0,1-.77588.15576A1.33334,1.33334,0,0,1,81.02783,6.47168Zm1.96777-.09961a4.40657,4.40657,0,0,0,.58789-.26025v-2.792q-.37573-.11206-.61182-.16016a2.70212,2.70212,0,0,0-.53174-.04785,1.25372,1.25372,0,0,0-.67236.15625.91025.91025,0,0,0-.36377.52393,3.5375,3.5375,0,0,0-.11621,1.02393,2.43751,2.43751,0,0,0,.248,1.27588.92625.92625,0,0,0,.83984.37988A1.86216,1.86216,0,0,0,82.99561,6.37207Z" transform="translate(-0.16016 -0.83984)" style="fill: #fff"/>
    <path d="M1.248,16.40771A1.1804,1.1804,0,0,1,.65186,15.748a3.6709,3.6709,0,0,1-.1958-1.34814,3.62661,3.62661,0,0,1,.19971-1.356,1.16768,1.16768,0,0,1,.59229-.65186,2.62184,2.62184,0,0,1,1.05615-.17627,2.59966,2.59966,0,0,1,1.05566.18018,1.18033,1.18033,0,0,1,.6001.65576,3.599,3.599,0,0,1,.2002,1.34814A3.59724,3.59724,0,0,1,3.96,15.748a1.19753,1.19753,0,0,1-.59619.65967,2.5388,2.5388,0,0,1-1.05957.18408A2.54637,2.54637,0,0,1,1.248,16.40771Zm1.748-.45166a.79569.79569,0,0,0,.3877-.47607A3.23261,3.23261,0,0,0,3.52,14.3999a3.29627,3.29627,0,0,0-.13184-1.07617A.78038.78038,0,0,0,3,12.85205a1.72018,1.72018,0,0,0-.6958-.11621,1.71451,1.71451,0,0,0-.7002.11621.78155.78155,0,0,0-.38379.47168,3.28044,3.28044,0,0,0-.13232,1.07617A3.31717,3.31717,0,0,0,1.22021,15.48a.78294.78294,0,0,0,.38379.47607,1.71545,1.71545,0,0,0,.7002.11572A1.69108,1.69108,0,0,0,2.99609,15.95605Z" transform="translate(-0.16016 -0.83984)" style="fill: #fff"/>
    <path d="M5.22412,12.272h.48l.15234.74414a2.50989,2.50989,0,0,1,.67188-.584,1.55394,1.55394,0,0,1,.792-.208,1.86862,1.86862,0,0,1,.3999.04v.64795c-.24023-.02686-.39453-.04-.46387-.04a1.64,1.64,0,0,0-.73193.15186,2.899,2.899,0,0,0-.668.48779v3.03223H5.22412Z" transform="translate(-0.16016 -0.83984)" style="fill: #fff"/>
    <path d="M10.95605,16.23975a1.60941,1.60941,0,0,1-.27588-1.064V10.43994h.63232V15.0957a1.27881,1.27881,0,0,0,.14355.72021.64089.64089,0,0,0,.45605.23193l.43213.04785v.45605h-.54395A1.06942,1.06942,0,0,1,10.95605,16.23975Z" transform="translate(-0.16016 -0.83984)" style="fill: #fff"/>
    <path d="M13.67236,16.40771a1.1804,1.1804,0,0,1-.59619-.65967,3.6709,3.6709,0,0,1-.1958-1.34814,3.62661,3.62661,0,0,1,.19971-1.356,1.16768,1.16768,0,0,1,.59229-.65186,2.62184,2.62184,0,0,1,1.05615-.17627,2.59966,2.59966,0,0,1,1.05566.18018,1.18033,1.18033,0,0,1,.6001.65576,3.599,3.599,0,0,1,.2002,1.34814,3.59724,3.59724,0,0,1-.2002,1.34814,1.19753,1.19753,0,0,1-.59619.65967,2.5388,2.5388,0,0,1-1.05957.18408A2.54637,2.54637,0,0,1,13.67236,16.40771Zm1.748-.45166a.79569.79569,0,0,0,.3877-.47607,3.23261,3.23261,0,0,0,.13623-1.08008,3.29627,3.29627,0,0,0-.13184-1.07617.78038.78038,0,0,0-.38818-.47168,2.15428,2.15428,0,0,0-1.396,0,.78155.78155,0,0,0-.38379.47168,3.28044,3.28044,0,0,0-.13232,1.07617A3.31717,3.31717,0,0,0,13.64453,15.48a.78294.78294,0,0,0,.38379.47607,1.71545,1.71545,0,0,0,.7002.11572A1.69108,1.69108,0,0,0,15.42041,15.95605Z" transform="translate(-0.16016 -0.83984)" style="fill: #fff"/>
    <path d="M17.7002,16.30371A1.03442,1.03442,0,0,1,17.3999,15.52v-.3042a1.048,1.048,0,0,1,.34033-.82373,1.44912,1.44912,0,0,1,.99561-.3042h1.44824v-.52783a.80988.80988,0,0,0-.23584-.64014,1.34485,1.34485,0,0,0-.86816-.208H17.752v-.376A9.27484,9.27484,0,0,1,19.312,12.208a1.71406,1.71406,0,0,1,1.14014.31592,1.26251,1.26251,0,0,1,.36377,1.00391v3.01611h-.48779l-.12012-.48779a2.14019,2.14019,0,0,1-.34814.18359,4.51249,4.51249,0,0,1-.668.24414,2.56932,2.56932,0,0,1-.71191.10791A1.07721,1.07721,0,0,1,17.7002,16.30371ZM19.28809,16.04q.312-.07983.564-.168.252-.08789.332-.12012V14.40771l-1.3042.05615a.944.944,0,0,0-.644.21631.7273.7273,0,0,0-.20361.54395V15.416a.64282.64282,0,0,0,.21191.53613.805.805,0,0,0,.51611.168A2.19765,2.19765,0,0,0,19.28809,16.04Z" transform="translate(-0.16016 -0.83984)" style="fill: #fff"/>
    <path d="M22.228,16.07178a2.83623,2.83623,0,0,1-.37207-1.63184,4.236,4.236,0,0,1,.16016-1.28809,1.27345,1.27345,0,0,1,.51172-.71191,1.74087,1.74087,0,0,1,.94385-.22412,3.85011,3.85011,0,0,1,1.312.25635V10.43994H25.416v6.104h-.51221l-.12012-.43213a2.005,2.005,0,0,1-.61572.32422,2.266,2.266,0,0,1-.77588.15576A1.33334,1.33334,0,0,1,22.228,16.07178Zm1.96777-.09961a4.40657,4.40657,0,0,0,.58789-.26025v-2.792q-.37573-.11206-.61182-.16016a2.70212,2.70212,0,0,0-.53174-.04785,1.25372,1.25372,0,0,0-.67236.15625.91025.91025,0,0,0-.36377.52393,3.5375,3.5375,0,0,0-.11621,1.02393,2.43751,2.43751,0,0,0,.248,1.27588.92625.92625,0,0,0,.83984.37988A1.86216,1.86216,0,0,0,24.1958,15.97217Z" transform="translate(-0.16016 -0.83984)" style="fill: #fff"/>
    <path d="M27.17188,16.39209a1.15687,1.15687,0,0,1-.54785-.67236,4.09276,4.09276,0,0,1-.168-1.31982,4.03237,4.03237,0,0,1,.17188-1.32812,1.1393,1.1393,0,0,1,.55615-.66406,2.41662,2.41662,0,0,1,1.064-.19189,2.816,2.816,0,0,1,.936.12793.93411.93411,0,0,1,.52.436,1.799,1.799,0,0,1,.168.85205.934.934,0,0,1-.31592.78809,1.44764,1.44764,0,0,1-.90039.24414H27.08789a2.84819,2.84819,0,0,0,.1123.85205.74587.74587,0,0,0,.38379.43994,1.8563,1.8563,0,0,0,.80811.13965h1.376V16.48q-.43213.05566-.76807.084-.33618.02783-.75977.02783A2.33022,2.33022,0,0,1,27.17188,16.39209Zm1.42822-2.144a.85085.85085,0,0,0,.53613-.13623.57629.57629,0,0,0,.168-.47168.947.947,0,0,0-.23633-.74023,1.26755,1.26755,0,0,0-.81982-.2041,1.50238,1.50238,0,0,0-.71191.13623.7609.7609,0,0,0-.35205.46387,3.32867,3.32867,0,0,0-.104.95215Z" transform="translate(-0.16016 -0.83984)" style="fill: #fff"/>
    <path d="M31.15625,16.07178a2.83623,2.83623,0,0,1-.37207-1.63184,4.236,4.236,0,0,1,.16016-1.28809,1.27345,1.27345,0,0,1,.51172-.71191,1.74087,1.74087,0,0,1,.94385-.22412,3.85011,3.85011,0,0,1,1.312.25635V10.43994h.63232v6.104H33.832l-.12012-.43213a2.005,2.005,0,0,1-.61572.32422,2.266,2.266,0,0,1-.77588.15576A1.33334,1.33334,0,0,1,31.15625,16.07178Zm1.96777-.09961a4.40657,4.40657,0,0,0,.58789-.26025v-2.792q-.37573-.11206-.61182-.16016a2.70212,2.70212,0,0,0-.53174-.04785,1.25372,1.25372,0,0,0-.67236.15625.91025.91025,0,0,0-.36377.52393A3.5375,3.5375,0,0,0,31.416,14.416a2.43751,2.43751,0,0,0,.248,1.27588.92625.92625,0,0,0,.83984.37988A1.86216,1.86216,0,0,0,33.124,15.97217Z" transform="translate(-0.16016 -0.83984)" style="fill: #fff"/>
    <path d="M35.46045,16.51611a.12323.12323,0,0,1-.03613-.09229v-.63965a.11329.11329,0,0,1,.12793-.12842h.35205a.11349.11349,0,0,1,.12793.12842v.63965a.11314.11314,0,0,1-.12793.12793h-.35205A.12362.12362,0,0,1,35.46045,16.51611Z" transform="translate(-0.16016 -0.83984)" style="fill: #fff"/>
    <path d="M1.34424,35.55566A1.46708,1.46708,0,0,1,.688,34.67188a6.30287,6.30287,0,0,1-.21582-1.88818A5.77678,5.77678,0,0,1,.6958,30.96387a1.563,1.563,0,0,1,.68018-.90039,2.48526,2.48526,0,0,1,1.21582-.25586,6.8295,6.8295,0,0,1,.84424.06006,6.68019,6.68019,0,0,1,.84375.15576v.47217Q4,30.45605,3.56006,30.41553q-.44019-.03955-.87207-.04a1.86492,1.86492,0,0,0-.936.19629,1.16637,1.16637,0,0,0-.49219.71191A5.52751,5.52751,0,0,0,1.104,32.7915a5.97873,5.97873,0,0,0,.14795,1.54,1.11468,1.11468,0,0,0,.47607.7041,1.92269,1.92269,0,0,0,.94385.188,9.74869,9.74869,0,0,0,1.60791-.104v.48a6.925,6.925,0,0,1-.82764.14014,8.08553,8.08553,0,0,1-.9082.05176A2.55517,2.55517,0,0,1,1.34424,35.55566Z" transform="translate(-0.16016 -0.83984)" style="fill: #fff"/>
    <path d="M5.81592,35.60742a1.1804,1.1804,0,0,1-.59619-.65967,3.6709,3.6709,0,0,1-.1958-1.34814,3.62661,3.62661,0,0,1,.19971-1.356,1.16768,1.16768,0,0,1,.59229-.65186,2.62184,2.62184,0,0,1,1.05615-.17627,2.59966,2.59966,0,0,1,1.05566.18018,1.18033,1.18033,0,0,1,.6001.65576,4.6394,4.6394,0,0,1,0,2.69629,1.19753,1.19753,0,0,1-.59619.65967,2.5388,2.5388,0,0,1-1.05957.18408A2.54637,2.54637,0,0,1,5.81592,35.60742Zm1.748-.45166a.79569.79569,0,0,0,.3877-.47607,3.23261,3.23261,0,0,0,.13623-1.08008,3.29627,3.29627,0,0,0-.13184-1.07617.78038.78038,0,0,0-.38818-.47168,1.72018,1.72018,0,0,0-.6958-.11621,1.71451,1.71451,0,0,0-.7002.11621.78155.78155,0,0,0-.38379.47168,3.28044,3.28044,0,0,0-.13232,1.07617,3.31717,3.31717,0,0,0,.13232,1.08008.78294.78294,0,0,0,.38379.47607,1.71545,1.71545,0,0,0,.7002.11572A1.69108,1.69108,0,0,0,7.564,35.15576Z" transform="translate(-0.16016 -0.83984)" style="fill: #fff"/>
    <path d="M9.7915,31.47168h.49609l.13623.47217a3.49256,3.49256,0,0,1,.74365-.38818,2.27055,2.27055,0,0,1,.81592-.15625,1.197,1.197,0,0,1,.99219.4082,1.59488,1.59488,0,0,1,.32813,1.03223v2.90381h-.63232v-2.832a.96681.96681,0,0,0-.23584-.67578.8357.8357,0,0,0-.65186-.26025,2.15467,2.15467,0,0,0-.68408.1001,3.80317,3.80317,0,0,0-.67578.31592v3.35205H9.7915Z" transform="translate(-0.16016 -0.83984)" style="fill: #fff"/>
    <path d="M14.49561,31.47168h.49609l.13623.47217a3.49256,3.49256,0,0,1,.74365-.38818,2.27055,2.27055,0,0,1,.81592-.15625,1.197,1.197,0,0,1,.99219.4082,1.59488,1.59488,0,0,1,.32813,1.03223v2.90381h-.63232v-2.832a.96681.96681,0,0,0-.23584-.67578.8357.8357,0,0,0-.65186-.26025,2.15467,2.15467,0,0,0-.68408.1001,3.80317,3.80317,0,0,0-.67578.31592v3.35205h-.63232Z" transform="translate(-0.16016 -0.83984)" style="fill: #fff"/>
    <path d="M19.76367,35.5918a1.15687,1.15687,0,0,1-.54785-.67236,4.09276,4.09276,0,0,1-.168-1.31982,4.03237,4.03237,0,0,1,.17188-1.32812,1.1393,1.1393,0,0,1,.55615-.66406,2.41662,2.41662,0,0,1,1.064-.19189,2.816,2.816,0,0,1,.936.12793.93411.93411,0,0,1,.52.436,1.799,1.799,0,0,1,.168.85205.934.934,0,0,1-.31592.78809,1.44764,1.44764,0,0,1-.90039.24414H19.67969a2.84818,2.84818,0,0,0,.1123.85205.74587.74587,0,0,0,.38379.43994,1.8563,1.8563,0,0,0,.80811.13965h1.376v.38428q-.43213.05566-.76807.084-.33618.02783-.75977.02783A2.33022,2.33022,0,0,1,19.76367,35.5918Zm1.42822-2.144a.85085.85085,0,0,0,.53613-.13623.57629.57629,0,0,0,.168-.47168.947.947,0,0,0-.23633-.74023,1.26755,1.26755,0,0,0-.81982-.2041,1.50238,1.50238,0,0,0-.71191.13623.7609.7609,0,0,0-.35205.46387,3.32867,3.32867,0,0,0-.104.95215Z" transform="translate(-0.16016 -0.83984)" style="fill: #fff"/>
    <path d="M23.81982,35.31543a2.50075,2.50075,0,0,1-.44385-1.69971,3.50493,3.50493,0,0,1,.2041-1.33594,1.24916,1.24916,0,0,1,.58008-.668,2.07869,2.07869,0,0,1,.93555-.188,8.324,8.324,0,0,1,1.416.11182v.376H25.26416a1.49262,1.49262,0,0,0-.708.144.91874.91874,0,0,0-.4082.51611,3.13617,3.13617,0,0,0-.14014,1.06006,2.79834,2.79834,0,0,0,.14795,1.02.92733.92733,0,0,0,.41992.50391,1.52036,1.52036,0,0,0,.69629.13965h1.30371v.36816a8.88494,8.88494,0,0,1-1.49561.12793A1.63884,1.63884,0,0,1,23.81982,35.31543Z" transform="translate(-0.16016 -0.83984)" style="fill: #fff"/>
    <path d="M27.936,35.41943a1.49483,1.49483,0,0,1-.28027-1.05957l.02393-2.36816H27v-.4082l.688-.11182.104-1.19189h.48779v1.19189h1.23193v.52H28.27979v2.36816a.93173.93173,0,0,0,.18408.668.72958.72958,0,0,0,.46387.20361l.52.04834v.46387h-.584A1.19752,1.19752,0,0,1,27.936,35.41943Z" transform="translate(-0.16016 -0.83984)" style="fill: #fff"/>
    <path d="M32.5957,35.50342a1.03442,1.03442,0,0,1-.30029-.78369v-.3042a1.048,1.048,0,0,1,.34033-.82373,1.44912,1.44912,0,0,1,.99561-.3042h1.44824v-.52783a.80988.80988,0,0,0-.23584-.64014,1.34485,1.34485,0,0,0-.86816-.208H32.64746v-.376a9.27484,9.27484,0,0,1,1.56006-.12793,1.71406,1.71406,0,0,1,1.14014.31592,1.26251,1.26251,0,0,1,.36377,1.00391v3.01611h-.48779l-.12012-.48779a2.1402,2.1402,0,0,1-.34814.18359,4.51249,4.51249,0,0,1-.668.24414,2.56932,2.56932,0,0,1-.71191.10791A1.07721,1.07721,0,0,1,32.5957,35.50342Zm1.58789-.26367q.312-.07983.564-.168.252-.08789.332-.12012V33.60742l-1.3042.05615a.944.944,0,0,0-.644.21631.7273.7273,0,0,0-.20361.54395v.19189a.64282.64282,0,0,0,.21191.53613.805.805,0,0,0,.51611.168A2.19765,2.19765,0,0,0,34.18359,35.23975Z" transform="translate(-0.16016 -0.83984)" style="fill: #fff"/>
    <path d="M36.89551,34.47949V31.47168h.63184v2.84814a.91527.91527,0,0,0,.228.71191,1.03969,1.03969,0,0,0,.7002.19971,2.1981,2.1981,0,0,0,.67188-.09961,3.12509,3.12509,0,0,0,.65576-.30811V31.47168h.63232v4.272h-.49609l-.13623-.47217a2.98135,2.98135,0,0,1-1.60791.52A1.14558,1.14558,0,0,1,36.89551,34.47949Z" transform="translate(-0.16016 -0.83984)" style="fill: #fff"/>
    <path d="M41.82764,35.27148a2.83623,2.83623,0,0,1-.37207-1.63184,4.236,4.236,0,0,1,.16016-1.28809,1.27345,1.27345,0,0,1,.51172-.71191,1.74087,1.74087,0,0,1,.94385-.22412,3.85011,3.85011,0,0,1,1.312.25635V29.63965h.63232v6.104h-.51221l-.12012-.43213a2.005,2.005,0,0,1-.61572.32422,2.266,2.266,0,0,1-.77588.15576A1.33334,1.33334,0,0,1,41.82764,35.27148Zm1.96777-.09961a4.40657,4.40657,0,0,0,.58789-.26025v-2.792q-.37573-.11206-.61182-.16016a2.70212,2.70212,0,0,0-.53174-.04785,1.25372,1.25372,0,0,0-.67236.15625.91025.91025,0,0,0-.36377.52393,3.5375,3.5375,0,0,0-.11621,1.02393,2.43751,2.43751,0,0,0,.248,1.27588.92625.92625,0,0,0,.83984.37988A1.86216,1.86216,0,0,0,43.79541,35.17188Z" transform="translate(-0.16016 -0.83984)" style="fill: #fff"/>
    <path d="M46.21143,30.67578a.12474.12474,0,0,1-.03564-.09229v-.624a.11314.11314,0,0,1,.12793-.12793h.44775c.08008,0,.12012.043.12012.12793v.624c0,.08545-.04.12793-.12012.12793h-.44775A.12551.12551,0,0,1,46.21143,30.67578Zm-.00391.7959h.63232v4.272h-.63232Z" transform="translate(-0.16016 -0.83984)" style="fill: #fff"/>
    <path d="M48.69531,35.60742a1.1804,1.1804,0,0,1-.59619-.65967,3.6709,3.6709,0,0,1-.1958-1.34814,3.62661,3.62661,0,0,1,.19971-1.356,1.16768,1.16768,0,0,1,.59229-.65186,3.21707,3.21707,0,0,1,2.11182.00391,1.18033,1.18033,0,0,1,.6001.65576,4.6394,4.6394,0,0,1,0,2.69629,1.19753,1.19753,0,0,1-.59619.65967,3.13163,3.13163,0,0,1-2.11572,0Zm1.748-.45166a.79569.79569,0,0,0,.3877-.47607,3.23261,3.23261,0,0,0,.13623-1.08008,3.29627,3.29627,0,0,0-.13184-1.07617.78038.78038,0,0,0-.38818-.47168,2.15428,2.15428,0,0,0-1.396,0,.78155.78155,0,0,0-.38379.47168,3.28044,3.28044,0,0,0-.13232,1.07617,3.31717,3.31717,0,0,0,.13232,1.08008.78294.78294,0,0,0,.38379.47607,1.71545,1.71545,0,0,0,.7002.11572A1.69108,1.69108,0,0,0,50.44336,35.15576Z" transform="translate(-0.16016 -0.83984)" style="fill: #fff"/>
    <path d="M55.39941,35.75977a5.10188,5.10188,0,0,1-.74365-.08008v-.38428h1.752a1.36429,1.36429,0,0,0,.65576-.11963.534.534,0,0,0,.208-.50391v-.19238q0-.59985-.77588-.59961h-.6001a1.59847,1.59847,0,0,1-.94775-.24023.93864.93864,0,0,1-.332-.81592v-.22412a1.06161,1.06161,0,0,1,.356-.88818,1.86782,1.86782,0,0,1,1.14795-.27979q.34424,0,.812.03613.468.03589.73193.084v.38379H56.01563a1.13891,1.13891,0,0,0-.64014.144.58939.58939,0,0,0-.208.52v.17627a.48387.48387,0,0,0,.2041.46,1.316,1.316,0,0,0,.62793.11572h.60791a1.3569,1.3569,0,0,1,.9043.272.97248.97248,0,0,1,.31982.78418v.2959a.91373.91373,0,0,1-.39209.84814,2.19787,2.19787,0,0,1-1.13574.23975Q55.94336,35.7915,55.39941,35.75977Z" transform="translate(-0.16016 -0.83984)" style="fill: #fff"/>
    <path d="M59.47168,35.60742a1.1804,1.1804,0,0,1-.59619-.65967,3.6709,3.6709,0,0,1-.1958-1.34814,3.62661,3.62661,0,0,1,.19971-1.356,1.16768,1.16768,0,0,1,.59229-.65186,3.21707,3.21707,0,0,1,2.11182.00391,1.18033,1.18033,0,0,1,.6001.65576,4.6394,4.6394,0,0,1,0,2.69629,1.19753,1.19753,0,0,1-.59619.65967,3.13163,3.13163,0,0,1-2.11572,0Zm1.748-.45166a.79569.79569,0,0,0,.3877-.47607,3.23261,3.23261,0,0,0,.13623-1.08008,3.29627,3.29627,0,0,0-.13184-1.07617.78038.78038,0,0,0-.38818-.47168,2.15428,2.15428,0,0,0-1.396,0,.78155.78155,0,0,0-.38379.47168,3.28044,3.28044,0,0,0-.13232,1.07617,3.31717,3.31717,0,0,0,.13232,1.08008.78294.78294,0,0,0,.38379.47607,1.71545,1.71545,0,0,0,.7002.11572A1.69108,1.69108,0,0,0,61.21973,35.15576Z" transform="translate(-0.16016 -0.83984)" style="fill: #fff"/>
    <path d="M63.43994,34.47949V31.47168h.63184v2.84814a.91527.91527,0,0,0,.228.71191A1.03969,1.03969,0,0,0,65,35.23145a2.1981,2.1981,0,0,0,.67188-.09961,3.12509,3.12509,0,0,0,.65576-.30811V31.47168H66.96v4.272h-.49609l-.13623-.47217a2.98135,2.98135,0,0,1-1.60791.52A1.14558,1.14558,0,0,1,63.43994,34.47949Z" transform="translate(-0.16016 -0.83984)" style="fill: #fff"/>
    <path d="M68.15186,31.47168h.48l.15234.74414a2.50989,2.50989,0,0,1,.67188-.584,1.55394,1.55394,0,0,1,.792-.208,1.86862,1.86862,0,0,1,.3999.04v.64795c-.24023-.02686-.39453-.04-.46387-.04a1.64,1.64,0,0,0-.73193.15186,2.899,2.899,0,0,0-.668.48779v3.03223h-.63232Z" transform="translate(-0.16016 -0.83984)" style="fill: #fff"/>
    <path d="M71.73975,35.31543a2.50075,2.50075,0,0,1-.44385-1.69971A3.50493,3.50493,0,0,1,71.5,32.27979a1.24916,1.24916,0,0,1,.58008-.668,2.07869,2.07869,0,0,1,.93555-.188,8.324,8.324,0,0,1,1.416.11182v.376H73.18408a1.49262,1.49262,0,0,0-.708.144.91874.91874,0,0,0-.4082.51611,3.13617,3.13617,0,0,0-.14014,1.06006,2.79834,2.79834,0,0,0,.14795,1.02.92733.92733,0,0,0,.41992.50391,1.52036,1.52036,0,0,0,.69629.13965h1.30371v.36816A8.88494,8.88494,0,0,1,73,35.7915,1.63884,1.63884,0,0,1,71.73975,35.31543Z" transform="translate(-0.16016 -0.83984)" style="fill: #fff"/>
    <path d="M75.93164,35.5918a1.15687,1.15687,0,0,1-.54785-.67236,4.09276,4.09276,0,0,1-.168-1.31982,4.03237,4.03237,0,0,1,.17188-1.32812,1.1393,1.1393,0,0,1,.55615-.66406,2.41662,2.41662,0,0,1,1.064-.19189,2.816,2.816,0,0,1,.936.12793.93411.93411,0,0,1,.52.436,1.799,1.799,0,0,1,.168.85205.934.934,0,0,1-.31592.78809,1.44764,1.44764,0,0,1-.90039.24414H75.84766a2.84818,2.84818,0,0,0,.1123.85205.74587.74587,0,0,0,.38379.43994,1.8563,1.8563,0,0,0,.80811.13965h1.376v.38428q-.43213.05566-.76807.084-.33618.02783-.75977.02783A2.33022,2.33022,0,0,1,75.93164,35.5918Zm1.42822-2.144a.85085.85085,0,0,0,.53613-.13623.57629.57629,0,0,0,.168-.47168.947.947,0,0,0-.23633-.74023,1.26755,1.26755,0,0,0-.81982-.2041,1.50238,1.50238,0,0,0-.71191.13623.7609.7609,0,0,0-.35205.46387,3.32867,3.32867,0,0,0-.104.95215Z" transform="translate(-0.16016 -0.83984)" style="fill: #fff"/>
    <path d="M80.26367,35.75977a5.10188,5.10188,0,0,1-.74365-.08008v-.38428h1.752a1.36429,1.36429,0,0,0,.65576-.11963.534.534,0,0,0,.208-.50391v-.19238q0-.59985-.77588-.59961h-.6001a1.59847,1.59847,0,0,1-.94775-.24023.93864.93864,0,0,1-.332-.81592v-.22412a1.06161,1.06161,0,0,1,.356-.88818,1.86782,1.86782,0,0,1,1.14795-.27979q.34424,0,.812.03613.468.03589.73193.084v.38379H80.87988a1.13891,1.13891,0,0,0-.64014.144.58939.58939,0,0,0-.208.52v.17627a.48387.48387,0,0,0,.2041.46,1.316,1.316,0,0,0,.62793.11572h.60791a1.3569,1.3569,0,0,1,.9043.272.97248.97248,0,0,1,.31982.78418v.2959a.91373.91373,0,0,1-.39209.84814,2.19787,2.19787,0,0,1-1.13574.23975Q80.80762,35.7915,80.26367,35.75977Z" transform="translate(-0.16016 -0.83984)" style="fill: #fff"/>
    <path d="M1.09619,45.01953A1.49483,1.49483,0,0,1,.81592,43.96L.83984,41.5918H.16016v-.4082l.688-.11182.104-1.19189h.48779v1.19189H2.67188v.52H1.43994V43.96a.93173.93173,0,0,0,.18408.668.72958.72958,0,0,0,.46387.20361l.52.04834v.46387h-.584A1.19752,1.19752,0,0,1,1.09619,45.01953Z" transform="translate(-0.16016 -0.83984)" style="fill: #fff"/>
    <path d="M4.18408,45.20752a1.1804,1.1804,0,0,1-.59619-.65967,3.6709,3.6709,0,0,1-.1958-1.34814,3.62661,3.62661,0,0,1,.19971-1.356,1.16768,1.16768,0,0,1,.59229-.65186,2.62184,2.62184,0,0,1,1.05615-.17627,2.59966,2.59966,0,0,1,1.05566.18018,1.18033,1.18033,0,0,1,.6001.65576,4.6394,4.6394,0,0,1,0,2.69629,1.19753,1.19753,0,0,1-.59619.65967,2.5388,2.5388,0,0,1-1.05957.18408A2.54637,2.54637,0,0,1,4.18408,45.20752Zm1.748-.45166a.79569.79569,0,0,0,.3877-.47607,3.23261,3.23261,0,0,0,.13623-1.08008,3.29627,3.29627,0,0,0-.13184-1.07617.78038.78038,0,0,0-.38818-.47168,1.72018,1.72018,0,0,0-.6958-.11621,1.71451,1.71451,0,0,0-.7002.11621.78155.78155,0,0,0-.38379.47168,3.28044,3.28044,0,0,0-.13232,1.07617,3.31717,3.31717,0,0,0,.13232,1.08008.78294.78294,0,0,0,.38379.47607,1.71545,1.71545,0,0,0,.7002.11572A1.69108,1.69108,0,0,0,5.93213,44.75586Z" transform="translate(-0.16016 -0.83984)" style="fill: #fff"/>
    <path d="M10.80811,45.01953A1.49483,1.49483,0,0,1,10.52783,43.96l.02393-2.36816H9.87207v-.4082l.688-.11182.104-1.19189h.48779v1.19189h1.23193v.52H11.15186V43.96a.93173.93173,0,0,0,.18408.668.72958.72958,0,0,0,.46387.20361l.52.04834v.46387h-.584A1.19752,1.19752,0,0,1,10.80811,45.01953Z" transform="translate(-0.16016 -0.83984)" style="fill: #fff"/>
    <path d="M13.25586,39.23975h.63232v2.3042a3.275,3.275,0,0,1,.73975-.38818,2.32291,2.32291,0,0,1,.82813-.15625,1.20114,1.20114,0,0,1,.98.40039,1.56284,1.56284,0,0,1,.332,1.03174v2.91211h-.63232V42.50391a.94522.94522,0,0,0-.23975-.668.83917.83917,0,0,0-.64795-.26025,2.15467,2.15467,0,0,0-.68408.1001,3.80317,3.80317,0,0,0-.67578.31592v3.35205h-.63232Z" transform="translate(-0.16016 -0.83984)" style="fill: #fff"/>
    <path d="M18.52393,45.19189a1.15687,1.15687,0,0,1-.54785-.67236,4.09276,4.09276,0,0,1-.168-1.31982A4.03237,4.03237,0,0,1,17.98,41.87158a1.1393,1.1393,0,0,1,.55615-.66406,2.41662,2.41662,0,0,1,1.064-.19189,2.816,2.816,0,0,1,.936.12793.93411.93411,0,0,1,.52.436,1.799,1.799,0,0,1,.168.85205.934.934,0,0,1-.31592.78809,1.44764,1.44764,0,0,1-.90039.24414H18.43994a2.84819,2.84819,0,0,0,.1123.85205.74587.74587,0,0,0,.38379.43994,1.8563,1.8563,0,0,0,.80811.13965h1.376v.38428q-.43213.05566-.76807.084-.33618.02783-.75977.02783A2.33022,2.33022,0,0,1,18.52393,45.19189Zm1.42822-2.144a.85085.85085,0,0,0,.53613-.13623.57629.57629,0,0,0,.168-.47168.947.947,0,0,0-.23633-.74023,1.26755,1.26755,0,0,0-.81982-.2041,1.50238,1.50238,0,0,0-.71191.13623.7609.7609,0,0,0-.35205.46387,3.32867,3.32867,0,0,0-.104.95215Z" transform="translate(-0.16016 -0.83984)" style="fill: #fff"/>
    <path d="M24.936,45.01953A1.49483,1.49483,0,0,1,24.65576,43.96l.02393-2.36816H24v-.4082l.688-.11182.104-1.19189h.48779v1.19189h1.23193v.52H25.27979V43.96a.93173.93173,0,0,0,.18408.668.72958.72958,0,0,0,.46387.20361l.52.04834v.46387h-.584A1.19752,1.19752,0,0,1,24.936,45.01953Z" transform="translate(-0.16016 -0.83984)" style="fill: #fff"/>
    <path d="M27.38379,39.23975h.63232v2.3042a3.275,3.275,0,0,1,.73975-.38818,2.32291,2.32291,0,0,1,.82813-.15625,1.20114,1.20114,0,0,1,.98.40039,1.56284,1.56284,0,0,1,.332,1.03174v2.91211h-.63232V42.50391a.94522.94522,0,0,0-.23975-.668.83917.83917,0,0,0-.64795-.26025,2.15467,2.15467,0,0,0-.68408.1001,3.80317,3.80317,0,0,0-.67578.31592v3.35205h-.63232Z" transform="translate(-0.16016 -0.83984)" style="fill: #fff"/>
    <path d="M32.08789,41.07178h.48l.15234.74414a2.50989,2.50989,0,0,1,.67188-.584,1.55394,1.55394,0,0,1,.792-.208,1.86863,1.86863,0,0,1,.3999.04v.64795c-.24023-.02686-.39453-.04-.46387-.04a1.64,1.64,0,0,0-.73193.15186,2.899,2.899,0,0,0-.668.48779v3.03223h-.63232Z" transform="translate(-0.16016 -0.83984)" style="fill: #fff"/>
    <path d="M35.94775,45.19189a1.15687,1.15687,0,0,1-.54785-.67236,4.09276,4.09276,0,0,1-.168-1.31982,4.03237,4.03237,0,0,1,.17188-1.32812,1.1393,1.1393,0,0,1,.55615-.66406,2.41662,2.41662,0,0,1,1.064-.19189,2.816,2.816,0,0,1,.936.12793.93411.93411,0,0,1,.52.436,1.799,1.799,0,0,1,.168.85205.934.934,0,0,1-.31592.78809,1.44764,1.44764,0,0,1-.90039.24414H35.86377a2.84819,2.84819,0,0,0,.1123.85205.74587.74587,0,0,0,.38379.43994,1.8563,1.8563,0,0,0,.80811.13965h1.376v.38428q-.43213.05566-.76807.084-.33618.02783-.75977.02783A2.33022,2.33022,0,0,1,35.94775,45.19189Zm1.42822-2.144a.85085.85085,0,0,0,.53613-.13623.57629.57629,0,0,0,.168-.47168.947.947,0,0,0-.23633-.74023,1.26755,1.26755,0,0,0-.81982-.2041,1.50238,1.50238,0,0,0-.71191.13623.7609.7609,0,0,0-.35205.46387,3.32867,3.32867,0,0,0-.104.95215Z" transform="translate(-0.16016 -0.83984)" style="fill: #fff"/>
    <path d="M40.27539,45.19189a1.15687,1.15687,0,0,1-.54785-.67236,4.09276,4.09276,0,0,1-.168-1.31982,4.03237,4.03237,0,0,1,.17188-1.32812,1.1393,1.1393,0,0,1,.55615-.66406,2.41662,2.41662,0,0,1,1.064-.19189,2.816,2.816,0,0,1,.936.12793.93411.93411,0,0,1,.52.436,1.799,1.799,0,0,1,.168.85205.934.934,0,0,1-.31592.78809,1.44764,1.44764,0,0,1-.90039.24414H40.19141a2.84818,2.84818,0,0,0,.1123.85205.74587.74587,0,0,0,.38379.43994,1.8563,1.8563,0,0,0,.80811.13965h1.376v.38428q-.43213.05566-.76807.084-.33618.02783-.75977.02783A2.33022,2.33022,0,0,1,40.27539,45.19189Zm1.42822-2.144a.85085.85085,0,0,0,.53613-.13623.57629.57629,0,0,0,.168-.47168.947.947,0,0,0-.23633-.74023,1.26755,1.26755,0,0,0-.81982-.2041,1.50238,1.50238,0,0,0-.71191.13623.7609.7609,0,0,0-.35205.46387,3.32867,3.32867,0,0,0-.104.95215Z" transform="translate(-0.16016 -0.83984)" style="fill: #fff"/>
    <path d="M46.20361,40.27588a.12474.12474,0,0,1-.03564-.09229v-.624a.11314.11314,0,0,1,.12793-.12793h.44775c.08008,0,.12012.043.12012.12793v.624c0,.08545-.04.12793-.12012.12793H46.2959A.12551.12551,0,0,1,46.20361,40.27588Zm-.00391.7959H46.832v4.272h-.63232Z" transform="translate(-0.16016 -0.83984)" style="fill: #fff"/>
    <path d="M48.04736,41.07178h.49609l.13623.47217a3.49256,3.49256,0,0,1,.74365-.38818,2.27055,2.27055,0,0,1,.81592-.15625,1.197,1.197,0,0,1,.99219.4082,1.59488,1.59488,0,0,1,.32813,1.03223v2.90381h-.63232v-2.832a.96681.96681,0,0,0-.23584-.67578.8357.8357,0,0,0-.65186-.26025,2.15467,2.15467,0,0,0-.68408.1001,3.80317,3.80317,0,0,0-.67578.31592v3.35205h-.63232Z" transform="translate(-0.16016 -0.83984)" style="fill: #fff"/>
    <path d="M52.75146,41.07178h.51221l.12012.43994a3.02708,3.02708,0,0,1,.64795-.33984,2.0304,2.0304,0,0,1,.752-.15625,1.2549,1.2549,0,0,1,1.15576.61621,3.65841,3.65841,0,0,1,0,3.21582,1.29564,1.29564,0,0,1-1.15576.55225,2.40029,2.40029,0,0,1-.708-.1123,3.53181,3.53181,0,0,1-.69189-.2959v2.248h-.63232Zm2.92822,2.12793a2.08841,2.08841,0,0,0-.3042-1.248.92188.92188,0,0,0-.76807-.40771,1.969,1.969,0,0,0-.63184.09961,3.83292,3.83292,0,0,0-.5918.26025v2.61572a2.45972,2.45972,0,0,0,1.22363.34424Q55.67969,44.86377,55.67969,43.19971Z" transform="translate(-0.16016 -0.83984)" style="fill: #fff"/>
    <path d="M57.36768,44.07959V41.07178h.63184v2.84814a.91527.91527,0,0,0,.228.71191,1.03969,1.03969,0,0,0,.7002.19971,2.1981,2.1981,0,0,0,.67188-.09961,3.12508,3.12508,0,0,0,.65576-.30811V41.07178h.63232v4.272H60.3916l-.13623-.47217a2.98135,2.98135,0,0,1-1.60791.52A1.14558,1.14558,0,0,1,57.36768,44.07959Z" transform="translate(-0.16016 -0.83984)" style="fill: #fff"/>
    <path d="M62.56787,45.01953A1.49483,1.49483,0,0,1,62.2876,43.96l.02393-2.36816h-.67969v-.4082l.688-.11182.104-1.19189h.48779v1.19189h1.23193v.52H62.91162V43.96a.93173.93173,0,0,0,.18408.668.72958.72958,0,0,0,.46387.20361l.52.04834v.46387h-.584A1.19752,1.19752,0,0,1,62.56787,45.01953Z" transform="translate(-0.16016 -0.83984)" style="fill: #fff"/>
    <path d="M65.5835,45.35986a5.10188,5.10188,0,0,1-.74365-.08008v-.38428h1.752a1.36429,1.36429,0,0,0,.65576-.11963.534.534,0,0,0,.208-.50391v-.19238q0-.59985-.77588-.59961h-.6001a1.59847,1.59847,0,0,1-.94775-.24023.93864.93864,0,0,1-.332-.81592v-.22412a1.06161,1.06161,0,0,1,.356-.88818,1.86782,1.86782,0,0,1,1.14795-.27979q.34424,0,.812.03613.468.03589.73193.084v.38379H66.19971a1.13891,1.13891,0,0,0-.64014.144.58939.58939,0,0,0-.208.52V42.376a.48387.48387,0,0,0,.2041.46,1.316,1.316,0,0,0,.62793.11572h.60791a1.3569,1.3569,0,0,1,.9043.272.97248.97248,0,0,1,.31982.78418v.2959a.91373.91373,0,0,1-.39209.84814,2.19787,2.19787,0,0,1-1.13574.23975Q66.12744,45.3916,65.5835,45.35986Z" transform="translate(-0.16016 -0.83984)" style="fill: #fff"/>
    <path d="M71.22754,45.10352a1.03442,1.03442,0,0,1-.30029-.78369v-.3042a1.048,1.048,0,0,1,.34033-.82373,1.44912,1.44912,0,0,1,.99561-.3042h1.44824v-.52783a.80988.80988,0,0,0-.23584-.64014,1.34485,1.34485,0,0,0-.86816-.208H71.2793v-.376a9.27484,9.27484,0,0,1,1.56006-.12793,1.71406,1.71406,0,0,1,1.14014.31592,1.26251,1.26251,0,0,1,.36377,1.00391v3.01611h-.48779l-.12012-.48779a2.1402,2.1402,0,0,1-.34814.18359,4.51249,4.51249,0,0,1-.668.24414,2.56932,2.56932,0,0,1-.71191.10791A1.07721,1.07721,0,0,1,71.22754,45.10352Zm1.58789-.26367q.312-.07983.564-.168.252-.08789.332-.12012V43.20752l-1.3042.05615a.944.944,0,0,0-.644.21631.7273.7273,0,0,0-.20361.54395v.19189a.64282.64282,0,0,0,.21191.53613.805.805,0,0,0,.51611.168A2.19765,2.19765,0,0,0,72.81543,44.83984Z" transform="translate(-0.16016 -0.83984)" style="fill: #fff"/>
    <path d="M75.53516,41.07178h.49609l.13623.47217a3.49256,3.49256,0,0,1,.74365-.38818,2.27055,2.27055,0,0,1,.81592-.15625,1.197,1.197,0,0,1,.99219.4082,1.59488,1.59488,0,0,1,.32813,1.03223v2.90381H78.415v-2.832a.96681.96681,0,0,0-.23584-.67578.8357.8357,0,0,0-.65186-.26025,2.15467,2.15467,0,0,0-.68408.1001,3.80317,3.80317,0,0,0-.67578.31592v3.35205h-.63232Z" transform="translate(-0.16016 -0.83984)" style="fill: #fff"/>
    <path d="M80.45947,44.87158a2.83623,2.83623,0,0,1-.37207-1.63184,4.236,4.236,0,0,1,.16016-1.28809,1.27345,1.27345,0,0,1,.51172-.71191,1.74087,1.74087,0,0,1,.94385-.22412,3.85011,3.85011,0,0,1,1.312.25635V39.23975h.63232v6.104h-.51221l-.12012-.43213a2.005,2.005,0,0,1-.61572.32422,2.266,2.266,0,0,1-.77588.15576A1.33334,1.33334,0,0,1,80.45947,44.87158Zm1.96777-.09961a4.40657,4.40657,0,0,0,.58789-.26025v-2.792q-.37573-.11206-.61182-.16016a2.70212,2.70212,0,0,0-.53174-.04785,1.25372,1.25372,0,0,0-.67236.15625.91025.91025,0,0,0-.36377.52393,3.5375,3.5375,0,0,0-.11621,1.02393,2.43751,2.43751,0,0,0,.248,1.27588.92625.92625,0,0,0,.83984.37988A1.86216,1.86216,0,0,0,82.42725,44.772Z" transform="translate(-0.16016 -0.83984)" style="fill: #fff"/>
    <path d="M.8999,54.51563a2.50075,2.50075,0,0,1-.44385-1.69971A3.50493,3.50493,0,0,1,.66016,51.48a1.24916,1.24916,0,0,1,.58008-.668,2.07869,2.07869,0,0,1,.93555-.188,8.324,8.324,0,0,1,1.416.11182v.376H2.34424a1.49262,1.49262,0,0,0-.708.144.91874.91874,0,0,0-.4082.51611A3.13617,3.13617,0,0,0,1.08789,52.832a2.79834,2.79834,0,0,0,.14795,1.02.92733.92733,0,0,0,.41992.50391,1.52036,1.52036,0,0,0,.69629.13965H3.65576v.36816a8.88494,8.88494,0,0,1-1.49561.12793A1.63884,1.63884,0,0,1,.8999,54.51563Z" transform="translate(-0.16016 -0.83984)" style="fill: #fff"/>
    <path d="M4.80371,54.63965a1.60941,1.60941,0,0,1-.27588-1.064V48.83984h.63232v4.65576a1.27881,1.27881,0,0,0,.14355.72021.64089.64089,0,0,0,.45605.23193l.43213.04785v.45605H5.64795A1.06942,1.06942,0,0,1,4.80371,54.63965Z" transform="translate(-0.16016 -0.83984)" style="fill: #fff"/>
    <path d="M6.88379,49.876a.12474.12474,0,0,1-.03564-.09229v-.624a.11314.11314,0,0,1,.12793-.12793h.44775c.08008,0,.12012.043.12012.12793v.624c0,.08545-.04.12793-.12012.12793H6.97607A.12551.12551,0,0,1,6.88379,49.876Zm-.00391.7959h.63232v4.272H6.87988Z" transform="translate(-0.16016 -0.83984)" style="fill: #fff"/>
    <path d="M9.02,54.51563a2.50075,2.50075,0,0,1-.44385-1.69971A3.50493,3.50493,0,0,1,8.78027,51.48a1.24916,1.24916,0,0,1,.58008-.668,2.07869,2.07869,0,0,1,.93555-.188,8.324,8.324,0,0,1,1.416.11182v.376H10.46436a1.49262,1.49262,0,0,0-.708.144.91874.91874,0,0,0-.4082.51611A3.13617,3.13617,0,0,0,9.208,52.832a2.79834,2.79834,0,0,0,.14795,1.02.92733.92733,0,0,0,.41992.50391,1.52036,1.52036,0,0,0,.69629.13965h1.30371v.36816a8.88494,8.88494,0,0,1-1.49561.12793A1.63884,1.63884,0,0,1,9.02,54.51563Z" transform="translate(-0.16016 -0.83984)" style="fill: #fff"/>
    <path d="M12.64795,48.83984h.63232V52.376h.60791l1.30371-1.7041h.67236l-1.50439,1.99219L15.96,54.94385h-.67187l-1.42383-2h-.584v2h-.63232Z" transform="translate(-0.16016 -0.83984)" style="fill: #fff"/>
    <path d="M19.14795,54.51563a2.50075,2.50075,0,0,1-.44385-1.69971A3.50493,3.50493,0,0,1,18.9082,51.48a1.24916,1.24916,0,0,1,.58008-.668,2.07869,2.07869,0,0,1,.93555-.188,8.324,8.324,0,0,1,1.416.11182v.376H20.59229a1.49262,1.49262,0,0,0-.708.144.91874.91874,0,0,0-.4082.51611,3.13617,3.13617,0,0,0-.14014,1.06006,2.79834,2.79834,0,0,0,.14795,1.02.92733.92733,0,0,0,.41992.50391,1.52036,1.52036,0,0,0,.69629.13965h1.30371v.36816a8.88494,8.88494,0,0,1-1.49561.12793A1.63884,1.63884,0,0,1,19.14795,54.51563Z" transform="translate(-0.16016 -0.83984)" style="fill: #fff"/>
    <path d="M22.82813,54.70361a1.03442,1.03442,0,0,1-.30029-.78369v-.3042a1.048,1.048,0,0,1,.34033-.82373,1.44912,1.44912,0,0,1,.99561-.3042H25.312V51.96a.80988.80988,0,0,0-.23584-.64014,1.34485,1.34485,0,0,0-.86816-.208H22.87988v-.376a9.27485,9.27485,0,0,1,1.56006-.12793,1.71406,1.71406,0,0,1,1.14014.31592,1.26251,1.26251,0,0,1,.36377,1.00391v3.01611h-.48779l-.12012-.48779a2.1402,2.1402,0,0,1-.34814.18359,4.51249,4.51249,0,0,1-.668.24414,2.56932,2.56932,0,0,1-.71191.10791A1.07721,1.07721,0,0,1,22.82813,54.70361Zm1.58789-.26367q.312-.07983.564-.168.252-.08789.332-.12012V52.80762l-1.3042.05615a.944.944,0,0,0-.644.21631.7273.7273,0,0,0-.20361.54395v.19189a.64282.64282,0,0,0,.21191.53613.805.805,0,0,0,.51611.168A2.19765,2.19765,0,0,0,24.416,54.43994Z" transform="translate(-0.16016 -0.83984)" style="fill: #fff"/>
    <path d="M27.13574,50.67188h.51221l.12012.43994A3.02708,3.02708,0,0,1,28.416,50.772a2.0304,2.0304,0,0,1,.752-.15625,1.2549,1.2549,0,0,1,1.15576.61621,3.65841,3.65841,0,0,1,0,3.21582A1.29564,1.29564,0,0,1,29.168,55a2.40029,2.40029,0,0,1-.708-.1123,3.53181,3.53181,0,0,1-.69189-.2959v2.248h-.63232ZM30.064,52.7998a2.08841,2.08841,0,0,0-.3042-1.248.92188.92188,0,0,0-.76807-.40771,1.969,1.969,0,0,0-.63184.09961,3.83292,3.83292,0,0,0-.5918.26025v2.61572a2.45972,2.45972,0,0,0,1.22363.34424Q30.064,54.46387,30.064,52.7998Z" transform="translate(-0.16016 -0.83984)" style="fill: #fff"/>
    <path d="M32.248,54.61963a1.49483,1.49483,0,0,1-.28027-1.05957l.02393-2.36816H31.312v-.4082L32,50.67188,32.104,49.48h.48779v1.19189h1.23193v.52H32.5918v2.36816a.93173.93173,0,0,0,.18408.668.72958.72958,0,0,0,.46387.20361l.52.04834v.46387h-.584A1.19752,1.19752,0,0,1,32.248,54.61963Z" transform="translate(-0.16016 -0.83984)" style="fill: #fff"/>
    <path d="M34.688,53.67969V50.67188h.63184V53.52a.91527.91527,0,0,0,.228.71191,1.03969,1.03969,0,0,0,.7002.19971,2.1981,2.1981,0,0,0,.67188-.09961,3.12508,3.12508,0,0,0,.65576-.30811V50.67188H38.208v4.272h-.49609l-.13623-.47217a2.98135,2.98135,0,0,1-1.60791.52A1.14558,1.14558,0,0,1,34.688,53.67969Z" transform="translate(-0.16016 -0.83984)" style="fill: #fff"/>
    <path d="M39.3999,50.67188h.48l.15234.74414a2.50989,2.50989,0,0,1,.67188-.584,1.55394,1.55394,0,0,1,.792-.208,1.86862,1.86862,0,0,1,.3999.04V51.312c-.24023-.02686-.39453-.04-.46387-.04a1.64,1.64,0,0,0-.73193.15186,2.899,2.899,0,0,0-.668.48779v3.03223H39.3999Z" transform="translate(-0.16016 -0.83984)" style="fill: #fff"/>
    <path d="M43.25977,54.792a1.15687,1.15687,0,0,1-.54785-.67236,4.09276,4.09276,0,0,1-.168-1.31982,4.03237,4.03237,0,0,1,.17188-1.32812,1.1393,1.1393,0,0,1,.55615-.66406,2.41662,2.41662,0,0,1,1.064-.19189,2.816,2.816,0,0,1,.936.12793.93411.93411,0,0,1,.52.436,1.799,1.799,0,0,1,.168.85205.934.934,0,0,1-.31592.78809,1.44764,1.44764,0,0,1-.90039.24414H43.17578a2.84818,2.84818,0,0,0,.1123.85205.74587.74587,0,0,0,.38379.43994,1.8563,1.8563,0,0,0,.80811.13965h1.376v.38428q-.43213.05566-.76807.084-.33618.02783-.75977.02783A2.33022,2.33022,0,0,1,43.25977,54.792Zm1.42822-2.144a.85085.85085,0,0,0,.53613-.13623.57629.57629,0,0,0,.168-.47168.947.947,0,0,0-.23633-.74023,1.26755,1.26755,0,0,0-.81982-.2041,1.50238,1.50238,0,0,0-.71191.13623.7609.7609,0,0,0-.35205.46387,3.32867,3.32867,0,0,0-.104.95215Z" transform="translate(-0.16016 -0.83984)" style="fill: #fff"/>
    <path d="M46.94824,54.916a.12323.12323,0,0,1-.03613-.09229v-.63965a.11329.11329,0,0,1,.12793-.12842h.35205a.11349.11349,0,0,1,.12793.12842v.63965a.11314.11314,0,0,1-.12793.12793H47.04A.12362.12362,0,0,1,46.94824,54.916Z" transform="translate(-0.16016 -0.83984)" style="fill: #fff"/>
  </g>
</svg>
