<svg xmlns="http://www.w3.org/2000/svg" width="60.96mm" height="128.49931mm" viewBox="0 0 172.8 364.25">
  <title>RW</title>
  <rect width="172.8" height="364.25" style="fill: #4c5b5c"/>
  <path d="M24.5957,21.44037h1.0918l1.67969,5.166h-.90234l-.39941-1.2251H24.19629l-.3916,1.2251H22.916Zm1.25977,3.16406-.72754-2.42187-.72852,2.42188Z" style="fill: #b3b3b3"/>
  <path d="M147.23145,21.44037h.86133v5.166h-.86133Z" style="fill: #b3b3b3"/>
  <path d="M54.87988,26.44184a1.34276,1.34276,0,0,1-.59766-.78027,5.13781,5.13781,0,0,1-.207-1.65918,4.81687,4.81687,0,0,1,.21-1.59961,1.40129,1.40129,0,0,1,.61621-.791,2.18954,2.18954,0,0,1,1.0498-.22021,5.41722,5.41722,0,0,1,.84375.06641,5.538,5.538,0,0,1,.72461.15723v.665q-.21094-.04175-.59863-.07666c-.25879-.02344-.52441-.03516-.79492-.03516a1.43394,1.43394,0,0,0-.71.14355.84681.84681,0,0,0-.36035.53564,4.52713,4.52713,0,0,0-.1123,1.16895,4.82481,4.82481,0,0,0,.10547,1.16895.84578.84578,0,0,0,.34961.53906,1.42428,1.42428,0,0,0,.7207.147,11.1879,11.1879,0,0,0,1.40039-.07715v.665a5.68,5.68,0,0,1-1.58887.189A2.265,2.265,0,0,1,54.87988,26.44184Z" style="fill: #b3b3b3"/>
  <path d="M115.69385,26.34028a1.59118,1.59118,0,0,1-.49023-.87158,6.40874,6.40874,0,0,1-.13623-1.45215,5.60424,5.60424,0,0,1,.15723-1.4668,1.54761,1.54761,0,0,1,.56006-.86084,1.88669,1.88669,0,0,1,1.1377-.29736,7.20562,7.20562,0,0,1,1.71484.21v.665q-.25928-.03516-.69629-.06689-.438-.03149-.87158-.03125a1.20729,1.20729,0,0,0-.71045.1748.92441.92441,0,0,0-.33252.56738,5.215,5.215,0,0,0-.09131,1.11279,5.24967,5.24967,0,0,0,.09131,1.12354.89049.89049,0,0,0,.3042.54248,1.05327,1.05327,0,0,0,.61963.15381,3.01047,3.01047,0,0,0,.57422-.05566,3.81514,3.81514,0,0,0,.51074-.1333V24.4643h-1.043v-.67187q.21021-.02783.53906-.04883.32886-.02124.644-.021c.27979,0,.51123.00684.69287.021v2.86279h-.65088l-.11914-.35693a3.39949,3.39949,0,0,1-.65088.27295,2.56288,2.56288,0,0,1-.77686.11914A1.45845,1.45845,0,0,1,115.69385,26.34028Z" style="fill: #b3b3b3"/>
  <path d="M85.15771,26.42426a.94721.94721,0,0,1-.35352-.875V22.56733a1.05468,1.05468,0,0,1,.32227-.86084,1.18021,1.18021,0,0,1,.77686-.26611q.65771,0,1.13379.021.47607.02124,1.09229.05615v.7207H86.17627a.53736.53736,0,0,0-.37793.12256.4753.4753,0,0,0-.13281.36768v.917l2.14893.04883v.6792l-2.14893.04883v.88916a.45182.45182,0,0,0,.50391.51807h1.96v.7207q-.88184.07764-2.12793.09131A1.5792,1.5792,0,0,1,85.15771,26.42426Z" style="fill: #b3b3b3"/>
  <g>
    <rect x="79.2" y="3.68848" width="14.4" height="9.16667" rx="4.58333" ry="4.58333" style="fill: #ef464c"/>
    <g>
      <path d="M83.6909,6.88108H82.37408V5.65583h3.99968V6.88108H85.057v4.00672H83.6909Z" style="fill: #fff"/>
      <path d="M89.1091,9.66255h1.31682v1.22525H86.42624V9.66255H87.743V5.65583H89.1091Z" style="fill: #fff"/>
    </g>
  </g>
  <rect x="13.80039" y="83.85741" width="145.19922" height="74.05945" rx="5.46077" ry="5.46077" style="fill: #ef464c"/>
  <rect x="8.15" y="307.76117" width="156.5" height="39.18963" rx="5.66929" ry="5.66929" style="fill: #414f4f"/>
  <g>
    <path d="M80.793,317.25922a1.31545,1.31545,0,0,1-.665-.7627,6.17508,6.17508,0,0,1,.00391-3.30762,1.3612,1.3612,0,0,1,.668-.78027,2.82655,2.82655,0,0,1,1.18359-.20605,2.8728,2.8728,0,0,1,1.19336.20605,1.34433,1.34433,0,0,1,.668.77734,4.75449,4.75449,0,0,1,.22461,1.66211,4.60952,4.60952,0,0,1-.22754,1.64844,1.33529,1.33529,0,0,1-.665.7627,3.64816,3.64816,0,0,1-2.38379,0Zm1.92871-.7168a.82447.82447,0,0,0,.36719-.52832,4.53513,4.53513,0,0,0,.1123-1.166,4.6991,4.6991,0,0,0-.11523-1.2041.82082.82082,0,0,0-.36816-.53223,1.62373,1.62373,0,0,0-.73437-.13281,1.543,1.543,0,0,0-.72168.13672.84438.84438,0,0,0-.37109.53223,4.4883,4.4883,0,0,0-.11914,1.2002,4.59619,4.59619,0,0,0,.10938,1.16895.816.816,0,0,0,.36035.52539,2.03169,2.03169,0,0,0,1.48047,0Z" style="fill: #b3b3b3"/>
    <path d="M85.33887,317.08442a1.51846,1.51846,0,0,1-.50684-1.3125v-3.52051h.86035v3.52051a.80717.80717,0,0,0,.28027.69629,1.77935,1.77935,0,0,0,1.666,0,.80717.80717,0,0,0,.28027-.69629v-3.52051h.86035v3.52051a1.51846,1.51846,0,0,1-.50684,1.3125,3.106,3.106,0,0,1-2.93359,0Z" style="fill: #b3b3b3"/>
    <path d="M90.78906,313.02778H89.30469v-.77637h3.8291v.77637H91.65625v4.38965h-.86719Z" style="fill: #b3b3b3"/>
  </g>
  <g>
    <path d="M81.07617,352.767H83.2959a1.60128,1.60128,0,0,1,1.1543.39551,1.82689,1.82689,0,0,1,.41309,1.35449,1.85021,1.85021,0,0,1-.18555.9209,1.40336,1.40336,0,0,1-.52148.51465l.90332,2.01563H83.68066l-.72754-1.792h-.51855v1.792h-1.3584Zm1.97461,2.33105a.41657.41657,0,0,0,.34277-.13574.69313.69313,0,0,0,.1123-.4375.6252.6252,0,0,0-.1084-.41992.44651.44651,0,0,0-.34668-.11914h-.61621v1.1123Z" style="fill: #b3b3b3"/>
    <path d="M85.207,352.767h1.40625l.64453,3.16406.77637-3.16406h1.21875l.76953,3.16406L90.667,352.767h1.40625l-1.18945,5.20117h-1.3584l-.88184-3.17773-.88867,3.17773h-1.3584Z" style="fill: #b3b3b3"/>
  </g>
  <line x1="25.13829" y1="88.25075" x2="25.13829" y2="39.70995" style="fill: #ef464c;stroke: #ef464c;stroke-miterlimit: 10;stroke-width: 2px"/>
  <line x1="147.66172" y1="88.25075" x2="147.66172" y2="39.70995" style="fill: #ef464c;stroke: #ef464c;stroke-miterlimit: 10;stroke-width: 2px"/>
  <line x1="55.76915" y1="88.25075" x2="55.76915" y2="39.70995" style="fill: #ef464c;stroke: #ef464c;stroke-miterlimit: 10;stroke-width: 2px"/>
  <line x1="117.03087" y1="88.25075" x2="117.03087" y2="39.70995" style="fill: #ef464c;stroke: #ef464c;stroke-miterlimit: 10;stroke-width: 2px"/>
  <line x1="86.40001" y1="88.25075" x2="86.40001" y2="39.70995" style="fill: #ef464c;stroke: #ef464c;stroke-miterlimit: 10;stroke-width: 2px"/>
  <line x1="86.40001" y1="94.66513" x2="86.40001" y2="146.81248" style="fill: none;stroke: #ffa9b8;stroke-miterlimit: 10"/>
  <g>
    <path d="M21.46094,152.392H22.9707v.5H21.46094Z" style="fill: #ffa9b8"/>
    <path d="M23.42041,154.04731v-.48486h1.29492a.58621.58621,0,0,0,.42285-.1377.46382.46382,0,0,0,.14258-.34766V152.767a.43947.43947,0,0,0-.11523-.32471.47631.47631,0,0,0-.3501-.11523h-.32471a.458.458,0,0,0-.2876.08008.38148.38148,0,0,0-.13232.24512h-.58545l.105-2.25h2.17529v.55518H24.12549l-.0498,1.04492a.51806.51806,0,0,1,.21484-.145.88609.88609,0,0,1,.3252-.05518h.415a.84744.84744,0,0,1,.645.2373.86217.86217,0,0,1,.22461.61768v.54492q0,.91553-1.21.915A12.22385,12.22385,0,0,1,23.42041,154.04731Z" style="fill: #ffa9b8"/>
    <path d="M26.23584,151.41205h.63477l.66992,2.105.68506-2.105h.62988l-.97461,2.68018h-.71045Z" style="fill: #ffa9b8"/>
  </g>
  <g>
    <path d="M145.85449,152.56244h-.87012v.86963h-.5v-.86963h-.87012v-.5h.87012v-.87012h.5v.87012h.87012Z" style="fill: #ffa9b8"/>
    <path d="M146.59912,154.04731v-.48486H147.894a.58621.58621,0,0,0,.42285-.1377.46382.46382,0,0,0,.14258-.34766V152.767a.43947.43947,0,0,0-.11523-.32471.47631.47631,0,0,0-.3501-.11523h-.32471a.458.458,0,0,0-.2876.08008.38148.38148,0,0,0-.13232.24512h-.58545l.105-2.25h2.17529v.55518H147.3042l-.0498,1.04492a.51806.51806,0,0,1,.21484-.145.88609.88609,0,0,1,.3252-.05518h.415a.84744.84744,0,0,1,.645.2373.86217.86217,0,0,1,.22461.61768v.54492q0,.91553-1.21.915A12.22385,12.22385,0,0,1,146.59912,154.04731Z" style="fill: #ffa9b8"/>
    <path d="M149.41455,151.41205h.63477l.66992,2.105.68506-2.105h.62988l-.97461,2.68018h-.71045Z" style="fill: #ffa9b8"/>
  </g>
  <line x1="25.13829" y1="94.66513" x2="25.13829" y2="146.81248" style="fill: none;stroke: #ffa9b8;stroke-miterlimit: 10"/>
  <line x1="55.76915" y1="94.66513" x2="55.76915" y2="146.81248" style="fill: none;stroke: #ffa9b8;stroke-miterlimit: 10"/>
  <line x1="117.03087" y1="94.66513" x2="117.03087" y2="146.81248" style="fill: none;stroke: #ffa9b8;stroke-miterlimit: 10"/>
  <line x1="147.66172" y1="94.66513" x2="147.66172" y2="146.81248" style="fill: none;stroke: #ffa9b8;stroke-miterlimit: 10"/>
  <path d="M38.55273,215.16157h1.97461q1.42822,0,1.42773,1.34473a1.324,1.324,0,0,1-.19922.752.88865.88865,0,0,1-.52832.38184,1.17871,1.17871,0,0,1,.63281.40234,1.291,1.291,0,0,1,.2627.85742,1.38925,1.38925,0,0,1-.37793,1.09863,1.68421,1.68421,0,0,1-1.13379.3291H38.55273Zm1.98828,2.18457a.52377.52377,0,0,0,.42676-.19629.80206.80206,0,0,0,.16113-.52539q0-.68555-.6084-.68555H39.41406v1.40723Zm.042,2.20508a.71531.71531,0,0,0,.53223-.18555.8573.8573,0,0,0,.18164-.61328.71853.71853,0,0,0-.19922-.53809.70262.70262,0,0,0-.51465-.19629H39.41406v1.5332Z" style="fill: #b3b3b3"/>
  <path d="M69.40088,215.16157h2.13525a1.469,1.469,0,0,1,1.36133.6582,3.73363,3.73363,0,0,1,.40234,1.9248,3.46225,3.46225,0,0,1-.44092,1.93262,1.49159,1.49159,0,0,1-1.32275.65039H69.40088Zm2.05127,4.38965a.79018.79018,0,0,0,.749-.459,3.01562,3.01562,0,0,0,.23779-1.34766,4.43441,4.43441,0,0,0-.105-1.0918.98535.98535,0,0,0-.31836-.55273.9131.9131,0,0,0-.56348-.16113H70.26221v3.6123Z" style="fill: #b3b3b3"/>
  <path d="M130.46289,215.16157h.86133v2.2334H133.501v-2.2334h.86816v5.166H133.501v-2.15527h-2.17676v2.15527h-.86133Z" style="fill: #b3b3b3"/>
  <path d="M100.1543,216.28852a1.05294,1.05294,0,0,1,.32227-.86035,1.178,1.178,0,0,1,.77686-.2666q1.37915,0,2.22607.07715v.7207h-1.97412a.49455.49455,0,0,0-.36035.126.47537.47537,0,0,0-.12939.35742v1.043l2.14893.04883v.67969l-2.14893.04883v2.06445h-.86133Z" style="fill: #b3b3b3"/>
  <line x1="40.45371" y1="199.97891" x2="40.45371" y2="157.91689" style="fill: #ef464c;stroke: #ef464c;stroke-miterlimit: 10;stroke-width: 2px"/>
  <line x1="71.08457" y1="199.97891" x2="71.08457" y2="157.91689" style="fill: #ef464c;stroke: #ef464c;stroke-miterlimit: 10;stroke-width: 2px"/>
  <line x1="132.34629" y1="199.97891" x2="132.34629" y2="157.91689" style="fill: #ef464c;stroke: #ef464c;stroke-miterlimit: 10;stroke-width: 2px"/>
  <line x1="101.71543" y1="199.97891" x2="101.71543" y2="157.91689" style="fill: #ef464c;stroke: #ef464c;stroke-miterlimit: 10;stroke-width: 2px"/>
  <line x1="40.45372" y1="94.66513" x2="40.45372" y2="146.81248" style="fill: none;stroke: #ffa9b8;stroke-miterlimit: 10"/>
  <line x1="71.08458" y1="94.66513" x2="71.08458" y2="146.81248" style="fill: none;stroke: #ffa9b8;stroke-miterlimit: 10"/>
  <line x1="101.71544" y1="94.66513" x2="101.71544" y2="146.81248" style="fill: none;stroke: #ffa9b8;stroke-miterlimit: 10"/>
  <line x1="132.3463" y1="94.66513" x2="132.3463" y2="146.81248" style="fill: none;stroke: #ffa9b8;stroke-miterlimit: 10"/>
  <g>
    <path d="M83.94971,153.87494a.91007.91007,0,0,1-.25-.69287v-1.855a.94119.94119,0,0,1,.25488-.70752.96239.96239,0,0,1,.7002-.24756h.75488a.88625.88625,0,0,1,.68506.25,1.00421,1.00421,0,0,1,.23.70508v1.855a.83713.83713,0,0,1-.91992.93018h-.75537A.97562.97562,0,0,1,83.94971,153.87494Zm1.29492-.32275a.40866.40866,0,0,0,.46484-.46v-1.70508q0-.46-.43994-.46h-.49512a.4562.4562,0,0,0-.3374.11768.464.464,0,0,0-.11719.34229v1.70508a.45045.45045,0,0,0,.12256.34521.49464.49464,0,0,0,.35205.11475Z" style="fill: #ffa9b8"/>
    <path d="M86.71484,151.41205h.63477l.66992,2.105.68506-2.105h.62988l-.97461,2.68018h-.71045Z" style="fill: #ffa9b8"/>
  </g>
  <g>
    <path d="M50.11426,152.392H51.624v.5H50.11426Z" style="fill: #ffa9b8"/>
    <path d="M51.87891,153.59223l1.27979-1.25488a2.04178,2.04178,0,0,0,.36768-.44531.88425.88425,0,0,0,.1123-.43994.46651.46651,0,0,0-.14258-.36719.7391.7391,0,0,0-.49219-.12744H51.979v-.48535q.32446-.04468.5874-.07227a5.34136,5.34136,0,0,1,.5625-.02783,1.23394,1.23394,0,0,1,.87256.25.98152.98152,0,0,1,.25732.73535,1.41029,1.41029,0,0,1-.14746.65234,2.46272,2.46272,0,0,1-.47266.60742l-.93506.915h1.67529v.56006h-2.5Z" style="fill: #ffa9b8"/>
    <path d="M54.8916,154.07221a.08242.08242,0,0,1-.02734-.06494v-.4751a.08366.08366,0,0,1,.09473-.09473h.355a.084.084,0,0,1,.09521.09473v.4751c0,.06006-.03174.08984-.09521.08984h-.355A.09666.09666,0,0,1,54.8916,154.07221Z" style="fill: #ffa9b8"/>
    <path d="M56.02881,154.04731v-.48486h1.29492a.58621.58621,0,0,0,.42285-.1377.46382.46382,0,0,0,.14258-.34766V152.767a.43947.43947,0,0,0-.11523-.32471.47631.47631,0,0,0-.3501-.11523h-.32471a.458.458,0,0,0-.2876.08008.38148.38148,0,0,0-.13232.24512h-.58545l.105-2.25H58.374v.55518H56.73389l-.0498,1.04492a.51806.51806,0,0,1,.21484-.145.88609.88609,0,0,1,.3252-.05518h.415a.84744.84744,0,0,1,.645.2373.86217.86217,0,0,1,.22461.61768v.54492q0,.91553-1.21.915A12.22385,12.22385,0,0,1,56.02881,154.04731Z" style="fill: #ffa9b8"/>
    <path d="M58.84424,151.41205H59.479l.66992,2.105.68506-2.105h.62988l-.97461,2.68018h-.71045Z" style="fill: #ffa9b8"/>
  </g>
  <g>
    <path d="M113.19629,152.56244h-.87012v.86963h-.5v-.86963h-.87012v-.5h.87012v-.87012h.5v.87012h.87012Z" style="fill: #ffa9b8"/>
    <path d="M113.84619,153.59223l1.27979-1.25488a2.04178,2.04178,0,0,0,.36768-.44531.88425.88425,0,0,0,.1123-.43994.46651.46651,0,0,0-.14258-.36719.7391.7391,0,0,0-.49219-.12744h-1.0249v-.48535q.32446-.04468.5874-.07227a5.34136,5.34136,0,0,1,.5625-.02783,1.23394,1.23394,0,0,1,.87256.25.98152.98152,0,0,1,.25732.73535,1.41029,1.41029,0,0,1-.14746.65234,2.46272,2.46272,0,0,1-.47266.60742l-.93506.915h1.67529v.56006h-2.5Z" style="fill: #ffa9b8"/>
    <path d="M116.8584,154.07221a.08242.08242,0,0,1-.02734-.06494v-.4751a.08366.08366,0,0,1,.09473-.09473h.355a.084.084,0,0,1,.09521.09473v.4751c0,.06006-.03174.08984-.09521.08984h-.355A.09666.09666,0,0,1,116.8584,154.07221Z" style="fill: #ffa9b8"/>
    <path d="M117.99561,154.04731v-.48486h1.29492a.58621.58621,0,0,0,.42285-.1377.46382.46382,0,0,0,.14258-.34766V152.767a.43947.43947,0,0,0-.11523-.32471.47631.47631,0,0,0-.3501-.11523h-.32471a.458.458,0,0,0-.2876.08008.38148.38148,0,0,0-.13232.24512h-.58545l.105-2.25h2.17529v.55518h-1.64014l-.0498,1.04492a.51806.51806,0,0,1,.21484-.145.88609.88609,0,0,1,.3252-.05518h.415a.84744.84744,0,0,1,.645.2373.86217.86217,0,0,1,.22461.61768v.54492q0,.91553-1.21.915A12.22385,12.22385,0,0,1,117.99561,154.04731Z" style="fill: #ffa9b8"/>
    <path d="M120.811,151.41205h.63477l.66992,2.105.68506-2.105h.62988l-.97461,2.68018h-.71045Z" style="fill: #ffa9b8"/>
  </g>
  <rect x="25.13829" y="94.66513" width="122.52344" height="52.14735" style="fill: none;stroke: #ffa9b8;stroke-linecap: square;stroke-miterlimit: 10"/>
  <g>
    <path d="M59.76563,87.76655h1.5249a1.07837,1.07837,0,0,1,.73486.25244,1.28227,1.28227,0,0,1,.29.98242q0,1.27-1.01514,1.27-.15454,0-.45508-.0249c-.19971-.0166-.355-.0332-.46484-.0498v1.25977h-.61475Zm1.44482,1.94482a.42481.42481,0,0,0,.35742-.165.8937.8937,0,0,0,.12744-.54q0-.68481-.46484-.68457h-.8501v1.38965Z" style="fill: #ffa9b8"/>
    <path d="M62.81055,88.77631h.48l.14014.43018a1.47689,1.47689,0,0,1,.37256-.34229.82718.82718,0,0,1,.44727-.12256.81443.81443,0,0,1,.2251.02979v.62988c-.12646-.01318-.22852-.02-.30518-.02a.96719.96719,0,0,0-.40479.07764,1.12825,1.12825,0,0,0-.335.24756v1.75h-.62012Z" style="fill: #ffa9b8"/>
    <path d="M65.33057,91.35639a.76962.76962,0,0,1-.38281-.41992,2.22053,2.22053,0,0,1-.12256-.8252,2.2894,2.2894,0,0,1,.12256-.84473.73293.73293,0,0,1,.37988-.41016,2.17189,2.17189,0,0,1,1.40039.00244.75488.75488,0,0,1,.38232.415,2.22725,2.22725,0,0,1,.125.8374,2.29432,2.29432,0,0,1-.12012.83545.74106.74106,0,0,1-.37988.41455,1.72337,1.72337,0,0,1-.71.12012A1.61544,1.61544,0,0,1,65.33057,91.35639ZM66.373,90.9267a.38757.38757,0,0,0,.18213-.24756,2.0179,2.0179,0,0,0,.06006-.57275,1.99145,1.99145,0,0,0-.06006-.56738.37819.37819,0,0,0-.18213-.24512.84574.84574,0,0,0-.34766-.05762.82977.82977,0,0,0-.34277.05762.37819.37819,0,0,0-.18213.24512,1.99145,1.99145,0,0,0-.06006.56738,2.0179,2.0179,0,0,0,.06006.57275.38757.38757,0,0,0,.18213.24756.803.803,0,0,0,.34277.05957A.8184.8184,0,0,0,66.373,90.9267Z" style="fill: #ffa9b8"/>
    <path d="M68.77783,91.40912a1.518,1.518,0,0,1-.37256-.2124l-.105.25977h-.51514V87.64155h.62012v1.33984a2.21886,2.21886,0,0,1,.40234-.17236,1.29327,1.29327,0,0,1,.3877-.06738.97554.97554,0,0,1,.5498.13965.80687.80687,0,0,1,.30762.44775,2.76307,2.76307,0,0,1,.09766.8125,1.82983,1.82983,0,0,1-.2251,1.00732.7815.7815,0,0,1-.7002.3374A1.22375,1.22375,0,0,1,68.77783,91.40912Zm.61475-.63281a1.22583,1.22583,0,0,0,.1377-.665,1.72894,1.72894,0,0,0-.06738-.5498.45687.45687,0,0,0-.18018-.25488A.55813.55813,0,0,0,69,89.24164a1.23023,1.23023,0,0,0-.59473.1748v1.3999a1.2616,1.2616,0,0,0,.59473.165A.44448.44448,0,0,0,69.39258,90.77631Z" style="fill: #ffa9b8"/>
    <path d="M70.7627,91.30414a.65608.65608,0,0,1-.1875-.49268v-.2251a.64237.64237,0,0,1,.21777-.50977.95721.95721,0,0,1,.64746-.18994h.76465v-.23535a.49586.49586,0,0,0-.0498-.23975.3218.3218,0,0,0-.18506-.1377,1.23077,1.23077,0,0,0-.39014-.04736H70.77v-.35986a3.97408,3.97408,0,0,1,1.05029-.125,1.19264,1.19264,0,0,1,.75732.19971.81427.81427,0,0,1,.24756.66992v1.84521h-.48486l-.105-.29a1.06,1.06,0,0,1-.20508.12256,2.14982,2.14982,0,0,1-.3623.1377,1.49749,1.49749,0,0,1-.4126.05957A.67615.67615,0,0,1,70.7627,91.30414Zm1.165-.3252a2.14019,2.14019,0,0,0,.27734-.09766v-.69971l-.57959.02979q-.43506.03516-.43506.38525v.10986a.30885.30885,0,0,0,.10254.25977.434.434,0,0,0,.26221.08545A1.32865,1.32865,0,0,0,71.92773,90.97895Z" style="fill: #ffa9b8"/>
    <path d="M74.43262,91.40912a1.518,1.518,0,0,1-.37256-.2124l-.105.25977h-.51514V87.64155h.62012v1.33984a2.21886,2.21886,0,0,1,.40234-.17236,1.29327,1.29327,0,0,1,.3877-.06738.97554.97554,0,0,1,.5498.13965.80687.80687,0,0,1,.30762.44775,2.76307,2.76307,0,0,1,.09766.8125,1.82983,1.82983,0,0,1-.2251,1.00732.7815.7815,0,0,1-.7002.3374A1.22375,1.22375,0,0,1,74.43262,91.40912Zm.61475-.63281a1.22583,1.22583,0,0,0,.1377-.665,1.72894,1.72894,0,0,0-.06738-.5498.45687.45687,0,0,0-.18018-.25488.55813.55813,0,0,0-.28271-.06494,1.23023,1.23023,0,0,0-.59473.1748v1.3999a1.2616,1.2616,0,0,0,.59473.165A.44448.44448,0,0,0,75.04736,90.77631Z" style="fill: #ffa9b8"/>
    <path d="M76.36768,88.3266a.08351.08351,0,0,1-.02783-.06494v-.45508a.10247.10247,0,0,1,.02539-.07275.09046.09046,0,0,1,.06982-.02734h.47021a.08305.08305,0,0,1,.06738.02734.11352.11352,0,0,1,.02246.07275v.45508a.07948.07948,0,0,1-.08984.08984h-.47021A.09582.09582,0,0,1,76.36768,88.3266Zm-.0127.44971h.62012v2.68018H76.355Z" style="fill: #ffa9b8"/>
    <path d="M77.80469,91.25922a.95528.95528,0,0,1-.19482-.668V87.64155H78.23v2.86475a.63244.63244,0,0,0,.07471.35791.33025.33025,0,0,0,.24023.12207l.2251.03027v.44971h-.36523A.78813.78813,0,0,1,77.80469,91.25922Z" style="fill: #ffa9b8"/>
    <path d="M79.15283,88.3266a.08351.08351,0,0,1-.02783-.06494v-.45508a.10247.10247,0,0,1,.02539-.07275.09046.09046,0,0,1,.06982-.02734h.47021a.08305.08305,0,0,1,.06738.02734.11352.11352,0,0,1,.02246.07275v.45508a.07948.07948,0,0,1-.08984.08984h-.47021A.09582.09582,0,0,1,79.15283,88.3266Zm-.0127.44971h.62012v2.68018h-.62012Z" style="fill: #ffa9b8"/>
    <path d="M80.73242,91.24653a1.01056,1.01056,0,0,1-.18213-.71l.02-1.26025H80.1499v-.3999l.43994-.1001.09033-.75H81.165v.75h.68018v.5H81.165v1.25537a.47579.47579,0,0,0,.0874.32715.35155.35155,0,0,0,.22754.10742l.335.03516v.45508h-.44482A.831.831,0,0,1,80.73242,91.24653Z" style="fill: #ffa9b8"/>
    <path d="M83.40967,91.45649a.796.796,0,0,1-.7998-.68506l-.5498-1.99512h.63965l.48535,1.87012a.507.507,0,0,0,.10986.2002.30975.30975,0,0,0,.1123.08008.52627.52627,0,0,0,.11279.02l.55469-2.17041h.63037l-.86035,3.37012-.23975.49512H83.1001Z" style="fill: #ffa9b8"/>
    <path d="M86.43506,87.76655H87.96a1.0486,1.0486,0,0,1,.97217.46973,2.66457,2.66457,0,0,1,.2876,1.375,2.472,2.472,0,0,1-.31494,1.38037,1.06485,1.06485,0,0,1-.94482.46484h-1.5249Zm1.46484,3.13477a.56445.56445,0,0,0,.53516-.32715,2.15134,2.15134,0,0,0,.16992-.96289,3.14476,3.14476,0,0,0-.0752-.77979.705.705,0,0,0-.22754-.395.65131.65131,0,0,0-.40234-.11475h-.8501v2.57959Z" style="fill: #ffa9b8"/>
    <path d="M89.79736,88.3266a.08351.08351,0,0,1-.02783-.06494v-.45508a.10247.10247,0,0,1,.02539-.07275.09046.09046,0,0,1,.06982-.02734H90.335a.08305.08305,0,0,1,.06738.02734.11352.11352,0,0,1,.02246.07275v.45508a.07948.07948,0,0,1-.08984.08984h-.47021A.09582.09582,0,0,1,89.79736,88.3266Zm-.0127.44971h.62012v2.68018h-.62012Z" style="fill: #ffa9b8"/>
    <path d="M91.41992,91.45893a1.96218,1.96218,0,0,1-.45459-.07764v-.36475h1.15479a.606.606,0,0,0,.29736-.05518.24087.24087,0,0,0,.09277-.2251v-.09473a.23971.23971,0,0,0-.08789-.20264.46582.46582,0,0,0-.28223-.06738h-.40527q-.80933,0-.80957-.70508v-.1499a.69382.69382,0,0,1,.23486-.57764,1.29463,1.29463,0,0,1,.79492-.1875,4.67767,4.67767,0,0,1,.51758.03271,3.67883,3.67883,0,0,1,.45264.07227v.36523H91.835a.4928.4928,0,0,0-.2876.06738.26283.26283,0,0,0-.09229.22754v.09473a.21491.21491,0,0,0,.09521.20752.64354.64354,0,0,0,.2998.05273h.415a.82732.82732,0,0,1,.58008.18018.65839.65839,0,0,1,.19482.50977v.22021a.58751.58751,0,0,1-.25977.54736A1.53608,1.53608,0,0,1,92,91.48627Q91.73486,91.48627,91.41992,91.45893Z" style="fill: #ffa9b8"/>
    <path d="M93.89209,91.24653a1.01056,1.01056,0,0,1-.18213-.71l.02-1.26025h-.42041v-.3999l.43994-.1001.09033-.75h.48486v.75h.68018v.5h-.68018v1.25537a.47579.47579,0,0,0,.0874.32715.35155.35155,0,0,0,.22754.10742l.335.03516v.45508h-.44482A.831.831,0,0,1,93.89209,91.24653Z" style="fill: #ffa9b8"/>
    <path d="M95.46,88.77631h.48l.14014.43018a1.47689,1.47689,0,0,1,.37256-.34229.82718.82718,0,0,1,.44727-.12256.81443.81443,0,0,1,.2251.02979v.62988c-.12646-.01318-.22852-.02-.30518-.02a.96719.96719,0,0,0-.40479.07764,1.12825,1.12825,0,0,0-.335.24756v1.75H95.46Z" style="fill: #ffa9b8"/>
    <path d="M97.56738,88.3266a.08351.08351,0,0,1-.02783-.06494v-.45508a.10247.10247,0,0,1,.02539-.07275.09046.09046,0,0,1,.06982-.02734H98.105a.08305.08305,0,0,1,.06738.02734.11352.11352,0,0,1,.02246.07275v.45508a.07948.07948,0,0,1-.08984.08984h-.47021A.09582.09582,0,0,1,97.56738,88.3266Zm-.0127.44971h.62012v2.68018h-.62012Z" style="fill: #ffa9b8"/>
    <path d="M99.80225,91.40912a1.518,1.518,0,0,1-.37256-.2124l-.105.25977h-.51514V87.64155h.62012v1.33984A2.21886,2.21886,0,0,1,99.832,88.809a1.29327,1.29327,0,0,1,.3877-.06738.97554.97554,0,0,1,.5498.13965.80687.80687,0,0,1,.30762.44775,2.76307,2.76307,0,0,1,.09766.8125,1.82983,1.82983,0,0,1-.2251,1.00732.7815.7815,0,0,1-.7002.3374A1.22375,1.22375,0,0,1,99.80225,91.40912Zm.61475-.63281a1.22582,1.22582,0,0,0,.1377-.665,1.72894,1.72894,0,0,0-.06738-.5498.45687.45687,0,0,0-.18018-.25488.55813.55813,0,0,0-.28271-.06494,1.23023,1.23023,0,0,0-.59473.1748v1.3999a1.2616,1.2616,0,0,0,.59473.165A.44448.44448,0,0,0,100.417,90.77631Z" style="fill: #ffa9b8"/>
    <path d="M101.92236,91.27631a.83506.83506,0,0,1-.20264-.605v-1.895h.62012v1.71533a.442.442,0,0,0,.1123.34717.5123.5123,0,0,0,.34229.09766,1.09645,1.09645,0,0,0,.65039-.21484V88.77631h.61963v2.68018h-.50488l-.11475-.27979a1.73916,1.73916,0,0,1-.94531.30957A.76329.76329,0,0,1,101.92236,91.27631Z" style="fill: #ffa9b8"/>
    <path d="M105.02686,91.24653a1.01056,1.01056,0,0,1-.18213-.71l.02-1.26025h-.42041v-.3999l.43994-.1001.09033-.75h.48486v.75h.68018v.5h-.68018v1.25537a.47579.47579,0,0,0,.0874.32715.35155.35155,0,0,0,.22754.10742l.335.03516v.45508h-.44482A.831.831,0,0,1,105.02686,91.24653Z" style="fill: #ffa9b8"/>
    <path d="M106.60742,88.3266a.08351.08351,0,0,1-.02783-.06494v-.45508a.10247.10247,0,0,1,.02539-.07275.09046.09046,0,0,1,.06982-.02734h.47021a.08305.08305,0,0,1,.06738.02734.11352.11352,0,0,1,.02246.07275v.45508a.07948.07948,0,0,1-.08984.08984h-.47021A.09582.09582,0,0,1,106.60742,88.3266Zm-.0127.44971h.62012v2.68018h-.62012Z" style="fill: #ffa9b8"/>
    <path d="M108.2749,91.35639a.76962.76962,0,0,1-.38281-.41992,2.22053,2.22053,0,0,1-.12256-.8252,2.28941,2.28941,0,0,1,.12256-.84473.73293.73293,0,0,1,.37988-.41016,2.17189,2.17189,0,0,1,1.40039.00244.75488.75488,0,0,1,.38232.415,2.22725,2.22725,0,0,1,.125.8374,2.29432,2.29432,0,0,1-.12012.83545.74106.74106,0,0,1-.37988.41455,1.72337,1.72337,0,0,1-.71.12012A1.61544,1.61544,0,0,1,108.2749,91.35639Zm1.04248-.42969a.38757.38757,0,0,0,.18213-.24756,2.0179,2.0179,0,0,0,.06006-.57275,1.99145,1.99145,0,0,0-.06006-.56738.37819.37819,0,0,0-.18213-.24512.84574.84574,0,0,0-.34766-.05762.82977.82977,0,0,0-.34277.05762.37819.37819,0,0,0-.18213.24512,1.99145,1.99145,0,0,0-.06006.56738,2.0179,2.0179,0,0,0,.06006.57275.38757.38757,0,0,0,.18213.24756.803.803,0,0,0,.34277.05957A.8184.8184,0,0,0,109.31738,90.9267Z" style="fill: #ffa9b8"/>
    <path d="M110.72949,88.77631h.50488l.11523.28027a1.73836,1.73836,0,0,1,.42236-.23242,1.28766,1.28766,0,0,1,.47266-.09277.745.745,0,0,1,.63477.25781,1.0984,1.0984,0,0,1,.19531.68213v1.78516h-.62012v-1.71a.45227.45227,0,0,0-.12012-.335.439.439,0,0,0-.32471-.12012,1.01335,1.01335,0,0,0-.34033.05518,1.47031,1.47031,0,0,0-.31982.165v1.94482h-.62012Z" style="fill: #ffa9b8"/>
  </g>
  <line x1="8.27365" y1="228.616" x2="164.65" y2="228.616" style="fill: none;stroke: #414f4f;stroke-miterlimit: 10"/>
  <g>
    <path d="M59.97559,238.57367h2.1001a1.50438,1.50438,0,0,1,1.043.34668,2.22109,2.22109,0,0,1,.14355,2.25781,1.31,1.31,0,0,1-.6333.44824l.99365,2.11328h-.875l-.896-1.9873q-.427,0-1.01465-.01465v2.002h-.86133Zm1.95313,2.48535a.69137.69137,0,0,0,.52148-.19238.994.994,0,0,0,.18555-.68945.88786.88786,0,0,0-.18555-.65137.73181.73181,0,0,0-.52148-.1748h-1.0918v1.708Z" style="fill: #b3b3b3"/>
    <path d="M65.67334,238.57367h1.09229l1.67969,5.166h-.90283l-.39893-1.22461H65.27441l-.39209,1.22461h-.88867Zm1.26025,3.16406-.728-2.42187-.728,2.42188Z" style="fill: #b3b3b3"/>
    <path d="M69.8457,239.351H68.36133v-.77734h3.8291v.77734H70.71338v4.38867H69.8457Z" style="fill: #b3b3b3"/>
    <path d="M73.06934,243.558a.94775.94775,0,0,1-.35352-.875v-2.98242a1.05294,1.05294,0,0,1,.32227-.86035,1.178,1.178,0,0,1,.77686-.2666q.65771,0,1.13379.02148.47607.02051,1.09229.05566v.7207H74.08789a.53525.53525,0,0,0-.37793.123.47487.47487,0,0,0-.13281.36719v.917l2.14893.04883v.67969l-2.14893.04883v.88867a.452.452,0,0,0,.50391.51855h1.96v.7207q-.88184.07764-2.12793.09082A1.58341,1.58341,0,0,1,73.06934,243.558Z" style="fill: #b3b3b3"/>
  </g>
  <line x1="67.94151" y1="273.9359" x2="67.94151" y2="268.85638" style="fill: #ef464c;stroke: #ef464c;stroke-miterlimit: 10;stroke-width: 2px"/>
  <g>
    <path d="M91.709,243.73969a5.80186,5.80186,0,0,1-.76318-.11133v-.67969q.63062.05713,1.561.05664a1.50522,1.50522,0,0,0,.71094-.13379.50108.50108,0,0,0,.24121-.48242V242.144a.55346.55346,0,0,0-.15381-.41992.63763.63763,0,0,0-.45508-.14746h-.48291a1.63657,1.63657,0,0,1-1.10254-.32129,1.32063,1.32063,0,0,1-.36768-1.043v-.2666a1.326,1.326,0,0,1,.40625-1.07129,1.82509,1.82509,0,0,1,1.20361-.34277,7.17313,7.17313,0,0,1,.79492.04883q.42993.0498.73828.1123v.67871q-.94482-.063-1.43506-.0625a1.22667,1.22667,0,0,0-.66162.14355.58254.58254,0,0,0-.22021.52832v.1748a.55408.55408,0,0,0,.17139.45508.81092.81092,0,0,0,.52148.14063h.53906a1.31005,1.31005,0,0,1,.99023.35254,1.294,1.294,0,0,1,.33984.93457v.3291a1.2448,1.2448,0,0,1-.44824,1.10938,2.28257,2.28257,0,0,1-1.28809.30469Q92.1709,243.78168,91.709,243.73969Z" style="fill: #b3b3b3"/>
    <path d="M99.521,243.73969l-.43408-3.69531-1.022,3.69531h-.812l-1.0293-3.6748-.41309,3.6748h-.833l.59521-5.166h.83984l1.25293,4.1377,1.24609-4.1377H99.752l.60889,5.166Z" style="fill: #b3b3b3"/>
    <path d="M101.7959,243.58246a1.31614,1.31614,0,0,1-.66455-.7627,6.16863,6.16863,0,0,1,.00342-3.30762,1.35879,1.35879,0,0,1,.66846-.78027,2.82267,2.82267,0,0,1,1.18311-.207,2.86978,2.86978,0,0,1,1.19336.207,1.34424,1.34424,0,0,1,.66846.77637,4.76249,4.76249,0,0,1,.22412,1.66309,4.61683,4.61683,0,0,1-.22754,1.64844,1.335,1.335,0,0,1-.665.7627,3.66506,3.66506,0,0,1-2.38379,0Zm1.92871-.71777a.82239.82239,0,0,0,.36768-.52832,4.53087,4.53087,0,0,0,.11182-1.165,4.66664,4.66664,0,0,0-.11523-1.2041.81784.81784,0,0,0-.36768-.53223,1.61148,1.61148,0,0,0-.73486-.13281,1.53,1.53,0,0,0-.72119.13672.84027.84027,0,0,0-.37109.53125,4.49161,4.49161,0,0,0-.11914,1.20117,4.62357,4.62357,0,0,0,.10889,1.16895.81119.81119,0,0,0,.36035.52441,2.01856,2.01856,0,0,0,1.48047,0Z" style="fill: #b3b3b3"/>
    <path d="M106.66064,243.58246a1.31614,1.31614,0,0,1-.66455-.7627,6.16863,6.16863,0,0,1,.00342-3.30762,1.35879,1.35879,0,0,1,.66846-.78027,2.82267,2.82267,0,0,1,1.18311-.207,2.86978,2.86978,0,0,1,1.19336.207,1.34424,1.34424,0,0,1,.66846.77637,4.76249,4.76249,0,0,1,.22412,1.66309,4.61683,4.61683,0,0,1-.22754,1.64844,1.335,1.335,0,0,1-.665.7627,3.66506,3.66506,0,0,1-2.38379,0Zm1.92871-.71777a.82239.82239,0,0,0,.36768-.52832,4.53087,4.53087,0,0,0,.11182-1.165,4.66664,4.66664,0,0,0-.11523-1.2041.81784.81784,0,0,0-.36768-.53223,1.61148,1.61148,0,0,0-.73486-.13281,1.53,1.53,0,0,0-.72119.13672.84027.84027,0,0,0-.37109.53125,4.49161,4.49161,0,0,0-.11914,1.20117,4.62357,4.62357,0,0,0,.10889,1.16895.81119.81119,0,0,0,.36035.52441,2.01856,2.01856,0,0,0,1.48047,0Z" style="fill: #b3b3b3"/>
    <path d="M111.84814,239.351h-1.48437v-.77734h3.8291v.77734h-1.47705v4.38867h-.86768Z" style="fill: #b3b3b3"/>
    <path d="M114.78809,238.57367h.86133v2.2334h2.17676v-2.2334h.86816v5.166h-.86816v-2.15527h-2.17676v2.15527h-.86133Z" style="fill: #b3b3b3"/>
  </g>
  <line x1="104.85831" y1="273.93591" x2="104.85831" y2="268.85639" style="fill: #ef464c;stroke: #ef464c;stroke-miterlimit: 10;stroke-width: 2px"/>
  <g>
    <path d="M22.37891,239.35H20.89453v-.77637h3.8291V239.35H23.24658v4.38965h-.86768Z" style="fill: #b3b3b3"/>
    <path d="M25.31836,238.57367h2.1001a1.49973,1.49973,0,0,1,1.043.34668,2.21932,2.21932,0,0,1,.14355,2.25684,1.31,1.31,0,0,1-.6333.44824l.99365,2.11426h-.875l-.896-1.98828q-.427,0-1.01465-.01367v2.002h-.86133Zm1.95313,2.48438a.68769.68769,0,0,0,.52148-.19238.99066.99066,0,0,0,.18555-.68945.8836.8836,0,0,0-.18555-.65039.72784.72784,0,0,0-.52148-.17578h-1.0918v1.708Z" style="fill: #b3b3b3"/>
    <path d="M29.65869,238.57367H30.52v5.166h-.86133Z" style="fill: #b3b3b3"/>
    <path d="M31.979,243.47309a1.58972,1.58972,0,0,1-.49023-.87109,6.40874,6.40874,0,0,1-.13623-1.45215,5.60169,5.60169,0,0,1,.15723-1.4668,1.5472,1.5472,0,0,1,.56006-.86133,1.88675,1.88675,0,0,1,1.1377-.29687,7.18068,7.18068,0,0,1,1.71484.21v.665q-.25928-.03516-.69629-.06738-.438-.03076-.87158-.03125a1.20729,1.20729,0,0,0-.71045.1748.92581.92581,0,0,0-.33252.56738,6.892,6.892,0,0,0,0,2.23633.89188.89188,0,0,0,.3042.543,1.05343,1.05343,0,0,0,.61963.15332,3.01046,3.01046,0,0,0,.57422-.05566,3.74587,3.74587,0,0,0,.51074-.13281v-1.19043h-1.043v-.67187q.21021-.02783.53906-.04883.32886-.02051.644-.02051c.27979,0,.51123.00684.69287.02051v2.86328h-.65088l-.11914-.35742a3.39887,3.39887,0,0,1-.65088.27344,2.5781,2.5781,0,0,1-.77686.11914A1.456,1.456,0,0,1,31.979,243.47309Z" style="fill: #b3b3b3"/>
  </g>
  <g>
    <line x1="39.47217" y1="258.53663" x2="53.34766" y2="258.53089" style="fill: none;stroke: #414f4f;stroke-miterlimit: 10;stroke-width: 1.5px"/>
    <polygon points="52.692 260.775 56.577 258.53 52.69 256.287 52.692 260.775" style="fill: #414f4f"/>
  </g>
  <line x1="43.41107" y1="255.92176" x2="48.63808" y2="261.14876" style="fill: none;stroke: #414f4f;stroke-miterlimit: 10;stroke-width: 1.5px"/>
  <line x1="48.63808" y1="255.92176" x2="43.41107" y2="261.14876" style="fill: none;stroke: #414f4f;stroke-miterlimit: 10;stroke-width: 1.5px"/>
  <g>
    <line x1="133.20417" y1="258.52957" x2="116.22303" y2="258.5366" style="fill: #ef464c"/>
    <g>
      <line x1="133.20422" y1="258.52958" x2="119.45239" y2="258.53525" style="fill: none;stroke: #ef464c;stroke-miterlimit: 10;stroke-width: 1.5px"/>
      <polygon points="120.108 256.291 116.223 258.537 120.11 260.779 120.108 256.291" style="fill: #ef464c"/>
    </g>
  </g>
  <g>
    <path d="M134.373,243.73969a5.79291,5.79291,0,0,1-.7627-.11133v-.67969q.62988.05713,1.56055.05664a1.50388,1.50388,0,0,0,.71094-.13379.50022.50022,0,0,0,.24121-.48242V242.144a.55322.55322,0,0,0-.15332-.41992.63925.63925,0,0,0-.45508-.14746h-.4834a1.63657,1.63657,0,0,1-1.10254-.32129,1.3205,1.3205,0,0,1-.36719-1.043v-.2666a1.32447,1.32447,0,0,1,.40625-1.07129,1.82453,1.82453,0,0,1,1.20313-.34277,7.16614,7.16614,0,0,1,.79492.04883q.43066.0498.73828.1123v.67871q-.94482-.063-1.43457-.0625a1.22972,1.22972,0,0,0-.66211.14355.58347.58347,0,0,0-.21973.52832v.1748a.5539.5539,0,0,0,.1709.45508.81092.81092,0,0,0,.52148.14063h.53906a1.30858,1.30858,0,0,1,.99023.35254,1.294,1.294,0,0,1,.33984.93457v.3291a1.2448,1.2448,0,0,1-.44824,1.10938,2.28039,2.28039,0,0,1-1.28809.30469C134.96094,243.78168,134.68164,243.768,134.373,243.73969Z" style="fill: #b3b3b3"/>
    <path d="M137.78223,238.57367h.86133v2.2334h2.17676v-2.2334h.86816v5.166h-.86816v-2.15527h-2.17676v2.15527h-.86133Z" style="fill: #b3b3b3"/>
    <path d="M144.01172,238.57367h1.09277l1.67969,5.166h-.90332l-.39844-1.22461h-1.86914l-.39258,1.22461H142.332Zm1.26074,3.16406-.72852-2.42187-.72754,2.42188Z" style="fill: #b3b3b3"/>
    <path d="M147.4209,238.57367h2.13574a1.51038,1.51038,0,0,1,1.02832.35352,1.797,1.797,0,0,1,.40625,1.376q0,1.77832-1.4209,1.77734c-.14453,0-.35742-.01074-.63672-.03418q-.42041-.03516-.65137-.07031v1.76367h-.86133Zm2.02344,2.72363a.59357.59357,0,0,0,.5-.23145,1.25071,1.25071,0,0,0,.17871-.75586q0-.95947-.65039-.959h-1.19043v1.94629Z" style="fill: #b3b3b3"/>
    <path d="M152.08008,243.558a.94666.94666,0,0,1-.35352-.875v-2.98242a1.05294,1.05294,0,0,1,.32227-.86035,1.17667,1.17667,0,0,1,.77637-.2666q.65771,0,1.13379.02148.47607.02051,1.09277.05566v.7207h-1.95312a.53362.53362,0,0,0-.37793.123.47487.47487,0,0,0-.13281.36719v.917l2.14844.04883v.67969l-2.14844.04883v.88867a.452.452,0,0,0,.50391.51855h1.96v.7207q-.88184.07764-2.12793.09082A1.581,1.581,0,0,1,152.08008,243.558Z" style="fill: #b3b3b3"/>
  </g>
  <g>
    <path d="M148.51074,255.71625a.93566.93566,0,0,1-.2627-.75293v-4.165h.40625v4.11621a.60714.60714,0,0,0,.17822.50781.74782.74782,0,0,0,.46582.13672h1.90381v.37793H149.228A1.0831,1.0831,0,0,1,148.51074,255.71625Z" style="fill: #1f2323"/>
    <path d="M151.96484,250.79828h.40625V255.937h-.40625Z" style="fill: #1f2323"/>
    <path d="M153.624,250.79828h.34277l2.8418,4.43164v-4.43164h.40625V255.937h-.33594l-2.84912-4.43164V255.937H153.624Z" style="fill: #1f2323"/>
  </g>
  <g>
    <path d="M148.542,265.1518a.85427.85427,0,0,1-.29395-.77051v-3.21973a.942.942,0,0,1,.27295-.752.99746.99746,0,0,1,.67236-.23535q.37061,0,1.645.03516l.49658.02148v.31445h-2.03662a.65287.65287,0,0,0-.47607.165.66965.66965,0,0,0-.168.5v1.36523l2.38672.03516v.30078l-2.38672.03516v1.3584a.60565.60565,0,0,0,.189.52441.85774.85774,0,0,0,.50391.13281H151.335v.31543q-.92358.04248-2.04395.0625A1.36257,1.36257,0,0,1,148.542,265.1518Z" style="fill: #1f2323"/>
    <path d="M154.14893,262.77875l1.603,2.53418h-.44775l-1.40723-2.22656-1.37207,2.22656h-.44775l1.603-2.56934-1.624-2.56934h.44775l1.43506,2.26855,1.37207-2.26855h.44824Z" style="fill: #1f2323"/>
    <path d="M156.61279,260.17426h2.002q1.30225,0,1.30225,1.60352a1.70155,1.70155,0,0,1-.39551,1.29492,1.357,1.357,0,0,1-.94141.35742c-.13574,0-.37451-.00781-.71777-.02148-.34277-.01367-.624-.02832-.84326-.042v1.94629h-.40625Zm1.918,2.8916q.98,0,.98-1.28809a1.42786,1.42786,0,0,0-.252-.96582.86874.86874,0,0,0-.67187-.27344H157.019v2.52734Z" style="fill: #1f2323"/>
  </g>
</svg>
