<svg xmlns="http://www.w3.org/2000/svg" width="25.4mm" height="128.4993mm" viewBox="0 0 72 364.25"><title>TTL</title><rect width="72" height="364.25" style="fill:#4c5b5c"/><rect x="28.8" y="3.6875" width="14.4" height="9.1667" rx="4.5833" ry="4.5833" style="fill:#ef464c"/><path d="M33.2909,6.88H31.9741V5.6548h4V6.88H34.657v4.0067H33.2909Z" style="fill:#fff"/><path d="M38.7091,9.6616h1.3168v1.2253h-4V9.6616H37.343V5.6548h1.3661Z" style="fill:#fff"/><rect x="5.1" y="17.0089" width="61.8" height="46.4934" rx="5.6693" ry="5.6693" style="fill:#ef464c"/><path d="M20.0156,23.0624h1.0928l1.68,5.166h-.9033l-.3984-1.2251H19.6172l-.3926,1.2251h-.8887Zm1.2607,3.1641-.7285-2.4219L19.82,26.2265Z" style="fill:#f8f9f9"/><rect x="5.1" y="68.251" width="61.8" height="278.9941" rx="5.6693" ry="5.6693" style="fill:#414f4f"/><path d="M30.1025,354.2455h-1.31v-1.2178H32.77v1.2178H31.4609v3.9834H30.1025Z" style="fill:#b3b3b3"/><path d="M34.373,354.2455h-1.31v-1.2178h3.9756v1.2178H35.73v3.9834H34.373Z" style="fill:#b3b3b3"/><path d="M37.0469,355.66h2.1973v1.0781H37.0469Z" style="fill:#b3b3b3"/><path d="M40.0918,357.9067a1.4089,1.4089,0,0,1-.3223-1.0293v-3.85H41.127v3.6191a.3221.3221,0,0,0,.3643.3643h1.5127v1.2178H41.12A1.4047,1.4047,0,0,1,40.0918,357.9067Z" style="fill:#b3b3b3"/><path d="M49.74,23.0624h1.9736q1.4282,0,1.4277,1.3442a1.3246,1.3246,0,0,1-.1992.7524.8831.8831,0,0,1-.5283.3813,1.184,1.184,0,0,1,.6338.4023,1.2919,1.2919,0,0,1,.2627.8574,1.3913,1.3913,0,0,1-.3789,1.0991,1.6842,1.6842,0,0,1-1.1338.3291H49.74Zm1.9883,2.1841a.5251.5251,0,0,0,.4268-.1963.8.8,0,0,0,.1611-.5249q0-.6855-.6094-.686H50.6016v1.4072Zm.042,2.2051a.7125.7125,0,0,0,.5313-.1855.8514.8514,0,0,0,.1826-.6128.7172.7172,0,0,0-.2-.5386.7.7,0,0,0-.5137-.1963H50.6016v1.5332Z" style="fill:#f8f9f9"/><path d="M15.2109,75.062h1.0918l1.68,5.166H17.08l-.3984-1.2251H14.8125L14.42,80.228h-.8887Zm1.26,3.1641-.7275-2.4219-.7275,2.4219Z" style="fill:#b3b3b3"/><path d="M18.6758,75.062h.6934l2.3516,3.689V75.062H22.59v5.166h-.6934l-2.3516-3.689v3.689h-.8691Z" style="fill:#b3b3b3"/><path d="M23.499,75.062h2.1357a1.47,1.47,0,0,1,1.3613.6582,3.7386,3.7386,0,0,1,.4023,1.9248,3.46,3.46,0,0,1-.4414,1.9321,1.49,1.49,0,0,1-1.3223.6509H23.499Zm2.0518,4.3892a.7884.7884,0,0,0,.748-.4585,3.0147,3.0147,0,0,0,.2383-1.3477,4.404,4.404,0,0,0-.1055-1.0918A.9814.9814,0,0,0,26.1133,76a.911.911,0,0,0-.5625-.1611H24.36v3.6123Z" style="fill:#b3b3b3"/><path d="M48.06,80.0707a1.3124,1.3124,0,0,1-.6641-.7627A6.1622,6.1622,0,0,1,47.3984,76a1.361,1.361,0,0,1,.6689-.78,2.8209,2.8209,0,0,1,1.1826-.2065,2.869,2.869,0,0,1,1.1934.2065,1.3428,1.3428,0,0,1,.6689.7769,4.7613,4.7613,0,0,1,.2236,1.6626,4.6132,4.6132,0,0,1-.2275,1.6484,1.33,1.33,0,0,1-.665.7627,3.6566,3.6566,0,0,1-2.3838,0Zm1.9287-.7173a.8242.8242,0,0,0,.3682-.5283,4.54,4.54,0,0,0,.1113-1.1655,4.65,4.65,0,0,0-.1152-1.2041.8187.8187,0,0,0-.3672-.5322A1.6189,1.6189,0,0,0,49.25,75.79a1.5352,1.5352,0,0,0-.7207.1367.84.84,0,0,0-.3711.5317,4.49,4.49,0,0,0-.1191,1.2007,4.6513,4.6513,0,0,0,.1084,1.1689.8136.8136,0,0,0,.36.5249,2.0251,2.0251,0,0,0,1.48,0Z" style="fill:#b3b3b3"/><path d="M52.1689,75.0624h2.1a1.5021,1.5021,0,0,1,1.043.3467,2.2172,2.2172,0,0,1,.1436,2.2573,1.3109,1.3109,0,0,1-.6328.4482l.9932,2.1138H54.94l-.8955-1.9878q-.4277,0-1.0146-.0142v2.002h-.8613Zm1.9531,2.4849a.691.691,0,0,0,.5215-.1924.9948.9948,0,0,0,.1855-.6895.8879.8879,0,0,0-.1855-.6509.7314.7314,0,0,0-.5215-.1753H53.03v1.708Z" style="fill:#b3b3b3"/><path d="M16.51,124.0424l1.5879,2.5342h-.959l-1.168-1.8618-1.0918,1.8618h-.9531l1.59-2.59-1.61-2.5762h.9521l1.1973,1.9038,1.1055-1.9038h.959Z" style="fill:#b3b3b3"/><path d="M19.4141,126.4189a1.3124,1.3124,0,0,1-.6641-.7627,4.6461,4.6461,0,0,1-.2246-1.6484,4.7055,4.7055,0,0,1,.2275-1.6592,1.3576,1.3576,0,0,1,.6689-.78,2.8178,2.8178,0,0,1,1.1826-.2065,2.869,2.869,0,0,1,1.1934.2065,1.35,1.35,0,0,1,.6689.7769,4.7846,4.7846,0,0,1,.2236,1.6626,4.6132,4.6132,0,0,1-.2275,1.6484,1.3335,1.3335,0,0,1-.665.7627,2.9245,2.9245,0,0,1-1.1934.2A2.9346,2.9346,0,0,1,19.4141,126.4189Zm1.9287-.7173a.8242.8242,0,0,0,.3682-.5283,4.54,4.54,0,0,0,.1113-1.1655,4.6939,4.6939,0,0,0-.1152-1.2041.8187.8187,0,0,0-.3672-.5322,1.6217,1.6217,0,0,0-.7354-.1328,1.5369,1.5369,0,0,0-.7217.1367.8432.8432,0,0,0-.3711.5317,4.5312,4.5312,0,0,0-.1191,1.2007,4.6419,4.6419,0,0,0,.1094,1.1689.8136.8136,0,0,0,.36.5249,2.0251,2.0251,0,0,0,1.48,0Z" style="fill:#b3b3b3"/><path d="M23.5234,121.4106h2.1a1.5021,1.5021,0,0,1,1.043.3467,2.2233,2.2233,0,0,1,.1436,2.2573,1.3091,1.3091,0,0,1-.6338.4482l.9941,2.1138h-.875l-.8965-1.9878c-.2842,0-.623-.0049-1.0137-.0142v2.002h-.8613Zm1.9531,2.4849a.691.691,0,0,0,.5215-.1924.9948.9948,0,0,0,.1855-.6895.8879.8879,0,0,0-.1855-.6509.7314.7314,0,0,0-.5215-.1753H24.3848v1.708Z" style="fill:#b3b3b3"/><path d="M44.9209,121.4106h.6924l2.3525,3.689v-3.689h.8682v5.166h-.6934l-2.3516-3.689v3.689h-.8682Z" style="fill:#b3b3b3"/><path d="M50.499,126.4189a1.3124,1.3124,0,0,1-.6641-.7627,6.1622,6.1622,0,0,1,.0029-3.3076,1.361,1.361,0,0,1,.6689-.78,2.8209,2.8209,0,0,1,1.1826-.2065,2.869,2.869,0,0,1,1.1934.2065,1.3428,1.3428,0,0,1,.6689.7769,4.7613,4.7613,0,0,1,.2236,1.6626,4.6132,4.6132,0,0,1-.2275,1.6484,1.33,1.33,0,0,1-.665.7627,3.6566,3.6566,0,0,1-2.3838,0Zm1.9287-.7173a.8242.8242,0,0,0,.3682-.5283,4.54,4.54,0,0,0,.1113-1.1655,4.65,4.65,0,0,0-.1152-1.2041.8187.8187,0,0,0-.3672-.5322,1.6189,1.6189,0,0,0-.7354-.1328,1.5352,1.5352,0,0,0-.7207.1367.84.84,0,0,0-.3711.5317,4.49,4.49,0,0,0-.1191,1.2007,4.6513,4.6513,0,0,0,.1084,1.1689.8136.8136,0,0,0,.36.5249,2.0251,2.0251,0,0,0,1.48,0Z" style="fill:#b3b3b3"/><path d="M54.6084,121.4106h2.1a1.5021,1.5021,0,0,1,1.043.3467,2.2172,2.2172,0,0,1,.1436,2.2573,1.3109,1.3109,0,0,1-.6328.4482l.9932,2.1138H57.38l-.8955-1.9878q-.4277,0-1.0146-.0142v2.002h-.8613Zm1.9531,2.4849a.691.691,0,0,0,.5215-.1924.9948.9948,0,0,0,.1855-.6895.8879.8879,0,0,0-.1855-.6509.7314.7314,0,0,0-.5215-.1753H55.47v1.708Z" style="fill:#b3b3b3"/><path d="M15.7188,167.7592h1.0918l1.68,5.166h-.9023L17.1885,171.7H15.3193l-.3916,1.2251h-.8887Zm1.26,3.1641-.7285-2.4219-.7275,2.4219Z" style="fill:#b3b3b3"/><path d="M19.3164,170.86v-.77l2.9053-.9238v.7559l-2.0654.5459,2.0654.5879v.7563Z" style="fill:#b3b3b3"/><path d="M23.3906,167.7592h1.9736q1.4282,0,1.4277,1.3442a1.3246,1.3246,0,0,1-.1992.7524.8859.8859,0,0,1-.5283.3813,1.178,1.178,0,0,1,.6328.4023,1.2869,1.2869,0,0,1,.2637.8574,1.3913,1.3913,0,0,1-.3789,1.0991,1.6842,1.6842,0,0,1-1.1338.3291H23.3906Zm1.9883,2.1841a.5232.5232,0,0,0,.4258-.1963.8.8,0,0,0,.1621-.5249q0-.6855-.6094-.686H24.252v1.4072Zm.041,2.2051a.7134.7134,0,0,0,.5322-.1855.8514.8514,0,0,0,.1826-.6128.7172.7172,0,0,0-.2-.5386.7011.7011,0,0,0-.5146-.1963H24.252v1.5332Z" style="fill:#b3b3b3"/><path d="M46.583,167.76h1.0918l1.68,5.166h-.9023l-.3994-1.2251H46.1836l-.3916,1.2251h-.8887Zm1.26,3.1641-.7275-2.4219-.7285,2.4219Z" style="fill:#b3b3b3"/><path d="M50.1953,171.0566l2.0645-.5879-2.0645-.5459v-.7559l2.9043.9238v.77l-2.9043.9521Z" style="fill:#b3b3b3"/><path d="M54.2549,167.76h1.9736q1.4282,0,1.4277,1.3442a1.3246,1.3246,0,0,1-.1992.7524.8831.8831,0,0,1-.5283.3813,1.184,1.184,0,0,1,.6338.4023,1.2919,1.2919,0,0,1,.2627.8574,1.3913,1.3913,0,0,1-.3789,1.0991,1.6842,1.6842,0,0,1-1.1338.3291H54.2549Zm1.9883,2.1841a.5251.5251,0,0,0,.4268-.1963.8.8,0,0,0,.1611-.5249q0-.6855-.6094-.686H55.1162v1.4072Zm.042,2.2051a.7125.7125,0,0,0,.5313-.1855.8514.8514,0,0,0,.1826-.6128.7172.7172,0,0,0-.2-.5386.7.7,0,0,0-.5137-.1963H55.1162v1.5332Z" style="fill:#b3b3b3"/><path d="M13.5869,214.1079H14.68l1.68,5.166h-.9033l-.3994-1.2256H13.1875l-.3916,1.2256h-.8887Zm1.2607,3.1641-.7285-2.4219-.7285,2.4219Z" style="fill:#b3b3b3"/><path d="M17.1855,217.2084v-.77l2.9043-.9238v.7559l-2.0645.5459,2.0645.5879v.7559Z" style="fill:#b3b3b3"/><path d="M21.3359,215.5913h3.1357v.7H21.3359Zm0,1.6807h3.1357v.7H21.3359Z" style="fill:#b3b3b3"/><path d="M25.5215,214.1079h1.9746q1.4282,0,1.4277,1.3438a1.3252,1.3252,0,0,1-.1992.7529.88.88,0,0,1-.5283.3809,1.19,1.19,0,0,1,.6338.4023,1.2978,1.2978,0,0,1,.2617.8574,1.393,1.393,0,0,1-.3779,1.1,1.6842,1.6842,0,0,1-1.1338.3291H25.5215Zm1.9883,2.1836a.5257.5257,0,0,0,.4277-.1963.7971.7971,0,0,0,.16-.5244q0-.6855-.6084-.6865H26.3828v1.4072Zm.043,2.2051a.7105.7105,0,0,0,.5313-.1855.8546.8546,0,0,0,.1816-.6123.7223.7223,0,0,0-.1992-.5391.7019.7019,0,0,0-.5137-.1963h-1.17v1.5332Z" style="fill:#b3b3b3"/><path d="M15.7188,260.4565h1.0918l1.68,5.166h-.9023l-.3994-1.2256H15.3193l-.3916,1.2256h-.8887Zm1.26,3.1641-.7285-2.4219-.7275,2.4219Z" style="fill:#b3b3b3"/><path d="M19.2051,261.94H22.34v.7H19.2051Zm0,1.6807H22.34v.7H19.2051Z" style="fill:#b3b3b3"/><path d="M23.3906,260.4565h1.9736q1.4282,0,1.4277,1.3438a1.3252,1.3252,0,0,1-.1992.7529.8831.8831,0,0,1-.5283.3809,1.1808,1.1808,0,0,1,.6328.4023,1.2878,1.2878,0,0,1,.2637.8574,1.3932,1.3932,0,0,1-.3789,1.1,1.6842,1.6842,0,0,1-1.1338.3291H23.3906Zm1.9883,2.1836a.5232.5232,0,0,0,.4258-.1963.7978.7978,0,0,0,.1621-.5244q0-.6855-.6094-.6865H24.252V262.64Zm.041,2.2051a.7114.7114,0,0,0,.5322-.1855.85.85,0,0,0,.1826-.6123.7191.7191,0,0,0-.2-.5391.7011.7011,0,0,0-.5146-.1963H24.252v1.5332Z" style="fill:#b3b3b3"/><path d="M45.6377,260.4565h1.0918l1.68,5.166h-.9023l-.3994-1.2246H45.2383l-.3916,1.2246H43.958Zm1.26,3.1641-.7275-2.4219-.7285,2.4219Z" style="fill:#b3b3b3"/><path d="M49.0674,260.4633h.8682l-.126,3.7451h-.6367Zm.0811,5.1318a.1162.1162,0,0,1-.0391-.0918v-.665a.1182.1182,0,0,1,.1338-.1328h.4961a.1182.1182,0,0,1,.1338.1328v.665c0,.084-.0449.126-.1338.126h-.4961A.1331.1331,0,0,1,49.1484,265.5952Z" style="fill:#b3b3b3"/><path d="M51.0137,261.9409h3.1357v.7H51.0137Zm0,1.68h3.1357v.7H51.0137Z" style="fill:#b3b3b3"/><path d="M55.1992,260.4565h1.9746q1.4282,0,1.4277,1.3447a1.324,1.324,0,0,1-.1992.752.8887.8887,0,0,1-.5283.3818,1.1787,1.1787,0,0,1,.6328.4023,1.291,1.291,0,0,1,.2627.8574,1.3892,1.3892,0,0,1-.3779,1.0986,1.6842,1.6842,0,0,1-1.1338.3291H55.1992Zm1.9883,2.1846a.5238.5238,0,0,0,.4268-.1963.8021.8021,0,0,0,.1611-.5254q0-.6855-.6084-.6855H56.0605v1.4072Zm.042,2.2051a.7153.7153,0,0,0,.5322-.1855.8573.8573,0,0,0,.1816-.6133.7185.7185,0,0,0-.1992-.5381.7026.7026,0,0,0-.5146-.1963H56.0605v1.5332Z" style="fill:#b3b3b3"/><path d="M19.74,308.2885v2.3809h-.7v-1.6807H16.6035v-.7Z" style="fill:#b3b3b3"/><path d="M22.1484,306.8051H23.24l1.68,5.166h-.9023l-.3994-1.2256H21.749l-.3916,1.2256h-.8887Zm1.26,3.1641-.7285-2.4219-.7275,2.4219Z" style="fill:#b3b3b3"/><path d="M50.8213,308.2895v2.38h-.6992v-1.68H47.6855v-.7Z" style="fill:#b3b3b3"/><path d="M51.8721,306.8051h1.9736q1.4282,0,1.4277,1.3447a1.324,1.324,0,0,1-.1992.752.8858.8858,0,0,1-.5283.3818,1.1812,1.1812,0,0,1,.6338.4023,1.291,1.291,0,0,1,.2627.8574,1.3894,1.3894,0,0,1-.3789,1.0986,1.6842,1.6842,0,0,1-1.1338.3291H51.8721ZM53.86,308.99a.5251.5251,0,0,0,.4268-.1963.8021.8021,0,0,0,.1611-.5254q0-.6855-.6094-.6855H52.7334V308.99Zm.042,2.2051a.7144.7144,0,0,0,.5313-.1855.8527.8527,0,0,0,.1826-.6133.7153.7153,0,0,0-.2-.5381.7.7,0,0,0-.5137-.1963H52.7334v1.5332Z" style="fill:#b3b3b3"/><path d="M44.4512,214.1049h1.0928l1.68,5.166H46.32l-.3984-1.2256H44.0527l-.3926,1.2256h-.8887Zm1.2607,3.1641-.7285-2.4219-.7275,2.4219Z" style="fill:#b3b3b3"/><path d="M48.0635,217.4018l2.0654-.5879-2.0654-.5459v-.7559l2.9053.9238v.77l-2.9053.9521Z" style="fill:#b3b3b3"/><path d="M52.2,215.5883h3.1357v.7H52.2Zm0,1.6807h3.1357v.7H52.2Z" style="fill:#b3b3b3"/><path d="M56.3867,214.1049H58.36q1.4282,0,1.4277,1.3438a1.3252,1.3252,0,0,1-.1992.7529.88.88,0,0,1-.5283.3809,1.1869,1.1869,0,0,1,.6338.4023,1.2928,1.2928,0,0,1,.2627.8574,1.3932,1.3932,0,0,1-.3789,1.1,1.6842,1.6842,0,0,1-1.1338.3291H56.3867Zm1.9883,2.1836a.5251.5251,0,0,0,.4268-.1963.7974.7974,0,0,0,.1611-.5244q0-.6855-.6094-.6865H57.248v1.4072Zm.042,2.2051a.7105.7105,0,0,0,.5313-.1855.85.85,0,0,0,.1826-.6123.7191.7191,0,0,0-.2-.5391.7.7,0,0,0-.5137-.1963H57.248v1.5332Z" style="fill:#b3b3b3"/></svg>