<svg xmlns="http://www.w3.org/2000/svg" width="106.68mm" height="128.4993mm" viewBox="0 0 302.4 364.25"><title>WAVE</title><rect y="0.625" width="302.4" height="364.25" style="fill:#4c5b5c"/><path d="M106.0718,353.0278h1.4067l.644,3.1641.7769-3.1641h1.2183l.77,3.1641.644-3.1641h1.4067l-1.19,5.2012h-1.3579l-.8818-3.1777-.8892,3.1777h-1.3579Z" style="fill:#b3b3b3"/><path d="M114.3037,353.0278h1.6938l1.54,5.2012H116.13l-.21-.8262h-1.561l-.2026.8262h-1.3931Zm1.3018,3.1572-.4687-2.002-.4624,2.002Z" style="fill:#b3b3b3"/><path d="M117.3628,353.0278H118.77l.9873,3.7246.9868-3.7246h1.3931l-1.54,5.2012h-1.6938Z" style="fill:#b3b3b3"/><path d="M122.3813,357.0327v-2.7168a1.18,1.18,0,0,1,.3818-.99,1.4414,1.4414,0,0,1,.9136-.2979,22.8084,22.8084,0,0,1,2.2959.1055v1.1475h-1.876c-.2383,0-.3569.1035-.3569.3086v.4336l1.8828.07v1.0781l-1.8828.07v.3916a.4.4,0,0,0,.0806.2725.2759.2759,0,0,0,.22.0918h1.9321v1.1475q-.4343.063-1.0464.0947t-1.1729.0313Q122.3816,358.2709,122.3813,357.0327Z" style="fill:#b3b3b3"/><path d="M126.4624,358.0825v-1.0918h1.5264a1.5488,1.5488,0,0,0,.5425-.0635.2316.2316,0,0,0,.1436-.2314v-.1328q0-.3428-.5391-.3633l-1.2461-.0566v-1.05l1.1831-.0771a1.02,1.02,0,0,0,.4165-.084.2367.2367,0,0,0,.1294-.2236v-.0635a.3035.3035,0,0,0-.1436-.29,1.1465,1.1465,0,0,0-.5146-.0811h-1.4277v-1.0918q.56-.0981,1.0361-.15a7.6891,7.6891,0,0,1,.9448-.0459,1.649,1.649,0,0,1,1.0708.34,1.2273,1.2273,0,0,1,.3779.9834v.3506a1.1862,1.1862,0,0,1-.14.6084.8229.8229,0,0,1-.4482.3506.8426.8426,0,0,1,.49.4053,1.4939,1.4939,0,0,1,.168.7354v.2031a1.2048,1.2048,0,0,1-.3989.97,1.67,1.67,0,0,1-1.1133.3389A10.5113,10.5113,0,0,1,126.4624,358.0825Z" style="fill:#b3b3b3"/><rect x="60.8431" y="17.0572" width="114.6" height="330.1869" rx="5.6693" ry="5.6693" style="fill:#ef464c"/><rect x="10.2924" y="17.0069" width="40" height="212.2416" rx="5.6693" ry="5.6693" style="fill:#596868"/><path d="M22.7466,92.5629a5.7919,5.7919,0,0,1-.7632-.1118v-.6792q.6306.0564,1.561.0562a1.5059,1.5059,0,0,0,.7109-.1333.5024.5024,0,0,0,.2412-.4829v-.2451a.5542.5542,0,0,0-.1538-.42.6375.6375,0,0,0-.4551-.147h-.4829a1.634,1.634,0,0,1-1.1025-.3218,1.3206,1.3206,0,0,1-.3677-1.043V88.769a1.3254,1.3254,0,0,1,.4063-1.0713,1.8251,1.8251,0,0,1,1.2036-.3428,7.1731,7.1731,0,0,1,.7949.0488q.43.0491.7383.1123v.6787q-.9448-.063-1.4351-.063a1.2267,1.2267,0,0,0-.6616.1436.5835.5835,0,0,0-.22.5288v.1748a.5547.5547,0,0,0,.1714.4551.814.814,0,0,0,.5215.14h.5391a1.31,1.31,0,0,1,.99.353,1.2924,1.2924,0,0,1,.34.9346v.3291A1.2459,1.2459,0,0,1,24.8745,92.3a2.2826,2.2826,0,0,1-1.2881.3047Q23.2085,92.6049,22.7466,92.5629Z" style="fill:#b3b3b3"/><path d="M27.4224,90.9457,25.84,87.3969h.896l1.1343,2.667,1.1338-2.667h.875l-1.5889,3.5488v1.6172h-.8682Z" style="fill:#b3b3b3"/><path d="M30.58,87.3969h.6929l2.3521,3.689v-3.689h.8682v5.166h-.6934l-2.3516-3.689v3.689H30.58Z" style="fill:#b3b3b3"/><path d="M36.0742,92.3984a1.3414,1.3414,0,0,1-.5981-.78,5.14,5.14,0,0,1-.2065-1.6592,4.8041,4.8041,0,0,1,.21-1.6,1.3987,1.3987,0,0,1,.6157-.791,2.1929,2.1929,0,0,1,1.05-.22,5.4157,5.4157,0,0,1,.8433.0664,5.52,5.52,0,0,1,.7246.1572v.665q-.21-.0417-.5986-.0767t-.7944-.0352a1.436,1.436,0,0,0-.71.1436.85.85,0,0,0-.36.5356,4.5491,4.5491,0,0,0-.1123,1.1689,4.8248,4.8248,0,0,0,.1055,1.1689.8477.8477,0,0,0,.35.5391,1.4276,1.4276,0,0,0,.7212.147,11.1852,11.1852,0,0,0,1.4-.0771v.665a5.6776,5.6776,0,0,1-1.5889.189A2.2642,2.2642,0,0,1,36.0742,92.3984Z" style="fill:#b3b3b3"/><path d="M16.2051,29.0717a1.3414,1.3414,0,0,1-.5981-.78A5.14,5.14,0,0,1,15.4,26.6323a4.8041,4.8041,0,0,1,.21-1.6,1.3987,1.3987,0,0,1,.6157-.791,2.1929,2.1929,0,0,1,1.05-.22,5.4157,5.4157,0,0,1,.8433.0664,5.52,5.52,0,0,1,.7246.1572v.665q-.21-.0417-.5986-.0767t-.7944-.0352a1.436,1.436,0,0,0-.71.1436.85.85,0,0,0-.36.5356,4.5491,4.5491,0,0,0-.1123,1.1689,4.8248,4.8248,0,0,0,.1055,1.1689.8477.8477,0,0,0,.35.5391,1.4276,1.4276,0,0,0,.7212.147,11.1852,11.1852,0,0,0,1.4-.0771v.665a5.6776,5.6776,0,0,1-1.5889.189A2.2642,2.2642,0,0,1,16.2051,29.0717Z" style="fill:#b3b3b3"/><path d="M20.979,24.07h1.0923l1.68,5.166h-.9028l-.3989-1.2251H20.58l-.3921,1.2251h-.8887Zm1.26,3.1641-.728-2.4219-.728,2.4219Z" style="fill:#b3b3b3"/><path d="M24.3882,24.07h2.1353a1.5117,1.5117,0,0,1,1.0288.3535,1.7957,1.7957,0,0,1,.4063,1.3755q0,1.7783-1.4214,1.7778-.2168,0-.6367-.0347t-.6509-.07v1.7642h-.8613Zm2.0229,2.7231a.596.596,0,0,0,.5-.231,1.2514,1.2514,0,0,0,.1787-.7563q0-.9587-.6509-.959H25.25v1.9463Z" style="fill:#b3b3b3"/><path d="M29.8066,24.8471H28.3223V24.07h3.8291v.7769H30.6743v4.3892h-.8677Z" style="fill:#b3b3b3"/><path d="M33.1836,28.9038a1.5173,1.5173,0,0,1-.5073-1.3125V24.07h.8608v3.521a.8071.8071,0,0,0,.28.6963,1.7831,1.7831,0,0,0,1.666,0,.8082.8082,0,0,0,.28-.6963V24.07h.8608v3.521a1.5173,1.5173,0,0,1-.5073,1.3125,3.1087,3.1087,0,0,1-2.9331,0Z" style="fill:#b3b3b3"/><path d="M37.52,24.07h2.1a1.5021,1.5021,0,0,1,1.043.3467,1.6462,1.6462,0,0,1,.3853,1.2563,1.6521,1.6521,0,0,1-.2417,1.001,1.31,1.31,0,0,1-.6333.4482l.9937,2.1138h-.875l-.896-1.9878q-.427,0-1.0146-.0142v2.002H37.52Zm1.9531,2.4849a.69.69,0,0,0,.5215-.1924.9923.9923,0,0,0,.1855-.6895.8857.8857,0,0,0-.1855-.6509.73.73,0,0,0-.5215-.1753H38.3813v1.708Z" style="fill:#b3b3b3"/><path d="M42.2134,29.0541a.9472.9472,0,0,1-.3535-.875V25.1972a1.0547,1.0547,0,0,1,.3223-.8608,1.18,1.18,0,0,1,.7769-.2661q.6577,0,1.1338.021t1.0923.0562v.7207H43.2319a.5374.5374,0,0,0-.3779.1226.4753.4753,0,0,0-.1328.3677v.917l2.1489.0488v.6792l-2.1489.0488v.8892a.4518.4518,0,0,0,.5039.5181h1.96V29.18q-.8818.0776-2.1279.0913A1.5792,1.5792,0,0,1,42.2134,29.0541Z" style="fill:#b3b3b3"/><path d="M20.8569,130.8974h.8613v5.166h-.8613Z" style="fill:#b3b3b3"/><path d="M22.74,130.8974h.6929l2.3521,3.689v-3.689h.8682v5.166h-.6934l-2.3516-3.689v3.689H22.74Z" style="fill:#b3b3b3"/><path d="M27.563,130.8974h2.1353a1.5117,1.5117,0,0,1,1.0288.3535,1.7957,1.7957,0,0,1,.4063,1.3755q0,1.7783-1.4214,1.7778-.2168,0-.6367-.0347t-.6509-.07v1.7642H27.563Zm2.0229,2.7231a.596.596,0,0,0,.5-.231,1.2514,1.2514,0,0,0,.1787-.7563q0-.9587-.6509-.959h-1.19v1.9463Z" style="fill:#b3b3b3"/><path d="M32.3052,135.7309a1.5173,1.5173,0,0,1-.5073-1.3125v-3.521h.8608v3.521a.8071.8071,0,0,0,.28.6963,1.7831,1.7831,0,0,0,1.666,0,.8082.8082,0,0,0,.28-.6963v-3.521h.8608v3.521a1.5173,1.5173,0,0,1-.5073,1.3125,3.1087,3.1087,0,0,1-2.9331,0Z" style="fill:#b3b3b3"/><path d="M37.7549,131.6743H36.2705v-.7769H40.1v.7769H38.6226v4.3892h-.8677Z" style="fill:#b3b3b3"/><rect x="11.8672" y="307.7609" width="36.8504" height="39.1899" rx="5.6693" ry="5.6693" style="fill:#414f4f"/><path d="M24.6855,317.2592a1.3161,1.3161,0,0,1-.6646-.7627,6.1686,6.1686,0,0,1,.0034-3.3076,1.3588,1.3588,0,0,1,.6685-.78,2.8227,2.8227,0,0,1,1.1831-.207,2.87,2.87,0,0,1,1.1934.207,1.3442,1.3442,0,0,1,.6685.7764,4.7625,4.7625,0,0,1,.2241,1.6631,4.6168,4.6168,0,0,1-.2275,1.6484,1.335,1.335,0,0,1-.665.7627,3.6651,3.6651,0,0,1-2.3838,0Zm1.9287-.7178a.8224.8224,0,0,0,.3677-.5283,4.5309,4.5309,0,0,0,.1118-1.165,4.6666,4.6666,0,0,0-.1152-1.2041.8178.8178,0,0,0-.3677-.5322,1.6115,1.6115,0,0,0-.7349-.1328,1.53,1.53,0,0,0-.7212.1367.84.84,0,0,0-.3711.5313,4.4916,4.4916,0,0,0-.1191,1.2012,4.6236,4.6236,0,0,0,.1089,1.1689.8112.8112,0,0,0,.36.5244,2.0186,2.0186,0,0,0,1.48,0Z" style="fill:#b3b3b3"/><path d="M29.2319,317.0844a1.5173,1.5173,0,0,1-.5073-1.3125V312.25h.8608v3.5215a.8083.8083,0,0,0,.28.6963,1.7868,1.7868,0,0,0,1.666,0,.8094.8094,0,0,0,.28-.6963V312.25h.8608v3.5215a1.5173,1.5173,0,0,1-.5073,1.3125,2.4775,2.4775,0,0,1-1.4663.3672A2.4782,2.4782,0,0,1,29.2319,317.0844Z" style="fill:#b3b3b3"/><path d="M34.6816,313.0278H33.1973V312.25h3.8291v.7773H35.5493v4.3887h-.8677Z" style="fill:#b3b3b3"/><path d="M213.7017,26.2133l-.5249-4.5361L211.84,26.2133h-.3779l-1.3579-4.5078L209.6,26.2133h-.3921l.5811-5.1382h.4414l1.4209,4.5991,1.4-4.5991h.4478l.5952,5.1382Z" style="fill:#1f2323"/><path d="M216.6138,21.0751h.5249l1.813,5.1382h-.4268l-.5669-1.5962h-2.17l-.56,1.5962h-.4272Zm1.2251,3.1782-.9658-2.814-.98,2.814Z" style="fill:#1f2323"/><path d="M219.7915,21.0751h.4063v5.1382h-.4062Z" style="fill:#1f2323"/><path d="M221.4507,21.0751h.3428l2.8418,4.4312V21.0751h.4063v5.1382h-.3359l-2.8491-4.4312v4.4312h-.4058Z" style="fill:#1f2323"/><path d="M228.6885,26.07a1.2394,1.2394,0,0,1-.6162-.7422,4.9571,4.9571,0,0,1-.21-1.6553,5.0133,5.0133,0,0,1,.2134-1.6694,1.3077,1.3077,0,0,1,.6265-.77,2.5726,2.5726,0,0,1,1.1064-.2,2.61,2.61,0,0,1,1.1235.2,1.2855,1.2855,0,0,1,.6157.7666,5.1567,5.1567,0,0,1,.2065,1.6729,4.9444,4.9444,0,0,1-.21,1.6553,1.2394,1.2394,0,0,1-.6162.7422,3.4723,3.4723,0,0,1-2.24,0Zm2.0332-.3394a1.0124,1.0124,0,0,0,.4727-.6338,4.917,4.917,0,0,0,.1538-1.4243,5.2368,5.2368,0,0,0-.1538-1.4771,1.0043,1.0043,0,0,0-.4727-.6406,2.1133,2.1133,0,0,0-.9131-.1572,2.0334,2.0334,0,0,0-.8857.1572,1.0538,1.0538,0,0,0-.4863.6475,4.8189,4.8189,0,0,0-.168,1.47,5.25,5.25,0,0,0,.1436,1.4282.9756.9756,0,0,0,.4619.63,2.132,2.132,0,0,0,.9346.1611A2.0706,2.0706,0,0,0,230.7217,25.73Z" style="fill:#1f2323"/><path d="M233.3887,26.22q-.5-.0344-.7314-.0767v-.3081a15.177,15.177,0,0,0,1.5259.0562,1.7776,1.7776,0,0,0,.8823-.1821.7164.7164,0,0,0,.3149-.6792v-.3921a.83.83,0,0,0-.2031-.6055.8621.8621,0,0,0-.6367-.2065h-.5952a1.4652,1.4652,0,0,1-.9658-.2764,1.1307,1.1307,0,0,1-.3291-.9136v-.3008a1.2394,1.2394,0,0,1,.36-.9976,1.63,1.63,0,0,1,1.0747-.3047c.1909,0,.4375.0142.7383.042s.54.0562.7178.084v.3081q-1.0151-.07-1.4214-.07a1.3174,1.3174,0,0,0-.812.2065.8949.8949,0,0,0-.2656.7456v.2729a.764.764,0,0,0,.2275.63,1.0751,1.0751,0,0,0,.6821.1821h.623a1.0726,1.0726,0,0,1,1.1973,1.1616v.4272a1.0491,1.0491,0,0,1-.4272.959,2.11,2.11,0,0,1-1.1479.2729Q233.8889,26.2553,233.3887,26.22Z" style="fill:#1f2323"/><path d="M237.41,26.0488a1.2781,1.2781,0,0,1-.5635-.77,5.5763,5.5763,0,0,1-.1855-1.6484,5.2318,5.2318,0,0,1,.189-1.5923,1.3287,1.3287,0,0,1,.5845-.7842,2.2148,2.2148,0,0,1,1.0747-.2207,6.1075,6.1075,0,0,1,.6895.0493q.416.0491.7456.1187v.3013q-.1963-.0352-.6021-.07t-.7842-.0352a1.7715,1.7715,0,0,0-.8818.1821,1.085,1.085,0,0,0-.4619.6611,5.01,5.01,0,0,0-.147,1.39,5.515,5.515,0,0,0,.14,1.4351,1.0343,1.0343,0,0,0,.4448.6543,1.8121,1.8121,0,0,0,.8784.1719,9.6948,9.6948,0,0,0,1.4141-.0913v.3013a7.4255,7.4255,0,0,1-.7422.1118,7.3053,7.3053,0,0,1-.7417.042A2.2113,2.2113,0,0,1,237.41,26.0488Z" style="fill:#1f2323"/><path d="M240.84,21.0751h.4063v5.1382H240.84Z" style="fill:#1f2323"/><path d="M242.65,25.9926a.9345.9345,0,0,1-.2627-.7524v-4.165h.4063v4.1162a.6067.6067,0,0,0,.1782.5073.7448.7448,0,0,0,.4658.1367h1.9038v.3779h-1.9741A1.08,1.08,0,0,1,242.65,25.9926Z" style="fill:#1f2323"/><path d="M246.3667,25.9926a.9345.9345,0,0,1-.2627-.7524v-4.165h.4063v4.1162a.6067.6067,0,0,0,.1782.5073.7448.7448,0,0,0,.4658.1367h1.9038v.3779H247.084A1.08,1.08,0,0,1,246.3667,25.9926Z" style="fill:#1f2323"/><path d="M251.34,21.0751h.5249l1.813,5.1382h-.4268l-.5669-1.5962h-2.17l-.56,1.5962h-.4272Zm1.2251,3.1782-.9658-2.814-.98,2.814Z" style="fill:#1f2323"/><path d="M255.3579,21.4394h-1.645v-.3643h3.6963v.3643h-1.645v4.7739h-.4062Z" style="fill:#1f2323"/><path d="M258.7534,26.07a1.2394,1.2394,0,0,1-.6162-.7422,4.9571,4.9571,0,0,1-.21-1.6553,5.0133,5.0133,0,0,1,.2134-1.6694,1.3077,1.3077,0,0,1,.6265-.77,2.5726,2.5726,0,0,1,1.1064-.2,2.61,2.61,0,0,1,1.1235.2,1.2855,1.2855,0,0,1,.6157.7666,5.1567,5.1567,0,0,1,.2065,1.6729,4.9444,4.9444,0,0,1-.21,1.6553,1.2394,1.2394,0,0,1-.6162.7422,3.4723,3.4723,0,0,1-2.24,0Zm2.0332-.3394a1.0124,1.0124,0,0,0,.4727-.6338,4.917,4.917,0,0,0,.1538-1.4243,5.2368,5.2368,0,0,0-.1538-1.4771,1.0043,1.0043,0,0,0-.4727-.6406,2.1133,2.1133,0,0,0-.9131-.1572,2.0334,2.0334,0,0,0-.8857.1572,1.0538,1.0538,0,0,0-.4863.6475,4.8189,4.8189,0,0,0-.168,1.47,5.25,5.25,0,0,0,.1436,1.4282.9756.9756,0,0,0,.4619.63,2.132,2.132,0,0,0,.9346.1611A2.0706,2.0706,0,0,0,260.7866,25.73Z" style="fill:#1f2323"/><path d="M262.8271,21.0751h1.9951a1.3987,1.3987,0,0,1,.9346.3047,1.4858,1.4858,0,0,1,.36,1.1655,1.5516,1.5516,0,0,1-.2974,1.085,1.2344,1.2344,0,0,1-.7314.3711l1.0776,2.2119H265.76l-1.0571-2.17q-.6716,0-1.47-.0283v2.1982h-.4062Zm1.9463,2.6323a.9477.9477,0,0,0,.6895-.2417,1.2871,1.2871,0,0,0,.2485-.92,1.173,1.173,0,0,0-.252-.875.9785.9785,0,0,0-.686-.231h-1.54v2.2681Z" style="fill:#1f2323"/><line x1="185.2422" y1="31.7485" x2="290.0127" y2="31.7485" style="fill:none;stroke:#414f4f;stroke-miterlimit:10"/><line x1="223.4537" y1="62.552" x2="213.5899" y2="62.5564" style="fill:#ef464c;stroke:#ef464c;stroke-miterlimit:10;stroke-width:2px"/><line x1="199.4161" y1="82.0416" x2="199.4161" y2="74.0416" style="fill:#ef464c;stroke:#ef464c;stroke-miterlimit:10;stroke-width:2px"/><path d="M189.21,41.2416a1.0547,1.0547,0,0,1,.3223-.8608,1.18,1.18,0,0,1,.7769-.2661q1.3792,0,2.2261.0771v.7207H190.561a.4945.4945,0,0,0-.36.126.4754.4754,0,0,0-.1294.3574v1.043l2.1489.0488v.6792l-2.1489.0488v2.0649H189.21Z" style="fill:#b3b3b3"/><path d="M193.249,40.1147h2.1a1.5021,1.5021,0,0,1,1.043.3467,2.22,2.22,0,0,1,.1436,2.2573,1.31,1.31,0,0,1-.6333.4482l.9937,2.1138h-.875l-.896-1.9878q-.427,0-1.0146-.0142v2.002h-.8613ZM195.2021,42.6a.69.69,0,0,0,.5215-.1924.9923.9923,0,0,0,.1855-.6895.8857.8857,0,0,0-.1855-.6509.73.73,0,0,0-.5215-.1753H194.11V42.6Z" style="fill:#b3b3b3"/><path d="M197.9424,45.0986a.9472.9472,0,0,1-.3535-.875V41.2416a1.0547,1.0547,0,0,1,.3223-.8608,1.18,1.18,0,0,1,.7769-.2661q.6577,0,1.1338.021t1.0923.0562v.7207h-1.9531a.5374.5374,0,0,0-.3779.1226.4753.4753,0,0,0-.1328.3677v.917l2.1489.0488v.6792l-2.1489.0488v.8892a.4518.4518,0,0,0,.5039.5181h1.96v.7207q-.8818.0776-2.1279.0913A1.5792,1.5792,0,0,1,197.9424,45.0986Z" style="fill:#b3b3b3"/><path d="M202.5029,45.123a1.3146,1.3146,0,0,1-.6646-.7627,6.1686,6.1686,0,0,1,.0034-3.3076,1.36,1.36,0,0,1,.6685-.78,2.8234,2.8234,0,0,1,1.1831-.2065,2.8705,2.8705,0,0,1,1.1934.2065,1.3438,1.3438,0,0,1,.6685.7769,4.7594,4.7594,0,0,1,.2241,1.6626,4.6132,4.6132,0,0,1-.2275,1.6484,1.3335,1.3335,0,0,1-.665.7627,3.6566,3.6566,0,0,1-2.3838,0Zm1.9287-.7173a.8237.8237,0,0,0,.3677-.5283,4.5352,4.5352,0,0,0,.1118-1.1655,4.6718,4.6718,0,0,0-.1152-1.2041.8191.8191,0,0,0-.3677-.5322,1.618,1.618,0,0,0-.7349-.1328,1.536,1.536,0,0,0-.7212.1367.8414.8414,0,0,0-.3711.5317,4.49,4.49,0,0,0-.1191,1.2007,4.6236,4.6236,0,0,0,.1089,1.1689.8136.8136,0,0,0,.36.5249,2.0251,2.0251,0,0,0,1.48,0Zm-.4619,1.9111a1.021,1.021,0,0,1-.4165-.7842h.6021a.5.5,0,0,0,.2378.3223.8146.8146,0,0,0,.4131.105,1.9255,1.9255,0,0,0,.4063-.063V46.54a1.6611,1.6611,0,0,1-.3711.0493A1.4419,1.4419,0,0,1,203.97,46.3168Z" style="fill:#b3b3b3"/><line x1="237.6275" y1="81.7269" x2="237.6275" y2="73.7269" style="fill:#ef464c;stroke:#ef464c;stroke-miterlimit:10;stroke-width:2px"/><path d="M230.6592,40.9267a1.0547,1.0547,0,0,1,.3223-.8608,1.18,1.18,0,0,1,.7769-.2661q1.3792,0,2.2261.0771v.7207H232.01a.4945.4945,0,0,0-.36.126.4754.4754,0,0,0-.1294.3574v1.043l2.1489.0488v.6792l-2.1489.0488v2.0649h-.8613Z" style="fill:#b3b3b3"/><path d="M234.6982,39.8h.8613v5.166h-.8613Z" style="fill:#b3b3b3"/><path d="M236.5811,39.8h.6929l2.3521,3.689V39.8h.8682v5.166h-.6934l-2.3516-3.689v3.689h-.8682Z" style="fill:#b3b3b3"/><path d="M241.7573,44.7836a.9472.9472,0,0,1-.3535-.875V40.9267a1.0547,1.0547,0,0,1,.3223-.8608,1.18,1.18,0,0,1,.7769-.2661q.6577,0,1.1338.021t1.0923.0562v.7207h-1.9531a.5374.5374,0,0,0-.3779.1226.4753.4753,0,0,0-.1328.3677v.917l2.1489.0488v.6792l-2.1489.0488v.8892a.4518.4518,0,0,0,.5039.5181h1.96V44.91q-.8818.0776-2.1279.0913A1.5792,1.5792,0,0,1,241.7573,44.7836Z" style="fill:#b3b3b3"/><path d="M269.6895,39.8h2.1353a1.5117,1.5117,0,0,1,1.0288.3535,1.7957,1.7957,0,0,1,.4063,1.3755q0,1.7783-1.4214,1.7778-.2168,0-.6367-.0347t-.6509-.07v1.7642h-.8613Zm2.0229,2.7231a.596.596,0,0,0,.5-.231,1.2514,1.2514,0,0,0,.1787-.7563q0-.9587-.6509-.959h-1.19v1.9463Z" style="fill:#b3b3b3"/><path d="M274.75,44.808a1.3146,1.3146,0,0,1-.6646-.7627,6.1686,6.1686,0,0,1,.0034-3.3076,1.36,1.36,0,0,1,.6685-.78,2.8234,2.8234,0,0,1,1.1831-.2065,2.8705,2.8705,0,0,1,1.1934.2065,1.3438,1.3438,0,0,1,.6685.7769,4.7594,4.7594,0,0,1,.2241,1.6626,4.6132,4.6132,0,0,1-.2275,1.6484,1.3335,1.3335,0,0,1-.665.7627,3.6566,3.6566,0,0,1-2.3838,0Zm1.9287-.7173a.8237.8237,0,0,0,.3677-.5283,4.5352,4.5352,0,0,0,.1118-1.1655,4.6718,4.6718,0,0,0-.1152-1.2041.8191.8191,0,0,0-.3677-.5322,1.618,1.618,0,0,0-.7349-.1328,1.536,1.536,0,0,0-.7212.1367.8414.8414,0,0,0-.3711.5317,4.49,4.49,0,0,0-.1191,1.2007,4.6236,4.6236,0,0,0,.1089,1.1689.8136.8136,0,0,0,.36.5249,2.0251,2.0251,0,0,0,1.48,0Z" style="fill:#b3b3b3"/><path d="M279.5454,44.9658a5.7919,5.7919,0,0,1-.7632-.1118v-.6792q.6306.0564,1.561.0562a1.5059,1.5059,0,0,0,.7109-.1333.5024.5024,0,0,0,.2412-.4829V43.37a.5542.5542,0,0,0-.1538-.42.6375.6375,0,0,0-.4551-.147h-.4829a1.634,1.634,0,0,1-1.1025-.3218,1.3206,1.3206,0,0,1-.3677-1.043v-.2661a1.3254,1.3254,0,0,1,.4063-1.0713,1.8251,1.8251,0,0,1,1.2036-.3428,7.1731,7.1731,0,0,1,.7949.0488q.43.0491.7383.1123v.6787q-.9448-.063-1.4351-.063a1.2267,1.2267,0,0,0-.6616.1436.5835.5835,0,0,0-.22.5288v.1748a.5547.5547,0,0,0,.1714.4551.814.814,0,0,0,.5215.14h.5391a1.31,1.31,0,0,1,.99.353,1.2924,1.2924,0,0,1,.34.9346v.3291a1.2459,1.2459,0,0,1-.4482,1.1094,2.2826,2.2826,0,0,1-1.2881.3047Q280.0073,45.0078,279.5454,44.9658Z" style="fill:#b3b3b3"/><line x1="275.8389" y1="81.7269" x2="275.8389" y2="73.7269" style="fill:#ef464c;stroke:#ef464c;stroke-miterlimit:10;stroke-width:2px"/><path d="M216.3267,128.8969a1.2394,1.2394,0,0,1-.6162-.7422,4.9571,4.9571,0,0,1-.21-1.6553,5.0133,5.0133,0,0,1,.2134-1.6694,1.3077,1.3077,0,0,1,.6265-.77,2.5726,2.5726,0,0,1,1.1064-.2,2.61,2.61,0,0,1,1.1235.2,1.2855,1.2855,0,0,1,.6157.7666,5.1567,5.1567,0,0,1,.2065,1.6729,4.9444,4.9444,0,0,1-.21,1.6553,1.2394,1.2394,0,0,1-.6162.7422,3.4723,3.4723,0,0,1-2.24,0Zm2.0332-.3394a1.0124,1.0124,0,0,0,.4727-.6338,4.917,4.917,0,0,0,.1538-1.4243,5.2368,5.2368,0,0,0-.1538-1.4771,1.0043,1.0043,0,0,0-.4727-.6406,2.1133,2.1133,0,0,0-.9131-.1572,2.0334,2.0334,0,0,0-.8857.1572,1.0538,1.0538,0,0,0-.4863.6475,4.8189,4.8189,0,0,0-.168,1.47,5.25,5.25,0,0,0,.1436,1.4282.9756.9756,0,0,0,.4619.63,2.132,2.132,0,0,0,.9346.1611A2.0706,2.0706,0,0,0,218.36,128.5576Z" style="fill:#1f2323"/><path d="M221.0269,129.0473q-.5-.0344-.7314-.0767v-.3081a15.177,15.177,0,0,0,1.5259.0562,1.7776,1.7776,0,0,0,.8823-.1821.7164.7164,0,0,0,.3149-.6792v-.3921a.83.83,0,0,0-.2031-.6055.8621.8621,0,0,0-.6367-.2065h-.5952a1.4652,1.4652,0,0,1-.9658-.2764,1.1307,1.1307,0,0,1-.3291-.9136v-.3008a1.2394,1.2394,0,0,1,.36-.9976,1.63,1.63,0,0,1,1.0747-.3047c.1909,0,.4375.0142.7383.042s.54.0562.7178.084v.3081q-1.0151-.07-1.4214-.07a1.3174,1.3174,0,0,0-.812.2065.8949.8949,0,0,0-.2656.7456v.2729a.764.764,0,0,0,.2275.63,1.0751,1.0751,0,0,0,.6821.1821h.623a1.0726,1.0726,0,0,1,1.1973,1.1616v.4272a1.0491,1.0491,0,0,1-.4272.959,2.11,2.11,0,0,1-1.1479.2729Q221.5271,129.0825,221.0269,129.0473Z" style="fill:#1f2323"/><path d="M225.0483,128.8759a1.2781,1.2781,0,0,1-.5635-.77,5.5763,5.5763,0,0,1-.1855-1.6484,5.2318,5.2318,0,0,1,.189-1.5923,1.3287,1.3287,0,0,1,.5845-.7842,2.2148,2.2148,0,0,1,1.0747-.2207,6.1075,6.1075,0,0,1,.6895.0493q.416.0491.7456.1187v.3013q-.1963-.0352-.6021-.07t-.7842-.0352a1.7715,1.7715,0,0,0-.8818.1821,1.085,1.085,0,0,0-.4619.6611,5.01,5.01,0,0,0-.147,1.39,5.515,5.515,0,0,0,.14,1.4351,1.0343,1.0343,0,0,0,.4448.6543,1.8121,1.8121,0,0,0,.8784.1719,9.6948,9.6948,0,0,0,1.4141-.0913v.3013a7.4255,7.4255,0,0,1-.7422.1118,7.3053,7.3053,0,0,1-.7417.042A2.2113,2.2113,0,0,1,225.0483,128.8759Z" style="fill:#1f2323"/><path d="M228.4785,123.9023h.4063V129.04h-.4062Z" style="fill:#1f2323"/><path d="M230.2881,128.82a.9345.9345,0,0,1-.2627-.7524v-4.165h.4063v4.1162a.6067.6067,0,0,0,.1782.5073.7448.7448,0,0,0,.4658.1367h1.9038v.3779h-1.9741A1.08,1.08,0,0,1,230.2881,128.82Z" style="fill:#1f2323"/><path d="M234.0049,128.82a.9345.9345,0,0,1-.2627-.7524v-4.165h.4063v4.1162a.6067.6067,0,0,0,.1782.5073.7448.7448,0,0,0,.4658.1367h1.9038v.3779h-1.9741A1.08,1.08,0,0,1,234.0049,128.82Z" style="fill:#1f2323"/><path d="M238.978,123.9023h.5249l1.813,5.1382h-.4268l-.5669-1.5962h-2.17l-.56,1.5962h-.4272Zm1.2251,3.1782-.9658-2.814-.98,2.814Z" style="fill:#1f2323"/><path d="M242.9961,124.2665h-1.645v-.3643h3.6963v.3643h-1.645V129.04h-.4062Z" style="fill:#1f2323"/><path d="M246.3916,128.8969a1.2394,1.2394,0,0,1-.6162-.7422,4.9571,4.9571,0,0,1-.21-1.6553,5.0133,5.0133,0,0,1,.2134-1.6694,1.3077,1.3077,0,0,1,.6265-.77,2.5726,2.5726,0,0,1,1.1064-.2,2.61,2.61,0,0,1,1.1235.2,1.2855,1.2855,0,0,1,.6157.7666,5.1567,5.1567,0,0,1,.2065,1.6729,4.9444,4.9444,0,0,1-.21,1.6553,1.2394,1.2394,0,0,1-.6162.7422,3.4723,3.4723,0,0,1-2.24,0Zm2.0332-.3394a1.0124,1.0124,0,0,0,.4727-.6338,4.917,4.917,0,0,0,.1538-1.4243,5.2368,5.2368,0,0,0-.1538-1.4771,1.0043,1.0043,0,0,0-.4727-.6406,2.1133,2.1133,0,0,0-.9131-.1572,2.0334,2.0334,0,0,0-.8857.1572,1.0538,1.0538,0,0,0-.4863.6475,4.8189,4.8189,0,0,0-.168,1.47,5.25,5.25,0,0,0,.1436,1.4282.9756.9756,0,0,0,.4619.63,2.132,2.132,0,0,0,.9346.1611A2.0706,2.0706,0,0,0,248.4248,128.5576Z" style="fill:#1f2323"/><path d="M250.4653,123.9023H252.46a1.3987,1.3987,0,0,1,.9346.3047,1.4858,1.4858,0,0,1,.36,1.1655,1.5516,1.5516,0,0,1-.2974,1.085,1.2344,1.2344,0,0,1-.7314.3711l1.0776,2.2119h-.4058l-1.0571-2.17q-.6716,0-1.47-.0283V129.04h-.4062Zm1.9463,2.6323a.9477.9477,0,0,0,.6895-.2417,1.2871,1.2871,0,0,0,.2485-.92,1.173,1.173,0,0,0-.252-.875.9785.9785,0,0,0-.686-.231h-1.54v2.2681Z" style="fill:#1f2323"/><path d="M256.4292,128.7045l1.96-1.8623a3.2915,3.2915,0,0,0,.6582-.8115,1.7987,1.7987,0,0,0,.189-.84.91.91,0,0,0-.27-.7036,1.4159,1.4159,0,0,0-.9556-.248h-1.3789v-.3013q.91-.0769,1.47-.0771a1.6849,1.6849,0,0,1,1.1831.34,1.2543,1.2543,0,0,1,.3569.9556,2.1027,2.1027,0,0,1-.2168.9658,3.52,3.52,0,0,1-.7349.917l-1.7012,1.624h2.8491v.3779h-3.4092Z" style="fill:#1f2323"/><line x1="185.2422" y1="134.5756" x2="290.0127" y2="134.5756" style="fill:none;stroke:#414f4f;stroke-miterlimit:10"/><path d="M187.2363,148.95a.9472.9472,0,0,1-.3535-.875v-2.9819a1.0547,1.0547,0,0,1,.3223-.8608,1.18,1.18,0,0,1,.7769-.2661q.6577,0,1.1338.021t1.0923.0562v.7207h-1.9531a.5374.5374,0,0,0-.3779.1226.4753.4753,0,0,0-.1328.3677v.917l2.1489.0488v.6792l-2.1489.0488v.8892a.4518.4518,0,0,0,.5039.5181h1.96v.7207q-.8818.0776-2.1279.0913A1.5792,1.5792,0,0,1,187.2363,148.95Z" style="fill:#b3b3b3"/><path d="M191.0967,143.9663h.6929l2.3521,3.689v-3.689h.8682v5.166h-.6934l-2.3516-3.689v3.689h-.8682Z" style="fill:#b3b3b3"/><path d="M197.2778,143.9663H198.37l1.68,5.166h-.9028l-.3989-1.2251h-1.8691l-.3921,1.2251h-.8887Zm1.26,3.1641-.728-2.4219-.728,2.4219Z" style="fill:#b3b3b3"/><path d="M200.6865,143.9663h1.9741q1.4282,0,1.4277,1.3442a1.3246,1.3246,0,0,1-.1992.7524.8845.8845,0,0,1-.5283.3813,1.1828,1.1828,0,0,1,.6333.4023,1.2919,1.2919,0,0,1,.2627.8574,1.3912,1.3912,0,0,1-.3784,1.0991,1.6842,1.6842,0,0,1-1.1338.3291h-2.0581Zm1.9883,2.1841a.5244.5244,0,0,0,.4268-.1963.8.8,0,0,0,.1611-.5249q0-.6855-.6089-.686h-1.106V146.15Zm.042,2.2051a.7129.7129,0,0,0,.5317-.1855.8537.8537,0,0,0,.1821-.6128.7188.7188,0,0,0-.2-.5386.7015.7015,0,0,0-.5142-.1963h-1.1689v1.5332Z" style="fill:#b3b3b3"/><path d="M205.31,148.8627a1.16,1.16,0,0,1-.2905-.8853v-4.0112h.8613v3.8711a.4932.4932,0,0,0,.1362.3989.5729.5729,0,0,0,.3745.1118h1.7148v.7842h-1.9316A1.231,1.231,0,0,1,205.31,148.8627Z" style="fill:#b3b3b3"/><path d="M209.1113,148.95a.9472.9472,0,0,1-.3535-.875v-2.9819a1.0547,1.0547,0,0,1,.3223-.8608,1.18,1.18,0,0,1,.7769-.2661q.6577,0,1.1338.021t1.0923.0562v.7207H210.13a.5374.5374,0,0,0-.3779.1226.4753.4753,0,0,0-.1328.3677v.917l2.1489.0488v.6792l-2.1489.0488v.8892a.4518.4518,0,0,0,.5039.5181h1.96v.7207q-.8818.0776-2.1279.0913A1.5792,1.5792,0,0,1,209.1113,148.95Z" style="fill:#b3b3b3"/><path d="M235.708,143.9663h2.1353a1.468,1.468,0,0,1,1.3613.6582,3.7336,3.7336,0,0,1,.4023,1.9248,3.46,3.46,0,0,1-.4409,1.9321,1.4909,1.4909,0,0,1-1.3228.6509H235.708Zm2.0513,4.3892a.79.79,0,0,0,.749-.4585,3.0156,3.0156,0,0,0,.2378-1.3477,4.4317,4.4317,0,0,0-.105-1.0918.9869.9869,0,0,0-.3184-.5532.9131.9131,0,0,0-.5635-.1611h-1.19v3.6123Z" style="fill:#b3b3b3"/><path d="M240.7935,148.95a.9472.9472,0,0,1-.3535-.875v-2.9819a1.0547,1.0547,0,0,1,.3223-.8608,1.18,1.18,0,0,1,.7769-.2661q.6577,0,1.1338.021t1.0923.0562v.7207H241.812a.5374.5374,0,0,0-.3779.1226.4753.4753,0,0,0-.1328.3677v.917l2.1489.0488v.6792l-2.1489.0488v.8892a.4518.4518,0,0,0,.5039.5181h1.96v.7207q-.8818.0776-2.1279.0913A1.5792,1.5792,0,0,1,240.7935,148.95Z" style="fill:#b3b3b3"/><path d="M245.7114,144.7431H244.227v-.7769h3.8291v.7769h-1.4771v4.3892h-.8677Z" style="fill:#b3b3b3"/><path d="M249.0884,148.8a1.5173,1.5173,0,0,1-.5073-1.3125v-3.521h.8608v3.521a.8071.8071,0,0,0,.28.6963,1.7831,1.7831,0,0,0,1.666,0,.8082.8082,0,0,0,.28-.6963v-3.521h.8608v3.521a1.5173,1.5173,0,0,1-.5073,1.3125,3.1087,3.1087,0,0,1-2.9331,0Z" style="fill:#b3b3b3"/><path d="M253.481,143.9663h.6929l2.3521,3.689v-3.689h.8682v5.166h-.6934l-2.3516-3.689v3.689h-.8682Z" style="fill:#b3b3b3"/><path d="M258.6572,148.95a.9472.9472,0,0,1-.3535-.875v-2.9819a1.0547,1.0547,0,0,1,.3223-.8608,1.18,1.18,0,0,1,.7769-.2661q.6577,0,1.1338.021t1.0923.0562v.7207h-1.9531a.5374.5374,0,0,0-.3779.1226.4753.4753,0,0,0-.1328.3677v.917l2.1489.0488v.6792l-2.1489.0488v.8892a.4518.4518,0,0,0,.5039.5181h1.96v.7207q-.8818.0776-2.1279.0913A1.5792,1.5792,0,0,1,258.6572,148.95Z" style="fill:#b3b3b3"/><line x1="264.3505" y1="163.7773" x2="260.2021" y2="163.7783" style="fill:#ef464c;stroke:#ef464c;stroke-miterlimit:10;stroke-width:2px"/><line x1="264.3505" y1="205.028" x2="260.2021" y2="205.029" style="fill:#ef464c;stroke:#ef464c;stroke-miterlimit:10;stroke-width:2px"/><path d="M241.3335,185.2163h2.1353a1.5117,1.5117,0,0,1,1.0288.3535,1.797,1.797,0,0,1,.4063,1.376q0,1.7783-1.4214,1.7773c-.1445,0-.3569-.0107-.6367-.0342s-.4971-.0469-.6509-.07v1.7637h-.8613Zm2.0229,2.7236a.5951.5951,0,0,0,.5-.2314,1.2507,1.2507,0,0,0,.1787-.7559q0-.9595-.6509-.959h-1.19V187.94Z" style="fill:#b3b3b3"/><path d="M246.3945,190.225a1.3161,1.3161,0,0,1-.6646-.7627,6.1686,6.1686,0,0,1,.0034-3.3076,1.3588,1.3588,0,0,1,.6685-.78,2.8227,2.8227,0,0,1,1.1831-.207,2.87,2.87,0,0,1,1.1934.207,1.3442,1.3442,0,0,1,.6685.7764,4.7625,4.7625,0,0,1,.2241,1.6631,4.6168,4.6168,0,0,1-.2275,1.6484,1.335,1.335,0,0,1-.665.7627,3.6651,3.6651,0,0,1-2.3838,0Zm1.9287-.7178a.8224.8224,0,0,0,.3677-.5283,4.5309,4.5309,0,0,0,.1118-1.165,4.6666,4.6666,0,0,0-.1152-1.2041.8178.8178,0,0,0-.3677-.5322,1.6115,1.6115,0,0,0-.7349-.1328,1.53,1.53,0,0,0-.7212.1367.84.84,0,0,0-.3711.5313,4.4916,4.4916,0,0,0-.1191,1.2012,4.6236,4.6236,0,0,0,.1089,1.1689.8112.8112,0,0,0,.36.5244,2.0186,2.0186,0,0,0,1.48,0Z" style="fill:#b3b3b3"/><path d="M251.1895,190.3823a5.8019,5.8019,0,0,1-.7632-.1113v-.68q.6306.0571,1.561.0566a1.5052,1.5052,0,0,0,.7109-.1338.5011.5011,0,0,0,.2412-.4824v-.2451a.5535.5535,0,0,0-.1538-.42.6376.6376,0,0,0-.4551-.1475h-.4829a1.6366,1.6366,0,0,1-1.1025-.3213,1.3206,1.3206,0,0,1-.3677-1.043v-.2666a1.326,1.326,0,0,1,.4063-1.0713,1.8251,1.8251,0,0,1,1.2036-.3428,7.1731,7.1731,0,0,1,.7949.0488q.43.05.7383.1123v.6787q-.9448-.063-1.4351-.0625a1.2267,1.2267,0,0,0-.6616.1436.5825.5825,0,0,0-.22.5283v.1748a.5541.5541,0,0,0,.1714.4551.8109.8109,0,0,0,.5215.1406h.5391a1.31,1.31,0,0,1,.99.3525,1.294,1.294,0,0,1,.34.9346v.3291a1.2448,1.2448,0,0,1-.4482,1.1094,2.2826,2.2826,0,0,1-1.2881.3047Q251.6514,190.4243,251.1895,190.3823Z" style="fill:#b3b3b3"/><path d="M191.87,190.3832a5.782,5.782,0,0,1-.7632-.1123v-.6787q.6306.0557,1.561.0557a1.5066,1.5066,0,0,0,.7109-.1328.5036.5036,0,0,0,.2412-.4834v-.2451a.5549.5549,0,0,0-.1538-.42.6374.6374,0,0,0-.4551-.1465h-.4829a1.6314,1.6314,0,0,1-1.1025-.3223,1.3206,1.3206,0,0,1-.3677-1.043v-.2656a1.3247,1.3247,0,0,1,.4063-1.0713,1.8251,1.8251,0,0,1,1.2036-.3428,7.1731,7.1731,0,0,1,.7949.0488c.2866.0322.5327.07.7383.1123v.6787q-.9448-.063-1.4351-.0635a1.2267,1.2267,0,0,0-.6616.1436.5844.5844,0,0,0-.22.5293v.1748a.5554.5554,0,0,0,.1714.4551.817.817,0,0,0,.5215.14h.5391a1.31,1.31,0,0,1,.99.3535,1.2909,1.2909,0,0,1,.34.9346v.3291a1.2471,1.2471,0,0,1-.4482,1.1094,2.2826,2.2826,0,0,1-1.2881.3047C192.458,190.4252,192.1782,190.4106,191.87,190.3832Z" style="fill:#b3b3b3"/><path d="M196.5459,188.7661l-1.582-3.5488h.896l1.1343,2.667,1.1338-2.667h.875l-1.5889,3.5488v1.6172h-.8682Z" style="fill:#b3b3b3"/><path d="M199.7031,185.2172h.6929l2.3521,3.6885v-3.6885h.8682v5.166h-.6934l-2.3516-3.6895v3.6895h-.8682Z" style="fill:#b3b3b3"/><path d="M205.1978,190.2182a1.34,1.34,0,0,1-.5981-.78,5.14,5.14,0,0,1-.2065-1.6592,4.808,4.808,0,0,1,.21-1.6,1.402,1.402,0,0,1,.6157-.791,2.1989,2.1989,0,0,1,1.05-.22,5.3568,5.3568,0,0,1,.8433.0664,5.4419,5.4419,0,0,1,.7246.1572v.665a5.9253,5.9253,0,0,0-.5986-.0771q-.3882-.0352-.7944-.0352a1.436,1.436,0,0,0-.71.1436.8517.8517,0,0,0-.36.5361,4.544,4.544,0,0,0-.1123,1.1689,4.83,4.83,0,0,0,.1055,1.1689.85.85,0,0,0,.35.5391,1.4281,1.4281,0,0,0,.7212.1465,11.0927,11.0927,0,0,0,1.4-.0771v.665a5.6758,5.6758,0,0,1-1.5889.1895A2.2637,2.2637,0,0,1,205.1978,190.2182Z" style="fill:#b3b3b3"/><path d="M213.7544,202.4575l-.5249-4.5361-1.3369,4.5361h-.3779l-1.3579-4.5078-.5044,4.5078H209.26l.5811-5.1387h.4414l1.4209,4.6,1.4-4.6h.4478l.5952,5.1387Z" style="fill:#1f2323"/><path d="M216.6665,197.3188h.5249l1.813,5.1387h-.4268l-.5669-1.5967h-2.17l-.56,1.5967h-.4272Zm1.2251,3.1787-.9658-2.8145-.98,2.8145Z" style="fill:#1f2323"/><path d="M219.8442,197.3188h.4063v5.1387h-.4062Z" style="fill:#1f2323"/><path d="M221.5034,197.3188h.3428l2.8418,4.4316v-4.4316h.4063v5.1387h-.3359l-2.8491-4.4316v4.4316h-.4058Z" style="fill:#1f2323"/><path d="M210.1006,211.69a1.2379,1.2379,0,0,1-.6162-.7422,4.9532,4.9532,0,0,1-.21-1.6553,5.0081,5.0081,0,0,1,.2134-1.6689,1.3073,1.3073,0,0,1,.6265-.7705,2.5732,2.5732,0,0,1,1.1064-.1992,2.6105,2.6105,0,0,1,1.1235.1992,1.2855,1.2855,0,0,1,.6157.7666,5.1567,5.1567,0,0,1,.2065,1.6729,4.94,4.94,0,0,1-.21,1.6553,1.2379,1.2379,0,0,1-.6162.7422,3.4723,3.4723,0,0,1-2.24,0Zm2.0332-.3389a1.0124,1.0124,0,0,0,.4727-.6338,4.9231,4.9231,0,0,0,.1538-1.4248,5.2352,5.2352,0,0,0-.1538-1.4766,1.0017,1.0017,0,0,0-.4727-.6406,2.106,2.106,0,0,0-.9131-.1572,2.0263,2.0263,0,0,0-.8857.1572,1.0524,1.0524,0,0,0-.4863.6475,4.8153,4.8153,0,0,0-.168,1.47,5.2561,5.2561,0,0,0,.1436,1.4287.9756.9756,0,0,0,.4619.63,2.132,2.132,0,0,0,.9346.1611A2.0706,2.0706,0,0,0,212.1338,211.351Z" style="fill:#1f2323"/><path d="M214.1743,207.683a.9429.9429,0,0,1,.2729-.7529.9968.9968,0,0,1,.6724-.2344q.9866,0,2.1416.0557v.3154h-2.0439a.6318.6318,0,0,0-.4687.168.6729.6729,0,0,0-.168.4971v1.47l2.3867.0352v.3008l-2.3867.0352v2.2607h-.4062Z" style="fill:#1f2323"/><path d="M218.0454,207.683a.9429.9429,0,0,1,.2729-.7529.9968.9968,0,0,1,.6724-.2344q.9866,0,2.1416.0557v.3154h-2.0439a.6318.6318,0,0,0-.4687.168.6729.6729,0,0,0-.168.4971v1.47l2.3867.0352v.3008l-2.3867.0352v2.2607h-.4062Z" style="fill:#1f2323"/><path d="M216.334,246.2748a1.2379,1.2379,0,0,1-.6162-.7422,4.9532,4.9532,0,0,1-.21-1.6553,5.0081,5.0081,0,0,1,.2134-1.6689,1.3073,1.3073,0,0,1,.6265-.7705,2.5732,2.5732,0,0,1,1.1064-.1992,2.6105,2.6105,0,0,1,1.1235.1992,1.2855,1.2855,0,0,1,.6157.7666,5.1567,5.1567,0,0,1,.2065,1.6729,4.94,4.94,0,0,1-.21,1.6553,1.2379,1.2379,0,0,1-.6162.7422,3.4723,3.4723,0,0,1-2.24,0Zm2.0332-.3389a1.0124,1.0124,0,0,0,.4727-.6338,4.9231,4.9231,0,0,0,.1538-1.4248,5.2352,5.2352,0,0,0-.1538-1.4766,1.0017,1.0017,0,0,0-.4727-.6406,2.106,2.106,0,0,0-.9131-.1572,2.0263,2.0263,0,0,0-.8857.1572,1.0524,1.0524,0,0,0-.4863.6475,4.8153,4.8153,0,0,0-.168,1.47,5.2561,5.2561,0,0,0,.1436,1.4287.9756.9756,0,0,0,.4619.63,2.132,2.132,0,0,0,.9346.1611A2.0706,2.0706,0,0,0,218.3672,245.936Z" style="fill:#1f2323"/><path d="M221.0342,246.4252c-.3335-.0225-.5771-.0488-.7314-.0762V246.04a15.1441,15.1441,0,0,0,1.5259.0566,1.7771,1.7771,0,0,0,.8823-.1826.7156.7156,0,0,0,.3149-.6787v-.3926a.83.83,0,0,0-.2031-.6055.8641.8641,0,0,0-.6367-.2061h-.5952a1.4652,1.4652,0,0,1-.9658-.2764,1.1324,1.1324,0,0,1-.3291-.9141V242.54a1.2383,1.2383,0,0,1,.36-.9971,1.63,1.63,0,0,1,1.0747-.3047c.1909,0,.4375.0137.7383.042s.54.0557.7178.084v.3076q-1.0151-.0688-1.4214-.0693a1.3176,1.3176,0,0,0-.812.2061.896.896,0,0,0-.2656.7461v.2725a.7628.7628,0,0,0,.2275.63,1.072,1.072,0,0,0,.6821.1826h.623a1.0719,1.0719,0,0,1,1.1973,1.1611v.4277a1.05,1.05,0,0,1-.4272.959,2.1143,2.1143,0,0,1-1.1479.2725Q221.5344,246.46,221.0342,246.4252Z" style="fill:#1f2323"/><path d="M225.0557,246.2543a1.2793,1.2793,0,0,1-.5635-.7705,5.5741,5.5741,0,0,1-.1855-1.6484,5.2283,5.2283,0,0,1,.189-1.5918,1.3272,1.3272,0,0,1,.5845-.7842,2.2092,2.2092,0,0,1,1.0747-.2207,6.2074,6.2074,0,0,1,.6895.0488c.2773.0332.5259.0723.7456.1191v.3008q-.1963-.0352-.6021-.0693t-.7842-.0352a1.7772,1.7772,0,0,0-.8818.1816,1.085,1.085,0,0,0-.4619.6611,5.012,5.012,0,0,0-.147,1.39,5.5193,5.5193,0,0,0,.14,1.4355,1.0356,1.0356,0,0,0,.4448.6543,1.8178,1.8178,0,0,0,.8784.1719,9.6891,9.6891,0,0,0,1.4141-.0918v.3018a7.4321,7.4321,0,0,1-.7422.1113,7.1665,7.1665,0,0,1-.7417.042A2.2118,2.2118,0,0,1,225.0557,246.2543Z" style="fill:#1f2323"/><path d="M228.4858,241.2807h.4063v5.1377h-.4062Z" style="fill:#1f2323"/><path d="M230.2954,246.1977a.9334.9334,0,0,1-.2627-.752v-4.165h.4063v4.1162a.6062.6062,0,0,0,.1782.5068.7417.7417,0,0,0,.4658.1367h1.9038v.3779h-1.9741A1.0778,1.0778,0,0,1,230.2954,246.1977Z" style="fill:#1f2323"/><path d="M234.0122,246.1977a.9334.9334,0,0,1-.2627-.752v-4.165h.4063v4.1162a.6062.6062,0,0,0,.1782.5068.7417.7417,0,0,0,.4658.1367h1.9038v.3779h-1.9741A1.0778,1.0778,0,0,1,234.0122,246.1977Z" style="fill:#1f2323"/><path d="M238.9853,241.2807h.5249l1.813,5.1377h-.4268l-.5669-1.5957h-2.17l-.56,1.5957h-.4272Zm1.2251,3.1777-.9658-2.8135-.98,2.8135Z" style="fill:#1f2323"/><path d="M243.0034,241.645h-1.645v-.3643h3.6963v.3643H243.41v4.7734h-.4062Z" style="fill:#1f2323"/><path d="M246.3989,246.2748a1.2379,1.2379,0,0,1-.6162-.7422,4.9532,4.9532,0,0,1-.21-1.6553,5.0081,5.0081,0,0,1,.2134-1.6689,1.3073,1.3073,0,0,1,.6265-.7705,2.5732,2.5732,0,0,1,1.1064-.1992,2.6105,2.6105,0,0,1,1.1235.1992,1.2855,1.2855,0,0,1,.6157.7666,5.1567,5.1567,0,0,1,.2065,1.6729,4.94,4.94,0,0,1-.21,1.6553,1.2379,1.2379,0,0,1-.6162.7422,3.4723,3.4723,0,0,1-2.24,0Zm2.0332-.3389a1.0124,1.0124,0,0,0,.4727-.6338,4.9231,4.9231,0,0,0,.1538-1.4248,5.2353,5.2353,0,0,0-.1538-1.4766,1.0017,1.0017,0,0,0-.4727-.6406,2.106,2.106,0,0,0-.9131-.1572,2.0263,2.0263,0,0,0-.8857.1572,1.0524,1.0524,0,0,0-.4863.6475,4.8153,4.8153,0,0,0-.168,1.47,5.2561,5.2561,0,0,0,.1436,1.4287.9756.9756,0,0,0,.4619.63,2.132,2.132,0,0,0,.9346.1611A2.0706,2.0706,0,0,0,248.4321,245.936Z" style="fill:#1f2323"/><path d="M250.4727,241.2807h1.9951a1.3987,1.3987,0,0,1,.9346.3047,1.4846,1.4846,0,0,1,.36,1.165,1.5508,1.5508,0,0,1-.2974,1.085,1.2317,1.2317,0,0,1-.7314.3711l1.0776,2.2119h-.4058l-1.0571-2.17q-.6716,0-1.47-.0283v2.1982h-.4062Zm1.9463,2.6318a.9475.9475,0,0,0,.6895-.2412,1.2877,1.2877,0,0,0,.2485-.9209,1.1745,1.1745,0,0,0-.252-.875.9805.9805,0,0,0-.686-.23h-1.54v2.2676Z" style="fill:#1f2323"/><path d="M256.3525,246.3911v-.3086h1.7148a1.514,1.514,0,0,0,.8159-.1885.7492.7492,0,0,0,.2974-.6865V244.83a.6822.6822,0,0,0-.28-.6094,1.2609,1.2609,0,0,0-.6787-.2021l-1.3369-.05v-.2861l1.3228-.05c.6021-.0225.9033-.2705.9033-.7412v-.3994a.7863.7863,0,0,0-.28-.6475,1.2629,1.2629,0,0,0-.812-.2275h-1.47v-.3076a14.129,14.129,0,0,1,1.6167-.07,1.406,1.406,0,0,1,1.0083.3223,1.1467,1.1467,0,0,1,.3359.8672v.4551a.85.85,0,0,1-.2485.6689,1.0748,1.0748,0,0,1-.5215.27,1.1955,1.1955,0,0,1,.3745.1543,1.0359,1.0359,0,0,1,.3428.3457,1.0111,1.0111,0,0,1,.1436.55v.3926a1.0942,1.0942,0,0,1-.3677.8887,1.5865,1.5865,0,0,1-1.0464.3076Q257.1018,246.46,256.3525,246.3911Z" style="fill:#1f2323"/><line x1="185.2492" y1="251.9539" x2="290.0197" y2="251.9539" style="fill:none;stroke:#414f4f;stroke-miterlimit:10"/><path d="M187.2432,266.3286a.9467.9467,0,0,1-.3535-.875v-2.9814a1.0564,1.0564,0,0,1,.3223-.8613,1.1824,1.1824,0,0,1,.7769-.2656q.6577,0,1.1338.0205t1.0923.0566v.7207h-1.9531a.54.54,0,0,0-.3779.1221.4757.4757,0,0,0-.1328.3682v.917l2.1489.0488v.6787l-2.1489.0488v.89a.4517.4517,0,0,0,.5039.5176h1.96v.7207q-.8818.0776-2.1279.0918A1.575,1.575,0,0,1,187.2432,266.3286Z" style="fill:#b3b3b3"/><path d="M191.1035,261.3452h.6929l2.3521,3.6885v-3.6885h.8682v5.166h-.6934l-2.3516-3.6895v3.6895h-.8682Z" style="fill:#b3b3b3"/><path d="M197.2847,261.3452h1.0923l1.68,5.166h-.9028l-.3989-1.2256h-1.8691l-.3921,1.2256h-.8887Zm1.26,3.1641-.728-2.4219-.728,2.4219Z" style="fill:#b3b3b3"/><path d="M200.6934,261.3452h1.9741q1.4282,0,1.4277,1.3438a1.3252,1.3252,0,0,1-.1992.7529.8817.8817,0,0,1-.5283.3809,1.1856,1.1856,0,0,1,.6333.4023,1.2928,1.2928,0,0,1,.2627.8574,1.3931,1.3931,0,0,1-.3784,1.1,1.6842,1.6842,0,0,1-1.1338.3291h-2.0581Zm1.9883,2.1836a.5244.5244,0,0,0,.4268-.1963.7974.7974,0,0,0,.1611-.5244q0-.6855-.6089-.6865h-1.106v1.4072Zm.042,2.2051a.711.711,0,0,0,.5317-.1855.8523.8523,0,0,0,.1821-.6123.7207.7207,0,0,0-.2-.5391.7015.7015,0,0,0-.5142-.1963h-1.1689v1.5332Z" style="fill:#b3b3b3"/><path d="M205.3169,266.2416a1.161,1.161,0,0,1-.2905-.8857v-4.0107h.8613v3.8711a.4913.4913,0,0,0,.1362.3984.57.57,0,0,0,.3745.1123h1.7148v.7842h-1.9316A1.231,1.231,0,0,1,205.3169,266.2416Z" style="fill:#b3b3b3"/><path d="M209.1182,266.3286a.9467.9467,0,0,1-.3535-.875v-2.9814a1.0564,1.0564,0,0,1,.3223-.8613,1.1824,1.1824,0,0,1,.7769-.2656q.6577,0,1.1338.0205t1.0923.0566v.7207h-1.9531a.54.54,0,0,0-.3779.1221.4757.4757,0,0,0-.1328.3682v.917l2.1489.0488v.6787l-2.1489.0488v.89a.4517.4517,0,0,0,.5039.5176h1.96v.7207q-.8818.0776-2.1279.0918A1.575,1.575,0,0,1,209.1182,266.3286Z" style="fill:#b3b3b3"/><path d="M235.7148,261.3442h2.1357a1.47,1.47,0,0,1,1.3613.6582,3.7386,3.7386,0,0,1,.4023,1.9248,3.4619,3.4619,0,0,1-.4414,1.9326,1.4907,1.4907,0,0,1-1.3223.65h-2.1357Zm2.0518,4.39a.7911.7911,0,0,0,.749-.459,3.0165,3.0165,0,0,0,.2373-1.3477,4.4624,4.4624,0,0,0-.1045-1.0918.9909.9909,0,0,0-.3184-.5527.9141.9141,0,0,0-.5635-.1611h-1.19v3.6123Z" style="fill:#b3b3b3"/><path d="M240.8008,266.3286a.9467.9467,0,0,1-.3535-.875v-2.9824a1.0529,1.0529,0,0,1,.3223-.86,1.1767,1.1767,0,0,1,.7764-.2666q.6577,0,1.1338.0215t1.0928.0557v.7207h-1.9531a.5336.5336,0,0,0-.3779.123.4749.4749,0,0,0-.1328.3672v.917l2.1484.0488v.68l-2.1484.0488v.8887a.452.452,0,0,0,.5039.5186h1.96v.7207q-.8818.0776-2.1279.0908A1.581,1.581,0,0,1,240.8008,266.3286Z" style="fill:#b3b3b3"/><path d="M245.7187,262.1215h-1.4844v-.7773h3.8291v.7773h-1.4775V266.51h-.8672Z" style="fill:#b3b3b3"/><path d="M249.0957,266.1782a1.5162,1.5162,0,0,1-.5078-1.3125v-3.5215h.8613v3.5215a.807.807,0,0,0,.28.6963,1.7868,1.7868,0,0,0,1.666,0,.8092.8092,0,0,0,.2793-.6963v-3.5215h.8613v3.5215a1.5162,1.5162,0,0,1-.5078,1.3125,3.1113,3.1113,0,0,1-2.9326,0Z" style="fill:#b3b3b3"/><path d="M253.4883,261.3442h.6924l2.3525,3.6895v-3.6895h.8682v5.166h-.6934l-2.3516-3.6885V266.51h-.8682Z" style="fill:#b3b3b3"/><path d="M258.6641,266.3286a.9488.9488,0,0,1-.3535-.875v-2.9824a1.0529,1.0529,0,0,1,.3223-.86,1.1793,1.1793,0,0,1,.7773-.2666q.6577,0,1.1338.0215t1.0918.0557v.7207h-1.9531a.5369.5369,0,0,0-.3779.123.4749.4749,0,0,0-.1328.3672v.917l2.1494.0488v.68l-2.1494.0488v.8887a.452.452,0,0,0,.5039.5186h1.96v.7207q-.8818.0776-2.1279.0908A1.5858,1.5858,0,0,1,258.6641,266.3286Z" style="fill:#b3b3b3"/><line x1="264.3575" y1="281.1556" x2="260.2091" y2="281.1565" style="fill:#ef464c;stroke:#ef464c;stroke-miterlimit:10;stroke-width:2px"/><line x1="264.3575" y1="322.4063" x2="260.2091" y2="322.4073" style="fill:#ef464c;stroke:#ef464c;stroke-miterlimit:10;stroke-width:2px"/><path d="M241.34,302.5952h2.1353a1.5117,1.5117,0,0,1,1.0288.3535,1.7944,1.7944,0,0,1,.4063,1.375q0,1.7783-1.4214,1.7783-.2168,0-.6367-.0352t-.6509-.07v1.7646H241.34Zm2.0229,2.7227a.597.597,0,0,0,.5-.23,1.2521,1.2521,0,0,0,.1787-.7568q0-.958-.6509-.959h-1.19v1.9463Z" style="fill:#b3b3b3"/><path d="M246.4014,307.603a1.3132,1.3132,0,0,1-.6646-.7627,6.1686,6.1686,0,0,1,.0034-3.3076,1.3619,1.3619,0,0,1,.6685-.78,2.8241,2.8241,0,0,1,1.1831-.2061,2.8712,2.8712,0,0,1,1.1934.2061,1.3433,1.3433,0,0,1,.6685.7773,4.7563,4.7563,0,0,1,.2241,1.6621,4.61,4.61,0,0,1-.2275,1.6484,1.3319,1.3319,0,0,1-.665.7627,3.6482,3.6482,0,0,1-2.3838,0Zm1.9287-.7168a.825.825,0,0,0,.3677-.5283,4.54,4.54,0,0,0,.1118-1.166,4.6769,4.6769,0,0,0-.1152-1.2041.82.82,0,0,0-.3677-.5322,1.6246,1.6246,0,0,0-.7349-.1328,1.5422,1.5422,0,0,0-.7212.1367.8426.8426,0,0,0-.3711.5322,4.4883,4.4883,0,0,0-.1191,1.2,4.6236,4.6236,0,0,0,.1089,1.1689.816.816,0,0,0,.36.5254,2.0317,2.0317,0,0,0,1.48,0Z" style="fill:#b3b3b3"/><path d="M251.1963,307.7612a5.782,5.782,0,0,1-.7632-.1123V306.97q.6306.0557,1.561.0557a1.5066,1.5066,0,0,0,.7109-.1328.5036.5036,0,0,0,.2412-.4834v-.2451a.5549.5549,0,0,0-.1538-.42.6374.6374,0,0,0-.4551-.1465h-.4829a1.6314,1.6314,0,0,1-1.1025-.3223,1.3206,1.3206,0,0,1-.3677-1.043v-.2656a1.3247,1.3247,0,0,1,.4063-1.0713,1.8251,1.8251,0,0,1,1.2036-.3428,7.1731,7.1731,0,0,1,.7949.0488c.2866.0322.5327.07.7383.1123v.6787q-.9448-.063-1.4351-.0635a1.2267,1.2267,0,0,0-.6616.1436.5844.5844,0,0,0-.22.5293v.1748a.5554.5554,0,0,0,.1714.4551.817.817,0,0,0,.5215.14h.5391a1.31,1.31,0,0,1,.99.3535,1.2909,1.2909,0,0,1,.34.9346v.3291a1.2471,1.2471,0,0,1-.4482,1.1094,2.2826,2.2826,0,0,1-1.2881.3047C251.7842,307.8032,251.5044,307.7885,251.1963,307.7612Z" style="fill:#b3b3b3"/><path d="M191.877,307.7612a5.773,5.773,0,0,1-.7627-.1123V306.97c.42.0381.94.0557,1.5605.0557a1.5053,1.5053,0,0,0,.7109-.1328.5012.5012,0,0,0,.2412-.4824v-.2461a.5547.5547,0,0,0-.1533-.42.639.639,0,0,0-.4551-.1465h-.4834a1.6314,1.6314,0,0,1-1.1025-.3223,1.3205,1.3205,0,0,1-.3672-1.043v-.2656a1.3245,1.3245,0,0,1,.4063-1.0713,1.8245,1.8245,0,0,1,1.2031-.3428,7.1661,7.1661,0,0,1,.7949.0488q.4307.05.7383.1123v.6787q-.9448-.063-1.4346-.0625a1.2306,1.2306,0,0,0-.6621.1426.5853.5853,0,0,0-.22.5293v.1748a.5539.5539,0,0,0,.1709.4551.817.817,0,0,0,.5215.14h.5391a1.309,1.309,0,0,1,.99.3535,1.2924,1.2924,0,0,1,.34.9346v.3291a1.2459,1.2459,0,0,1-.4482,1.1094,2.28,2.28,0,0,1-1.2881.3047C192.4648,307.8032,192.1855,307.7895,191.877,307.7612Z" style="fill:#b3b3b3"/><path d="M196.5527,306.144l-1.582-3.5488h.8965l1.1338,2.667,1.1338-2.667h.875l-1.5889,3.5488v1.6172h-.8682Z" style="fill:#b3b3b3"/><path d="M199.71,302.5952h.6934l2.3516,3.6885v-3.6885h.8682v5.166H202.93l-2.3516-3.6885v3.6885H199.71Z" style="fill:#b3b3b3"/><path d="M205.2051,307.5961a1.3361,1.3361,0,0,1-.5986-.7793,5.1449,5.1449,0,0,1-.2061-1.66,4.7952,4.7952,0,0,1,.21-1.6,1.3994,1.3994,0,0,1,.6152-.791,2.2024,2.2024,0,0,1,1.0508-.22,5.88,5.88,0,0,1,1.5674.2236v.665a5.8866,5.8866,0,0,0-.5986-.0771q-.3882-.0352-.7939-.0352a1.4371,1.4371,0,0,0-.7109.1445.853.853,0,0,0-.36.5352,4.5714,4.5714,0,0,0-.1123,1.1689,4.8248,4.8248,0,0,0,.1055,1.1689.8469.8469,0,0,0,.35.5391,1.4314,1.4314,0,0,0,.7217.1465,11.2928,11.2928,0,0,0,1.3994-.0762v.6641a5.6374,5.6374,0,0,1-1.5889.1895A2.2506,2.2506,0,0,1,205.2051,307.5961Z" style="fill:#b3b3b3"/><path d="M213.7612,318.6987l-.5249-4.5361-1.3369,4.5361h-.3779l-1.3579-4.5078-.5044,4.5078h-.3921l.5811-5.1377h.4414L211.71,318.16l1.4-4.5986h.4478l.5952,5.1377Z" style="fill:#1f2323"/><path d="M216.6733,313.561h.5249l1.813,5.1377h-.4268l-.5669-1.5957h-2.17l-.56,1.5957H214.86Zm1.2251,3.1777-.9658-2.8135-.98,2.8135Z" style="fill:#1f2323"/><path d="M219.8511,313.561h.4063v5.1377h-.4062Z" style="fill:#1f2323"/><path d="M221.51,313.561h.3428l2.8418,4.4307V313.561h.4063v5.1377h-.3359l-2.8491-4.4307v4.4307H221.51Z" style="fill:#1f2323"/><path d="M210.1074,337.308a1.2408,1.2408,0,0,1-.6162-.7422,4.9611,4.9611,0,0,1-.21-1.6553,5.0185,5.0185,0,0,1,.2134-1.67,1.3081,1.3081,0,0,1,.6265-.77,2.572,2.572,0,0,1,1.1064-.2,2.6091,2.6091,0,0,1,1.1235.2,1.2855,1.2855,0,0,1,.6157.7666,5.1567,5.1567,0,0,1,.2065,1.6729,4.9483,4.9483,0,0,1-.21,1.6553,1.2408,1.2408,0,0,1-.6162.7422,3.4723,3.4723,0,0,1-2.24,0Zm2.0332-.34a1.0124,1.0124,0,0,0,.4727-.6338,4.9109,4.9109,0,0,0,.1538-1.4238,5.2384,5.2384,0,0,0-.1538-1.4775,1.0069,1.0069,0,0,0-.4727-.6406,2.1207,2.1207,0,0,0-.9131-.1572,2.0406,2.0406,0,0,0-.8857.1572,1.0553,1.0553,0,0,0-.4863.6475,4.8224,4.8224,0,0,0-.168,1.4707,5.2431,5.2431,0,0,0,.1436,1.4277.9756.9756,0,0,0,.4619.63,2.132,2.132,0,0,0,.9346.1611A2.0706,2.0706,0,0,0,212.1406,336.9682Z" style="fill:#1f2323"/><path d="M214.1812,333.3a.942.942,0,0,1,.2729-.752.9975.9975,0,0,1,.6724-.2354q.9866,0,2.1416.0566v.3145h-2.0439a.6357.6357,0,0,0-.4687.168.6744.6744,0,0,0-.168.4971V334.82l2.3867.0342v.3018l-2.3867.0342v2.2617h-.4062Z" style="fill:#1f2323"/><path d="M218.0522,333.3a.942.942,0,0,1,.2729-.752.9975.9975,0,0,1,.6724-.2354q.9866,0,2.1416.0566v.3145h-2.0439a.6357.6357,0,0,0-.4687.168.6744.6744,0,0,0-.168.4971V334.82l2.3867.0342v.3018l-2.3867.0342v2.2617h-.4062Z" style="fill:#1f2323"/><path d="M210.1079,327.9321a1.2408,1.2408,0,0,1-.6162-.7422,4.9611,4.9611,0,0,1-.21-1.6553,5.0185,5.0185,0,0,1,.2134-1.67,1.3081,1.3081,0,0,1,.6265-.77,2.572,2.572,0,0,1,1.1064-.2,2.6091,2.6091,0,0,1,1.1235.2,1.2855,1.2855,0,0,1,.6157.7666,5.1567,5.1567,0,0,1,.2065,1.6729,4.9483,4.9483,0,0,1-.21,1.6553,1.2408,1.2408,0,0,1-.6162.7422,3.4723,3.4723,0,0,1-2.24,0Zm2.0332-.34a1.0124,1.0124,0,0,0,.4727-.6338,4.9109,4.9109,0,0,0,.1538-1.4238,5.2384,5.2384,0,0,0-.1538-1.4775,1.0069,1.0069,0,0,0-.4727-.6406,2.1207,2.1207,0,0,0-.9131-.1572,2.0406,2.0406,0,0,0-.8857.1572,1.0553,1.0553,0,0,0-.4863.6475,4.8224,4.8224,0,0,0-.168,1.4707,5.2431,5.2431,0,0,0,.1436,1.4277.9756.9756,0,0,0,.4619.63,2.132,2.132,0,0,0,.9346.1611A2.0706,2.0706,0,0,0,212.1411,327.5922Z" style="fill:#1f2323"/><path d="M214.8081,328.0825q-.5-.0352-.7314-.0771v-.3076a15.21,15.21,0,0,0,1.5259.0557,1.778,1.778,0,0,0,.8823-.1816.7173.7173,0,0,0,.3149-.68V326.5a.83.83,0,0,0-.2031-.6055.86.86,0,0,0-.6367-.207h-.5952a1.4652,1.4652,0,0,1-.9658-.2764,1.1289,1.1289,0,0,1-.3291-.9131v-.3008a1.2406,1.2406,0,0,1,.36-.998,1.63,1.63,0,0,1,1.0747-.3047c.1909,0,.4375.0146.7383.042s.54.0566.7178.084v.3086q-1.0151-.07-1.4214-.07a1.3173,1.3173,0,0,0-.812.207.8938.8938,0,0,0-.2656.7451v.2734a.7653.7653,0,0,0,.2275.63,1.0782,1.0782,0,0,0,.6821.1816h.623a1.0732,1.0732,0,0,1,1.1973,1.1621v.4268a1.048,1.048,0,0,1-.4272.959,2.1055,2.1055,0,0,1-1.1479.2734Q215.3083,328.1176,214.8081,328.0825Z" style="fill:#1f2323"/><path d="M218.83,327.9106a1.277,1.277,0,0,1-.5635-.77,5.5786,5.5786,0,0,1-.1855-1.6484,5.2353,5.2353,0,0,1,.189-1.5928,1.33,1.33,0,0,1,.5845-.7842,2.22,2.22,0,0,1,1.0747-.2207,6.0108,6.0108,0,0,1,.6895.05c.2773.0322.5259.0723.7456.1182v.3018q-.1963-.0352-.6021-.07t-.7842-.0352a1.7657,1.7657,0,0,0-.8818.1826,1.085,1.085,0,0,0-.4619.6611,5.0072,5.0072,0,0,0-.147,1.39,5.5108,5.5108,0,0,0,.14,1.4346,1.0329,1.0329,0,0,0,.4448.6543,1.8065,1.8065,0,0,0,.8784.1719,9.7,9.7,0,0,0,1.4141-.0908v.3008a7.4188,7.4188,0,0,1-.7422.1123c-.2705.0273-.5181.042-.7417.042A2.2108,2.2108,0,0,1,218.83,327.9106Z" style="fill:#1f2323"/><path d="M224.01,327.74l1.96-1.8623a3.3094,3.3094,0,0,0,.6582-.8115,1.8021,1.8021,0,0,0,.189-.8408.91.91,0,0,0-.27-.7031,1.4133,1.4133,0,0,0-.9556-.248h-1.3789v-.3018q.91-.0762,1.47-.0771a1.6849,1.6849,0,0,1,1.1831.34,1.2554,1.2554,0,0,1,.3569.9561,2.1042,2.1042,0,0,1-.2168.9658,3.5364,3.5364,0,0,1-.7349.917l-1.7012,1.624h2.8491v.3779H224.01Z" style="fill:#1f2323"/><polygon points="41.275 139.914 36.154 141.286 39.903 145.034 41.275 139.914" style="fill:#ef464c"/><polygon points="41.259 219.13 39.887 214.009 36.139 217.758 41.259 219.13" style="fill:#ef464c"/><polygon points="45.817 179.505 41.226 176.854 41.226 182.156 45.817 179.505" style="fill:#ef464c"/><line x1="30.2924" y1="56.1235" x2="30.2924" y2="47.6235" style="fill:#ef464c;stroke:#ef464c;stroke-miterlimit:10;stroke-width:2px"/><line x1="30.2924" y1="270.4985" x2="30.2924" y2="264.1235" style="fill:#ef464c;stroke:#ef464c;stroke-miterlimit:10;stroke-width:2px"/><path d="M22.292,244.9448l-.4341-3.6953-1.022,3.6953h-.812L18.9946,241.27l-.4131,3.6748h-.833l.5952-5.166h.84l1.2529,4.1377,1.2461-4.1377h.84l.6089,5.166Z" style="fill:#b3b3b3"/><path d="M23.9507,239.7788h.8613v5.166h-.8613Z" style="fill:#b3b3b3"/><path d="M25.7773,239.7788h2.1a1.5044,1.5044,0,0,1,1.043.3467,2.2211,2.2211,0,0,1,.1436,2.2578,1.31,1.31,0,0,1-.6333.4482l.9937,2.1133h-.875l-.896-1.9873q-.427,0-1.0146-.0146v2.002h-.8613Zm1.9531,2.4854a.6914.6914,0,0,0,.5215-.1924.994.994,0,0,0,.1855-.6895.8879.8879,0,0,0-.1855-.6514.7318.7318,0,0,0-.5215-.1748H26.6387v1.708Z" style="fill:#b3b3b3"/><path d="M30.1177,239.7788h2.1a1.5044,1.5044,0,0,1,1.043.3467,2.2211,2.2211,0,0,1,.1436,2.2578,1.31,1.31,0,0,1-.6333.4482l.9937,2.1133H32.89l-.896-1.9873q-.427,0-1.0146-.0146v2.002h-.8613Zm1.9531,2.4854a.6914.6914,0,0,0,.5215-.1924.994.994,0,0,0,.1855-.6895.8879.8879,0,0,0-.1855-.6514.7318.7318,0,0,0-.5215-.1748H30.979v1.708Z" style="fill:#b3b3b3"/><path d="M35.2134,244.7875a1.3161,1.3161,0,0,1-.6646-.7627,6.1686,6.1686,0,0,1,.0034-3.3076,1.3588,1.3588,0,0,1,.6685-.78,2.8227,2.8227,0,0,1,1.1831-.207,2.87,2.87,0,0,1,1.1934.207,1.3442,1.3442,0,0,1,.6685.7764,4.7625,4.7625,0,0,1,.2241,1.6631,4.6168,4.6168,0,0,1-.2275,1.6484,1.335,1.335,0,0,1-.665.7627,3.6651,3.6651,0,0,1-2.3838,0Zm1.9287-.7178a.8224.8224,0,0,0,.3677-.5283,4.5309,4.5309,0,0,0,.1118-1.165,4.6666,4.6666,0,0,0-.1152-1.2041.8178.8178,0,0,0-.3677-.5322,1.6115,1.6115,0,0,0-.7349-.1328,1.53,1.53,0,0,0-.7212.1367.84.84,0,0,0-.3711.5313,4.4916,4.4916,0,0,0-.1191,1.2012,4.6236,4.6236,0,0,0,.1089,1.1689.8112.8112,0,0,0,.36.5244,2.0186,2.0186,0,0,0,1.48,0Z" style="fill:#b3b3b3"/><path d="M39.3223,239.7788h2.1a1.5044,1.5044,0,0,1,1.043.3467,2.2211,2.2211,0,0,1,.1436,2.2578,1.31,1.31,0,0,1-.6333.4482l.9937,2.1133h-.875l-.896-1.9873q-.427,0-1.0146-.0146v2.002h-.8613Zm1.9531,2.4854a.6914.6914,0,0,0,.5215-.1924.994.994,0,0,0,.1855-.6895.8879.8879,0,0,0-.1855-.6514.7318.7318,0,0,0-.5215-.1748H40.1836v1.708Z" style="fill:#b3b3b3"/><rect x="110.9431" y="3.6885" width="14.4" height="9.1667" rx="4.5833" ry="4.5833" style="fill:#ef464c"/><path d="M115.434,6.8811h-1.3168V5.6558h4V6.8811H116.8v4.0067H115.434Z" style="fill:#fff"/><path d="M120.8522,9.6626h1.3168v1.2253h-4V9.6626h1.3168V5.6558h1.3661Z" style="fill:#fff"/></svg>