<svg xmlns="http://www.w3.org/2000/svg" width="30.48mm" height="128.4993mm" viewBox="0 0 86.4 364.25">
  <title>RX8</title>
  <g>
    <rect width="86.4" height="364.25" style="fill: #e6e6e6"/>
    <g>
      <path d="M36.7669,353.0268h2.2192a1.6017,1.6017,0,0,1,1.1548.3955,1.8254,1.8254,0,0,1,.4131,1.3545,1.8581,1.8581,0,0,1-.1855.9209,1.4081,1.4081,0,0,1-.5215.5137l.9033,2.0166H39.3709l-.7275-1.792h-.5181v1.792H36.7669Zm1.9741,2.3311a.4187.4187,0,0,0,.3433-.1367.69.69,0,0,0,.1118-.4375.627.627,0,0,0-.1084-.42.4494.4494,0,0,0-.3467-.1191h-.6157v1.1133Z"/>
      <path d="M44.04,355.68l1.5815,2.5479H44.1243l-.91-1.4629-.7979,1.4629h-1.498l1.582-2.6113-1.603-2.59h1.498l.938,1.5186.8257-1.5186h1.498Z"/>
      <path d="M46.3817,358.018a1.035,1.035,0,0,1-.3955-.9453v-.6934a1.0915,1.0915,0,0,1,.1226-.5176.5671.5671,0,0,1,.3955-.2939.7758.7758,0,0,1-.2871-.2412.6492.6492,0,0,1-.1084-.28,3.3668,3.3668,0,0,1-.0176-.3887V354.07a.9531.9531,0,0,1,.3569-.8223,1.4987,1.4987,0,0,1,.91-.2627h.9941a1.4962,1.4962,0,0,1,.91.2627.9518.9518,0,0,1,.3569.8223v.5879a1.5679,1.5679,0,0,1-.0908.5146.4014.4014,0,0,1-.3291.2979.5582.5582,0,0,1,.42.3428,1.5206,1.5206,0,0,1,.1055.5664v.6934a1.0769,1.0769,0,0,1-.3608.9482,1.7194,1.7194,0,0,1-.99.249h-.9453A1.9243,1.9243,0,0,1,46.3817,358.018Zm1.6558-.8965q.2095,0,.269-.0732a.3982.3982,0,0,0,.06-.249v-.3281a.3416.3416,0,0,0-.084-.2354.2936.2936,0,0,0-.231-.0937h-.3779a.3177.3177,0,0,0-.2451.0908.3379.3379,0,0,0-.084.2383v.3281a.3425.3425,0,0,0,.0737.2529.3709.3709,0,0,0,.2554.0693Zm0-2.1279c.1118,0,.1831-.0254.2134-.0771a.643.643,0,0,0,.0454-.2939v-.2168c0-.1162-.022-.1914-.0664-.2236a.3171.3171,0,0,0-.1924-.05h-.3643a.3338.3338,0,0,0-.2031.0459c-.0371.03-.0557.1064-.0557.2275v.2168a.56.56,0,0,0,.0522.3047.2526.2526,0,0,0,.2065.0664Z"/>
    </g>
    <g>
      <rect x="36" y="3.6885" width="14.4" height="9.1667" rx="4.5833" ry="4.5833" style="fill: #ef464c"/>
      <g>
        <path d="M40.4909,6.8811H39.1741V5.6558h4V6.8811H41.857v4.0067H40.4909Z" style="fill: #fff"/>
        <path d="M45.9091,9.6626h1.3168v1.2253h-4V9.6626H44.543V5.6558h1.3661Z" style="fill: #fff"/>
      </g>
    </g>
    <rect x="45.2142" y="307.9985" width="36.8504" height="39.2456" rx="5.6693" ry="5.6693" style="fill: #ccc"/>
    <rect x="4.3354" y="17.0079" width="36.8504" height="330.2362" rx="5.6693" ry="5.6693" style="fill: #f9f9f9"/>
    <g>
      <path d="M16.9334,23.8383H15.4491v-.7769h3.8291v.7769H17.8011v4.3892h-.8677Z"/>
      <path d="M19.8729,23.0615h2.1a1.5021,1.5021,0,0,1,1.043.3467,1.6462,1.6462,0,0,1,.3853,1.2563,1.6521,1.6521,0,0,1-.2417,1.001,1.31,1.31,0,0,1-.6333.4482l.9937,2.1138h-.875l-.896-1.9878q-.427,0-1.0146-.0142v2.002h-.8613Zm1.9531,2.4849a.69.69,0,0,0,.5215-.1924.9923.9923,0,0,0,.1855-.6895.8857.8857,0,0,0-.1855-.6509.73.73,0,0,0-.5215-.1753H20.7342v1.708Z"/>
      <path d="M24.2132,23.0615h.8613v5.166h-.8613Z"/>
      <path d="M26.5335,27.9614a1.5912,1.5912,0,0,1-.49-.8716,6.4087,6.4087,0,0,1-.1362-1.4521,5.6042,5.6042,0,0,1,.1572-1.4668,1.5476,1.5476,0,0,1,.56-.8608,1.8867,1.8867,0,0,1,1.1377-.2974,7.2056,7.2056,0,0,1,1.7148.21v.665q-.2593-.0352-.6963-.0669t-.8716-.0312a1.2073,1.2073,0,0,0-.71.1748.9244.9244,0,0,0-.3325.5674,5.215,5.215,0,0,0-.0913,1.1128,5.25,5.25,0,0,0,.0913,1.1235.89.89,0,0,0,.3042.5425,1.0533,1.0533,0,0,0,.62.1538,3.01,3.01,0,0,0,.5742-.0557,3.8151,3.8151,0,0,0,.5107-.1333v-1.19h-1.043v-.6719q.21-.0278.5391-.0488t.644-.021c.28,0,.5112.0068.6929.021v2.8628H29.057l-.1191-.3569a3.4,3.4,0,0,1-.6509.2729,2.5629,2.5629,0,0,1-.7769.1191A1.4585,1.4585,0,0,1,26.5335,27.9614Z"/>
    </g>
    <circle cx="22.7606" cy="45.5112" r="14.3518" style="fill: #ef464c"/>
    <g>
      <path d="M48.4246,190.7475a1.3132,1.3132,0,0,1-.6646-.7627,6.1686,6.1686,0,0,1,.0034-3.3076,1.3619,1.3619,0,0,1,.6685-.78,2.8241,2.8241,0,0,1,1.1831-.2061,2.8712,2.8712,0,0,1,1.1934.2061,1.3433,1.3433,0,0,1,.6685.7773,4.7563,4.7563,0,0,1,.2241,1.6621,4.61,4.61,0,0,1-.2275,1.6484,1.3319,1.3319,0,0,1-.665.7627,3.6482,3.6482,0,0,1-2.3838,0Zm1.9287-.7168a.825.825,0,0,0,.3677-.5283,4.54,4.54,0,0,0,.1118-1.166,4.6769,4.6769,0,0,0-.1152-1.2041A.82.82,0,0,0,50.35,186.6a1.6246,1.6246,0,0,0-.7349-.1328,1.5422,1.5422,0,0,0-.7212.1367.8426.8426,0,0,0-.3711.5322,4.4883,4.4883,0,0,0-.1191,1.2,4.6236,4.6236,0,0,0,.1089,1.1689.816.816,0,0,0,.36.5254,2.0317,2.0317,0,0,0,1.48,0Z"/>
      <path d="M52.1068,185.74h.896l1.33,4.2344,1.33-4.2344h.896l-1.68,5.166H53.7865Z"/>
      <path d="M57.3743,190.7231a.9467.9467,0,0,1-.3535-.875v-2.9814a1.0564,1.0564,0,0,1,.3223-.8613,1.1824,1.1824,0,0,1,.7769-.2656q.6577,0,1.1338.0205t1.0923.0566v.7207H58.3929a.54.54,0,0,0-.3779.1221.4757.4757,0,0,0-.1328.3682v.917l2.1489.0488v.6787l-2.1489.0488v.89a.4517.4517,0,0,0,.5039.5176h1.96v.7207q-.8818.0776-2.1279.0918A1.575,1.575,0,0,1,57.3743,190.7231Z"/>
      <path d="M61.1785,185.74h2.1a1.5,1.5,0,0,1,1.043.3467,2.2193,2.2193,0,0,1,.1436,2.2568,1.31,1.31,0,0,1-.6333.4482l.9937,2.1143h-.875l-.896-1.9883q-.427,0-1.0146-.0137v2.002h-.8613Zm1.9531,2.4844a.6877.6877,0,0,0,.5215-.1924.9907.9907,0,0,0,.1855-.6895.8836.8836,0,0,0-.1855-.65.7278.7278,0,0,0-.5215-.1758H62.04v1.708Z"/>
      <path d="M65.5189,185.74h2.1a1.5,1.5,0,0,1,1.043.3467,2.2193,2.2193,0,0,1,.1436,2.2568,1.31,1.31,0,0,1-.6333.4482l.9937,2.1143h-.875l-.896-1.9883q-.427,0-1.0146-.0137v2.002h-.8613Zm1.9531,2.4844a.6877.6877,0,0,0,.5215-.1924.9907.9907,0,0,0,.1855-.6895.8836.8836,0,0,0-.1855-.65.7278.7278,0,0,0-.5215-.1758H66.38v1.708Z"/>
      <path d="M69.8587,185.74H70.72v5.166h-.8613Z"/>
      <path d="M71.6854,185.74h2.1353a1.467,1.467,0,0,1,1.3613.6582,3.7336,3.7336,0,0,1,.4023,1.9248,3.4586,3.4586,0,0,1-.4409,1.9316,1.49,1.49,0,0,1-1.3228.6514H71.6854Zm2.0513,4.3887a.7893.7893,0,0,0,.749-.458,3.0156,3.0156,0,0,0,.2378-1.3477,4.429,4.429,0,0,0-.105-1.0918.9884.9884,0,0,0-.3184-.5537.9131.9131,0,0,0-.5635-.1611h-1.19v3.6123Z"/>
      <path d="M76.7708,190.7231a.9467.9467,0,0,1-.3535-.875v-2.9814a1.0564,1.0564,0,0,1,.3223-.8613,1.1824,1.1824,0,0,1,.7769-.2656q.6577,0,1.1338.0205t1.0923.0566v.7207H77.7894a.54.54,0,0,0-.3779.1221.4757.4757,0,0,0-.1328.3682v.917l2.1489.0488v.6787l-2.1489.0488v.89a.4517.4517,0,0,0,.5039.5176h1.96v.7207q-.8818.0776-2.1279.0918A1.575,1.575,0,0,1,76.7708,190.7231Z"/>
    </g>
    <g>
      <path d="M19.89,65.8339h.8613V71H19.89Z"/>
      <path d="M21.7733,65.8339h.6929l2.3521,3.689v-3.689h.8682V71H24.993l-2.3516-3.689V71h-.8682Z"/>
    </g>
    <g>
      <path d="M62.31,317.71l-.4341-3.6963-1.022,3.6963h-.812l-1.0293-3.6748-.4131,3.6748h-.833l.5952-5.166h.84l1.2529,4.1367,1.2461-4.1367h.84l.6089,5.166Z"/>
      <path d="M63.9686,312.5444H64.83v5.166h-.8613Z"/>
      <path d="M68.0843,315.1762l1.5889,2.5342h-.959l-1.1689-1.8623L66.4535,317.71h-.9521l1.5889-2.59-1.61-2.5762h.9521l1.1968,1.9033,1.106-1.9033h.959Z"/>
    </g>
    <g>
      <path d="M51.6654,28.07a1.3146,1.3146,0,0,1-.6646-.7627,4.6705,4.6705,0,0,1-.2241-1.6484,4.6942,4.6942,0,0,1,.2275-1.6592,1.36,1.36,0,0,1,.6685-.78,2.8234,2.8234,0,0,1,1.1831-.2065,2.8705,2.8705,0,0,1,1.1934.2065,1.3438,1.3438,0,0,1,.6685.7769,4.7594,4.7594,0,0,1,.2241,1.6626,4.6132,4.6132,0,0,1-.2275,1.6484,1.3335,1.3335,0,0,1-.665.7627,3.6566,3.6566,0,0,1-2.3838,0Zm1.9287-.7173a.8237.8237,0,0,0,.3677-.5283,4.5352,4.5352,0,0,0,.1118-1.1655,4.6718,4.6718,0,0,0-.1152-1.2041.8191.8191,0,0,0-.3677-.5322,1.618,1.618,0,0,0-.7349-.1328,1.536,1.536,0,0,0-.7212.1367.8414.8414,0,0,0-.3711.5317,4.49,4.49,0,0,0-.1191,1.2007,4.6236,4.6236,0,0,0,.1089,1.1689.8136.8136,0,0,0,.36.5249,2.0251,2.0251,0,0,0,1.48,0Z"/>
      <path d="M55.83,23.0615h.6929l2.3521,3.689v-3.689h.8682v5.166H59.05l-2.3516-3.689v3.689H55.83Z"/>
      <path d="M63.6,23.8383H62.116v-.7769h3.8291v.7769H64.4681v4.3892H63.6Z"/>
      <path d="M66.54,23.0615h2.1a1.5021,1.5021,0,0,1,1.043.3467,1.6462,1.6462,0,0,1,.3853,1.2563,1.6521,1.6521,0,0,1-.2417,1.001,1.31,1.31,0,0,1-.6333.4482l.9937,2.1138h-.875l-.896-1.9878q-.427,0-1.0146-.0142v2.002H66.54Zm1.9531,2.4849a.69.69,0,0,0,.5215-.1924.9923.9923,0,0,0,.1855-.6895.8857.8857,0,0,0-.1855-.6509.73.73,0,0,0-.5215-.1753H67.4017v1.708Z"/>
      <path d="M70.88,23.0615h.8613v5.166H70.88Z"/>
      <path d="M73.201,27.9614a1.5912,1.5912,0,0,1-.49-.8716,6.4087,6.4087,0,0,1-.1362-1.4521,5.6042,5.6042,0,0,1,.1572-1.4668,1.5476,1.5476,0,0,1,.56-.8608,1.8867,1.8867,0,0,1,1.1377-.2974,7.2056,7.2056,0,0,1,1.7148.21v.665q-.2593-.0352-.6963-.0669t-.8716-.0312a1.2073,1.2073,0,0,0-.71.1748.9244.9244,0,0,0-.3325.5674,5.215,5.215,0,0,0-.0913,1.1128,5.25,5.25,0,0,0,.0913,1.1235.89.89,0,0,0,.3042.5425,1.0533,1.0533,0,0,0,.62.1538,3.01,3.01,0,0,0,.5742-.0557,3.8151,3.8151,0,0,0,.5107-.1333v-1.19h-1.043v-.6719q.21-.0278.5391-.0488t.644-.021c.28,0,.5112.0068.6929.021v2.8628h-.6509l-.1191-.3569a3.4,3.4,0,0,1-.6509.2729,2.5629,2.5629,0,0,1-.7769.1191A1.4585,1.4585,0,0,1,73.201,27.9614Z"/>
    </g>
    <g>
      <path d="M55.81,56.8227a1.0547,1.0547,0,0,1,.3223-.8608,1.18,1.18,0,0,1,.7769-.2661q1.3792,0,2.2261.0771v.7207H57.161a.4945.4945,0,0,0-.36.126.4754.4754,0,0,0-.1294.3574V58.02l2.1489.0488v.6792l-2.1489.0488v2.0649H55.81Z"/>
      <path d="M59.849,55.6957h2.1a1.5021,1.5021,0,0,1,1.043.3467A2.22,2.22,0,0,1,63.1356,58.3a1.31,1.31,0,0,1-.6333.4482l.9937,2.1138h-.875l-.896-1.9878q-.427,0-1.0146-.0142v2.002H59.849Zm1.9531,2.4849a.69.69,0,0,0,.5215-.1924.9923.9923,0,0,0,.1855-.6895.8857.8857,0,0,0-.1855-.6509.73.73,0,0,0-.5215-.1753H60.71v1.708Z"/>
      <path d="M64.5423,60.68a.9472.9472,0,0,1-.3535-.875V56.8227a1.0547,1.0547,0,0,1,.3223-.8608,1.18,1.18,0,0,1,.7769-.2661q.6577,0,1.1338.021t1.0923.0562v.7207H65.5609a.5374.5374,0,0,0-.3779.1226.4753.4753,0,0,0-.1328.3677v.917l2.1489.0488v.6792l-2.1489.0488v.8892a.4518.4518,0,0,0,.5039.5181h1.96v.7207q-.8818.0776-2.1279.0913A1.5792,1.5792,0,0,1,64.5423,60.68Z"/>
      <path d="M68.63,60.68a.9472.9472,0,0,1-.3535-.875V56.8227a1.0547,1.0547,0,0,1,.3223-.8608,1.18,1.18,0,0,1,.7769-.2661q.6577,0,1.1338.021t1.0923.0562v.7207H69.6488a.5374.5374,0,0,0-.3779.1226.4753.4753,0,0,0-.1328.3677v.917l2.1489.0488v.6792l-2.1489.0488v.8892a.4518.4518,0,0,0,.5039.5181h1.96v.7207q-.8818.0776-2.1279.0913A1.5792,1.5792,0,0,1,68.63,60.68Z"/>
    </g>
    <g>
      <path d="M54.1195,83.8574a5.7919,5.7919,0,0,1-.7632-.1118v-.6792q.6306.0564,1.561.0562a1.5059,1.5059,0,0,0,.7109-.1333.5024.5024,0,0,0,.2412-.4829v-.2451a.5542.5542,0,0,0-.1538-.42.6375.6375,0,0,0-.4551-.147h-.4829a1.634,1.634,0,0,1-1.1025-.3218,1.3206,1.3206,0,0,1-.3677-1.043v-.2661a1.3254,1.3254,0,0,1,.4063-1.0713,1.8251,1.8251,0,0,1,1.2036-.3428,7.1731,7.1731,0,0,1,.7949.0488q.43.0491.7383.1123v.6787q-.9448-.063-1.4351-.063a1.2267,1.2267,0,0,0-.6616.1436.5835.5835,0,0,0-.22.5288v.1748a.5547.5547,0,0,0,.1714.4551.814.814,0,0,0,.5215.14h.5391a1.31,1.31,0,0,1,.99.353,1.2924,1.2924,0,0,1,.34.9346v.3291a1.2459,1.2459,0,0,1-.4482,1.1094,2.2826,2.2826,0,0,1-1.2881.3047Q54.5814,83.8994,54.1195,83.8574Z"/>
      <path d="M57.5282,78.6914h2.1353a1.5117,1.5117,0,0,1,1.0288.3535,1.7957,1.7957,0,0,1,.4063,1.3755q0,1.7783-1.4214,1.7778-.2168,0-.6367-.0347t-.6509-.07v1.7642h-.8613Zm2.0229,2.7231a.596.596,0,0,0,.5-.231,1.2514,1.2514,0,0,0,.1787-.7563q0-.9587-.6509-.959h-1.19v1.9463Z"/>
      <path d="M62.1868,83.6752a.9472.9472,0,0,1-.3535-.875V79.8183a1.0547,1.0547,0,0,1,.3223-.8608,1.18,1.18,0,0,1,.7769-.2661q.6577,0,1.1338.021t1.0923.0562v.7207H63.2054a.5374.5374,0,0,0-.3779.1226.4753.4753,0,0,0-.1328.3677v.917l2.1489.0488v.6792l-2.1489.0488v.8892a.4518.4518,0,0,0,.5039.5181h1.96v.7207q-.8818.0776-2.1279.0913A1.5792,1.5792,0,0,1,62.1868,83.6752Z"/>
      <path d="M66.2747,83.6752a.9472.9472,0,0,1-.3535-.875V79.8183a1.0547,1.0547,0,0,1,.3223-.8608,1.18,1.18,0,0,1,.7769-.2661q.6577,0,1.1338.021t1.0923.0562v.7207H67.2933a.5374.5374,0,0,0-.3779.1226.4753.4753,0,0,0-.1328.3677v.917l2.1489.0488v.6792l-2.1489.0488v.8892a.4518.4518,0,0,0,.5039.5181h1.96v.7207q-.8818.0776-2.1279.0913A1.5792,1.5792,0,0,1,66.2747,83.6752Z"/>
      <path d="M70.0794,78.6914h2.1353a1.468,1.468,0,0,1,1.3613.6582,3.7336,3.7336,0,0,1,.4023,1.9248,3.46,3.46,0,0,1-.4409,1.9321,1.4909,1.4909,0,0,1-1.3228.6509H70.0794Zm2.0513,4.3892a.79.79,0,0,0,.749-.4585,3.0156,3.0156,0,0,0,.2378-1.3477,4.4317,4.4317,0,0,0-.105-1.0918.9869.9869,0,0,0-.3184-.5532.9131.9131,0,0,0-.5635-.1611h-1.19v3.6123Z"/>
    </g>
    <g>
      <path d="M48.4535,138.2993a5.7919,5.7919,0,0,1-.7632-.1118v-.6792q.6306.0564,1.561.0562a1.5059,1.5059,0,0,0,.7109-.1333.5024.5024,0,0,0,.2412-.4829v-.2451a.5542.5542,0,0,0-.1538-.42.6375.6375,0,0,0-.4551-.147h-.4829a1.634,1.634,0,0,1-1.1025-.3218,1.3206,1.3206,0,0,1-.3677-1.043v-.2661a1.3254,1.3254,0,0,1,.4063-1.0713,1.8251,1.8251,0,0,1,1.2036-.3428,7.1731,7.1731,0,0,1,.7949.0488q.43.0491.7383.1123v.6787q-.9448-.063-1.4351-.063a1.2267,1.2267,0,0,0-.6616.1436.5835.5835,0,0,0-.22.5288v.1748a.5547.5547,0,0,0,.1714.4551.814.814,0,0,0,.5215.14H49.7a1.31,1.31,0,0,1,.99.353,1.2924,1.2924,0,0,1,.34.9346v.3291a1.2459,1.2459,0,0,1-.4482,1.1094,2.2826,2.2826,0,0,1-1.2881.3047Q48.9154,138.3413,48.4535,138.2993Z"/>
      <path d="M52.9754,133.91H51.491v-.7769H55.32v.7769H53.8431v4.3892h-.8677Z"/>
      <path d="M56.9232,133.1332h1.0923l1.68,5.166h-.9028l-.3989-1.2251H56.5243l-.3921,1.2251h-.8887Zm1.26,3.1641-.728-2.4219-.728,2.4219Z"/>
      <path d="M60.3324,133.1332h1.9741q1.4282,0,1.4277,1.3442a1.3246,1.3246,0,0,1-.1992.7524.8845.8845,0,0,1-.5283.3813,1.1828,1.1828,0,0,1,.6333.4023,1.2919,1.2919,0,0,1,.2627.8574,1.3912,1.3912,0,0,1-.3784,1.0991,1.6842,1.6842,0,0,1-1.1338.3291H60.3324Zm1.9883,2.1841a.5244.5244,0,0,0,.4268-.1963.8.8,0,0,0,.1611-.5249q0-.6855-.6089-.686h-1.106v1.4072Zm.042,2.2051a.7129.7129,0,0,0,.5317-.1855.8537.8537,0,0,0,.1821-.6128.7188.7188,0,0,0-.2-.5386.7015.7015,0,0,0-.5142-.1963H61.1937v1.5332Z"/>
      <path d="M64.6654,133.1332h.8613v5.166h-.8613Z"/>
      <path d="M66.7826,138.03a1.1605,1.1605,0,0,1-.2905-.8853v-4.0112h.8613v3.8711a.4932.4932,0,0,0,.1362.3989.5729.5729,0,0,0,.3745.1118h1.7148v.7842H67.6473A1.231,1.231,0,0,1,66.7826,138.03Z"/>
      <path d="M70.23,133.1332h.8613v5.166H70.23Z"/>
      <path d="M73.17,133.91H71.6859v-.7769H75.515v.7769H74.0379v4.3892H73.17Z"/>
      <path d="M77.3773,136.6821l-1.582-3.5488h.896l1.1343,2.667,1.1338-2.667h.875l-1.5889,3.5488v1.6172h-.8682Z"/>
    </g>
  </g>
</svg>
