<svg xmlns="http://www.w3.org/2000/svg" width="25.4mm" height="128.4993mm" viewBox="0 0 72 364.25">
  <title>TT1</title>
  <g>
    <rect width="72" height="364.25" style="fill: #e6e6e6"/>
    <rect x="5.1" y="17.0079" width="61.8" height="46.4934" rx="5.6693" ry="5.6693" style="fill: #ef464c"/>
    <path d="M20.0156,23.0615h1.0928l1.68,5.166h-.9033l-.3984-1.2251H19.6172l-.3926,1.2251h-.8887Zm1.2607,3.1641-.7285-2.4219L19.82,26.2256Z" style="fill: #f9f9f9"/>
    <rect x="5.1" y="68.25" width="61.8" height="278.9941" rx="5.6693" ry="5.6693" style="fill: #ccc"/>
    <g>
      <path d="M30.8477,354.2451H29.5391v-1.2187h3.9756v1.2188h-1.31v3.9824H30.8477Z"/>
      <path d="M35.1172,354.2451H33.8086v-1.2187h3.9766v1.2188h-1.31v3.9824H35.1172Z"/>
      <path d="M37.792,355.6592H39.99v1.0771H37.792Z"/>
      <path d="M40.8994,354.2725h-.8262v-.8682l.9795-.42h1.2051v5.2432H40.8994Z"/>
    </g>
    <g>
      <rect x="28.8" y="3.6875" width="14.4" height="9.1667" rx="4.5833" ry="4.5833" style="fill: #ef464c"/>
      <g>
        <path d="M33.2909,6.88H31.9741V5.6548h4V6.88H34.657v4.0067H33.2909Z" style="fill: #fff"/>
        <path d="M38.7091,9.6616h1.3168v1.2253h-4V9.6616H37.343V5.6548h1.3661Z" style="fill: #fff"/>
      </g>
    </g>
    <path d="M49.74,23.0615h1.9736q1.4282,0,1.4277,1.3442a1.3246,1.3246,0,0,1-.1992.7524.8859.8859,0,0,1-.5283.3813,1.178,1.178,0,0,1,.6328.4023,1.2869,1.2869,0,0,1,.2637.8574,1.3913,1.3913,0,0,1-.3789,1.0991,1.6842,1.6842,0,0,1-1.1338.3291H49.74Zm1.9883,2.1841a.5232.5232,0,0,0,.4258-.1963.8.8,0,0,0,.1621-.5249q0-.6855-.6094-.686H50.6016v1.4072Zm.041,2.2051a.7134.7134,0,0,0,.5322-.1855.8514.8514,0,0,0,.1826-.6128.7172.7172,0,0,0-.2-.5386.7011.7011,0,0,0-.5146-.1963h-1.168v1.5332Z" style="fill: #f9f9f9"/>
    <g>
      <path d="M15.9873,75.061H17.08l1.68,5.166h-.9033L17.458,79.002H15.5889l-.3926,1.2251h-.8887Zm1.2607,3.1641L16.52,75.8032l-.7275,2.4219Z"/>
      <path d="M22.6094,78.085H21.3916v1.2183h-.7V78.085H19.4736v-.7h1.2178V76.167h.7v1.2183h1.2178Z"/>
      <path d="M23.6592,75.061h1.9746q1.4282,0,1.4277,1.3442a1.3246,1.3246,0,0,1-.1992.7524.8859.8859,0,0,1-.5283.3813,1.1816,1.1816,0,0,1,.6328.4023,1.2919,1.2919,0,0,1,.2627.8574,1.3911,1.3911,0,0,1-.3779,1.0991,1.6842,1.6842,0,0,1-1.1338.3291H23.6592Zm1.9883,2.1841a.5238.5238,0,0,0,.4268-.1963.8.8,0,0,0,.1611-.5249q0-.6855-.6084-.686H24.5205v1.4072Zm.042,2.2051a.7134.7134,0,0,0,.5322-.1855.8559.8559,0,0,0,.1816-.6128.72.72,0,0,0-.1992-.5386.7026.7026,0,0,0-.5146-.1963H24.5205V79.45Z"/>
    </g>
    <g>
      <path d="M46.4492,75.061H47.542l1.68,5.166h-.9033L47.92,79.002H46.0508l-.3926,1.2251H44.77ZM47.71,78.2251l-.7285-2.4219-.7275,2.4219Z"/>
      <path d="M49.292,75.061h.8955l1.33,4.2349,1.33-4.2349h.8955l-1.68,5.166H50.9717Z"/>
      <path d="M54.8047,79.9609a1.5853,1.5853,0,0,1-.49-.8716,6.4053,6.4053,0,0,1-.1367-1.4521A5.6253,5.6253,0,0,1,54.335,76.17a1.5483,1.5483,0,0,1,.5605-.8608,1.8867,1.8867,0,0,1,1.1377-.2974,7.2087,7.2087,0,0,1,1.7148.21v.665q-.2593-.0352-.6963-.0669t-.8721-.0312a1.2066,1.2066,0,0,0-.71.1748.9248.9248,0,0,0-.333.5674,6.9286,6.9286,0,0,0,0,2.2363.8885.8885,0,0,0,.3047.5425,1.0516,1.0516,0,0,0,.6191.1538,3.01,3.01,0,0,0,.5742-.0557,3.8151,3.8151,0,0,0,.5107-.1333v-1.19h-1.043v-.6719q.2109-.0278.5391-.0488t.6445-.021c.2793,0,.5107.0068.6924.021v2.8628h-.65L57.209,79.87a3.4049,3.4049,0,0,1-.6514.2729,2.5621,2.5621,0,0,1-.7764.1191A1.4576,1.4576,0,0,1,54.8047,79.9609Z"/>
    </g>
    <g>
      <path d="M16.9395,121.41h1.0928l1.68,5.166h-.9033l-.3984-1.2251H16.541l-.3926,1.2251H15.26ZM18.2,124.5737l-.7285-2.4219-.7275,2.4219Z"/>
      <path d="M19.957,124.1958h2.1143v.7H19.957Z"/>
      <path d="M22.708,121.41h1.9736q1.4282,0,1.4277,1.3442a1.3246,1.3246,0,0,1-.1992.7524.8831.8831,0,0,1-.5283.3813,1.184,1.184,0,0,1,.6338.4023,1.2919,1.2919,0,0,1,.2627.8574,1.3913,1.3913,0,0,1-.3789,1.0991,1.6842,1.6842,0,0,1-1.1338.3291H22.708Zm1.9883,2.1841a.5251.5251,0,0,0,.4268-.1963.8.8,0,0,0,.1611-.5249q0-.6855-.6094-.686H23.5693v1.4072Zm.042,2.2051a.7125.7125,0,0,0,.5313-.1855A.8514.8514,0,0,0,25.4521,125a.7172.7172,0,0,0-.2-.5386.7.7,0,0,0-.5137-.1963H23.5693v1.5332Z"/>
    </g>
    <g>
      <path d="M46.2852,121.41H48.26q1.4282,0,1.4277,1.3442a1.3246,1.3246,0,0,1-.1992.7524.8859.8859,0,0,1-.5283.3813,1.1816,1.1816,0,0,1,.6328.4023,1.2919,1.2919,0,0,1,.2627.8574,1.3911,1.3911,0,0,1-.3779,1.0991,1.6842,1.6842,0,0,1-1.1338.3291H46.2852Zm1.9883,2.1841a.5238.5238,0,0,0,.4268-.1963.8.8,0,0,0,.1611-.5249q0-.6855-.6084-.686H47.1465v1.4072Zm.042,2.2051a.7134.7134,0,0,0,.5322-.1855A.8559.8559,0,0,0,49.0293,125a.72.72,0,0,0-.1992-.5386.7026.7026,0,0,0-.5146-.1963H47.1465v1.5332Z"/>
      <path d="M50.2969,124.1958H52.41v.7H50.2969Z"/>
      <path d="M54.335,121.41h1.0928l1.68,5.166h-.9033l-.3984-1.2251H53.9365l-.3926,1.2251h-.8887Zm1.2607,3.1641-.7285-2.4219-.7275,2.4219Z"/>
    </g>
    <g>
      <path d="M16.5752,167.7583H17.668l1.68,5.166h-.9033l-.3984-1.2251H16.1768l-.3926,1.2251h-.8887Zm1.2607,3.1641L17.1074,168.5l-.7275,2.4219Z"/>
      <path d="M21.5947,167.5342h.8682l-1.9668,5.894h-.8682Z"/>
      <path d="M23.0713,167.7583h1.9746q1.4282,0,1.4277,1.3442a1.3246,1.3246,0,0,1-.1992.7524.8859.8859,0,0,1-.5283.3813,1.1816,1.1816,0,0,1,.6328.4023,1.2919,1.2919,0,0,1,.2627.8574,1.3911,1.3911,0,0,1-.3779,1.0991,1.6842,1.6842,0,0,1-1.1338.3291H23.0713Zm1.9883,2.1841a.5238.5238,0,0,0,.4268-.1963.8.8,0,0,0,.1611-.5249q0-.6855-.6084-.686H23.9326v1.4072Zm.042,2.2051a.7134.7134,0,0,0,.5322-.1855.8559.8559,0,0,0,.1816-.6128.72.72,0,0,0-.1992-.5386.7026.7026,0,0,0-.5146-.1963H23.9326v1.5332Z"/>
    </g>
    <g>
      <path d="M45.9209,167.7588h1.9746q1.4282,0,1.4277,1.3442a1.3246,1.3246,0,0,1-.1992.7524.8859.8859,0,0,1-.5283.3813,1.1816,1.1816,0,0,1,.6328.4023,1.2919,1.2919,0,0,1,.2627.8574,1.3911,1.3911,0,0,1-.3779,1.0991,1.6842,1.6842,0,0,1-1.1338.3291H45.9209Zm1.9883,2.1841a.5238.5238,0,0,0,.4268-.1963.8.8,0,0,0,.1611-.5249q0-.6855-.6084-.686H46.7822v1.4072Zm.042,2.2051a.7134.7134,0,0,0,.5322-.1855.8559.8559,0,0,0,.1816-.6128.72.72,0,0,0-.1992-.5386.7026.7026,0,0,0-.5146-.1963H46.7822v1.5332Z"/>
      <path d="M51.8643,167.5347h.8682l-1.9668,5.894h-.8682Z"/>
      <path d="M54.6992,167.7588H55.791l1.68,5.166h-.9023L56.1689,171.7H54.3l-.3916,1.2251H53.02Zm1.26,3.1641-.7275-2.4219-.7285,2.4219Z"/>
    </g>
    <g>
      <path d="M17.209,214.1064h1.0928l1.68,5.166h-.9033l-.3984-1.2246H16.8105l-.3926,1.2246h-.8887Zm1.2607,3.1641-.7285-2.4219-.7275,2.4219Z"/>
      <path d="M20.7061,217.0957a.118.118,0,0,1-.0381-.0908v-.5186c0-.0928.0439-.14.1328-.14h.4971c.0879,0,.1328.0469.1328.14v.5186c0,.084-.0449.126-.1328.126h-.4971A.1338.1338,0,0,1,20.7061,217.0957Z"/>
      <path d="M22.4385,214.1064h1.9736q1.4282,0,1.4277,1.3447a1.324,1.324,0,0,1-.1992.752.8858.8858,0,0,1-.5283.3818,1.1812,1.1812,0,0,1,.6338.4023,1.291,1.291,0,0,1,.2627.8574,1.3894,1.3894,0,0,1-.3789,1.0986,1.6842,1.6842,0,0,1-1.1338.3291H22.4385Zm1.9883,2.1846a.5251.5251,0,0,0,.4268-.1963.8021.8021,0,0,0,.1611-.5254q0-.6855-.6094-.6855H23.3v1.4072Zm.042,2.2051A.7144.7144,0,0,0,25,218.3105a.8527.8527,0,0,0,.1826-.6133.7153.7153,0,0,0-.2-.5381.7.7,0,0,0-.5137-.1963H23.3v1.5332Z"/>
    </g>
    <g>
      <path d="M15.9873,260.4551H17.08l1.68,5.166h-.9033l-.3984-1.2246H15.5889l-.3926,1.2246h-.8887Zm1.2607,3.1641-.7285-2.4219-.7275,2.4219Z"/>
      <path d="M19.5859,263.5566v-.7705l2.9053-.9238v.7559l-2.0654.5459,2.0654.5879v.7568Z"/>
      <path d="M23.6592,260.4551h1.9746q1.4282,0,1.4277,1.3447a1.324,1.324,0,0,1-.1992.752.8887.8887,0,0,1-.5283.3818,1.1787,1.1787,0,0,1,.6328.4023,1.291,1.291,0,0,1,.2627.8574,1.3892,1.3892,0,0,1-.3779,1.0986,1.6842,1.6842,0,0,1-1.1338.3291H23.6592Zm1.9883,2.1846a.5238.5238,0,0,0,.4268-.1963.8021.8021,0,0,0,.1611-.5254q0-.6855-.6084-.6855H24.5205V262.64Zm.042,2.2051a.7153.7153,0,0,0,.5322-.1855.8573.8573,0,0,0,.1816-.6133.7185.7185,0,0,0-.1992-.5381.7026.7026,0,0,0-.5146-.1963H24.5205v1.5332Z"/>
    </g>
    <g>
      <path d="M46.6914,260.4561h1.0918l1.68,5.166h-.9023l-.3994-1.2256H46.292L45.9,265.6221h-.8887Zm1.26,3.1641-.7275-2.4219-.7285,2.4219Z"/>
      <path d="M50.3037,263.7529l2.0645-.5879-2.0645-.5459v-.7559l2.9043.9238v.77l-2.9043.9521Z"/>
      <path d="M54.3633,260.4561h1.9736q1.4282,0,1.4277,1.3438a1.3252,1.3252,0,0,1-.1992.7529.88.88,0,0,1-.5283.3809,1.1869,1.1869,0,0,1,.6338.4023,1.2928,1.2928,0,0,1,.2627.8574,1.3932,1.3932,0,0,1-.3789,1.1,1.6842,1.6842,0,0,1-1.1338.3291H54.3633Zm1.9883,2.1836a.5251.5251,0,0,0,.4268-.1963.7974.7974,0,0,0,.1611-.5244q0-.6855-.6094-.6865H55.2246V262.64Zm.042,2.2051a.7105.7105,0,0,0,.5313-.1855.85.85,0,0,0,.1826-.6123.7191.7191,0,0,0-.2-.5391.7.7,0,0,0-.5137-.1963H55.2246v1.5332Z"/>
    </g>
    <g>
      <path d="M15.9873,306.8037H17.08l1.68,5.166h-.9033l-.3984-1.2246H15.5889l-.3926,1.2246h-.8887Zm1.2607,3.1641-.7285-2.4219-.7275,2.4219Z"/>
      <path d="M19.4736,308.2881h3.1357v.7H19.4736Zm0,1.68h3.1357v.7H19.4736Z"/>
      <path d="M23.6592,306.8037h1.9746q1.4282,0,1.4277,1.3447a1.324,1.324,0,0,1-.1992.752.8887.8887,0,0,1-.5283.3818,1.1787,1.1787,0,0,1,.6328.4023,1.291,1.291,0,0,1,.2627.8574,1.3892,1.3892,0,0,1-.3779,1.0986,1.6842,1.6842,0,0,1-1.1338.3291H23.6592Zm1.9883,2.1846a.5238.5238,0,0,0,.4268-.1963.8021.8021,0,0,0,.1611-.5254q0-.6855-.6084-.6855H24.5205v1.4072Zm.042,2.2051a.7153.7153,0,0,0,.5322-.1855.8573.8573,0,0,0,.1816-.6133.7185.7185,0,0,0-.1992-.5381.7026.7026,0,0,0-.5146-.1963H24.5205v1.5332Z"/>
    </g>
    <g>
      <path d="M45.7461,306.8047h1.0928l1.68,5.166h-.9033l-.3984-1.2256H45.3477l-.3926,1.2256h-.8887Zm1.2607,3.1641-.7285-2.4219-.7275,2.4219Z"/>
      <path d="M49.1768,306.8115h.8682l-.126,3.7451h-.6377Zm.08,5.1309a.118.118,0,0,1-.0381-.0908v-.665a.1171.1171,0,0,1,.1328-.1328h.4971a.1171.1171,0,0,1,.1328.1328v.665c0,.084-.0439.126-.1328.126h-.4971A.1355.1355,0,0,1,49.2568,311.9424Z"/>
      <path d="M51.1221,308.2881h3.1357v.7H51.1221Zm0,1.6807h3.1357v.7H51.1221Z"/>
      <path d="M55.3086,306.8047h1.9736q1.4282,0,1.4277,1.3438a1.3252,1.3252,0,0,1-.1992.7529.88.88,0,0,1-.5283.3809,1.1869,1.1869,0,0,1,.6338.4023,1.2928,1.2928,0,0,1,.2627.8574,1.3932,1.3932,0,0,1-.3789,1.1,1.6842,1.6842,0,0,1-1.1338.3291H55.3086Zm1.9883,2.1836a.5251.5251,0,0,0,.4268-.1963.7974.7974,0,0,0,.1611-.5244q0-.6855-.6094-.6865H56.17v1.4072Zm.042,2.2051a.7105.7105,0,0,0,.5313-.1855.85.85,0,0,0,.1826-.6123.7191.7191,0,0,0-.2-.5391.7.7,0,0,0-.5137-.1963H56.17v1.5332Z"/>
    </g>
    <g>
      <path d="M49.5029,214.1064h1.0918l1.68,5.166h-.9023l-.3994-1.2246H49.1035l-.3916,1.2246h-.8887Zm1.26,3.1641-.7275-2.4219-.7285,2.4219Z"/>
      <path d="M52.6523,211.832h1.41q1.02,0,1.0205.96a.949.949,0,0,1-.1426.5381.6334.6334,0,0,1-.3779.2725.84.84,0,0,1,.4521.2871.9225.9225,0,0,1,.1875.6133.9929.9929,0,0,1-.27.7842,1.2012,1.2012,0,0,1-.81.2354H52.6523Zm1.42,1.5605a.3779.3779,0,0,0,.3057-.14.5768.5768,0,0,0,.1143-.375q0-.4907-.4346-.49h-.79v1.0049Zm.03,1.5752a.5106.5106,0,0,0,.38-.1328.6087.6087,0,0,0,.13-.4375.5114.5114,0,0,0-.1426-.3848.4992.4992,0,0,0-.3672-.1406h-.835v1.0957Z"/>
    </g>
  </g>
</svg>
