<svg xmlns="http://www.w3.org/2000/svg" width="15.24mm" height="128.4993mm" viewBox="0 0 43.2 364.25">
  <title>TTSAW</title>
  <g>
    <rect width="43.2" height="364.25" style="fill: #e6e6e6"/>
    <rect x="3.8667" y="16.75" width="35.4667" height="46.4934" rx="5.6693" ry="5.6693" style="fill: #f9f9f9"/>
    <g>
      <path d="M11.3314,24.062h.8955l1.33,4.2349,1.33-4.2349h.8955l-1.68,5.166H13.0111Z"/>
      <path d="M18.03,23.8379h.8682l-1.9668,5.894h-.8682Z"/>
      <path d="M20.2631,29.07a1.3169,1.3169,0,0,1-.665-.7627,4.6723,4.6723,0,0,1-.2236-1.6484A4.6829,4.6829,0,0,1,19.602,25a1.36,1.36,0,0,1,.668-.78,2.8258,2.8258,0,0,1,1.1836-.2065,2.8721,2.8721,0,0,1,1.1934.2065,1.3448,1.3448,0,0,1,.668.7769,4.7576,4.7576,0,0,1,.2246,1.6626,4.6132,4.6132,0,0,1-.2275,1.6484,1.3368,1.3368,0,0,1-.665.7627,2.9245,2.9245,0,0,1-1.1934.2A2.9282,2.9282,0,0,1,20.2631,29.07Zm1.9287-.7173a.8232.8232,0,0,0,.3672-.5283,4.5308,4.5308,0,0,0,.1123-1.1655,4.6939,4.6939,0,0,0-.1152-1.2041.82.82,0,0,0-.3682-.5322,1.6171,1.6171,0,0,0-.7344-.1328,1.5369,1.5369,0,0,0-.7217.1367.8432.8432,0,0,0-.3711.5317,4.49,4.49,0,0,0-.1191,1.2007,4.5962,4.5962,0,0,0,.1094,1.1689.8136.8136,0,0,0,.36.5249,2.0251,2.0251,0,0,0,1.48,0Z"/>
      <path d="M25.0434,29.0635a1.3428,1.3428,0,0,1-.5977-.78,5.1378,5.1378,0,0,1-.207-1.6592,4.8169,4.8169,0,0,1,.21-1.6,1.4013,1.4013,0,0,1,.6162-.791,2.19,2.19,0,0,1,1.05-.22,5.4172,5.4172,0,0,1,.8438.0664,5.538,5.538,0,0,1,.7246.1572v.665q-.2109-.0417-.5986-.0767c-.2588-.0234-.5244-.0352-.7949-.0352a1.4339,1.4339,0,0,0-.71.1436.8468.8468,0,0,0-.36.5356,4.5271,4.5271,0,0,0-.1123,1.1689,4.8248,4.8248,0,0,0,.1055,1.1689.8458.8458,0,0,0,.35.5391,1.4243,1.4243,0,0,0,.7207.147,11.1879,11.1879,0,0,0,1.4-.0771v.665a5.68,5.68,0,0,1-1.5889.189A2.265,2.265,0,0,1,25.0434,29.0635Z"/>
      <path d="M29.5736,24.8389H28.0893V24.062h3.8291v.7769H30.4408V29.228h-.8672Z"/>
    </g>
    <circle cx="21.6" cy="45.2534" r="14.3518" style="fill: #ef464c"/>
    <rect x="3.8667" y="300.4928" width="35.4667" height="46.4934" rx="5.6693" ry="5.6693" style="fill: #ccc"/>
    <g>
      <path d="M15.9926,311.5547a1.3138,1.3138,0,0,1-.6641-.7627,6.1622,6.1622,0,0,1,.0029-3.3076,1.36,1.36,0,0,1,.6689-.78,2.82,2.82,0,0,1,1.1826-.207,2.8682,2.8682,0,0,1,1.1934.207,1.3432,1.3432,0,0,1,.6689.7764,4.7643,4.7643,0,0,1,.2236,1.6631,4.6168,4.6168,0,0,1-.2275,1.6484,1.3317,1.3317,0,0,1-.665.7627,2.9336,2.9336,0,0,1-1.1934.1992A2.9438,2.9438,0,0,1,15.9926,311.5547Zm1.9287-.7178a.8229.8229,0,0,0,.3682-.5283,4.5352,4.5352,0,0,0,.1113-1.165,4.6448,4.6448,0,0,0-.1152-1.2041.8174.8174,0,0,0-.3672-.5322,1.6124,1.6124,0,0,0-.7354-.1328,1.5291,1.5291,0,0,0-.7207.1367.8385.8385,0,0,0-.3711.5313,4.4916,4.4916,0,0,0-.1191,1.2012,4.6513,4.6513,0,0,0,.1084,1.1689.8112.8112,0,0,0,.36.5244,1.559,1.559,0,0,0,.7422.1406A1.5574,1.5574,0,0,0,17.9213,310.8369Z"/>
      <path d="M20.5395,311.38a1.5162,1.5162,0,0,1-.5078-1.3125v-3.5215h.8613v3.5215a.807.807,0,0,0,.28.6963,1.7868,1.7868,0,0,0,1.666,0,.8092.8092,0,0,0,.2793-.6963v-3.5215H23.98v3.5215a1.5162,1.5162,0,0,1-.5078,1.3125,2.4758,2.4758,0,0,1-1.4658.3672A2.4771,2.4771,0,0,1,20.5395,311.38Z"/>
      <path d="M25.9887,307.3232H24.5043v-.7773h3.8291v.7773H26.8568v4.3887h-.8682Z"/>
    </g>
    <g>
      <path d="M13.3822,76.9307a1.0547,1.0547,0,0,1,.3223-.8608,1.1789,1.1789,0,0,1,.7764-.2661q1.38,0,2.2266.0771v.7207H14.7328a.4953.4953,0,0,0-.36.126.477.477,0,0,0-.1289.3574v1.043l2.1484.0488v.6792l-2.1484.0488V80.97h-.8613Z"/>
      <path d="M17.4213,75.8037h2.1a1.5021,1.5021,0,0,1,1.043.3467,2.2172,2.2172,0,0,1,.1436,2.2573,1.3109,1.3109,0,0,1-.6328.4482l.9932,2.1138h-.875l-.8955-1.9878q-.4277,0-1.0146-.0142V80.97h-.8613Zm1.9531,2.4849a.691.691,0,0,0,.5215-.1924.9948.9948,0,0,0,.1855-.6895.8879.8879,0,0,0-.1855-.6509.7314.7314,0,0,0-.5215-.1753H18.2826v1.708Z"/>
      <path d="M22.1146,80.7876a.9461.9461,0,0,1-.3535-.875V76.9307a1.0547,1.0547,0,0,1,.3223-.8608,1.1789,1.1789,0,0,1,.7764-.2661q.6577,0,1.1338.021t1.0928.0562v.7207H23.1332a.5357.5357,0,0,0-.3779.1226.4753.4753,0,0,0-.1328.3677v.917l2.1484.0488v.6792l-2.1484.0488v.8892a.4518.4518,0,0,0,.5039.5181h1.96v.7207q-.8818.0776-2.1279.0913A1.5768,1.5768,0,0,1,22.1146,80.7876Z"/>
      <path d="M26.6752,80.812a1.3169,1.3169,0,0,1-.665-.7627,6.1751,6.1751,0,0,1,.0039-3.3076,1.36,1.36,0,0,1,.668-.78,2.8258,2.8258,0,0,1,1.1836-.2065,2.8721,2.8721,0,0,1,1.1934.2065,1.3448,1.3448,0,0,1,.668.7769,4.7576,4.7576,0,0,1,.2246,1.6626,4.6132,4.6132,0,0,1-.2275,1.6484,1.3368,1.3368,0,0,1-.665.7627,3.6566,3.6566,0,0,1-2.3838,0Zm1.9287-.7173a.8232.8232,0,0,0,.3672-.5283,4.5308,4.5308,0,0,0,.1123-1.1655,4.6939,4.6939,0,0,0-.1152-1.2041.82.82,0,0,0-.3682-.5322,1.6171,1.6171,0,0,0-.7344-.1328,1.5369,1.5369,0,0,0-.7217.1367.8432.8432,0,0,0-.3711.5317,4.49,4.49,0,0,0-.1191,1.2007,4.5962,4.5962,0,0,0,.1094,1.1689.8136.8136,0,0,0,.36.5249,2.0251,2.0251,0,0,0,1.48,0Zm-.4619,1.9111a1.0229,1.0229,0,0,1-.417-.7842h.6025a.499.499,0,0,0,.2373.3223.8171.8171,0,0,0,.4131.105,1.9211,1.9211,0,0,0,.4063-.063v.6436a1.6541,1.6541,0,0,1-.3711.0493A1.44,1.44,0,0,1,28.142,82.0059Z"/>
    </g>
    <g>
      <path d="M9.8119,353.9863H8.5033v-1.2178h3.9756v1.2178H11.17V357.97H9.8119Z"/>
      <path d="M14.0824,353.9863h-1.31v-1.2178h3.9766v1.2178H15.44V357.97H14.0824Z"/>
      <path d="M16.7562,355.4h2.1982v1.0781H16.7562Z"/>
      <path d="M19.4369,357.8086V356.73q.7.063,1.6025.0635a1.2823,1.2823,0,0,0,.5254-.0811.2817.2817,0,0,0,.168-.2764v-.084a.2719.2719,0,0,0-.1045-.2275.4157.4157,0,0,0-.26-.08h-.3711a1.8134,1.8134,0,0,1-1.2422-.3682,1.5248,1.5248,0,0,1-.4092-1.1865v-.23a1.4194,1.4194,0,0,1,.4551-1.1484,2.02,2.02,0,0,1,1.3369-.3848,7.01,7.01,0,0,1,1.624.2031v1.0781q-.7837-.063-1.4561-.0635a1.2084,1.2084,0,0,0-.5039.0811.3047.3047,0,0,0-.168.3037v.07q0,.3574.4551.3574h.4619a1.4467,1.4467,0,0,1,1.0879.3916,1.4016,1.4016,0,0,1,.3818,1.0225v.23a1.866,1.866,0,0,1-.2236.998,1.13,1.13,0,0,1-.6338.4824,3.5486,3.5486,0,0,1-1.0537.13A6.5769,6.5769,0,0,1,19.4369,357.8086Z"/>
      <path d="M24.848,352.7686h1.6943l1.54,5.2012H26.6752l-.21-.8262H24.9037l-.2021.8262H23.308Zm1.3018,3.1572-.4687-2.002-.4619,2.002Z"/>
      <path d="M27.9076,352.7686h1.4063l.6445,3.1641.7764-3.1641h1.2188l.77,3.1641.6445-3.1641h1.4063L33.5844,357.97H32.226l-.8818-3.1787-.8887,3.1787H29.0971Z"/>
    </g>
    <g>
      <rect x="14.4" y="3.4306" width="14.4" height="9.1667" rx="4.5833" ry="4.5833" style="fill: #ef464c"/>
      <g>
        <path d="M18.8909,6.6232H17.5741V5.398h4V6.6232H20.257V10.63H18.8909Z" style="fill: #fff"/>
        <path d="M24.3091,9.4047h1.3168V10.63h-4V9.4047H22.943V5.398h1.3661Z" style="fill: #fff"/>
      </g>
    </g>
    <g>
      <path d="M14.6312,124.3257a1.0547,1.0547,0,0,1,.3223-.8608,1.1815,1.1815,0,0,1,.7773-.2661q1.3784,0,2.2256.0771v.7207H15.9828a.4962.4962,0,0,0-.3613.126.477.477,0,0,0-.1289.3574v1.043l2.1484.0488v.6792l-2.1484.0488v2.0649h-.8613Z"/>
      <path d="M18.67,123.1987h.8613v5.166H18.67Z"/>
      <path d="M20.5531,123.1987h.6934l2.3516,3.689v-3.689h.8682v5.166h-.6934l-2.3516-3.689v3.689h-.8682Z"/>
      <path d="M25.7289,128.1826a.9483.9483,0,0,1-.3535-.875v-2.9819a1.0547,1.0547,0,0,1,.3223-.8608,1.1834,1.1834,0,0,1,.7773-.2661q.6577,0,1.1338.021t1.0928.0562v.7207H26.7484a.54.54,0,0,0-.3789.1226.4789.4789,0,0,0-.1328.3677v.917l2.1494.0488v.6792l-2.1494.0488v.8892a.4518.4518,0,0,0,.5039.5181h1.9609v.7207q-.8818.0776-2.1289.0913A1.5816,1.5816,0,0,1,25.7289,128.1826Z"/>
    </g>
    <g>
      <path d="M12.4193,195.54H10.935v-.7764h3.8291v.7764H13.2875v4.39h-.8682Z"/>
      <path d="M15.3588,194.7637H16.22v2.2324h2.1768v-2.2324h.8682v5.166h-.8682v-2.1562H16.22V199.93h-.8613Z"/>
      <path d="M20.5844,199.7471a.9478.9478,0,0,1-.3535-.875v-2.9814a1.0564,1.0564,0,0,1,.3223-.8613,1.1838,1.1838,0,0,1,.7773-.2656q.6577,0,1.1338.0205t1.0918.0566v.7207H21.6029a.5412.5412,0,0,0-.3779.1221.4757.4757,0,0,0-.1328.3682v.917l2.1494.0488v.6787l-2.1494.0488v.89a.4517.4517,0,0,0,.5039.5176h1.96v.7207q-.8818.0776-2.1279.0918A1.5774,1.5774,0,0,1,20.5844,199.7471Z"/>
      <path d="M25.5023,195.54H24.018v-.7764h3.8291v.7764H26.3705v4.39h-.8682Z"/>
      <path d="M29.4506,194.7637h1.0918l1.68,5.166H31.32l-.3994-1.2256H29.0512L28.66,199.93h-.8887Zm1.26,3.1641-.7275-2.4219-.7285,2.4219Z"/>
    </g>
    <line x1="21.6" y1="176.776" x2="21.6" y2="143.4687" style="fill: none;stroke: #ef464c;stroke-miterlimit: 10"/>
    <line x1="21.1293" y1="252.8254" x2="21.1293" y2="219.5181" style="fill: none;stroke: #ef464c;stroke-miterlimit: 10"/>
  </g>
  <g>
    <g>
      <path d="M35.7738,98.2416A14.1738,14.1738,0,1,1,21.602,84.07,14.1736,14.1736,0,0,1,35.7738,98.2416"/>
      <path d="M22.0746,84.1244a2.1365,2.1365,0,0,0-.4726-.0547,2.1145,2.1145,0,0,0-.4727.0547V98.4212h.9453Z" style="fill: #fff"/>
    </g>
    <g>
      <path d="M21.6,340.0109a11.4883,11.4883,0,1,1,11.4883-11.4883A11.5,11.5,0,0,1,21.6,340.0109" style="fill: #e6e6e6;stroke: #636663;stroke-width: 0.25px"/>
      <path d="M21.6,336.7961a8.2735,8.2735,0,1,1,8.2734-8.2735A8.2822,8.2822,0,0,1,21.6,336.7961" style="fill: #e6e6e6;stroke: #636663;stroke-width: 0.25px"/>
      <path d="M26.7016,328.5225A5.1016,5.1016,0,1,1,21.6,323.4211a5.103,5.103,0,0,1,5.1015,5.1015"/>
    </g>
    <g>
      <path d="M21.6,56.7417A11.4883,11.4883,0,1,1,33.0883,45.2534,11.5,11.5,0,0,1,21.6,56.7417" style="fill: #e6e6e6;stroke: #636663;stroke-width: 0.25px"/>
      <path d="M21.6,53.5269a8.2735,8.2735,0,1,1,8.2734-8.2735A8.2822,8.2822,0,0,1,21.6,53.5269" style="fill: #e6e6e6;stroke: #636663;stroke-width: 0.25px"/>
      <path d="M26.7016,45.2534A5.1016,5.1016,0,1,1,21.6,40.1519a5.103,5.103,0,0,1,5.1015,5.1015"/>
    </g>
    <g>
      <path d="M21.6,182.2642a11.4883,11.4883,0,1,1,11.4883-11.4883A11.5,11.5,0,0,1,21.6,182.2642" style="fill: #e6e6e6;stroke: #636663;stroke-width: 0.25px"/>
      <path d="M21.6,179.0494a8.2735,8.2735,0,1,1,8.2734-8.2735A8.2822,8.2822,0,0,1,21.6,179.0494" style="fill: #e6e6e6;stroke: #636663;stroke-width: 0.25px"/>
      <path d="M26.7016,170.7759A5.1016,5.1016,0,1,1,21.6,165.6744a5.103,5.103,0,0,1,5.1015,5.1015"/>
    </g>
    <g>
      <path d="M21.6,253.8751a11.4883,11.4883,0,1,1,11.4883-11.4883A11.5,11.5,0,0,1,21.6,253.8751" style="fill: #e6e6e6;stroke: #636663;stroke-width: 0.25px"/>
      <path d="M21.6,250.66a8.2735,8.2735,0,1,1,8.2734-8.2735A8.2822,8.2822,0,0,1,21.6,250.66" style="fill: #e6e6e6;stroke: #636663;stroke-width: 0.25px"/>
      <path d="M26.7016,242.3868A5.1016,5.1016,0,1,1,21.6,237.2853a5.103,5.103,0,0,1,5.1015,5.1015"/>
    </g>
    <g>
      <path d="M32.9379,214.8913a11.3379,11.3379,0,1,1-11.3359-11.34,11.3346,11.3346,0,0,1,11.3359,11.34"/>
      <path d="M21.977,203.5944a1.6887,1.6887,0,0,0-.375-.043,1.756,1.756,0,0,0-.3789.043v11.4375h.7539Z" style="fill: #fff"/>
    </g>
    <g>
      <path d="M32.9379,143.328a11.3379,11.3379,0,1,1-11.3359-11.34,11.3346,11.3346,0,0,1,11.3359,11.34"/>
      <path d="M21.977,132.0312a1.6887,1.6887,0,0,0-.375-.043,1.756,1.756,0,0,0-.3789.043v11.4375h.7539Z" style="fill: #fff"/>
    </g>
  </g>
</svg>
