<svg xmlns="http://www.w3.org/2000/svg" width="15.24mm" height="128.4993mm" viewBox="0 0 43.2 364.25">
  <title>TTSIN</title>
  <rect width="43.2" height="364.25" style="fill: #e6e6e6"/>
  <rect x="3.8667" y="16.75" width="35.4667" height="46.4934" rx="5.6693" ry="5.6693" style="fill: #f9f9f9"/>
  <g>
    <path d="M11.3314,24.0619h.8955l1.33,4.2349,1.33-4.2349h.8955l-1.68,5.166H13.0111Z"/>
    <path d="M18.03,23.8378h.8682l-1.9668,5.894h-.8682Z"/>
    <path d="M20.263,29.07a1.3169,1.3169,0,0,1-.665-.7627,4.6723,4.6723,0,0,1-.2236-1.6484A4.6829,4.6829,0,0,1,19.6019,25a1.36,1.36,0,0,1,.668-.78,2.8258,2.8258,0,0,1,1.1836-.2065,2.8721,2.8721,0,0,1,1.1934.2065,1.3448,1.3448,0,0,1,.668.7769,4.7576,4.7576,0,0,1,.2246,1.6626,4.6132,4.6132,0,0,1-.2275,1.6484,1.3368,1.3368,0,0,1-.665.7627,2.9245,2.9245,0,0,1-1.1934.2A2.9282,2.9282,0,0,1,20.263,29.07Zm1.9287-.7173a.8232.8232,0,0,0,.3672-.5283,4.5308,4.5308,0,0,0,.1123-1.1655,4.6939,4.6939,0,0,0-.1152-1.2041.82.82,0,0,0-.3682-.5322,1.6171,1.6171,0,0,0-.7344-.1328,1.5369,1.5369,0,0,0-.7217.1367.8432.8432,0,0,0-.3711.5317,4.49,4.49,0,0,0-.1191,1.2007,4.5962,4.5962,0,0,0,.1094,1.1689.8136.8136,0,0,0,.36.5249,2.0251,2.0251,0,0,0,1.48,0Z"/>
    <path d="M25.0433,29.0634a1.3428,1.3428,0,0,1-.5977-.78,5.1378,5.1378,0,0,1-.207-1.6592,4.8169,4.8169,0,0,1,.21-1.6,1.4013,1.4013,0,0,1,.6162-.791,2.19,2.19,0,0,1,1.05-.22,5.4172,5.4172,0,0,1,.8438.0664,5.538,5.538,0,0,1,.7246.1572v.665q-.2109-.0417-.5986-.0767c-.2588-.0234-.5244-.0352-.7949-.0352a1.4339,1.4339,0,0,0-.71.1436.8468.8468,0,0,0-.36.5356,4.5271,4.5271,0,0,0-.1123,1.1689,4.8248,4.8248,0,0,0,.1055,1.1689.8458.8458,0,0,0,.35.5391,1.4243,1.4243,0,0,0,.7207.147,11.1879,11.1879,0,0,0,1.4-.0771v.665a5.68,5.68,0,0,1-1.5889.189A2.265,2.265,0,0,1,25.0433,29.0634Z"/>
    <path d="M29.5736,24.8388H28.0892v-.7769h3.8291v.7769H30.4408V29.228h-.8672Z"/>
  </g>
  <circle cx="21.6" cy="45.2534" r="14.3518" style="fill: #ef464c"/>
  <rect x="3.8667" y="280.0513" width="35.4667" height="66.935" rx="5.6693" ry="5.6693" style="fill: #ccc"/>
  <g>
    <path d="M15.9925,317.5541a1.3109,1.3109,0,0,1-.6641-.7627,6.1622,6.1622,0,0,1,.0029-3.3076,1.3625,1.3625,0,0,1,.6689-.78,2.8216,2.8216,0,0,1,1.1826-.2061,2.87,2.87,0,0,1,1.1934.2061,1.3423,1.3423,0,0,1,.6689.7773,4.7582,4.7582,0,0,1,.2236,1.6621,4.61,4.61,0,0,1-.2275,1.6484,1.3286,1.3286,0,0,1-.665.7627,2.9154,2.9154,0,0,1-1.1934.2A2.9255,2.9255,0,0,1,15.9925,317.5541Zm1.9287-.7168a.8255.8255,0,0,0,.3682-.5283,4.5438,4.5438,0,0,0,.1113-1.166,4.655,4.655,0,0,0-.1152-1.2041.82.82,0,0,0-.3672-.5322,1.6255,1.6255,0,0,0-.7354-.1328,1.5413,1.5413,0,0,0-.7207.1367.8409.8409,0,0,0-.3711.5322,4.4883,4.4883,0,0,0-.1191,1.2,4.6513,4.6513,0,0,0,.1084,1.1689.816.816,0,0,0,.36.5254,1.5723,1.5723,0,0,0,.7422.14A1.5708,1.5708,0,0,0,17.9212,316.8373Z"/>
    <path d="M20.5394,317.3793a1.5162,1.5162,0,0,1-.5078-1.3125v-3.5205h.8613v3.5205a.8046.8046,0,0,0,.28.6963,1.7794,1.7794,0,0,0,1.666,0,.8068.8068,0,0,0,.2793-.6963v-3.5205H23.98v3.5205a1.5162,1.5162,0,0,1-.5078,1.3125,2.4756,2.4756,0,0,1-1.4658.3682A2.4768,2.4768,0,0,1,20.5394,317.3793Z"/>
    <path d="M25.9886,313.3227H24.5042v-.7764h3.8291v.7764H26.8568v4.39h-.8682Z"/>
  </g>
  <g>
    <path d="M13.3822,70.9306a1.0547,1.0547,0,0,1,.3223-.8608,1.1789,1.1789,0,0,1,.7764-.2661q1.38,0,2.2266.0771v.7207H14.7327a.4953.4953,0,0,0-.36.126.477.477,0,0,0-.1289.3574v1.043l2.1484.0488v.6792l-2.1484.0488V74.97h-.8613Z"/>
    <path d="M17.4212,69.8036h2.1a1.5021,1.5021,0,0,1,1.043.3467,2.2172,2.2172,0,0,1,.1436,2.2573,1.3109,1.3109,0,0,1-.6328.4482l.9932,2.1138h-.875l-.8955-1.9878q-.4277,0-1.0146-.0142V74.97h-.8613Zm1.9531,2.4849a.691.691,0,0,0,.5215-.1924.9948.9948,0,0,0,.1855-.6895.8879.8879,0,0,0-.1855-.6509.7314.7314,0,0,0-.5215-.1753H18.2826v1.708Z"/>
    <path d="M22.1146,74.7875a.9461.9461,0,0,1-.3535-.875V70.9306a1.0547,1.0547,0,0,1,.3223-.8608,1.1789,1.1789,0,0,1,.7764-.2661q.6577,0,1.1338.021t1.0928.0562v.7207H23.1331a.5357.5357,0,0,0-.3779.1226.4753.4753,0,0,0-.1328.3677v.917l2.1484.0488v.6792l-2.1484.0488v.8892a.4518.4518,0,0,0,.5039.5181h1.96v.7207q-.8818.0776-2.1279.0913A1.5768,1.5768,0,0,1,22.1146,74.7875Z"/>
    <path d="M26.6751,74.8119a1.3169,1.3169,0,0,1-.665-.7627,6.1751,6.1751,0,0,1,.0039-3.3076,1.36,1.36,0,0,1,.668-.78,2.8258,2.8258,0,0,1,1.1836-.2065,2.8721,2.8721,0,0,1,1.1934.2065,1.3448,1.3448,0,0,1,.668.7769,4.7576,4.7576,0,0,1,.2246,1.6626,4.6132,4.6132,0,0,1-.2275,1.6484,1.3368,1.3368,0,0,1-.665.7627,3.6566,3.6566,0,0,1-2.3838,0Zm1.9287-.7173a.8232.8232,0,0,0,.3672-.5283,4.5308,4.5308,0,0,0,.1123-1.1655,4.6939,4.6939,0,0,0-.1152-1.2041.82.82,0,0,0-.3682-.5322,1.6171,1.6171,0,0,0-.7344-.1328,1.5369,1.5369,0,0,0-.7217.1367.8432.8432,0,0,0-.3711.5317,4.49,4.49,0,0,0-.1191,1.2007A4.5962,4.5962,0,0,0,26.763,73.57a.8136.8136,0,0,0,.36.5249,2.0251,2.0251,0,0,0,1.48,0Zm-.4619,1.9111a1.0229,1.0229,0,0,1-.417-.7842h.6025a.499.499,0,0,0,.2373.3223.8171.8171,0,0,0,.4131.105,1.9211,1.9211,0,0,0,.4063-.063v.6436a1.6541,1.6541,0,0,1-.3711.0493A1.44,1.44,0,0,1,28.1419,76.0058Z"/>
  </g>
  <g>
    <path d="M11.9993,353.9868H10.6908V352.768h3.9756v1.2188H13.3577v3.9824H11.9993Z"/>
    <path d="M16.27,353.9868H14.96V352.768h3.9766v1.2188h-1.31v3.9824H16.27Z"/>
    <path d="M18.9437,355.4008h2.1982v1.0771H18.9437Z"/>
    <path d="M21.6243,357.808v-1.0771q.7.063,1.6025.0625a1.2852,1.2852,0,0,0,.5254-.08.2831.2831,0,0,0,.168-.2773v-.084a.2719.2719,0,0,0-.1045-.2275.4218.4218,0,0,0-.26-.08h-.3711a1.8134,1.8134,0,0,1-1.2422-.3672,1.5248,1.5248,0,0,1-.4092-1.1865v-.2314a1.4173,1.4173,0,0,1,.4551-1.1475,2.02,2.02,0,0,1,1.3369-.3857,7.0636,7.0636,0,0,1,1.624.2031v1.0781q-.7837-.063-1.4561-.0625a1.2108,1.2108,0,0,0-.5039.08.3053.3053,0,0,0-.168.3047v.07q0,.356.4551.3564h.4619a1.4472,1.4472,0,0,1,1.0879.3926,1.3992,1.3992,0,0,1,.3818,1.0215v.2314a1.8622,1.8622,0,0,1-.2236.9971,1.1354,1.1354,0,0,1-.6338.4834,3.5847,3.5847,0,0,1-1.0537.1289A6.5769,6.5769,0,0,1,21.6243,357.808Z"/>
    <path d="M25.8451,352.768h1.3584v5.2012H25.8451Z"/>
    <path d="M27.973,352.768h1.0781l1.8271,2.8984V352.768h1.3584v5.2012H31.1585l-1.8271-2.8975v2.8975H27.973Z"/>
  </g>
  <g>
    <rect x="14.4" y="3.4306" width="14.4" height="9.1667" rx="4.5833" ry="4.5833" style="fill: #ef464c"/>
    <g>
      <path d="M18.8909,6.6232H17.5741V5.398h4V6.6232H20.257V10.63H18.8909Z" style="fill: #fff"/>
      <path d="M24.3091,9.4047h1.3168V10.63h-4V9.4047H22.943V5.398h1.3661Z" style="fill: #fff"/>
    </g>
  </g>
  <g>
    <path d="M14.6312,113.3261a1.0547,1.0547,0,0,1,.3223-.8608,1.1815,1.1815,0,0,1,.7773-.2661q1.3784,0,2.2256.0771v.7207H15.9827a.4938.4938,0,0,0-.36.126.4737.4737,0,0,0-.13.3574v1.043l2.1494.0488v.6792l-2.1494.0488v2.0649h-.8613Z"/>
    <path d="M18.67,112.1992h.8613v5.166H18.67Z"/>
    <path d="M20.5531,112.1992h.6934l2.3516,3.689v-3.689h.8682v5.166h-.6934l-2.3516-3.689v3.689h-.8682Z"/>
    <path d="M25.73,117.183a.9461.9461,0,0,1-.3535-.875v-2.9819a1.0547,1.0547,0,0,1,.3223-.8608,1.1789,1.1789,0,0,1,.7764-.2661q.6577,0,1.1338.021t1.0928.0562v.7207H26.7484a.5357.5357,0,0,0-.3779.1226.4753.4753,0,0,0-.1328.3677v.917l2.1484.0488v.6792l-2.1484.0488v.8892a.4518.4518,0,0,0,.5039.5181h1.96v.7207q-.8818.0776-2.1279.0913A1.5768,1.5768,0,0,1,25.73,117.183Z"/>
  </g>
  <line x1="21.6" y1="163.776" x2="21.6" y2="130.4687" style="fill: none;stroke: #ef464c;stroke-miterlimit: 10"/>
  <g>
    <path d="M14.054,250.8344a5.7909,5.7909,0,0,1-.7637-.1123v-.6787c.4209.0371.94.0557,1.5615.0557a1.508,1.508,0,0,0,.7109-.1328.5045.5045,0,0,0,.2412-.4834v-.2451a.5552.5552,0,0,0-.1543-.42.6358.6358,0,0,0-.4551-.1465h-.4824a1.6314,1.6314,0,0,1-1.1025-.3223,1.3208,1.3208,0,0,1-.3682-1.043V247.04a1.3263,1.3263,0,0,1,.4063-1.0713,1.8257,1.8257,0,0,1,1.2041-.3428,7.18,7.18,0,0,1,.7949.0488c.2861.0322.5322.07.7383.1123v.6787q-.9448-.063-1.4355-.0635a1.2236,1.2236,0,0,0-.6611.1436.5835.5835,0,0,0-.2207.5293v.1748a.5556.5556,0,0,0,.1719.4551.817.817,0,0,0,.5215.14H15.3a1.3119,1.3119,0,0,1,.99.3535,1.2909,1.2909,0,0,1,.34.9346v.3291a1.2471,1.2471,0,0,1-.4482,1.1094,2.2847,2.2847,0,0,1-1.2881.3047C14.6419,250.8764,14.3617,250.8618,14.054,250.8344Z"/>
    <path d="M18.73,249.2172l-1.582-3.5488h.8955l1.1348,2.667,1.1338-2.667h.875l-1.5889,3.5488v1.6172H18.73Z"/>
    <path d="M21.887,245.6684h.6924l2.3525,3.6885v-3.6885H25.8v5.166h-.6934l-2.3516-3.6895v3.6895H21.887Z"/>
    <path d="M27.3812,250.6694a1.3412,1.3412,0,0,1-.5977-.78,5.1378,5.1378,0,0,1-.207-1.6592,4.8208,4.8208,0,0,1,.21-1.6,1.4046,1.4046,0,0,1,.6162-.791,2.1955,2.1955,0,0,1,1.05-.22,5.3583,5.3583,0,0,1,.8438.0664,5.4591,5.4591,0,0,1,.7246.1572v.665a5.9644,5.9644,0,0,0-.5986-.0771c-.2588-.0234-.5244-.0352-.7949-.0352a1.4339,1.4339,0,0,0-.71.1436.848.848,0,0,0-.36.5361,4.522,4.522,0,0,0-.1123,1.1689,4.83,4.83,0,0,0,.1055,1.1689.8484.8484,0,0,0,.35.5391,1.4248,1.4248,0,0,0,.7207.1465,11.0955,11.0955,0,0,0,1.4-.0771v.665a5.6782,5.6782,0,0,1-1.5889.1895A2.2645,2.2645,0,0,1,27.3812,250.6694Z"/>
  </g>
  <line x1="21.6" y1="300.4955" x2="21.6" y2="267.1882" style="fill: none;stroke: #ef464c;stroke-miterlimit: 10"/>
</svg>
