<svg xmlns="http://www.w3.org/2000/svg" width="81.28mm" height="128.4993mm" viewBox="0 0 230.4 364.25">
  <title>WAVE</title>
  <g>
    <rect width="230.4" height="364.25" style="fill: #e6e6e6"/>
    <g>
      <path d="M105.1411,353.0278h1.4067l.644,3.1641.7769-3.1641h1.2183l.77,3.1641.644-3.1641h1.4067l-1.19,5.2012H109.46l-.8818-3.1777-.8892,3.1777h-1.3579Z"/>
      <path d="M113.373,353.0278h1.6938l1.54,5.2012H115.2l-.21-.8262h-1.561l-.2026.8262H111.833Zm1.3018,3.1572-.4687-2.002-.4624,2.002Z"/>
      <path d="M116.4321,353.0278h1.4067l.9873,3.7246.9868-3.7246h1.3931l-1.54,5.2012h-1.6938Z"/>
      <path d="M121.4507,357.0327v-2.7168a1.18,1.18,0,0,1,.3818-.99,1.4414,1.4414,0,0,1,.9136-.2979,22.8084,22.8084,0,0,1,2.2959.1055v1.1475h-1.876c-.2383,0-.3569.1035-.3569.3086v.4336l1.8828.07v1.0781l-1.8828.07v.3916a.4.4,0,0,0,.0806.2725.2759.2759,0,0,0,.22.0918h1.9321v1.1475q-.4343.063-1.0464.0947t-1.1729.0313Q121.4509,358.2709,121.4507,357.0327Z"/>
    </g>
    <rect x="108" y="3.6885" width="14.4" height="9.1667" rx="4.5833" ry="4.5833" style="fill: #ef464c"/>
    <path d="M112.4909,6.8811h-1.3168V5.6558h4V6.8811H113.857v4.0067h-1.3661Z" style="fill: #fff"/>
    <path d="M117.9091,9.6626h1.3168v1.2253h-4V9.6626h1.3168V5.6558h1.3661Z" style="fill: #fff"/>
    <rect x="57.9" y="17.0572" width="114.6" height="330.1869" rx="6.8944" ry="6.8944" style="fill: #ef464c"/>
    <rect x="12.8818" y="17.0069" width="36.8504" height="183.657" rx="5.6693" ry="5.6693" style="fill: #f9f9f9"/>
    <line x1="31.307" y1="208.9148" x2="31.307" y2="200.9148" style="fill: none;stroke: #ef464c;stroke-miterlimit: 10"/>
    <g>
      <path d="M23.7612,238.3354a5.782,5.782,0,0,1-.7632-.1123v-.6787c.42.0381.94.0557,1.561.0557a1.5066,1.5066,0,0,0,.7109-.1328.502.502,0,0,0,.2412-.4824v-.2461a.5549.5549,0,0,0-.1538-.42.6374.6374,0,0,0-.4551-.1465h-.4829a1.6314,1.6314,0,0,1-1.1025-.3223,1.3206,1.3206,0,0,1-.3677-1.043v-.2656a1.326,1.326,0,0,1,.4063-1.0713,1.8251,1.8251,0,0,1,1.2036-.3428,7.1731,7.1731,0,0,1,.7949.0488q.43.05.7383.1123v.6787q-.9448-.063-1.4351-.0625a1.2275,1.2275,0,0,0-.6616.1426.5844.5844,0,0,0-.22.5293v.1748a.5541.5541,0,0,0,.1714.4551.817.817,0,0,0,.5215.14h.5391a1.31,1.31,0,0,1,.99.3535,1.2924,1.2924,0,0,1,.34.9346v.3291a1.2459,1.2459,0,0,1-.4482,1.1094,2.2826,2.2826,0,0,1-1.2881.3047Q24.2231,238.3774,23.7612,238.3354Z"/>
      <path d="M28.437,236.7182l-1.582-3.5488h.896l1.1343,2.667,1.1338-2.667h.875l-1.5889,3.5488v1.6172H28.437Z"/>
      <path d="M31.5942,233.1694h.6929l2.3521,3.6885v-3.6885h.8682v5.166H34.814l-2.3516-3.6885v3.6885h-.8682Z"/>
      <path d="M37.0889,238.17a1.3375,1.3375,0,0,1-.5981-.7793,5.1427,5.1427,0,0,1-.2065-1.66,4.808,4.808,0,0,1,.21-1.6,1.402,1.402,0,0,1,.6157-.791,2.1989,2.1989,0,0,1,1.05-.22,5.88,5.88,0,0,1,1.5679.2236v.665a5.9253,5.9253,0,0,0-.5986-.0771q-.3882-.0352-.7944-.0352a1.435,1.435,0,0,0-.71.1445.8493.8493,0,0,0-.36.5352,4.5491,4.5491,0,0,0-.1123,1.1689,4.8248,4.8248,0,0,0,.1055,1.1689.845.845,0,0,0,.35.5391,1.4281,1.4281,0,0,0,.7212.1465,11.2955,11.2955,0,0,0,1.4-.0762v.6641a5.64,5.64,0,0,1-1.5889.1895A2.2514,2.2514,0,0,1,37.0889,238.17Z"/>
    </g>
    <g>
      <path d="M17.2192,28.0629a1.3414,1.3414,0,0,1-.5981-.78,5.14,5.14,0,0,1-.2065-1.6592,4.8041,4.8041,0,0,1,.21-1.6,1.3987,1.3987,0,0,1,.6157-.791,2.1929,2.1929,0,0,1,1.05-.22,5.4157,5.4157,0,0,1,.8433.0664,5.52,5.52,0,0,1,.7246.1572v.665q-.21-.0417-.5986-.0767t-.7944-.0352a1.436,1.436,0,0,0-.71.1436.85.85,0,0,0-.36.5356,4.5491,4.5491,0,0,0-.1123,1.1689,4.8248,4.8248,0,0,0,.1055,1.1689.8477.8477,0,0,0,.35.5391,1.4276,1.4276,0,0,0,.7212.147,11.1852,11.1852,0,0,0,1.4-.0771v.665a5.6776,5.6776,0,0,1-1.5889.189A2.2642,2.2642,0,0,1,17.2192,28.0629Z"/>
      <path d="M21.9932,23.0615h1.0923l1.68,5.166h-.9028l-.3989-1.2251H21.5942l-.3921,1.2251h-.8887Zm1.26,3.1641-.728-2.4219-.728,2.4219Z"/>
      <path d="M25.4023,23.0615h2.1353a1.5117,1.5117,0,0,1,1.0288.3535,1.7957,1.7957,0,0,1,.4063,1.3755q0,1.7783-1.4214,1.7778-.2168,0-.6367-.0347t-.6509-.07v1.7642h-.8613Zm2.0229,2.7231a.596.596,0,0,0,.5-.231,1.2514,1.2514,0,0,0,.1787-.7563q0-.9587-.6509-.959h-1.19v1.9463Z"/>
      <path d="M30.8208,23.8383H29.3364v-.7769h3.8291v.7769H31.6885v4.3892h-.8677Z"/>
      <path d="M34.1978,27.895a1.5173,1.5173,0,0,1-.5073-1.3125v-3.521h.8608v3.521a.8071.8071,0,0,0,.28.6963,1.7831,1.7831,0,0,0,1.666,0,.8082.8082,0,0,0,.28-.6963v-3.521h.8608v3.521a1.5173,1.5173,0,0,1-.5073,1.3125,3.1087,3.1087,0,0,1-2.9331,0Z"/>
      <path d="M38.5342,23.0615h2.1a1.5021,1.5021,0,0,1,1.043.3467,1.6462,1.6462,0,0,1,.3853,1.2563,1.6521,1.6521,0,0,1-.2417,1.001,1.31,1.31,0,0,1-.6333.4482l.9937,2.1138h-.875L40.41,26.24q-.427,0-1.0146-.0142v2.002h-.8613Zm1.9531,2.4849a.69.69,0,0,0,.5215-.1924.9923.9923,0,0,0,.1855-.6895.8857.8857,0,0,0-.1855-.6509.73.73,0,0,0-.5215-.1753H39.3955v1.708Z"/>
      <path d="M43.2275,28.0454a.9472.9472,0,0,1-.3535-.875V24.1884a1.0547,1.0547,0,0,1,.3223-.8608,1.18,1.18,0,0,1,.7769-.2661q.6577,0,1.1338.021t1.0923.0562v.7207H44.2461a.5374.5374,0,0,0-.3779.1226.4753.4753,0,0,0-.1328.3677v.917l2.1489.0488v.6792l-2.1489.0488v.8892a.4518.4518,0,0,0,.5039.5181h1.96v.7207q-.8818.0776-2.1279.0913A1.5792,1.5792,0,0,1,43.2275,28.0454Z"/>
    </g>
    <g>
      <path d="M26.6377,72.6323h-1.645V72.268H28.689v.3643h-1.645v4.7739h-.4062Z" style="fill: #848484"/>
      <path d="M30.0332,77.2626a1.2394,1.2394,0,0,1-.6162-.7422,4.9571,4.9571,0,0,1-.21-1.6553,5.0133,5.0133,0,0,1,.2134-1.6694,1.3077,1.3077,0,0,1,.6265-.77,2.5726,2.5726,0,0,1,1.1064-.2,2.61,2.61,0,0,1,1.1235.2,1.2855,1.2855,0,0,1,.6157.7666,5.1567,5.1567,0,0,1,.2065,1.6729,4.9444,4.9444,0,0,1-.21,1.6553,1.2394,1.2394,0,0,1-.6162.7422,3.4723,3.4723,0,0,1-2.24,0Zm2.0332-.3394a1.0124,1.0124,0,0,0,.4727-.6338,4.917,4.917,0,0,0,.1538-1.4243,5.2368,5.2368,0,0,0-.1538-1.4771,1.0043,1.0043,0,0,0-.4727-.6406,2.1133,2.1133,0,0,0-.9131-.1572,2.0334,2.0334,0,0,0-.8857.1572,1.0538,1.0538,0,0,0-.4863.6475,4.8189,4.8189,0,0,0-.168,1.47,5.25,5.25,0,0,0,.1436,1.4282.9756.9756,0,0,0,.4619.63,2.132,2.132,0,0,0,.9346.1611A2.0706,2.0706,0,0,0,32.0664,76.9233Z" style="fill: #848484"/>
      <path d="M34.1069,72.268h2.002q1.3022,0,1.3022,1.603a1.7,1.7,0,0,1-.3955,1.2949,1.357,1.357,0,0,1-.9414.3574c-.1357,0-.3745-.0073-.7178-.021s-.624-.0283-.8433-.042v1.9458h-.4062Zm1.918,2.8911q.98,0,.98-1.2881a1.4287,1.4287,0,0,0-.252-.9658.87.87,0,0,0-.6719-.2729H34.5132v2.5269Z" style="fill: #848484"/>
    </g>
    <g>
      <path d="M24.0166,121.0976l-.5249-4.5361-1.3369,4.5361h-.3779L20.4189,116.59l-.5044,4.5078h-.3921l.5811-5.1382h.4414l1.4209,4.5991,1.4-4.5991h.4478l.5952,5.1382Z" style="fill: #848484"/>
      <path d="M25.41,115.9594h.4063v5.1382H25.41Z" style="fill: #848484"/>
      <path d="M26.9565,115.9594h1.9883a1.3758,1.3758,0,0,1,1.2705.6338,3.79,3.79,0,0,1,.3882,1.9355,3.57,3.57,0,0,1-.4233,1.8862,1.3666,1.3666,0,0,1-1.2354.6826H26.9565Zm1.96,4.7744a1.0314,1.0314,0,0,0,.9624-.5884,3.42,3.42,0,0,0,.3188-1.6167,5.1356,5.1356,0,0,0-.1294-1.2812,1.2889,1.2889,0,0,0-.41-.7036,1.1657,1.1657,0,0,0-.7422-.22H27.3628v4.41Z" style="fill: #848484"/>
      <path d="M31.6187,115.9594h1.9883a1.3758,1.3758,0,0,1,1.2705.6338,3.79,3.79,0,0,1,.3882,1.9355,3.57,3.57,0,0,1-.4233,1.8862,1.3666,1.3666,0,0,1-1.2354.6826H31.6187Zm1.96,4.7744a1.0314,1.0314,0,0,0,.9624-.5884,3.42,3.42,0,0,0,.3188-1.6167,5.1356,5.1356,0,0,0-.1294-1.2812,1.2889,1.2889,0,0,0-.41-.7036,1.1657,1.1657,0,0,0-.7422-.22H32.0249v4.41Z" style="fill: #848484"/>
      <path d="M36.543,120.8769a.9345.9345,0,0,1-.2627-.7524v-4.165h.4063v4.1162a.6067.6067,0,0,0,.1782.5073.7448.7448,0,0,0,.4658.1367h1.9038v.3779H37.26A1.08,1.08,0,0,1,36.543,120.8769Z" style="fill: #848484"/>
      <path d="M40.291,120.9365a.8533.8533,0,0,1-.2939-.77v-3.22a.9424.9424,0,0,1,.2729-.7524.9971.9971,0,0,1,.6724-.2349q.3706,0,1.645.0352l.4966.021v.3149H41.0474a.6527.6527,0,0,0-.4761.1646.6709.6709,0,0,0-.168.5v1.3652l2.3867.0347v.3013l-2.3867.0347V120.09a.6061.6061,0,0,0,.189.5249.8613.8613,0,0,0,.5039.1328H43.084v.3149q-.9236.0425-2.0439.063A1.3626,1.3626,0,0,1,40.291,120.9365Z" style="fill: #848484"/>
    </g>
    <g>
      <path d="M18.29,159.6508h1.813a1.1451,1.1451,0,0,1,1.2813,1.3091,1.3225,1.3225,0,0,1-.21.7666.9544.9544,0,0,1-.5181.3955,1.2282,1.2282,0,0,1,.6265.3779,1.2086,1.2086,0,0,1,.2832.8608,1.4341,1.4341,0,0,1-.3569,1.11,1.53,1.53,0,0,1-1.05.3184H18.29Zm1.8481,2.3242a.77.77,0,0,0,.6157-.28,1.1056,1.1056,0,0,0,.2383-.7417q0-.9382-.896-.938h-1.4v1.96Zm.0142,2.45a1.074,1.074,0,0,0,.7593-.2451,1.1836,1.1836,0,0,0,.2627-.8823.94.94,0,0,0-.2905-.728,1.0421,1.0421,0,0,0-.7314-.2656H18.6963v2.1211Z" style="fill: #848484"/>
      <path d="M23.1621,164.6455a1.2394,1.2394,0,0,1-.6162-.7422,4.9571,4.9571,0,0,1-.21-1.6553,5.0133,5.0133,0,0,1,.2134-1.6694,1.3077,1.3077,0,0,1,.6265-.77,2.5726,2.5726,0,0,1,1.1064-.2,2.61,2.61,0,0,1,1.1235.2,1.2855,1.2855,0,0,1,.6157.7666,5.1567,5.1567,0,0,1,.2065,1.6729,4.9444,4.9444,0,0,1-.21,1.6553,1.2394,1.2394,0,0,1-.6162.7422,3.4723,3.4723,0,0,1-2.24,0Zm2.0332-.3394a1.0124,1.0124,0,0,0,.4727-.6338,4.917,4.917,0,0,0,.1538-1.4243,5.2368,5.2368,0,0,0-.1538-1.4771,1.0043,1.0043,0,0,0-.4727-.6406,2.1133,2.1133,0,0,0-.9131-.1572,2.0334,2.0334,0,0,0-.8857.1572,1.0538,1.0538,0,0,0-.4863.6475,4.8189,4.8189,0,0,0-.168,1.47,5.25,5.25,0,0,0,.1436,1.4282.9756.9756,0,0,0,.4619.63,2.132,2.132,0,0,0,.9346.1611A2.0706,2.0706,0,0,0,25.1953,164.3061Z" style="fill: #848484"/>
      <path d="M28.3911,160.0151h-1.645v-.3643h3.6963v.3643h-1.645v4.7739h-.4062Z" style="fill: #848484"/>
      <path d="M32.3809,160.0151h-1.645v-.3643h3.6963v.3643h-1.645v4.7739h-.4062Z" style="fill: #848484"/>
      <path d="M35.7764,164.6455a1.2394,1.2394,0,0,1-.6162-.7422,4.9571,4.9571,0,0,1-.21-1.6553,5.0133,5.0133,0,0,1,.2134-1.6694,1.3077,1.3077,0,0,1,.6265-.77,2.5726,2.5726,0,0,1,1.1064-.2,2.61,2.61,0,0,1,1.1235.2,1.2855,1.2855,0,0,1,.6157.7666,5.1567,5.1567,0,0,1,.2065,1.6729,4.9444,4.9444,0,0,1-.21,1.6553,1.2394,1.2394,0,0,1-.6162.7422,3.4723,3.4723,0,0,1-2.24,0Zm2.0332-.3394a1.0124,1.0124,0,0,0,.4727-.6338,4.917,4.917,0,0,0,.1538-1.4243,5.2368,5.2368,0,0,0-.1538-1.4771,1.0043,1.0043,0,0,0-.4727-.6406,2.1133,2.1133,0,0,0-.9131-.1572,2.0334,2.0334,0,0,0-.8857.1572,1.0538,1.0538,0,0,0-.4863.6475,4.8189,4.8189,0,0,0-.168,1.47,5.25,5.25,0,0,0,.1436,1.4282.9756.9756,0,0,0,.4619.63,2.132,2.132,0,0,0,.9346.1611A2.0706,2.0706,0,0,0,37.81,164.3061Z" style="fill: #848484"/>
      <path d="M44.064,164.789l-.5249-4.5361-1.3369,4.5361h-.3779l-1.3579-4.5078-.5044,4.5078H39.57l.5811-5.1382h.4414l1.4209,4.5991,1.4-4.5991h.4478l.5952,5.1382Z" style="fill: #848484"/>
    </g>
    <g>
      <path d="M23.3062,280.8041l-.4341-3.6953-1.022,3.6953h-.812l-1.0293-3.6748-.4131,3.6748h-.833l.5952-5.166h.84l1.2529,4.1377,1.2461-4.1377h.84l.6089,5.166Z"/>
      <path d="M24.9648,275.6381h.8613v5.166h-.8613Z"/>
      <path d="M26.7915,275.6381h2.1a1.5044,1.5044,0,0,1,1.043.3467,2.2211,2.2211,0,0,1,.1436,2.2578,1.31,1.31,0,0,1-.6333.4482l.9937,2.1133h-.875l-.896-1.9873q-.427,0-1.0146-.0146v2.002h-.8613Zm1.9531,2.4854a.6914.6914,0,0,0,.5215-.1924.994.994,0,0,0,.1855-.6895.8879.8879,0,0,0-.1855-.6514.7318.7318,0,0,0-.5215-.1748H27.6528v1.708Z"/>
      <path d="M31.1318,275.6381h2.1a1.5044,1.5044,0,0,1,1.043.3467,2.2211,2.2211,0,0,1,.1436,2.2578,1.31,1.31,0,0,1-.6333.4482l.9937,2.1133h-.875l-.896-1.9873q-.427,0-1.0146-.0146v2.002h-.8613Zm1.9531,2.4854a.6914.6914,0,0,0,.5215-.1924.994.994,0,0,0,.1855-.6895.8879.8879,0,0,0-.1855-.6514.7318.7318,0,0,0-.5215-.1748H31.9932v1.708Z"/>
      <path d="M36.2275,280.6469a1.3161,1.3161,0,0,1-.6646-.7627,6.1686,6.1686,0,0,1,.0034-3.3076,1.3588,1.3588,0,0,1,.6685-.78,2.8227,2.8227,0,0,1,1.1831-.207,2.87,2.87,0,0,1,1.1934.207,1.3442,1.3442,0,0,1,.6685.7764,4.7625,4.7625,0,0,1,.2241,1.6631,4.6168,4.6168,0,0,1-.2275,1.6484,1.335,1.335,0,0,1-.665.7627,3.6651,3.6651,0,0,1-2.3838,0Zm1.9287-.7178a.8224.8224,0,0,0,.3677-.5283,4.5309,4.5309,0,0,0,.1118-1.165,4.6666,4.6666,0,0,0-.1152-1.2041.8178.8178,0,0,0-.3677-.5322,1.6115,1.6115,0,0,0-.7349-.1328,1.53,1.53,0,0,0-.7212.1367.84.84,0,0,0-.3711.5313,4.4916,4.4916,0,0,0-.1191,1.2012,4.6236,4.6236,0,0,0,.1089,1.1689.8112.8112,0,0,0,.36.5244,2.0186,2.0186,0,0,0,1.48,0Z"/>
      <path d="M40.3364,275.6381h2.1a1.5044,1.5044,0,0,1,1.043.3467,2.2211,2.2211,0,0,1,.1436,2.2578,1.31,1.31,0,0,1-.6333.4482l.9937,2.1133h-.875l-.896-1.9873q-.427,0-1.0146-.0146v2.002h-.8613Zm1.9531,2.4854a.6914.6914,0,0,0,.5215-.1924.994.994,0,0,0,.1855-.6895.8879.8879,0,0,0-.1855-.6514.7318.7318,0,0,0-.5215-.1748H41.1978v1.708Z"/>
    </g>
    <g>
      <path d="M19.8232,60.8637h.8613V66.03h-.8613Z"/>
      <path d="M21.7061,60.8637h.6929l2.3521,3.689v-3.689h.8682V66.03h-.6934l-2.3516-3.689V66.03h-.8682Z"/>
      <path d="M26.5293,60.8637h2.1353a1.5117,1.5117,0,0,1,1.0288.3535A1.7957,1.7957,0,0,1,30.1,62.5927q0,1.7783-1.4214,1.7778-.2168,0-.6367-.0347t-.6509-.07V66.03h-.8613Zm2.0229,2.7231a.596.596,0,0,0,.5-.231,1.2514,1.2514,0,0,0,.1787-.7563q0-.9587-.6509-.959h-1.19v1.9463Z"/>
      <path d="M31.2715,65.6972a1.5173,1.5173,0,0,1-.5073-1.3125v-3.521h.8608v3.521a.8071.8071,0,0,0,.28.6963,1.7831,1.7831,0,0,0,1.666,0,.8082.8082,0,0,0,.28-.6963v-3.521h.8608v3.521a1.5173,1.5173,0,0,1-.5073,1.3125,3.1087,3.1087,0,0,1-2.9331,0Z"/>
      <path d="M36.7212,61.6406H35.2368v-.7769h3.8291v.7769H37.5889V66.03h-.8677Z"/>
      <path d="M40.3472,66.03a5.7919,5.7919,0,0,1-.7632-.1118v-.6792q.6306.0564,1.561.0562a1.5059,1.5059,0,0,0,.7109-.1333.5024.5024,0,0,0,.2412-.4829v-.2451a.5542.5542,0,0,0-.1538-.42.6375.6375,0,0,0-.4551-.147h-.4829a1.634,1.634,0,0,1-1.1025-.3218,1.3206,1.3206,0,0,1-.3677-1.043v-.2661a1.3254,1.3254,0,0,1,.4063-1.0713,1.8251,1.8251,0,0,1,1.2036-.3428,7.1731,7.1731,0,0,1,.7949.0488q.43.0491.7383.1123v.6787q-.9448-.063-1.4351-.063a1.2267,1.2267,0,0,0-.6616.1436.5835.5835,0,0,0-.22.5288v.1748a.5547.5547,0,0,0,.1714.4551.814.814,0,0,0,.5215.14h.5391a1.31,1.31,0,0,1,.99.353,1.2924,1.2924,0,0,1,.34.9346v.3291a1.2459,1.2459,0,0,1-.4482,1.1094,2.2826,2.2826,0,0,1-1.2881.3047Q40.8091,66.0717,40.3472,66.03Z"/>
    </g>
    <g>
      <path d="M195.3672,99.9682a1.0547,1.0547,0,0,1,.3223-.8608,1.18,1.18,0,0,1,.7769-.2661q1.3792,0,2.2261.0771v.7207h-1.9741a.4945.4945,0,0,0-.36.126.4754.4754,0,0,0-.1294.3574v1.043l2.1489.0488v.6792l-2.1489.0488v2.0649h-.8613Z"/>
      <path d="M199.4063,98.8413h.8613v5.166h-.8613Z"/>
      <path d="M201.2891,98.8413h.6929l2.3521,3.689v-3.689h.8682v5.166h-.6934l-2.3516-3.689v3.689h-.8682Z"/>
      <path d="M206.4653,103.8251a.9472.9472,0,0,1-.3535-.875V99.9682a1.0547,1.0547,0,0,1,.3223-.8608,1.18,1.18,0,0,1,.7769-.2661q.6577,0,1.1338.021t1.0923.0562v.7207h-1.9531a.5374.5374,0,0,0-.3779.1226.4753.4753,0,0,0-.1328.3677v.917l2.1489.0488v.6792l-2.1489.0488v.8892a.4518.4518,0,0,0,.5039.5181h1.96v.7207q-.8818.0776-2.1279.0913A1.5792,1.5792,0,0,1,206.4653,103.8251Z"/>
    </g>
    <line x1="202.3358" y1="141.8469" x2="202.3358" y2="133.8469" style="fill: none;stroke: #ef464c;stroke-miterlimit: 10"/>
    <g>
      <path d="M20.3271,323.34h2.1353a1.4689,1.4689,0,0,1,1.3613.6582,3.7336,3.7336,0,0,1,.4023,1.9248,3.4622,3.4622,0,0,1-.4409,1.9326,1.4916,1.4916,0,0,1-1.3228.65H20.3271Zm2.0513,4.39a.79.79,0,0,0,.749-.459,3.0156,3.0156,0,0,0,.2378-1.3477,4.4344,4.4344,0,0,0-.105-1.0918.9854.9854,0,0,0-.3184-.5527.9131.9131,0,0,0-.5635-.1611h-1.19V327.73Z"/>
      <path d="M25.4126,328.3247a.9478.9478,0,0,1-.3535-.875v-2.9824a1.0529,1.0529,0,0,1,.3223-.86,1.178,1.178,0,0,1,.7769-.2666q.6577,0,1.1338.0215t1.0923.0557v.7207H26.4312a.5352.5352,0,0,0-.3779.123.4749.4749,0,0,0-.1328.3672v.917l2.1489.0488v.68l-2.1489.0488v.8887a.452.452,0,0,0,.5039.5186h1.96v.7207q-.8818.0776-2.1279.0908A1.5834,1.5834,0,0,1,25.4126,328.3247Z"/>
      <path d="M30.3306,324.1176H28.8462V323.34h3.8291v.7773H31.1982v4.3887h-.8677Z"/>
      <path d="M34.2778,323.34H35.37l1.68,5.166H36.147l-.3989-1.2246H33.8789l-.3921,1.2246h-.8887Zm1.26,3.1641-.728-2.4219-.728,2.4219Z"/>
      <path d="M37.687,323.34h.8613v5.166H37.687Z"/>
      <path d="M39.8047,328.2368a1.16,1.16,0,0,1-.2905-.8848V323.34h.8613v3.8711a.495.495,0,0,0,.1362.3994.5756.5756,0,0,0,.3745.1113h1.7148v.7842H40.6694A1.231,1.231,0,0,1,39.8047,328.2368Z"/>
    </g>
    <line x1="202.3358" y1="65.1954" x2="202.3358" y2="57.1954" style="fill: none;stroke: #ef464c;stroke-miterlimit: 10"/>
    <g>
      <path d="M194.1177,24.1884a1.0547,1.0547,0,0,1,.3223-.8608,1.18,1.18,0,0,1,.7769-.2661q1.3792,0,2.2261.0771v.7207h-1.9741a.4945.4945,0,0,0-.36.126.4754.4754,0,0,0-.1294.3574v1.043l2.1489.0488v.6792l-2.1489.0488v2.0649h-.8613Z"/>
      <path d="M198.1567,23.0615h2.1a1.5021,1.5021,0,0,1,1.043.3467,1.6462,1.6462,0,0,1,.3853,1.2563,1.6521,1.6521,0,0,1-.2417,1.001,1.31,1.31,0,0,1-.6333.4482l.9937,2.1138h-.875l-.896-1.9878q-.427,0-1.0146-.0142v2.002h-.8613Zm1.9531,2.4849a.69.69,0,0,0,.5215-.1924.9923.9923,0,0,0,.1855-.6895.8857.8857,0,0,0-.1855-.6509.73.73,0,0,0-.5215-.1753h-1.0918v1.708Z"/>
      <path d="M202.85,28.0454a.9472.9472,0,0,1-.3535-.875V24.1884a1.0547,1.0547,0,0,1,.3223-.8608,1.18,1.18,0,0,1,.7769-.2661q.6577,0,1.1338.021t1.0923.0562v.7207h-1.9531a.5374.5374,0,0,0-.3779.1226.4753.4753,0,0,0-.1328.3677v.917l2.1489.0488v.6792l-2.1489.0488v.8892a.4518.4518,0,0,0,.5039.5181h1.96v.7207q-.8818.0776-2.1279.0913A1.5792,1.5792,0,0,1,202.85,28.0454Z"/>
      <path d="M207.4106,28.07a1.3146,1.3146,0,0,1-.6646-.7627,4.6705,4.6705,0,0,1-.2241-1.6484,4.6942,4.6942,0,0,1,.2275-1.6592,1.36,1.36,0,0,1,.6685-.78,2.8234,2.8234,0,0,1,1.1831-.2065,2.8705,2.8705,0,0,1,1.1934.2065,1.3438,1.3438,0,0,1,.6685.7769,4.7594,4.7594,0,0,1,.2241,1.6626,4.6132,4.6132,0,0,1-.2275,1.6484,1.3335,1.3335,0,0,1-.665.7627,3.6566,3.6566,0,0,1-2.3838,0Zm1.9287-.7173a.8237.8237,0,0,0,.3677-.5283,4.5352,4.5352,0,0,0,.1118-1.1655,4.6718,4.6718,0,0,0-.1152-1.2041.8191.8191,0,0,0-.3677-.5322,1.618,1.618,0,0,0-.7349-.1328,1.536,1.536,0,0,0-.7212.1367.8414.8414,0,0,0-.3711.5317,4.49,4.49,0,0,0-.1191,1.2007,4.6236,4.6236,0,0,0,.1089,1.1689.8136.8136,0,0,0,.36.5249,2.0251,2.0251,0,0,0,1.48,0Zm-.4619,1.9111a1.021,1.021,0,0,1-.4165-.7842h.6021a.5.5,0,0,0,.2378.3223.8146.8146,0,0,0,.4131.105,1.9255,1.9255,0,0,0,.4063-.063v.6436a1.6611,1.6611,0,0,1-.3711.0493A1.4419,1.4419,0,0,1,208.8774,29.2636Z"/>
    </g>
    <path d="M201.9014,178.2592l-1.582-3.5488h.8965l1.1338,2.667,1.1338-2.667h.875l-1.5889,3.5488v1.6172h-.8682Z"/>
    <line x1="202.3358" y1="217.7162" x2="202.3358" y2="209.7162" style="fill: none;stroke: #ef464c;stroke-miterlimit: 10"/>
    <rect x="183.9106" y="307.9977" width="36.8504" height="39.2456" rx="5.6693" ry="5.6693" style="fill: #ccc"/>
    <g>
      <path d="M196.7285,317.5512a1.3132,1.3132,0,0,1-.6646-.7627,6.1686,6.1686,0,0,1,.0034-3.3076,1.3619,1.3619,0,0,1,.6685-.78,2.8241,2.8241,0,0,1,1.1831-.2061,2.8712,2.8712,0,0,1,1.1934.2061,1.3433,1.3433,0,0,1,.6685.7773,4.7563,4.7563,0,0,1,.2241,1.6621,4.61,4.61,0,0,1-.2275,1.6484,1.3319,1.3319,0,0,1-.665.7627,3.6482,3.6482,0,0,1-2.3838,0Zm1.9287-.7168a.825.825,0,0,0,.3677-.5283,4.54,4.54,0,0,0,.1118-1.166,4.6769,4.6769,0,0,0-.1152-1.2041.82.82,0,0,0-.3677-.5322,1.6246,1.6246,0,0,0-.7349-.1328,1.5422,1.5422,0,0,0-.7212.1367.8426.8426,0,0,0-.3711.5322,4.4883,4.4883,0,0,0-.1191,1.2,4.6236,4.6236,0,0,0,.1089,1.1689.816.816,0,0,0,.36.5254,2.0317,2.0317,0,0,0,1.48,0Z"/>
      <path d="M201.2749,317.3764a1.5173,1.5173,0,0,1-.5073-1.3125v-3.5205h.8608v3.5205a.8059.8059,0,0,0,.28.6963,1.7794,1.7794,0,0,0,1.666,0,.807.807,0,0,0,.28-.6963v-3.5205h.8608v3.5205a1.5173,1.5173,0,0,1-.5073,1.3125,3.105,3.105,0,0,1-2.9331,0Z"/>
      <path d="M206.7246,313.32H205.24v-.7764h3.8291v.7764h-1.4771v4.39h-.8677Z"/>
    </g>
  </g>
</svg>
