<svg xmlns="http://www.w3.org/2000/svg" width="30.48mm" height="128.4993mm" viewBox="0 0 86.4 364.25"><title>SHC16</title><rect width="86.4" height="364.25" style="fill:#262730"/><rect x="36" y="3.6885" width="14.4" height="9.1667" rx="4.5833" ry="4.5833" style="fill:#ef464c"/><path d="M40.4909,6.8811H39.1741V5.6558h4V6.8811H41.857v4.0067H40.4909Z" style="fill:#fff"/><path d="M45.9091,9.6626h1.3168v1.2253h-4V9.6626H44.543V5.6558h1.3661Z" style="fill:#fff"/><rect x="3.8687" y="17.0094" width="35.4667" height="46.4934" rx="5.6693" ry="5.6693" style="fill:#ef464c"/><path d="M15.7752,23.84H14.2908V23.063H18.12V23.84H16.6424V28.229h-.8672Z" style="fill:#f8f9f9"/><path d="M18.7146,23.063h2.1a1.5021,1.5021,0,0,1,1.043.3467,1.6462,1.6462,0,0,1,.3857,1.2563,1.6518,1.6518,0,0,1-.2422,1.001,1.3109,1.3109,0,0,1-.6328.4482l.9932,2.1138h-.875l-.8955-1.9878q-.4277,0-1.0146-.0142v2.002h-.8613Zm1.9531,2.4849a.691.691,0,0,0,.5215-.1924.9948.9948,0,0,0,.1855-.6895.8879.8879,0,0,0-.1855-.6509.7314.7314,0,0,0-.5215-.1753H19.576v1.708Z" style="fill:#f8f9f9"/><path d="M23.0545,23.063h.8613v5.166h-.8613Z" style="fill:#f8f9f9"/><path d="M25.3748,27.9629a1.5971,1.5971,0,0,1-.49-.8716,6.4122,6.4122,0,0,1-.1357-1.4521,5.5834,5.5834,0,0,1,.1572-1.4668,1.547,1.547,0,0,1,.56-.8608,1.8867,1.8867,0,0,1,1.1377-.2974,7.2026,7.2026,0,0,1,1.7148.21v.665c-.1729-.0234-.4043-.0459-.6963-.0669s-.582-.0312-.8711-.0312a1.2079,1.2079,0,0,0-.7109.1748.924.924,0,0,0-.332.5674,5.2093,5.2093,0,0,0-.0918,1.1128,5.2437,5.2437,0,0,0,.0918,1.1235.8925.8925,0,0,0,.3037.5425,1.055,1.055,0,0,0,.62.1538,3.01,3.01,0,0,0,.5742-.0557,3.8151,3.8151,0,0,0,.5107-.1333v-1.19h-1.043V25.415q.2095-.0278.5391-.0488t.6436-.021q.42,0,.6934.021V28.229h-.6514l-.1191-.3569a3.3941,3.3941,0,0,1-.65.2729,2.5637,2.5637,0,0,1-.7773.1191A1.4593,1.4593,0,0,1,25.3748,27.9629Z" style="fill:#f8f9f9"/><rect x="46.2" y="17.0094" width="35.4667" height="330.2362" rx="5.6693" ry="5.6693" style="fill:#18191e"/><path d="M58.326,28.0718a1.3124,1.3124,0,0,1-.6641-.7627,4.6687,4.6687,0,0,1-.2246-1.6484,4.7055,4.7055,0,0,1,.2275-1.6592,1.361,1.361,0,0,1,.6689-.78,2.8209,2.8209,0,0,1,1.1826-.2065,2.869,2.869,0,0,1,1.1934.2065,1.3428,1.3428,0,0,1,.6689.7769,4.7613,4.7613,0,0,1,.2236,1.6626,4.6132,4.6132,0,0,1-.2275,1.6484,1.33,1.33,0,0,1-.665.7627,3.6566,3.6566,0,0,1-2.3838,0Zm1.9287-.7173a.8242.8242,0,0,0,.3682-.5283,4.54,4.54,0,0,0,.1113-1.1655,4.65,4.65,0,0,0-.1152-1.2041.8187.8187,0,0,0-.3672-.5322,1.6189,1.6189,0,0,0-.7354-.1328,1.5352,1.5352,0,0,0-.7207.1367.84.84,0,0,0-.3711.5317,4.49,4.49,0,0,0-.1191,1.2007,4.6513,4.6513,0,0,0,.1084,1.1689.8136.8136,0,0,0,.36.5249,2.0251,2.0251,0,0,0,1.48,0Z" style="fill:#c8cace"/><path d="M62.8729,27.897a1.5162,1.5162,0,0,1-.5078-1.3125v-3.521h.8613v3.521a.8058.8058,0,0,0,.28.6963,1.7831,1.7831,0,0,0,1.666,0,.808.808,0,0,0,.2793-.6963v-3.521h.8613v3.521a1.5162,1.5162,0,0,1-.5078,1.3125,3.1077,3.1077,0,0,1-2.9326,0Z" style="fill:#c8cace"/><path d="M68.3221,23.84H66.8377v-.7769h3.8291V23.84H69.19v4.3892h-.8682Z" style="fill:#c8cace"/><path d="M14.949,76.063h.8955l1.33,4.2349,1.33-4.2349H19.4l-1.68,5.166H16.6287Z" style="fill:#c8cace"/><path d="M21.15,76.063H22.243l1.68,5.166h-.9033l-.3984-1.2251H20.7518l-.3926,1.2251h-.8887Zm1.2607,3.1641-.7285-2.4219-.7275,2.4219Z" style="fill:#c8cace"/><path d="M24.5594,76.063H26.66a1.5021,1.5021,0,0,1,1.043.3467,2.2233,2.2233,0,0,1,.1436,2.2573,1.3091,1.3091,0,0,1-.6338.4482l.9941,2.1138h-.875l-.8965-1.9878c-.2842,0-.623-.0049-1.0146-.0142v2.002h-.8613Zm1.9531,2.4849a.6881.6881,0,0,0,.5215-.1924.99.99,0,0,0,.1855-.6895.8836.8836,0,0,0-.1855-.6509.7282.7282,0,0,0-.5215-.1753H25.4207v1.708Z" style="fill:#c8cace"/><path d="M14.574,132.063h1.9736q1.4282,0,1.4277,1.3442a1.3246,1.3246,0,0,1-.1992.7524.8831.8831,0,0,1-.5283.3813,1.184,1.184,0,0,1,.6338.4023,1.2919,1.2919,0,0,1,.2627.8574,1.3913,1.3913,0,0,1-.3789,1.0991,1.6842,1.6842,0,0,1-1.1338.3291H14.574Zm1.9883,2.1841a.5251.5251,0,0,0,.4268-.1963.8.8,0,0,0,.1611-.5249q0-.6855-.6094-.686H15.4354v1.4072Zm.042,2.2051a.7125.7125,0,0,0,.5313-.1855.8514.8514,0,0,0,.1826-.6128.7172.7172,0,0,0-.2-.5386.7.7,0,0,0-.5137-.1963H15.4354v1.5332Z" style="fill:#c8cace"/><path d="M18.907,132.063h.8613v5.166H18.907Z" style="fill:#c8cace"/><path d="M22.0916,132.063h1.0918l1.68,5.166h-.9023l-.3994-1.2251H21.6922l-.3916,1.2251h-.8887Zm1.26,3.1641-.7275-2.4219-.7285,2.4219Z" style="fill:#c8cace"/><path d="M26.1863,137.229a5.783,5.783,0,0,1-.7627-.1118v-.6792q.63.0564,1.5605.0562a1.5046,1.5046,0,0,0,.7109-.1333.5015.5015,0,0,0,.2412-.4829v-.2451a.554.554,0,0,0-.1533-.42.6391.6391,0,0,0-.4551-.147h-.4834a1.634,1.634,0,0,1-1.1025-.3218,1.3205,1.3205,0,0,1-.3672-1.043v-.2661a1.3238,1.3238,0,0,1,.4063-1.0713,1.8245,1.8245,0,0,1,1.2031-.3428,7.1661,7.1661,0,0,1,.7949.0488q.4307.0491.7383.1123v.6787q-.9448-.063-1.4346-.063a1.23,1.23,0,0,0-.6621.1436.5844.5844,0,0,0-.22.5288v.1748a.5546.5546,0,0,0,.1709.4551.814.814,0,0,0,.5215.14h.5391a1.3088,1.3088,0,0,1,.99.353,1.2924,1.2924,0,0,1,.34.9346v.3291a1.2459,1.2459,0,0,1-.4482,1.1094,2.28,2.28,0,0,1-1.2881.3047C26.7742,137.271,26.4949,137.2568,26.1863,137.229Z" style="fill:#c8cace"/><path d="M16.782,187.541a1.5185,1.5185,0,0,1-.5068-1.3125V182.707h.86v3.5215a.81.81,0,0,0,.28.6963,1.3951,1.3951,0,0,0,.833.2061,1.3971,1.3971,0,0,0,.833-.2061.81.81,0,0,0,.28-.6963V182.707h.86v3.5215a1.5185,1.5185,0,0,1-.5068,1.3125,2.4792,2.4792,0,0,1-1.4668.3672A2.4792,2.4792,0,0,1,16.782,187.541Z" style="fill:#c8cace"/><path d="M21.1746,182.707h.6934l2.3516,3.6895V182.707h.8682v5.166h-.6934l-2.3516-3.6885v3.6885h-.8682Z" style="fill:#c8cace"/><path d="M25.9979,182.707h.8613v5.166h-.8613Z" style="fill:#c8cace"/><path d="M19.0047,217.707h1.9746q1.4282,0,1.4277,1.3447a1.324,1.324,0,0,1-.1992.752.8887.8887,0,0,1-.5283.3818,1.1787,1.1787,0,0,1,.6328.4023,1.291,1.291,0,0,1,.2627.8574,1.3892,1.3892,0,0,1-.3779,1.0986,1.6842,1.6842,0,0,1-1.1338.3291H19.0047Zm1.9883,2.1846a.5238.5238,0,0,0,.4268-.1963.8021.8021,0,0,0,.1611-.5254q0-.6855-.6084-.6855H19.866v1.4072Zm.042,2.2051a.7153.7153,0,0,0,.5322-.1855.8573.8573,0,0,0,.1816-.6133.7185.7185,0,0,0-.1992-.5381.7026.7026,0,0,0-.5146-.1963H19.866v1.5332Z" style="fill:#c8cace"/><path d="M23.3377,217.707h.8613v5.166h-.8613Z" style="fill:#c8cace"/><path d="M33.4627,358.0674V356.99q.7.063,1.6035.0625a1.2852,1.2852,0,0,0,.5254-.08.2845.2845,0,0,0,.168-.2773v-.084a.27.27,0,0,0-.1055-.2275.4189.4189,0,0,0-.2588-.08h-.3711a1.81,1.81,0,0,1-1.2422-.3672,1.5215,1.5215,0,0,1-.41-1.1865v-.2314a1.42,1.42,0,0,1,.4551-1.1475,2.0214,2.0214,0,0,1,1.3369-.3857,7.0571,7.0571,0,0,1,1.624.2031v1.0781q-.7837-.063-1.4561-.0625a1.217,1.217,0,0,0-.5039.08.3068.3068,0,0,0-.168.3047v.07q0,.356.4551.3564h.4619a1.45,1.45,0,0,1,1.0889.3926,1.4026,1.4026,0,0,1,.3809,1.0215v.2314a1.8622,1.8622,0,0,1-.2236.9971,1.1321,1.1321,0,0,1-.6338.4834,3.5776,3.5776,0,0,1-1.0527.1289A6.59,6.59,0,0,1,33.4627,358.0674Z" style="fill:#c8cace"/><path d="M37.6834,353.0273h1.3584v2.002h1.54v-2.002H41.94v5.2012H40.5818v-1.98h-1.54v1.98H37.6834Z" style="fill:#c8cace"/><path d="M43.4344,358.0605a1.3975,1.3975,0,0,1-.6338-.791,4.8,4.8,0,0,1-.2236-1.6592,4.4484,4.4484,0,0,1,.2344-1.62,1.4759,1.4759,0,0,1,.6475-.7949,2.1975,2.1975,0,0,1,1.0293-.2168,5.3594,5.3594,0,0,1,1.0107.084,3.7248,3.7248,0,0,1,.6973.1963v1.0566a5.6673,5.6673,0,0,0-.6025-.084q-.3706-.0352-.8047-.0352a1.0605,1.0605,0,0,0-.5186.1016.6275.6275,0,0,0-.2549.4033,3.8611,3.8611,0,0,0-.0811.9238,4.395,4.395,0,0,0,.0664.8887.6526.6526,0,0,0,.249.417,1.0057,1.0057,0,0,0,.5527.1221,11.4889,11.4889,0,0,0,1.3936-.0625v1.0566a4.8854,4.8854,0,0,1-1.708.2236A2.296,2.296,0,0,1,43.4344,358.0605Z" style="fill:#c8cace"/><path d="M47.4275,354.2734h-.8262v-.8682l.98-.42h1.2041v5.2432H47.4275Z" style="fill:#c8cace"/><path d="M50.0711,358.05a1.3494,1.3494,0,0,1-.5322-.77,5.1818,5.1818,0,0,1-.1787-1.5361,4.6437,4.6437,0,0,1,.2383-1.6562,1.5936,1.5936,0,0,1,.6826-.8535,2.2731,2.2731,0,0,1,1.123-.249,5.4254,5.4254,0,0,1,1.3438.1406v1.0781H51.5652a.813.813,0,0,0-.6543.2275,1.03,1.03,0,0,0-.1924.6816,1.3112,1.3112,0,0,1,.3955-.1182,4.8559,4.8559,0,0,1,.6055-.0283,1.3464,1.3464,0,0,1,1.0459.332,1.3663,1.3663,0,0,1,.291.9277v.7559a1.2455,1.2455,0,0,1-.3506.9736,1.4243,1.4243,0,0,1-.9863.3145h-.7217A1.7245,1.7245,0,0,1,50.0711,358.05Zm1.3262-.9971a.2756.2756,0,0,0,.2344-.0879.4448.4448,0,0,0,.0664-.27V356.5a.4455.4455,0,0,0-.0771-.3047.4174.4174,0,0,0-.3008-.08h-.6016a2.4075,2.4075,0,0,0,.0518.5732.4693.4693,0,0,0,.1719.2842.5953.5953,0,0,0,.3359.08Z" style="fill:#c8cace"/></svg>