<svg xmlns="http://www.w3.org/2000/svg" width="15.24mm" height="128.4993mm" viewBox="0 0 43.2 364.25">
  <title>TTSQR</title>
  <rect width="43.2" height="364.25" style="fill: #262730"/>
  <rect x="3.8667" y="16.75" width="35.4667" height="46.4934" rx="5.6693" ry="5.6693" style="fill: #2e3038"/>
  <g>
    <path d="M11.3312,24.0619h.8955l1.33,4.2349,1.33-4.2349h.8965l-1.68,5.166H13.0109Z"/>
    <path d="M18.0294,23.8378h.8691l-1.9668,5.894h-.8691Z"/>
    <path d="M20.2628,29.07a1.3169,1.3169,0,0,1-.665-.7627,4.6952,4.6952,0,0,1-.2236-1.6484A4.6829,4.6829,0,0,1,19.6017,25a1.3631,1.3631,0,0,1,.668-.78,2.8289,2.8289,0,0,1,1.1836-.2065,2.8721,2.8721,0,0,1,1.1934.2065,1.3381,1.3381,0,0,1,.668.7769,4.7345,4.7345,0,0,1,.2246,1.6626,4.6132,4.6132,0,0,1-.2275,1.6484,1.3335,1.3335,0,0,1-.665.7627,2.9245,2.9245,0,0,1-1.1934.2A2.9282,2.9282,0,0,1,20.2628,29.07Zm1.9287-.7173a.8232.8232,0,0,0,.3672-.5283,4.5308,4.5308,0,0,0,.1123-1.1655,4.65,4.65,0,0,0-.1152-1.2041.82.82,0,0,0-.3682-.5322,1.6143,1.6143,0,0,0-.7344-.1328,1.5352,1.5352,0,0,0-.7207.1367.84.84,0,0,0-.3711.5317,4.45,4.45,0,0,0-.1191,1.2007,4.6054,4.6054,0,0,0,.1084,1.1689.8136.8136,0,0,0,.36.5249,2.0251,2.0251,0,0,0,1.48,0Z"/>
    <path d="M25.0431,29.0634a1.3428,1.3428,0,0,1-.5977-.78,5.1378,5.1378,0,0,1-.207-1.6592,4.7876,4.7876,0,0,1,.2109-1.6,1.3961,1.3961,0,0,1,.6152-.791,2.1964,2.1964,0,0,1,1.0508-.22,5.4142,5.4142,0,0,1,.8428.0664,5.5026,5.5026,0,0,1,.7246.1572v.665q-.2095-.0417-.5986-.0767t-.7949-.0352a1.4339,1.4339,0,0,0-.71.1436.85.85,0,0,0-.36.5356,4.5714,4.5714,0,0,0-.1123,1.1689,4.8248,4.8248,0,0,0,.1055,1.1689.8458.8458,0,0,0,.35.5391,1.4259,1.4259,0,0,0,.7217.147,11.1824,11.1824,0,0,0,1.3994-.0771v.665a5.6752,5.6752,0,0,1-1.5889.189A2.265,2.265,0,0,1,25.0431,29.0634Z"/>
    <path d="M29.5734,24.8388H28.089v-.7769h3.8291v.7769H30.4415V29.228h-.8682Z"/>
  </g>
  <circle cx="21.6" cy="45.2534" r="14.3518" style="fill: #ef464c"/>
  <rect x="3.8667" y="280.0513" width="35.4667" height="66.935" rx="5.6693" ry="5.6693" style="fill: #18191e"/>
  <g>
    <path d="M15.9933,317.5541a1.3155,1.3155,0,0,1-.665-.7627,6.1751,6.1751,0,0,1,.0039-3.3076,1.3612,1.3612,0,0,1,.668-.78,2.8265,2.8265,0,0,1,1.1836-.2061,2.8728,2.8728,0,0,1,1.1934.2061,1.3443,1.3443,0,0,1,.668.7773,4.7545,4.7545,0,0,1,.2246,1.6621,4.61,4.61,0,0,1-.2275,1.6484,1.3353,1.3353,0,0,1-.665.7627,2.9154,2.9154,0,0,1-1.1934.2A2.9191,2.9191,0,0,1,15.9933,317.5541Zm1.9287-.7168a.8245.8245,0,0,0,.3672-.5283,4.5351,4.5351,0,0,0,.1123-1.166,4.6991,4.6991,0,0,0-.1152-1.2041.8208.8208,0,0,0-.3682-.5322,1.6237,1.6237,0,0,0-.7344-.1328,1.543,1.543,0,0,0-.7217.1367.8444.8444,0,0,0-.3711.5322,4.4883,4.4883,0,0,0-.1191,1.2,4.5962,4.5962,0,0,0,.1094,1.1689.816.816,0,0,0,.36.5254,1.57,1.57,0,0,0,.7422.14A1.5762,1.5762,0,0,0,17.922,316.8373Z"/>
    <path d="M20.5392,317.3793a1.5185,1.5185,0,0,1-.5068-1.3125v-3.5205h.86v3.5205a.8072.8072,0,0,0,.28.6963,1.7794,1.7794,0,0,0,1.666,0,.8072.8072,0,0,0,.28-.6963v-3.5205h.86v3.5205a1.5185,1.5185,0,0,1-.5068,1.3125,2.4789,2.4789,0,0,1-1.4668.3682A2.4789,2.4789,0,0,1,20.5392,317.3793Z"/>
    <path d="M25.9894,313.3227H24.505v-.7764h3.8291v.7764H26.8566v4.39h-.8672Z"/>
  </g>
  <g>
    <path d="M13.382,70.9306a1.0547,1.0547,0,0,1,.3223-.8608,1.1789,1.1789,0,0,1,.7764-.2661q1.38,0,2.2266.0771v.7207H14.7325a.4953.4953,0,0,0-.36.126.477.477,0,0,0-.1289.3574v1.043l2.1484.0488v.6792l-2.1484.0488V74.97H13.382Z"/>
    <path d="M17.421,69.8036h2.1a1.5021,1.5021,0,0,1,1.043.3467,2.2172,2.2172,0,0,1,.1436,2.2573,1.3109,1.3109,0,0,1-.6328.4482l.9932,2.1138h-.875l-.8955-1.9878q-.4277,0-1.0146-.0142V74.97H17.421Zm1.9531,2.4849a.691.691,0,0,0,.5215-.1924.9948.9948,0,0,0,.1855-.6895.8879.8879,0,0,0-.1855-.6509.7314.7314,0,0,0-.5215-.1753H18.2823v1.708Z"/>
    <path d="M22.1144,74.7875a.9461.9461,0,0,1-.3535-.875V70.9306a1.0547,1.0547,0,0,1,.3223-.8608,1.1789,1.1789,0,0,1,.7764-.2661q.6577,0,1.1338.021t1.0928.0562v.7207H23.1329a.5357.5357,0,0,0-.3779.1226.4753.4753,0,0,0-.1328.3677v.917l2.1484.0488v.6792l-2.1484.0488v.8892a.4518.4518,0,0,0,.5039.5181h1.96v.7207q-.8818.0776-2.1279.0913A1.5768,1.5768,0,0,1,22.1144,74.7875Z"/>
    <path d="M26.6749,74.8119a1.3169,1.3169,0,0,1-.665-.7627,6.1751,6.1751,0,0,1,.0039-3.3076,1.36,1.36,0,0,1,.668-.78,2.8258,2.8258,0,0,1,1.1836-.2065,2.8721,2.8721,0,0,1,1.1934.2065,1.3448,1.3448,0,0,1,.668.7769,4.7576,4.7576,0,0,1,.2246,1.6626,4.6132,4.6132,0,0,1-.2275,1.6484,1.3368,1.3368,0,0,1-.665.7627,3.6566,3.6566,0,0,1-2.3838,0Zm1.9287-.7173a.8232.8232,0,0,0,.3672-.5283,4.5308,4.5308,0,0,0,.1123-1.1655,4.6939,4.6939,0,0,0-.1152-1.2041.82.82,0,0,0-.3682-.5322,1.6171,1.6171,0,0,0-.7344-.1328,1.5369,1.5369,0,0,0-.7217.1367.8432.8432,0,0,0-.3711.5317,4.49,4.49,0,0,0-.1191,1.2007,4.5962,4.5962,0,0,0,.1094,1.1689.8136.8136,0,0,0,.36.5249,2.0251,2.0251,0,0,0,1.48,0Zm-.4619,1.9111a1.0229,1.0229,0,0,1-.417-.7842h.6025a.499.499,0,0,0,.2373.3223.8171.8171,0,0,0,.4131.105,1.9211,1.9211,0,0,0,.4063-.063v.6436a1.6541,1.6541,0,0,1-.3711.0493A1.44,1.44,0,0,1,28.1417,76.0058Z"/>
  </g>
  <g>
    <path d="M10.8624,353.9868h-1.31V352.768h3.9766v1.2188H12.22v3.9824H10.8624Z"/>
    <path d="M15.132,353.9868H13.8234V352.768h3.9756v1.2188H16.49v3.9824H15.132Z"/>
    <path d="M17.8068,355.4008H20.004v1.0771H17.8068Z"/>
    <path d="M20.4864,357.808v-1.0771q.7.063,1.6035.0625a1.2852,1.2852,0,0,0,.5254-.08.2845.2845,0,0,0,.168-.2773v-.084a.27.27,0,0,0-.1055-.2275.4189.4189,0,0,0-.2588-.08H22.048a1.81,1.81,0,0,1-1.2422-.3672,1.5215,1.5215,0,0,1-.41-1.1865v-.2314a1.42,1.42,0,0,1,.4551-1.1475,2.0214,2.0214,0,0,1,1.3369-.3857,7.0571,7.0571,0,0,1,1.624.2031v1.0781q-.7837-.063-1.4561-.0625a1.217,1.217,0,0,0-.5039.08.3068.3068,0,0,0-.168.3047v.07q0,.356.4551.3564h.4619a1.45,1.45,0,0,1,1.0889.3926A1.4026,1.4026,0,0,1,24.07,356.17v.2314a1.8622,1.8622,0,0,1-.2236.9971,1.1321,1.1321,0,0,1-.6338.4834,3.5776,3.5776,0,0,1-1.0527.1289A6.59,6.59,0,0,1,20.4864,357.808Z"/>
    <path d="M25.5372,357.8012a1.4122,1.4122,0,0,1-.7168-.7842,5.6885,5.6885,0,0,1,0-3.3037,1.4154,1.4154,0,0,1,.7168-.7842,3.9078,3.9078,0,0,1,2.5273,0,1.4169,1.4169,0,0,1,.7178.7842,5.6885,5.6885,0,0,1,0,3.3037,1.4137,1.4137,0,0,1-.7178.7842,3.9078,3.9078,0,0,1-2.5273,0Zm1.8066-1.123a.6529.6529,0,0,0,.252-.417,4.0676,4.0676,0,0,0,.0732-.8955,4.3253,4.3253,0,0,0-.07-.9141.5973.5973,0,0,0-.252-.4053,1.417,1.417,0,0,0-1.0918,0,.6041.6041,0,0,0-.252.4053,4.3253,4.3253,0,0,0-.07.9141,3.996,3.996,0,0,0,.0742.8955.6529.6529,0,0,0,.252.417,1.3345,1.3345,0,0,0,1.085,0Zm-.1367,2.6631a1.295,1.295,0,0,1-.57-.4131,1.0808,1.0808,0,0,1-.2207-.6924h.9375a.27.27,0,0,0,.1689.22.85.85,0,0,0,.3564.0674,1.2236,1.2236,0,0,0,.2764-.0352c.1006-.0234.167-.0381.2-.042v.9795l-.1611.0215a1.4444,1.4444,0,0,1-.2383.0273A2.0882,2.0882,0,0,1,27.2071,359.3412Z"/>
    <path d="M29.6642,352.768h2.2188a1.6022,1.6022,0,0,1,1.1553.3955,1.8269,1.8269,0,0,1,.4131,1.3545,1.861,1.861,0,0,1-.1855.9209,1.4179,1.4179,0,0,1-.5215.5146l.9033,2.0156h-1.38l-.7275-1.792h-.5176v1.792H29.6642Zm1.9736,2.3311a.42.42,0,0,0,.3438-.1357.6935.6935,0,0,0,.1113-.4375.6252.6252,0,0,0-.1084-.42.4451.4451,0,0,0-.3467-.1191h-.6152v1.1123Z"/>
  </g>
  <g>
    <rect x="14.4" y="3.4306" width="14.4" height="9.1667" rx="4.5833" ry="4.5833" style="fill: #ef464c"/>
    <g>
      <path d="M18.8909,6.6232H17.5741V5.398h4V6.6232H20.257V10.63H18.8909Z" style="fill: #fff"/>
      <path d="M24.3091,9.4047h1.3168V10.63h-4V9.4047H22.943V5.398h1.3661Z" style="fill: #fff"/>
    </g>
  </g>
  <g>
    <path d="M14.631,113.3261a1.0547,1.0547,0,0,1,.3223-.8608,1.1815,1.1815,0,0,1,.7773-.2661q1.3784,0,2.2256.0771v.7207H15.9825a.4938.4938,0,0,0-.36.126.4737.4737,0,0,0-.13.3574v1.043l2.1494.0488v.6792l-2.1494.0488v2.0649H14.631Z"/>
    <path d="M18.67,112.1992h.8613v5.166H18.67Z"/>
    <path d="M20.5529,112.1992h.6934l2.3516,3.689v-3.689h.8682v5.166h-.6934l-2.3516-3.689v3.689h-.8682Z"/>
    <path d="M25.73,117.183a.9461.9461,0,0,1-.3535-.875v-2.9819a1.0547,1.0547,0,0,1,.3223-.8608,1.1789,1.1789,0,0,1,.7764-.2661q.6577,0,1.1338.021t1.0928.0562v.7207H26.7482a.5357.5357,0,0,0-.3779.1226.4753.4753,0,0,0-.1328.3677v.917l2.1484.0488v.6792l-2.1484.0488v.8892a.4518.4518,0,0,0,.5039.5181h1.96v.7207q-.8818.0776-2.1279.0913A1.5768,1.5768,0,0,1,25.73,117.183Z"/>
  </g>
  <line x1="21.6" y1="163.776" x2="21.6" y2="130.4687" style="fill: none;stroke: #ef464c;stroke-miterlimit: 10"/>
  <g>
    <path d="M12.42,179.54H10.9357v-.7769h3.8291v.7769H13.2872v4.3892H12.42Z"/>
    <path d="M15.3595,178.7631h.8613v2.2329h2.1768v-2.2329h.8682v5.166h-.8682v-2.1558H16.2208v2.1558h-.8613Z"/>
    <path d="M20.5851,183.7475a.9471.9471,0,0,1-.3535-.8755V179.89a1.0547,1.0547,0,0,1,.3223-.8608,1.1789,1.1789,0,0,1,.7764-.2661q.6577,0,1.1338.021t1.0928.0562v.7207H21.6036a.5357.5357,0,0,0-.3779.1226.4753.4753,0,0,0-.1328.3677v.917l2.1484.0488v.6792l-2.1484.0488v.8892a.4522.4522,0,0,0,.5039.5186h1.96v.7207q-.8818.0776-2.1279.0908A1.581,1.581,0,0,1,20.5851,183.7475Z"/>
    <path d="M25.503,179.54H24.0187v-.7769h3.8291v.7769H26.37v4.3892H25.503Z"/>
    <path d="M29.45,178.7631h1.0928l1.68,5.166h-.9033l-.3984-1.2251H29.0519l-.3926,1.2251h-.8887Zm1.2607,3.1641-.7285-2.4219-.7275,2.4219Z"/>
  </g>
  <g>
    <path d="M14.0538,250.8344a5.773,5.773,0,0,1-.7627-.1123v-.6787q.63.0557,1.5605.0557a1.5053,1.5053,0,0,0,.7109-.1328.5028.5028,0,0,0,.2412-.4834v-.2451a.5547.5547,0,0,0-.1533-.42.639.639,0,0,0-.4551-.1465H14.712a1.6314,1.6314,0,0,1-1.1025-.3223,1.3205,1.3205,0,0,1-.3672-1.043V247.04a1.3231,1.3231,0,0,1,.4063-1.0713,1.8245,1.8245,0,0,1,1.2031-.3428,7.1661,7.1661,0,0,1,.7949.0488c.2871.0322.5332.07.7383.1123v.6787q-.9448-.063-1.4346-.0635a1.23,1.23,0,0,0-.6621.1436.5853.5853,0,0,0-.22.5293v.1748a.5552.5552,0,0,0,.1709.4551.817.817,0,0,0,.5215.14H15.3a1.309,1.309,0,0,1,.99.3535,1.2909,1.2909,0,0,1,.34.9346v.3291a1.2471,1.2471,0,0,1-.4482,1.1094,2.28,2.28,0,0,1-1.2881.3047C14.6417,250.8764,14.3624,250.8618,14.0538,250.8344Z"/>
    <path d="M18.73,249.2172l-1.582-3.5488h.8965l1.1338,2.667,1.1338-2.667h.875l-1.5889,3.5488v1.6172H18.73Z"/>
    <path d="M21.8868,245.6684H22.58l2.3516,3.6885v-3.6885H25.8v5.166h-.6934L22.755,247.145v3.6895h-.8682Z"/>
    <path d="M27.382,250.6694a1.3385,1.3385,0,0,1-.5986-.78,5.1423,5.1423,0,0,1-.2061-1.6592,4.7952,4.7952,0,0,1,.21-1.6,1.3994,1.3994,0,0,1,.6152-.791,2.2024,2.2024,0,0,1,1.0508-.22,5.3552,5.3552,0,0,1,.8428.0664,5.4248,5.4248,0,0,1,.7246.1572v.665a5.8866,5.8866,0,0,0-.5986-.0771q-.3882-.0352-.7939-.0352a1.4381,1.4381,0,0,0-.7109.1436.8554.8554,0,0,0-.36.5361,4.5662,4.5662,0,0,0-.1123,1.1689,4.83,4.83,0,0,0,.1055,1.1689.8522.8522,0,0,0,.35.5391,1.4314,1.4314,0,0,0,.7217.1465,11.09,11.09,0,0,0,1.3994-.0771v.665a5.6734,5.6734,0,0,1-1.5889.1895A2.2629,2.2629,0,0,1,27.382,250.6694Z"/>
  </g>
  <line x1="21.6" y1="300.4955" x2="21.6" y2="267.1882" style="fill: none;stroke: #ef464c;stroke-miterlimit: 10"/>
  <line x1="21.1293" y1="234.8254" x2="21.1293" y2="201.5181" style="fill: none;stroke: #ef464c;stroke-miterlimit: 10"/>
</svg>
