<svg xmlns="http://www.w3.org/2000/svg" width="15.24mm" height="128.4993mm" viewBox="0 0 43.2 364.25">
  <title>TTTRI</title>
  <rect width="43.2" height="364.25" style="fill: #262730"/>
  <rect x="3.8667" y="16.75" width="35.4667" height="46.4934" rx="5.6693" ry="5.6693" style="fill: #2e3038"/>
  <g>
    <path d="M11.3311,24.0619h.8965l1.33,4.2349,1.3291-4.2349h.8965l-1.68,5.166H13.0107Z"/>
    <path d="M18.03,23.8378h.8682l-1.9668,5.894h-.8682Z"/>
    <path d="M20.2627,29.07a1.3124,1.3124,0,0,1-.6641-.7627,4.6687,4.6687,0,0,1-.2246-1.6484A4.7055,4.7055,0,0,1,19.6016,25a1.361,1.361,0,0,1,.6689-.78,2.8209,2.8209,0,0,1,1.1826-.2065,2.869,2.869,0,0,1,1.1934.2065,1.3428,1.3428,0,0,1,.6689.7769,4.7613,4.7613,0,0,1,.2236,1.6626,4.6132,4.6132,0,0,1-.2275,1.6484,1.33,1.33,0,0,1-.665.7627,2.9245,2.9245,0,0,1-1.1934.2A2.9346,2.9346,0,0,1,20.2627,29.07Zm1.9287-.7173a.8242.8242,0,0,0,.3682-.5283,4.54,4.54,0,0,0,.1113-1.1655,4.65,4.65,0,0,0-.1152-1.2041.8187.8187,0,0,0-.3672-.5322,1.6189,1.6189,0,0,0-.7354-.1328,1.5352,1.5352,0,0,0-.7207.1367.84.84,0,0,0-.3711.5317,4.49,4.49,0,0,0-.1191,1.2007,4.6513,4.6513,0,0,0,.1084,1.1689.8136.8136,0,0,0,.36.5249,2.0251,2.0251,0,0,0,1.48,0Z"/>
    <path d="M25.0439,29.0634a1.34,1.34,0,0,1-.5986-.78,5.1423,5.1423,0,0,1-.2061-1.6592,4.7913,4.7913,0,0,1,.21-1.6,1.3961,1.3961,0,0,1,.6152-.791,2.1964,2.1964,0,0,1,1.0508-.22,5.4142,5.4142,0,0,1,.8428.0664,5.5026,5.5026,0,0,1,.7246.1572v.665q-.2095-.0417-.5986-.0767T26.29,24.79a1.4381,1.4381,0,0,0-.7109.1436.8542.8542,0,0,0-.36.5356,4.5714,4.5714,0,0,0-.1123,1.1689,4.8248,4.8248,0,0,0,.1055,1.1689.85.85,0,0,0,.35.5391,1.4308,1.4308,0,0,0,.7217.147,11.1824,11.1824,0,0,0,1.3994-.0771v.665a5.6752,5.6752,0,0,1-1.5889.189A2.2634,2.2634,0,0,1,25.0439,29.0634Z"/>
    <path d="M29.5732,24.8388H28.0889v-.7769H31.918v.7769H30.4414V29.228h-.8682Z"/>
  </g>
  <circle cx="21.6" cy="45.2534" r="14.3518" style="fill: #ef464c"/>
  <rect x="3.8667" y="280.0513" width="35.4667" height="66.935" rx="5.6693" ry="5.6693" style="fill: #18191e"/>
  <g>
    <path d="M15.9932,317.5541a1.3155,1.3155,0,0,1-.665-.7627,6.1751,6.1751,0,0,1,.0039-3.3076,1.3612,1.3612,0,0,1,.668-.78,2.8265,2.8265,0,0,1,1.1836-.2061,2.8728,2.8728,0,0,1,1.1934.2061,1.3443,1.3443,0,0,1,.668.7773,4.7545,4.7545,0,0,1,.2246,1.6621,4.61,4.61,0,0,1-.2275,1.6484,1.3353,1.3353,0,0,1-.665.7627,2.9154,2.9154,0,0,1-1.1934.2A2.9191,2.9191,0,0,1,15.9932,317.5541Zm1.9287-.7168a.8245.8245,0,0,0,.3672-.5283,4.5351,4.5351,0,0,0,.1123-1.166,4.6991,4.6991,0,0,0-.1152-1.2041.8208.8208,0,0,0-.3682-.5322,1.6237,1.6237,0,0,0-.7344-.1328,1.543,1.543,0,0,0-.7217.1367.8444.8444,0,0,0-.3711.5322,4.4883,4.4883,0,0,0-.1191,1.2,4.5962,4.5962,0,0,0,.1094,1.1689.816.816,0,0,0,.36.5254,1.57,1.57,0,0,0,.7422.14A1.5762,1.5762,0,0,0,17.9219,316.8373Z"/>
    <path d="M20.5391,317.3793a1.5185,1.5185,0,0,1-.5068-1.3125v-3.5205h.86v3.5205a.8072.8072,0,0,0,.28.6963,1.7794,1.7794,0,0,0,1.666,0,.8072.8072,0,0,0,.28-.6963v-3.5205h.86v3.5205a1.5185,1.5185,0,0,1-.5068,1.3125,2.4789,2.4789,0,0,1-1.4668.3682A2.4789,2.4789,0,0,1,20.5391,317.3793Z"/>
    <path d="M25.9893,313.3227H24.5049v-.7764H28.334v.7764H26.8564v4.39h-.8672Z"/>
  </g>
  <g>
    <path d="M14.0547,250.8344a5.7909,5.7909,0,0,1-.7637-.1123v-.6787q.63.0557,1.5605.0557a1.5026,1.5026,0,0,0,.7109-.1328.5034.5034,0,0,0,.2422-.4834v-.2451a.5552.5552,0,0,0-.1543-.42.6374.6374,0,0,0-.4551-.1465h-.4824a1.636,1.636,0,0,1-1.1035-.3223,1.3239,1.3239,0,0,1-.3672-1.043V247.04a1.3231,1.3231,0,0,1,.4063-1.0713,1.8245,1.8245,0,0,1,1.2031-.3428,7.1661,7.1661,0,0,1,.7949.0488c.2871.0322.5332.07.7383.1123v.6787q-.9434-.063-1.4346-.0635a1.2236,1.2236,0,0,0-.6611.1436.5835.5835,0,0,0-.2207.5293v.1748a.5526.5526,0,0,0,.1719.4551.8133.8133,0,0,0,.5215.14h.5391a1.3119,1.3119,0,0,1,.99.3535,1.2909,1.2909,0,0,1,.34.9346v.3291a1.2474,1.2474,0,0,1-.4492,1.1094,2.279,2.279,0,0,1-1.2871.3047C14.6426,250.8764,14.3623,250.8618,14.0547,250.8344Z"/>
    <path d="M18.73,249.2172l-1.582-3.5488h.8955l1.1338,2.667,1.1348-2.667h.875l-1.59,3.5488v1.6172H18.73Z"/>
    <path d="M21.8867,245.6684H22.58l2.3516,3.6885v-3.6885h.8691v5.166h-.6934l-2.3516-3.6895v3.6895h-.8691Z"/>
    <path d="M27.3818,250.6694a1.3462,1.3462,0,0,1-.5986-.78,5.17,5.17,0,0,1-.2061-1.6592,4.7952,4.7952,0,0,1,.21-1.6,1.4074,1.4074,0,0,1,.6152-.791,2.2024,2.2024,0,0,1,1.0508-.22,5.3766,5.3766,0,0,1,.8438.0664,5.4939,5.4939,0,0,1,.7246.1572v.665a5.9519,5.9519,0,0,0-.6-.0771c-.2578-.0234-.5234-.0352-.7939-.0352a1.4339,1.4339,0,0,0-.71.1436.8526.8526,0,0,0-.3613.5361,4.5749,4.5749,0,0,0-.1113,1.1689,4.83,4.83,0,0,0,.1055,1.1689.8447.8447,0,0,0,.35.5391,1.4248,1.4248,0,0,0,.7207.1465,11.1173,11.1173,0,0,0,1.4-.0771v.665a5.6856,5.6856,0,0,1-1.59.1895A2.2629,2.2629,0,0,1,27.3818,250.6694Z"/>
  </g>
  <g>
    <path d="M13.3818,70.9306a1.0547,1.0547,0,0,1,.3223-.8608,1.1789,1.1789,0,0,1,.7764-.2661q1.38,0,2.2266.0771v.7207H14.7324a.4929.4929,0,0,0-.3594.126.4737.4737,0,0,0-.13.3574v1.043l2.1494.0488v.6792l-2.1494.0488V74.97h-.8613Z"/>
    <path d="M17.4209,69.8036h2.1006a1.5054,1.5054,0,0,1,1.043.3467,2.22,2.22,0,0,1,.1426,2.2573,1.3019,1.3019,0,0,1-.6328.4482l.9941,2.1138h-.875l-.8965-1.9878q-.4277,0-1.0146-.0142V74.97h-.8613Zm1.9531,2.4849a.691.691,0,0,0,.5215-.1924.99.99,0,0,0,.1855-.6895.8836.8836,0,0,0-.1855-.6509.7314.7314,0,0,0-.5215-.1753H18.2822v1.708Z"/>
    <path d="M22.1143,74.7875a.9483.9483,0,0,1-.3535-.875V70.9306a1.0547,1.0547,0,0,1,.3223-.8608,1.1789,1.1789,0,0,1,.7764-.2661c.4395,0,.8164.0068,1.1348.021.3164.0142.6816.0327,1.0918.0562v.7207H23.1328a.5374.5374,0,0,0-.3779.1226.4753.4753,0,0,0-.1328.3677v.917l2.1494.0488v.6792l-2.1494.0488v.8892a.4518.4518,0,0,0,.5039.5181h1.96v.7207q-.8818.0776-2.1279.0913A1.5768,1.5768,0,0,1,22.1143,74.7875Z"/>
    <path d="M26.6748,74.8119a1.3169,1.3169,0,0,1-.665-.7627,6.1751,6.1751,0,0,1,.0039-3.3076,1.3631,1.3631,0,0,1,.668-.78,2.8289,2.8289,0,0,1,1.1836-.2065,2.8721,2.8721,0,0,1,1.1934.2065,1.3381,1.3381,0,0,1,.668.7769,4.7345,4.7345,0,0,1,.2246,1.6626,4.6132,4.6132,0,0,1-.2275,1.6484,1.3335,1.3335,0,0,1-.665.7627,3.6566,3.6566,0,0,1-2.3838,0Zm1.9287-.7173a.8232.8232,0,0,0,.3672-.5283,4.5308,4.5308,0,0,0,.1123-1.1655,4.65,4.65,0,0,0-.1152-1.2041.82.82,0,0,0-.3682-.5322,1.6143,1.6143,0,0,0-.7344-.1328,1.5352,1.5352,0,0,0-.7207.1367.84.84,0,0,0-.3711.5317,4.45,4.45,0,0,0-.1191,1.2007,4.6054,4.6054,0,0,0,.1084,1.1689.8136.8136,0,0,0,.36.5249,2.0251,2.0251,0,0,0,1.48,0Zm-.4619,1.9111a1.0229,1.0229,0,0,1-.417-.7842h.6025a.499.499,0,0,0,.2373.3223.8182.8182,0,0,0,.4141.105,1.93,1.93,0,0,0,.4063-.063v.6436a1.6682,1.6682,0,0,1-.3711.0493A1.4413,1.4413,0,0,1,28.1416,76.0058Z"/>
  </g>
  <g>
    <path d="M12.3877,353.9868H11.0791V352.768h3.9756v1.2188H13.7461v3.9824H12.3877Z"/>
    <path d="M16.6582,353.9868h-1.31V352.768h3.9766v1.2188h-1.31v3.9824H16.6582Z"/>
    <path d="M19.332,355.4008H21.53v1.0771H19.332Z"/>
    <path d="M22.8457,353.9868H21.5371V352.768h3.9756v1.2188H24.2041v3.9824H22.8457Z"/>
    <path d="M26.01,352.768h2.2188a1.6022,1.6022,0,0,1,1.1553.3955,1.8269,1.8269,0,0,1,.4131,1.3545,1.861,1.861,0,0,1-.1855.9209,1.4179,1.4179,0,0,1-.5215.5146l.9033,2.0156h-1.38l-.7275-1.792h-.5176v1.792H26.01Zm1.9736,2.3311a.42.42,0,0,0,.3438-.1357.6935.6935,0,0,0,.1113-.4375.6252.6252,0,0,0-.1084-.42.4451.4451,0,0,0-.3467-.1191h-.6152v1.1123Z"/>
    <path d="M30.4893,352.768h1.3584v5.2012H30.4893Z"/>
  </g>
  <g>
    <rect x="14.4" y="3.4306" width="14.4" height="9.1667" rx="4.5833" ry="4.5833" style="fill: #ef464c"/>
    <g>
      <path d="M18.8909,6.6232H17.5741V5.398h4V6.6232H20.257V10.63H18.8909Z" style="fill: #fff"/>
      <path d="M24.3091,9.4047h1.3168V10.63h-4V9.4047H22.943V5.398h1.3661Z" style="fill: #fff"/>
    </g>
  </g>
  <g>
    <path d="M14.6309,113.3261a1.0547,1.0547,0,0,1,.3223-.8608,1.1815,1.1815,0,0,1,.7773-.2661q1.3784,0,2.2256.0771v.7207H15.9824a.4938.4938,0,0,0-.36.126.4737.4737,0,0,0-.13.3574v1.043l2.1494.0488v.6792l-2.1494.0488v2.0649h-.8613Z"/>
    <path d="M18.67,112.1992h.8613v5.166H18.67Z"/>
    <path d="M20.5527,112.1992h.6934l2.3516,3.689v-3.689h.8682v5.166h-.6934l-2.3516-3.689v3.689h-.8682Z"/>
    <path d="M25.7295,117.183a.9461.9461,0,0,1-.3535-.875v-2.9819a1.0547,1.0547,0,0,1,.3223-.8608,1.1789,1.1789,0,0,1,.7764-.2661q.6577,0,1.1338.021t1.0928.0562v.7207H26.748a.5357.5357,0,0,0-.3779.1226.4753.4753,0,0,0-.1328.3677v.917l2.1484.0488v.6792l-2.1484.0488v.8892a.4518.4518,0,0,0,.5039.5181h1.96v.7207q-.8818.0776-2.1279.0913A1.5768,1.5768,0,0,1,25.7295,117.183Z"/>
  </g>
  <line x1="21.6" y1="163.776" x2="21.6" y2="130.4687" style="fill: none;stroke: #ef464c;stroke-miterlimit: 10"/>
  <line x1="21.6" y1="300.4955" x2="21.6" y2="267.1882" style="fill: none;stroke: #ef464c;stroke-miterlimit: 10"/>
  <g>
    <path d="M12.42,179.54H10.9355v-.7769h3.8291v.7769H13.2881v4.3892H12.42Z"/>
    <path d="M15.3594,178.7631h.8613v2.2329h2.1768v-2.2329h.8682v5.166h-.8682v-2.1558H16.2207v2.1558h-.8613Z"/>
    <path d="M20.585,183.7475a.9493.9493,0,0,1-.3535-.8755V179.89a1.0547,1.0547,0,0,1,.3223-.8608,1.1815,1.1815,0,0,1,.7773-.2661q.6577,0,1.1338.021t1.0918.0562v.7207H21.6035a.539.539,0,0,0-.3779.1226.4753.4753,0,0,0-.1328.3677v.917l2.1494.0488v.6792l-2.1494.0488v.8892a.4522.4522,0,0,0,.5039.5186h1.96v.7207q-.8818.0776-2.1279.0908A1.5858,1.5858,0,0,1,20.585,183.7475Z"/>
    <path d="M25.5029,179.54H24.0186v-.7769h3.8291v.7769H26.3711v4.3892h-.8682Z"/>
    <path d="M29.4512,178.7631H30.543l1.68,5.166H31.32l-.3994-1.2251H29.0518l-.3916,1.2251h-.8887Zm1.26,3.1641-.7275-2.4219-.7285,2.4219Z"/>
  </g>
  <line x1="21.1293" y1="234.8254" x2="21.1293" y2="201.5181" style="fill: none;stroke: #ef464c;stroke-miterlimit: 10"/>
</svg>
